<?xml version="1.0" encoding="utf-8"?>
<!-- Generator: Adobe Illustrator 27.5.0, SVG Export Plug-In . SVG Version: 6.00 Build 0)  -->
<svg version="1.1" id="BACKGROUND" xmlns="http://www.w3.org/2000/svg" xmlns:xlink="http://www.w3.org/1999/xlink" x="0px" y="0px"
	 viewBox="0 0 750 500" style="enable-background:new 0 0 750 500;" xml:space="preserve">
<g>
	<linearGradient id="SVGID_1_" gradientUnits="userSpaceOnUse" x1="374.9995" y1="412.389" x2="374.9995" y2="90.856">
		<stop  offset="0" style="stop-color:#43B8E8"/>
		<stop  offset="1" style="stop-color:#005BF4"/>
	</linearGradient>
	<rect x="-0.001" y="0.001" style="fill:url(#SVGID_1_);" width="750" height="500"/>
	<g>
		<defs>
			<rect id="SVGID_00000180361102795128072330000013366452398930633630_" x="-0.001" y="0.001" width="750" height="500"/>
		</defs>
		<clipPath id="SVGID_00000167364607185863476800000007937054826939148171_">
			<use xlink:href="#SVGID_00000180361102795128072330000013366452398930633630_"  style="overflow:visible;"/>
		</clipPath>
		<g style="clip-path:url(#SVGID_00000167364607185863476800000007937054826939148171_);">
			<g>
				<path style="fill:#FFFFFF;" d="M113.395,234.915c0,0-4.479-6.592-0.97-13.617c3.517-7.027,15.394-4.888,15.394-4.888
					s-2.279-9.222,1.897-12.352c4.173-3.131,10.685-0.637,10.685-0.637s-1.652-11.634,11.83-14.631
					c13.482-2.996,17.132,10.051,17.132,10.051s9.877-22.65,24-17.216c14.123,5.441,15.505,25.733,15.505,25.733
					s4.241-5.396,12.049-1.841c7.825,3.547,6.628,12.279,6.628,12.279s8.376-8.406,16.879-2.426
					c8.5,5.979-2.428,18.251-2.428,18.251s15.92,0.728,10.744,9.275c-5.186,8.55-45.775,5.889-72.061,4.68
					c-26.29-1.211-88.064,5.55-85.208-4.702C98.343,232.626,113.395,234.915,113.395,234.915z"/>
				<g>
					<path style="fill:#DBF4FF;" d="M114.062,245.269c0,0,1.566-5.214,7.825-6.779c6.262-1.567,12.002,4.693,12.002,4.693
						s-1.045-5.218,3.651-5.741c4.695-0.522,7.823,2.613,7.823,2.613s2.088-7.304,8.345-6.786
						c6.261,0.521,10.956,8.869,10.956,8.869s0.529-8.347,5.223-9.912c4.695-1.561,9.389,1.565,9.389,1.565
						s4.17-13.042,11.996-11.999c7.827,1.048,10.435,15.65,10.435,15.65s5.216-5.216,12.004-2.605
						c6.783,2.605,6.777,8.346,6.777,8.346s4.696-5.218,8.872-3.128c4.175,2.088,3.13,5.736,3.13,5.736s2.087-3.653,11.997-5.218
						c4.168-0.658,7.086-0.378,9.127,0.15c-0.14,0.669-0.39,1.375-0.874,2.172c-5.186,8.55-45.775,5.889-72.061,4.68
						c-26.267-1.211-87.933,5.536-85.208-4.677C101.914,245.866,114.062,245.269,114.062,245.269z"/>
					<path style="fill:#DBF4FF;" d="M174.178,207.586c0,0-4.004-5.219-8.02-3.614c-4.017,1.609-3.615,7.225-3.615,7.225
						s-2.01-2.403-5.619-1.603c-3.613,0.801-2.405,6.021-2.405,6.021s-2.015-3.615-7.228-4.418c-5.216-0.803-6.42,7.226-6.42,7.226
						s4.818-2.005,7.623-0.803c2.806,1.203,4.01,3.611,4.01,3.611s2.049-3.491,4.86-3.087c2.808,0.401,5.179,2.685,5.179,2.685
						s0.044-4.249,4.213-4.773c4.17-0.523,5.821,3.17,5.821,3.17s1.285-6.305,5.134-6.824c3.854-0.518,7.829,2.088,7.829,2.088
						s-2.527-7.705-5.736-8.91C176.586,204.376,174.178,207.586,174.178,207.586z"/>
				</g>
			</g>
			<g>
				<path style="fill:#FFFFFF;" d="M-17.185,277.566c0,0-40.979,1.325-50.481-2.647c-9.503-3.971,5.345-8.606,5.345-8.606
					s-20.193-1.984-14.848-10.591c5.346-8.605,23.162-5.958,23.162-5.958s-6.532-9.928,2.97-17.212
					c9.503-7.28,27.319-5.294,27.319-5.294s-7.721-5.295-1.188-10.592c6.532-5.294,13.065,0.662,13.065,0.662
					s-1.187-9.93,13.66-13.239c14.847-3.31,23.755,9.268,23.755,9.268s4.157-3.972,13.66,0.663
					c9.502,4.633,8.908,15.226,8.908,15.226s7.721-10.593,17.817-7.945c10.097,2.648,8.908,11.916,8.908,11.916
					s5.939-5.295,15.441-3.31c9.503,1.985,10.097,9.93,10.097,9.93s14.847-14.563,27.319-10.591
					c12.472,3.97,10.096,15.886,10.096,15.886s13.659-5.295,17.222-0.662c3.564,4.632-2.969,13.901-2.969,13.901
					s5.939-0.663,8.314,2.648c2.376,3.31-2.969,5.294-2.969,5.294s23.162,6.621,20.786,17.874
					c-2.375,11.254-76.612,9.268-92.053,9.268c-15.441,0-1.782-10.594-1.782-10.594s-85.52,3.311-98.585,1.987
					C-27.282,283.523-17.185,277.566-17.185,277.566z"/>
				<g>
					<path style="fill:#DBF4FF;" d="M156.824,272.271c-8.314-3.972-8.908,5.959-8.908,5.959s-8.315-11.255-22.568-13.24
						c-14.254-1.985-17.223,13.24-17.223,13.24s-5.939-9.269-15.441-9.931c-9.502-0.663-13.065,7.943-13.065,7.943
						s2.969-8.606-5.345-15.225c-8.315-6.619-26.132-4.634-26.132-4.634s1.188-5.958-4.751-8.606
						c-5.939-2.648-12.472,1.985-12.472,1.985s-9.502-9.928-19.598-8.606c-10.096,1.324-11.878,12.579-11.878,12.579
						s-4.157-2.648-16.035,0c-11.877,2.648-8.314,13.238-8.314,13.238s-9.502,0.661-20.786,0
						c-11.284-0.663-14.254-5.296-14.254-5.296c-9.45,0.728-14.951-1.735-18.005-4.106c-1.584,7.043,15.63,8.739,15.63,8.739
						s-14.848,4.636-5.345,8.606c9.502,3.973,50.481,2.647,50.481,2.647s-10.096,5.957,2.969,7.282
						c13.066,1.324,98.585-1.987,98.585-1.987s-13.659,10.594,1.782,10.594c15.441,0,89.678,1.985,92.053-9.268
						c0.455-2.152-0.03-4.136-1.103-5.934C170.782,283.162,163.429,275.425,156.824,272.271z"/>
					<path style="fill:#DBF4FF;" d="M-4.714,229.245c0,0,3.563-10.593,8.314-11.917c4.75-1.325,10.689,4.634,10.689,4.634
						s6.534-1.985,10.691,0c4.157,1.985,1.782,5.295,1.782,5.295s-4.752-1.325-9.502,0c-4.752,1.324-5.939,4.633-5.939,4.633
						s-1.188-3.97-5.345-5.294C1.819,225.272-4.714,229.245-4.714,229.245z"/>
				</g>
			</g>
			<g>
				<path style="fill:#FFFFFF;" d="M510.681,95.311c0,0,2.412-3.55,0.523-7.333c-1.895-3.785-8.29-2.633-8.29-2.633
					s1.228-4.966-1.021-6.651c-2.247-1.686-5.754-0.343-5.754-0.343s0.89-6.265-6.371-7.879c-7.26-1.613-9.226,5.412-9.226,5.412
					s-5.319-12.197-12.926-9.271c-7.605,2.93-8.35,13.857-8.35,13.857s-2.284-2.904-6.488-0.991
					c-4.214,1.911-3.569,6.612-3.569,6.612s-4.511-4.525-9.089-1.305c-4.578,3.22,1.307,9.828,1.307,9.828s-8.574,0.393-5.785,4.996
					c2.792,4.604,24.65,3.171,38.806,2.52c14.158-0.652,47.425,2.989,45.886-2.532C518.787,94.079,510.681,95.311,510.681,95.311z"
					/>
				<g>
					<path style="fill:#DBF4FF;" d="M510.323,100.888c0,0-0.844-2.809-4.214-3.651c-3.373-0.843-6.463,2.528-6.463,2.528
						s0.563-2.81-1.967-3.092c-2.528-0.281-4.213,1.406-4.213,1.406s-1.124-3.935-4.495-3.653c-3.371,0.281-5.899,4.775-5.899,4.775
						s-0.284-4.495-2.813-5.337c-2.528-0.843-5.056,0.842-5.056,0.842s-2.246-7.025-6.46-6.462
						c-4.216,0.563-5.619,8.428-5.619,8.428s-2.809-2.808-6.465-1.404c-3.653,1.404-3.649,4.496-3.649,4.496
						s-2.529-2.81-4.777-1.686c-2.249,1.124-1.686,3.09-1.686,3.09s-1.124-1.968-6.462-2.81c-2.243-0.355-3.815-0.203-4.915,0.08
						c0.077,0.36,0.211,0.741,0.472,1.17c2.792,4.604,24.65,3.171,38.806,2.52c14.146-0.652,47.355,2.981,45.886-2.518
						C516.864,101.208,510.323,100.888,510.323,100.888z"/>
					<path style="fill:#DBF4FF;" d="M477.949,80.594c0,0,2.156-2.81,4.319-1.946c2.163,0.866,1.946,3.891,1.946,3.891
						s1.083-1.295,3.026-0.864c1.944,0.432,1.295,3.243,1.295,3.243s1.085-1.947,3.893-2.379c2.81-0.432,3.457,3.891,3.457,3.891
						s-2.595-1.08-4.104-0.432c-1.513,0.649-2.16,1.944-2.16,1.944s-1.103-1.88-2.617-1.663c-1.512,0.216-2.789,1.447-2.789,1.447
						s-0.023-2.29-2.27-2.572c-2.245-0.281-3.134,1.708-3.134,1.708s-0.691-3.395-2.766-3.674c-2.075-0.279-4.215,1.124-4.215,1.124
						s1.36-4.149,3.089-4.798C476.652,78.865,477.949,80.594,477.949,80.594z"/>
				</g>
			</g>
			<g>
				<path style="fill:#FFFFFF;" d="M598.514,284.135c0,0-27.535-1.448-28.26,10.87c-0.724,12.318,28.984,13.768,28.984,13.768
					s-2.897,7.246,8.695,7.246c11.594,0,20.042-2.316,20.042-2.316s-1.202,7.389,26.334,6.664
					c27.534-0.725,60.867-2.174,58.693-8.695c-2.173-6.52-11.594-5.073-11.594-5.073s4.348-10.869-4.348-13.043
					c-8.695-2.173-15.941,0-15.941,0s7.246-7.245,4.348-10.868c-2.898-3.624-9.42-1.449-9.42-1.449s-2.174-14.492-10.145-14.492
					c-7.972,0-13.043,5.071-13.043,5.071s1.449-25.361-13.768-23.912c-15.218,1.45-16.666,13.769-16.666,13.769
					s-6.523-6.523-11.594-3.624c-5.072,2.9-1.449,10.87-1.449,10.87s-7.247-3.624-10.87,2.173
					C594.891,276.89,598.514,284.135,598.514,284.135z"/>
				<g>
					<path style="fill:#DBF4FF;" d="M679.426,312.487c0,0-0.81-6.077-9.317-6.482c-8.508-0.404-11.749,4.051-11.749,4.051
						s-1.215-6.887-6.481-7.291c-5.268-0.404-8.509,4.861-8.509,4.861s-2.026-10.533-12.153-9.318
						c-10.127,1.215-13.774,12.152-13.774,12.152s0.811-3.239-2.025-4.455c-2.835-1.215-8.102,2.432-8.102,2.432
						s3.242-7.699-3.24-8.914c-6.482-1.215-11.749,4.053-11.749,4.053s0.405-5.268-5.672-6.888c-6.076-1.62-9.723,3.645-9.723,3.645
						c-2.474-0.275-4.424-0.972-5.935-1.77c4.521,9.045,28.242,10.21,28.242,10.21s-2.897,7.246,8.695,7.246
						c11.594,0,20.042-2.316,20.042-2.316s-1.202,7.389,26.334,6.664c27.534-0.725,60.867-2.174,58.693-8.695
						c-0.048-0.146-0.118-0.267-0.174-0.405C703.581,318.937,679.426,312.487,679.426,312.487z"/>
					<path style="fill:#DBF4FF;" d="M617.542,279.73c0,0-0.354-5.674,5.319-7.802c5.673-2.127,9.574,6.738,9.574,6.738
						s1.773-5.676,6.029-5.32c4.255,0.355,2.837,7.093,2.837,7.093s4.964-4.966,9.93-3.191c4.964,1.774,3.899,9.221,3.899,9.221
						s-2.835-3.901-6.736-3.901c-3.901,0-6.029,3.191-6.029,3.191s-1.773-4.611-4.964-3.901c-3.192,0.71-2.838,4.256-2.838,4.256
						s-2.836-4.965-6.384-4.965c-3.546,0-4.965,5.32-4.965,5.32s-3.9-1.064-6.384-0.71c-2.481,0.354-4.255,3.191-4.255,3.191
						S611.869,281.147,617.542,279.73z"/>
				</g>
			</g>
			<g>
				<path style="fill:#FFFFFF;" d="M197.328,377.288c11.139-0.349,72.51,1.216,81.5,1.216c8.991,0,9.698-3.653,9.349-5.393
					c-0.348-1.739-6.266-3.133-6.266-3.133s8.006-0.349,9.398-3.132c1.393-2.785-1.741-5.917-1.741-5.917s25.411,1.393,26.106-5.919
					c0.697-7.31-8.006-9.745-8.006-9.745s5.555-10.547-1.226-16.064c-6.78-5.517-20.137,0-20.137,0s2.518-13.666-8.99-14.384
					c-11.507-0.721-18.34,10.787-18.34,10.787s-2.876-5.394-7.551-3.235c-4.674,2.157-2.877,7.19-2.877,7.19
					s-8.407-5.528-14.672,0.738c-4.886,4.885,1.367,12.208,1.367,12.208s-8.271-1.439-10.069,1.438
					c-1.798,2.878,1.439,4.677,1.439,4.677s-14.385-2.519-16.901,3.235c-2.518,5.754,0.719,8.989,0.719,8.989
					s-17.26-0.358-18.34,3.597c-1.078,3.955,7.192,5.392,7.192,5.392s-17.62-0.718-17.62,3.237
					C181.664,377.026,186.189,377.635,197.328,377.288z"/>
				<g>
					<path style="fill:#DBF4FF;" d="M300.36,356.055c0,0-7.31-6.267-17.404-4.874c-10.094,1.392-11.835,11.486-11.835,11.486
						s-2.784-5.568-6.613-5.568c-3.83,0-6.266,4.525-6.266,4.525s-4.873-8.702-11.834-6.614c-6.962,2.09-6.266,11.488-6.266,11.488
						s-5.221-4.524-9.05-3.134c-3.829,1.392-4.177,5.917-4.177,5.917s-5.569-4.177-13.575-4.525
						c-8.006-0.349-9.398,4.525-9.398,4.525s-2.437,6.267-13.227,5.569c-4.572-0.294-7.319-1.216-8.982-2.178
						c-0.042,0.128-0.069,0.259-0.069,0.397c0,3.956,4.526,4.566,15.664,4.218c11.139-0.349,72.51,1.216,81.5,1.216
						c8.991,0,9.698-3.653,9.349-5.393c-0.348-1.739-6.266-3.133-6.266-3.133s8.006-0.349,9.398-3.132
						c1.393-2.785-1.741-5.917-1.741-5.917s25.411,1.393,26.106-5.919c0.058-0.603,0.031-1.158-0.029-1.696
						C311.289,358.947,300.36,356.055,300.36,356.055z"/>
					<path style="fill:#DBF4FF;" d="M250.541,342.406c0,0-1.466-4.399,2.2-5.865c3.667-1.468,6.11,1.954,6.11,1.954
						s0.733-3.422,3.178-3.422c2.444,0,2.689,3.422,2.689,3.422s2.444-6.11,7.332-6.11c4.888,0,4.643,6.844,4.643,6.844
						s0.978-1.222,2.933,0.244c1.956,1.468-1.955,4.155-1.955,4.155s-1.466-4.155-5.378-3.666c-3.91,0.488-5.132,3.422-5.132,3.422
						s-2.688-3.422-5.132-3.178c-2.444,0.244-2.934,3.666-2.934,3.666s-1.956-3.177-4.399-3.177
						C252.253,340.695,250.541,342.406,250.541,342.406z"/>
				</g>
			</g>
			<g>
				<path style="fill:#FFFFFF;" d="M412.629,320.226c0,0-3.702-16.546,10.871-17.359c14.575-0.809,12.484,12.763,12.484,12.763
					s14.629-5.666,23.281,2.196c8.652,7.864,5.602,20.453,5.602,20.453s7.798-2.827,13.571,2.092
					c5.771,4.919,2.74,15.565,2.74,15.565s18.514-5.622,30.004,9.069c11.492,14.69-3.221,28.123-3.221,28.123
					s21.424-5.59,27.065,10.98c5.646,16.57-20.718,29.875-20.718,29.875s17.551-6.604,18.396,5.057
					c0.843,11.662-11.833,16.379-11.833,16.379s29.714-3.558,29.543,11.977c-0.171,15.534-15.395,26.05-15.395,26.05
					s49.484,3.456,49.379,13.165c-0.107,9.709-61.233,5.152-87.459,5.838c-26.225,0.683-217.486-2.387-230.108-2.525
					c-12.621-0.138-15.438-8.909-5.676-13.657c9.763-4.749,20.442-4.632,20.442-4.632s-12.504-10.816-4.652-18.5
					c7.853-7.681,30.152-4.523,30.152-4.523s-26.93-23.601-10.296-35.073c16.634-11.468,66.961,3.65,66.961,3.65
					s-12.439-16.642-3.606-25.285c8.835-8.643,18.492-3.682,18.492-3.682s-9.54-19.627-0.672-31.031
					c8.868-11.405,22.84-10.403,22.84-10.403s-24.71-13.902-14.553-33.25C396.423,314.184,412.629,320.226,412.629,320.226z"/>
				<g>
					<path style="fill:#DBF4FF;" d="M522.22,499.5c0,0,4.369-9.895-2.652-17.072c-7.023-7.181-19.884-0.218-19.884-0.218
						s13.016-21.164-0.412-26.991c-13.43-5.831-22.739,1.17-22.739,1.17s2.269-12.759-5.519-14.975
						c-7.786-2.216-15.659,3.379-15.659,3.379s-1.203-19.898-17.55-18.656c-16.348,1.239-20.186,27.474-20.186,27.474
						s-4.144-10.697-19.079-8.73c-14.935,1.967-16.603,24.673-16.603,24.673s-9.88-5.789-17.012-3.027
						c-7.132,2.763-7.194,8.444-7.194,8.444s-8.428-8.615-22.699-2.381c-14.271,6.235-13.039,23.295-13.039,23.295
						s-7.03-6.471-14.881-3.005c-7.849,3.465-5.117,13.436-5.117,13.436s-12.025-4.394-24.799-5.242
						c-7.327-0.489-15.844,1.347-21.778,3.001c0.622,3.143,4.557,5.774,11.417,5.85c12.623,0.139,203.884,3.208,230.108,2.525
						c26.226-0.686,87.352,3.871,87.459-5.838c0.009-0.878-0.4-1.705-1.131-2.484C565.867,514.239,522.22,499.5,522.22,499.5z"/>
					<path style="fill:#DBF4FF;" d="M420.987,388.596c0,0,2.349-10.469,13.078-13.768c10.731-3.301,16.974,10.263,16.974,10.263
						s5.743-5.618,10.699-4.145c4.953,1.476,4.343,7.514,4.343,7.514s8.986-5.064,16.548-1.006
						c7.561,4.057,6.927,21.209,6.927,21.209s-4.791-8.657-11.239-11.103c-6.447-2.446-13.545,3.633-13.545,3.633
						s-3.679-7.045-9.568-8.686c-5.891-1.64-9.873,6.363-9.873,6.363s-0.594-12.451-8.8-13.595
						C428.323,384.131,420.987,388.596,420.987,388.596z"/>
				</g>
			</g>
			<g>
				<path style="fill:#FFFFFF;" d="M175.299,502.565c0,0-159.633,3.013-181.719,5.02c-22.088,2.006-45.181-1.005-40.16-7.027
					c5.019-6.024,18.072-7.028,18.072-7.028s-16.064-6.025-45.179-4.017c-29.116,2.01-63.252,3.013-66.264-7.027
					c-3.011-10.039,25.1-16.063,25.1-16.063s-6.022-14.056,12.048-20.08c18.072-6.025,46.183-6.025,46.183-6.025
					s-10.04-7.027-5.021-13.05c5.021-6.025,13.053-2.007,13.053-2.007s-9.035-17.07-2.008-28.113
					c7.028-11.044,35.14-15.061,35.14-15.061s-16.064-17.065-5.02-29.115C-9.433,340.926,9.643,339.92,9.643,339.92
					s-8.032-22.086,6.023-29.118c14.057-7.023,28.563,0.38,32.721,9.731c4.156,9.355,1.038,23.901,1.038,23.901
					s10.392-3.116,13.51,4.159c3.118,7.274-4.097,15.42-4.097,15.42s14.055-9.033,26.103,1.007
					c12.048,10.037,12.048,25.099,12.048,25.099s15.059-26.105,36.143-15.062c21.084,11.045,10.04,30.122,10.04,30.122
					s16.064-5.023,25.1,6.021c9.036,11.046-1.004,24.097-1.004,24.097s16.064-9.036,31.124,0
					c15.059,9.036,11.044,37.147,11.044,37.147s33.13-3.012,60.237,9.035c27.109,12.048-4.015,20.079-22.086,19.076
					C229.515,499.551,175.299,502.565,175.299,502.565z"/>
				<g>
					<path style="fill:#DBF4FF;" d="M274.461,483.92c-19.589,10.855-69.156,1.85-69.156,1.85s0-11.432-5.194-13.511
						c-5.196-2.079-11.432,2.079-11.432,2.079s5.196-23.902-8.314-25.98c-13.51-2.079-17.666,13.51-17.666,13.51
						s-8.314-22.863-28.059-15.589c-19.745,7.275-17.666,38.45-17.666,38.45s-3.118-13.51-13.51-14.549
						c-10.392-1.04-20.784,11.43-20.784,11.43s-2.079-28.056-12.471-30.136c-10.393-2.076-14.55,4.158-14.55,4.158
						s-3.117-22.863-15.587-21.824c-12.471,1.039-15.589,18.705-15.589,18.705s-10.391-25.98-34.293-18.705
						c-23.901,7.274-21.823,35.332-21.823,35.332s-7.275-12.469-20.785-9.351c-13.508,3.115-7.273,15.586-7.273,15.586
						s-4.157,6.234-45.725,9.354c-20.665,1.553-30.281-0.753-34.733-3.461c0.023,0.4,0.077,0.801,0.2,1.217
						c3.012,10.04,37.148,9.037,66.264,7.027c29.115-2.009,45.179,4.017,45.179,4.017s-13.053,1.004-18.072,7.028
						c-5.021,6.022,18.072,9.033,40.16,7.027c22.085-2.007,181.719-5.02,181.719-5.02s54.216-3.014,72.287-2.008
						C264.407,501.492,292.512,494.592,274.461,483.92z"/>
					<path style="fill:#DBF4FF;" d="M-5.656,394.249c0,0-0.895-8.459,9.832-13.291c10.724-4.833,15.194,6.039,15.194,6.039
						s2.68-3.623,9.831-3.623c7.151,0,9.832,8.457,9.832,8.457s-4.156-1.861-10.725-0.603c-5.416,1.037-8.938,7.248-8.938,7.248
						s-0.602-8.981-9.436-10.208C1.102,387.043-5.656,394.249-5.656,394.249z"/>
					<path style="fill:#DBF4FF;" d="M99.298,434.847c0,0-0.65-11.079,7.146-15.512c7.797-4.432,18.842,3.69,18.842,3.69
						s-10.395,0-14.943,2.217C105.796,427.461,99.298,434.847,99.298,434.847z"/>
				</g>
			</g>
			<g>
				<path style="fill:#FFFFFF;" d="M395.737,20.791c0,0,28.161-1.482,28.901,11.116c0.741,12.598-29.643,14.081-29.643,14.081
					s2.964,7.411-8.894,7.411c-11.856,0-20.496-2.37-20.496-2.37s1.229,7.557-26.932,6.816c-28.161-0.741-62.251-2.223-60.028-8.894
					c2.223-6.669,11.858-5.188,11.858-5.188s-4.447-11.116,4.446-13.339c8.892-2.223,16.303,0,16.303,0s-7.411-7.411-4.446-11.116
					c2.965-3.706,9.634-1.482,9.634-1.482s2.223-14.821,10.375-14.821c8.152,0,13.339,5.187,13.339,5.187
					s-1.482-25.938,14.08-24.455c15.563,1.482,17.045,14.081,17.045,14.081s6.67-6.67,11.857-3.706
					c5.188,2.965,1.482,11.116,1.482,11.116s7.411-3.706,11.116,2.223C399.442,13.38,395.737,20.791,395.737,20.791z"/>
				<g>
					<path style="fill:#DBF4FF;" d="M312.986,49.786c0,0,0.829-6.216,9.529-6.63c8.702-0.414,12.016,4.143,12.016,4.143
						s1.243-7.044,6.628-7.458c5.387-0.414,8.701,4.972,8.701,4.972s2.072-10.773,12.43-9.53
						c10.357,1.243,14.087,12.429,14.087,12.429s-0.828-3.313,2.072-4.557c2.898-1.243,8.286,2.486,8.286,2.486
						s-3.316-7.874,3.313-9.116c6.631-1.243,12.017,4.144,12.017,4.144s-0.414-5.387,5.801-7.043
						c6.215-1.657,9.943,3.729,9.943,3.729c2.53-0.282,4.524-0.994,6.069-1.81c-4.622,9.25-28.884,10.441-28.884,10.441
						s2.964,7.411-8.894,7.411c-11.856,0-20.496-2.37-20.496-2.37s1.229,7.557-26.932,6.816
						c-28.161-0.741-62.251-2.223-60.028-8.894c0.05-0.149,0.122-0.272,0.178-0.414C288.283,56.382,312.986,49.786,312.986,49.786z"
						/>
					<path style="fill:#DBF4FF;" d="M376.277,16.285c0,0,0.362-5.803-5.441-7.979c-5.802-2.176-9.791,6.891-9.791,6.891
						s-1.814-5.804-6.167-5.441c-4.352,0.365-2.9,7.254-2.9,7.254s-5.077-5.078-10.156-3.264c-5.077,1.814-3.988,9.43-3.988,9.43
						s2.9-3.99,6.89-3.99c3.989,0,6.166,3.264,6.166,3.264s1.814-4.716,5.077-3.99c3.265,0.726,2.901,4.353,2.901,4.353
						s2.9-5.078,6.529-5.078c3.626,0,5.077,5.441,5.077,5.441s3.99-1.087,6.529-0.726c2.537,0.363,4.352,3.264,4.352,3.264
						S382.079,17.734,376.277,16.285z"/>
				</g>
			</g>
			<g>
				<path style="fill:#FFFFFF;" d="M769.066,151.592c-14.659-0.458-95.432,1.601-107.266,1.601c-11.831,0-12.761-4.809-12.305-7.099
					c0.458-2.289,8.247-4.124,8.247-4.124s-10.537-0.458-12.369-4.122c-1.833-3.665,2.29-7.787,2.29-7.787
					s-33.443,1.833-34.358-7.789c-0.918-9.621,10.536-12.827,10.536-12.827s-7.311-13.882,1.614-21.143
					c8.923-7.261,26.503,0,26.503,0s-3.313-17.985,11.831-18.932c15.144-0.947,24.137,14.199,24.137,14.199s3.787-7.1,9.94-4.259
					c6.153,2.84,3.787,9.464,3.787,9.464s11.063-7.276,19.31,0.971c6.431,6.429-1.799,16.068-1.799,16.068
					s10.884-1.895,13.251,1.892c2.367,3.786-1.894,6.154-1.894,6.154s18.933-3.313,22.245,4.259
					c3.313,7.573-0.947,11.831-0.947,11.831s22.718-0.473,24.138,4.733c1.42,5.206-9.464,7.098-9.464,7.098s23.19-0.946,23.19,4.26
					C789.682,151.249,783.724,152.05,769.066,151.592z"/>
				<g>
					<path style="fill:#DBF4FF;" d="M633.463,123.647c0,0,9.619-8.247,22.904-6.414c13.285,1.832,15.577,15.118,15.577,15.118
						s3.664-7.33,8.702-7.33c5.042,0,8.247,5.955,8.247,5.955s6.414-11.452,15.576-8.704c9.162,2.749,8.246,15.118,8.246,15.118
						s6.872-5.954,11.911-4.123c5.039,1.832,5.497,7.788,5.497,7.788s7.33-5.497,17.867-5.956
						c10.536-0.459,12.368,5.956,12.368,5.956s3.209,8.247,17.409,7.33c6.018-0.387,9.635-1.6,11.823-2.866
						c0.054,0.167,0.09,0.341,0.09,0.522c0,5.207-5.958,6.008-20.616,5.551c-14.659-0.458-95.432,1.601-107.266,1.601
						c-11.831,0-12.761-4.809-12.305-7.099c0.458-2.289,8.247-4.124,8.247-4.124s-10.537-0.458-12.369-4.122
						c-1.833-3.665,2.29-7.787,2.29-7.787s-33.443,1.833-34.358-7.789c-0.076-0.794-0.042-1.525,0.037-2.233
						C619.081,127.453,633.463,123.647,633.463,123.647z"/>
					<path style="fill:#DBF4FF;" d="M699.03,105.684c0,0,1.929-5.79-2.896-7.72c-4.824-1.931-8.041,2.573-8.041,2.573
						s-0.965-4.503-4.184-4.503c-3.215,0-3.538,4.503-3.538,4.503s-3.216-8.042-9.648-8.042c-6.435,0-6.112,9.007-6.112,9.007
						s-1.287-1.608-3.859,0.322c-2.574,1.93,2.572,5.468,2.572,5.468s1.931-5.469,7.077-4.825c5.146,0.643,6.756,4.504,6.756,4.504
						s3.538-4.504,6.753-4.182c3.218,0.321,3.863,4.825,3.863,4.825s2.573-4.182,5.789-4.182
						C696.778,103.432,699.03,105.684,699.03,105.684z"/>
				</g>
			</g>
			<g>
				<path style="fill:#FFFFFF;" d="M170.972-1.321c0,0,3.179-13.512-8.743-14.308c-11.924-0.793-10.334,10.334-10.334,10.334
					s-11.923-4.768-19.076,1.59c-7.153,6.358-4.769,16.691-4.769,16.691s-6.358-2.384-11.128,1.59
					c-4.768,3.975-2.383,12.717-2.383,12.717s-15.104-4.769-24.641,7.154c-9.539,11.921,2.384,23.048,2.384,23.048
					s-17.487-4.767-22.254,8.745c-4.77,13.513,16.691,24.64,16.691,24.64s-14.307-5.563-15.103,3.974
					c-0.794,9.538,9.538,13.512,9.538,13.512s-24.289-3.178-24.289,9.539s12.367,21.461,12.367,21.461s-40.537,2.383-40.537,10.332
					c0,7.948,50.075,4.768,71.537,5.564c21.46,0.794,178.042,0,188.376,0c10.332,0,12.717-7.154,4.769-11.127
					c-7.949-3.976-16.692-3.976-16.692-3.976s10.333-8.742,3.975-15.102c-6.359-6.357-24.641-3.974-24.641-3.974
					s22.254-19.076,8.743-28.616c-13.513-9.537-54.843,2.385-54.843,2.385s10.331-13.511,3.179-20.664
					c-7.154-7.153-15.103-3.18-15.103-3.18s7.985-15.98,0.829-25.395c-7.157-9.414-18.603-8.72-18.603-8.72
					s20.35-11.158,12.21-27.087C184.291-6.121,170.972-1.321,170.972-1.321z"/>
				<g>
					<path style="fill:#DBF4FF;" d="M79.656,144.438c0,0-3.488-8.139,2.324-13.951c5.813-5.814,16.277,0,16.277,0
						s-10.463-17.44,0.58-22.09c11.045-4.652,18.603,1.162,18.603,1.162s-1.743-10.463,4.651-12.207
						c6.394-1.744,12.788,2.906,12.788,2.906s1.164-16.276,14.534-15.112c13.369,1.161,16.276,22.67,16.276,22.67
						s3.488-8.719,15.695-6.976c12.206,1.744,13.37,20.345,13.37,20.345s8.139-4.65,13.952-2.325
						c5.813,2.325,5.813,6.976,5.813,6.976s6.977-6.976,18.602-1.744c11.626,5.232,10.463,19.184,10.463,19.184
						s5.813-5.233,12.208-2.326c6.394,2.907,4.068,11.044,4.068,11.044s9.883-3.488,20.346-4.068
						c6.001-0.335,12.956,1.244,17.799,2.652c-0.537,2.567-3.782,4.686-9.397,4.686c-10.334,0-166.917,0.794-188.376,0
						c-21.461-0.796-71.537,2.384-71.537-5.564c0-0.719,0.342-1.393,0.948-2.023C43.797,156.11,79.656,144.438,79.656,144.438z"/>
					<path style="fill:#DBF4FF;" d="M163.516,54.567c0,0-1.828-8.59-10.582-11.387c-8.754-2.797-13.985,8.248-13.985,8.248
						s-4.65-4.65-8.721-3.487c-4.068,1.163-3.622,6.111-3.622,6.111s-7.311-4.226-13.536-0.972
						c-6.225,3.252-5.861,17.298-5.861,17.298s4-7.043,9.3-8.987c5.299-1.944,11.055,3.095,11.055,3.095s3.074-5.733,7.91-7.023
						c4.837-1.289,8.025,5.297,8.025,5.297s0.597-10.187,7.324-11.049C157.551,50.847,163.516,54.567,163.516,54.567z"/>
				</g>
			</g>
			<g>
				<path style="fill:#FFFFFF;" d="M620.056,507.131c0,0,115.358,2.177,131.318,3.628c15.961,1.449,32.649-0.727,29.021-5.079
					c-3.626-4.353-13.06-5.078-13.06-5.078s11.609-4.355,32.649-2.903c21.04,1.452,45.707,2.177,47.885-5.078
					c2.175-7.255-18.138-11.608-18.138-11.608s4.352-10.156-8.707-14.51c-13.06-4.354-33.375-4.354-33.375-4.354
					s7.256-5.078,3.629-9.43c-3.629-4.354-9.432-1.451-9.432-1.451s6.529-12.335,1.451-20.315
					c-5.079-7.981-25.394-10.884-25.394-10.884s11.608-12.332,3.628-21.04c-7.982-8.704-21.767-9.431-21.767-9.431
					s5.805-15.96-4.352-21.042c-10.158-5.075-20.641,0.273-23.645,7.032c-3.004,6.761-0.751,17.272-0.751,17.272
					s-7.51-2.252-9.763,3.006c-2.254,5.257,2.961,11.143,2.961,11.143s-10.157-6.528-18.864,0.728
					c-8.706,7.254-8.706,18.138-8.706,18.138s-10.882-18.865-26.119-10.884c-15.235,7.98-7.254,21.767-7.254,21.767
					s-11.61-3.63-18.139,4.352c-6.53,7.982,0.725,17.413,0.725,17.413s-11.607-6.529-22.491,0
					c-10.882,6.53-7.981,26.845-7.981,26.845s-23.942-2.176-43.53,6.529c-19.59,8.707,2.901,14.51,15.96,13.785
					C580.878,504.954,620.056,507.131,620.056,507.131z"/>
				<g>
					<path style="fill:#DBF4FF;" d="M548.398,493.658c14.156,7.846,49.975,1.337,49.975,1.337s0-8.261,3.754-9.764
						c3.754-1.502,8.26,1.503,8.26,1.503s-3.754-17.273,6.01-18.774c9.763-1.504,12.766,9.762,12.766,9.762
						s6.008-16.521,20.276-11.266c14.269,5.258,12.767,27.787,12.767,27.787s2.253-9.764,9.764-10.514
						c7.51-0.752,15.019,8.26,15.019,8.26s1.503-20.275,9.012-21.777c7.511-1.502,10.515,3.004,10.515,3.004
						s2.253-16.521,11.264-15.771c9.013,0.751,11.266,13.517,11.266,13.517s7.51-18.774,24.782-13.517
						c17.271,5.257,15.771,25.532,15.771,25.532s5.257-9.011,15.02-6.758c9.763,2.252,5.257,11.264,5.257,11.264
						s3.004,4.506,33.043,6.76c14.934,1.121,21.883-0.544,25.1-2.501c-0.016,0.289-0.057,0.579-0.144,0.879
						c-2.178,7.255-26.845,6.53-47.885,5.078c-21.04-1.451-32.649,2.903-32.649,2.903s9.434,0.726,13.06,5.078
						c3.629,4.353-13.06,6.528-29.021,5.079c-15.96-1.451-131.318-3.628-131.318-3.628s-39.179-2.178-52.238-1.451
						C555.663,506.355,535.352,501.371,548.398,493.658z"/>
					<path style="fill:#DBF4FF;" d="M750.823,428.857c0,0,0.647-6.112-7.105-9.604c-7.749-3.492-10.98,4.364-10.98,4.364
						s-1.938-2.619-7.104-2.619c-5.168,0-7.104,6.111-7.104,6.111s3.003-1.345,7.75-0.435c3.913,0.749,6.458,5.238,6.458,5.238
						s0.435-6.491,6.819-7.377C745.939,423.651,750.823,428.857,750.823,428.857z"/>
					<path style="fill:#DBF4FF;" d="M674.977,458.196c0,0,0.47-8.007-5.164-11.21c-5.635-3.203-13.615,2.668-13.615,2.668
						s7.512,0,10.798,1.601C670.282,452.858,674.977,458.196,674.977,458.196z"/>
				</g>
			</g>
			<g>
				<path style="fill:#FFFFFF;" d="M658.153,180.96c0,0,38.422,1.114,47.332-2.228c8.91-3.339-5.012-7.239-5.012-7.239
					s18.934-1.67,13.922-8.909c-5.013-7.239-21.717-5.012-21.717-5.012s6.124-8.352-2.786-14.479
					c-8.908-6.124-25.613-4.454-25.613-4.454s7.238-4.454,1.113-8.91c-6.125-4.454-12.25,0.557-12.25,0.557
					s1.113-8.353-12.808-11.137c-13.921-2.784-22.273,7.796-22.273,7.796s-3.898-3.341-12.808,0.557
					c-8.909,3.897-8.352,12.808-8.352,12.808s-7.239-8.91-16.706-6.683c-9.466,2.227-8.352,10.023-8.352,10.023
					s-5.569-4.454-14.479-2.784c-8.909,1.669-9.467,8.353-9.467,8.353s-13.921-12.251-25.615-8.909
					c-11.692,3.34-9.465,13.364-9.465,13.364s-12.807-4.455-16.149-0.557c-3.341,3.896,2.784,11.693,2.784,11.693
					s-5.568-0.558-7.796,2.228c-2.228,2.784,2.784,4.454,2.784,4.454s-21.717,5.569-19.489,15.035
					c2.226,9.467,71.832,7.796,86.31,7.796c14.477,0,1.671-8.911,1.671-8.911s80.185,2.786,92.435,1.671
					C667.621,185.972,658.153,180.96,658.153,180.96z"/>
				<g>
					<path style="fill:#DBF4FF;" d="M494.999,176.505c7.796-3.34,8.353,5.013,8.353,5.013s7.797-9.467,21.16-11.137
						c13.365-1.669,16.148,11.137,16.148,11.137s5.568-7.796,14.477-8.353c8.91-0.558,12.25,6.682,12.25,6.682
						s-2.783-7.239,5.012-12.807c7.796-5.567,24.502-3.897,24.502-3.897s-1.114-5.012,4.454-7.239
						c5.568-2.227,11.694,1.67,11.694,1.67s8.909-8.352,18.375-7.239c9.467,1.114,11.138,10.581,11.138,10.581s3.896-2.228,15.033,0
						c11.138,2.228,7.796,11.136,7.796,11.136s8.909,0.557,19.489,0c10.58-0.557,13.364-4.455,13.364-4.455
						c8.86,0.612,14.019-1.46,16.882-3.454c1.485,5.924-14.654,7.352-14.654,7.352s13.922,3.899,5.012,7.239
						c-8.91,3.342-47.332,2.228-47.332,2.228s9.468,5.011-2.783,6.125c-12.25,1.114-92.435-1.671-92.435-1.671
						s12.806,8.911-1.671,8.911c-14.478,0-84.084,1.671-86.31-7.796c-0.426-1.81,0.028-3.478,1.035-4.992
						C481.914,185.667,488.808,179.159,494.999,176.505z"/>
					<path style="fill:#DBF4FF;" d="M646.459,140.312c0,0-3.34-8.91-7.796-10.024c-4.454-1.114-10.021,3.898-10.021,3.898
						s-6.127-1.67-10.024,0c-3.897,1.67-1.67,4.454-1.67,4.454s4.454-1.114,8.908,0c4.456,1.114,5.569,3.897,5.569,3.897
						s1.113-3.339,5.012-4.453C640.334,136.97,646.459,140.312,646.459,140.312z"/>
				</g>
			</g>
		</g>
		<g style="opacity:0.1;clip-path:url(#SVGID_00000167364607185863476800000007937054826939148171_);">
			<path style="fill:#DEF4FF;" d="M-8.373,59.984c0,0,157.506,184.78,431.497,122.531
				c108.945-24.751,193.878-74.141,252.944-114.405c58.848-40.761,91.866-72.175,92.11-71.784c-0.915,2.584-1.846,5.165-2.789,7.742
				c0.038,0.316-19.125,19.615-69.088,60.909c-50.587,39.662-131.973,101.321-270.745,148.651
				c-139.283,45.003-260.876,42.12-359.52,11.702C-32.921,194.683-164.252,65.607-164.252,65.607L-8.373,59.984z"/>
		</g>
		<path style="opacity:0.1;clip-path:url(#SVGID_00000167364607185863476800000007937054826939148171_);fill:#DEF4FF;" d="
			M690.006,106.938c-53.45,37.8-148.196,106.556-250.888,142.762C129.475,358.867-2.593,256.023-2.593,256.023l-114.256,2.02
			c0,0,136.488,62.87,233.954,65.476c97.146,2.508,214.102-17.663,344.171-73.232c129.394-57.043,202.542-113.28,247.902-149.135
			c44.628-36.838,61.465-53.293,61.402-53.498c0.697-1.905,1.385-3.808,2.053-5.71C772.369,41.726,743.208,68.842,690.006,106.938z"
			/>
		<path style="opacity:0.1;clip-path:url(#SVGID_00000167364607185863476800000007937054826939148171_);fill:#DEF4FF;" d="
			M848.937,62.399c0,0-178.734,312.416-527.065,336.574c-115.521,8.01-234.68-28.996-298.105-50.592
			c-63.21-22.131-104.273-46.17-104.273-46.17s2.007,26.523,3.079,28.723c-0.029,0.316,20.74,13.297,74.614,38.496
			c54.481,23.455,143.72,67.273,291.267,72.705c148.01,3.051,282.589-17.461,385.481-74.996
			c103.215-57.846,235.488-170.991,235.488-170.991L848.937,62.399z"/>
		<path style="opacity:0.1;clip-path:url(#SVGID_00000167364607185863476800000007937054826939148171_);fill:#DEF4FF;" d="
			M790.066-99.614c0,0-199.003,167.453-555.365,166.402C116.514,66.438-2.957,40.73-66.446,25.983
			C-129.688,10.947-170.251-4.232-170.251-4.232s-0.232,10.577,0.743,11.854c-0.048,0.176,29.67,12.468,83.229,28.832
			c54.272,15.414,231.922,47.652,306.803,53.021c74.881,5.368,234.353-7.46,340.3-39.314C676.59,15.354,816.14-66.932,816.14-66.932
			L790.066-99.614z"/>
	</g>
</g>
</svg>
