<?xml version="1.0" encoding="utf-8"?>
<!-- Generator: Adobe Illustrator 27.5.0, SVG Export Plug-In . SVG Version: 6.00 Build 0)  -->
<svg version="1.1" xmlns="http://www.w3.org/2000/svg" xmlns:xlink="http://www.w3.org/1999/xlink" x="0px" y="0px"
	 viewBox="0 0 750 500" style="enable-background:new 0 0 750 500;" xml:space="preserve">
<g id="BACKGROUND_2">
	<linearGradient id="SVGID_1_" gradientUnits="userSpaceOnUse" x1="375" y1="145.3965" x2="375" y2="641.2135">
		<stop  offset="0.0038" style="stop-color:#7CA8F4"/>
		<stop  offset="0.0773" style="stop-color:#81A7F2"/>
		<stop  offset="0.1668" style="stop-color:#90A5EC"/>
		<stop  offset="0.2648" style="stop-color:#A9A2E3"/>
		<stop  offset="0.3679" style="stop-color:#CB9ED6"/>
		<stop  offset="0.465" style="stop-color:#F299C7"/>
		<stop  offset="0.5016" style="stop-color:#F3A3BD"/>
		<stop  offset="0.6419" style="stop-color:#F8C59D"/>
		<stop  offset="0.7755" style="stop-color:#FCDD86"/>
		<stop  offset="0.8982" style="stop-color:#FEEC78"/>
		<stop  offset="1" style="stop-color:#FFF173"/>
	</linearGradient>
	<rect style="fill:url(#SVGID_1_);" width="750" height="500"/>
	<g>
		<defs>
			<rect id="SVGID_00000047777659324054663750000009814289645378111405_" width="750" height="500"/>
		</defs>
		<clipPath id="SVGID_00000146475808979381642450000006587829520644312498_">
			<use xlink:href="#SVGID_00000047777659324054663750000009814289645378111405_"  style="overflow:visible;"/>
		</clipPath>
		<g style="clip-path:url(#SVGID_00000146475808979381642450000006587829520644312498_);">
			
				<linearGradient id="SVGID_00000149373740569339656270000009569705379968024719_" gradientUnits="userSpaceOnUse" x1="318.5997" y1="65.8694" x2="318.5997" y2="131.2305">
				<stop  offset="0.0068" style="stop-color:#FFFFFF"/>
				<stop  offset="1" style="stop-color:#B2CFE0"/>
			</linearGradient>
			<path style="fill:url(#SVGID_00000149373740569339656270000009569705379968024719_);" d="M440.832,113.658
				c3.842,0,6.363-4.132,4.49-7.486c-3.919-7.016-11.417-11.76-20.025-11.76c-4.693,0-9.055,1.413-12.689,3.832
				c-7.784-14.177-22.85-23.789-40.165-23.789c-6.465,0-12.612,1.346-18.189,3.763c-10.104-17.974-29.344-30.124-51.431-30.124
				c-26.735,0-49.302,17.795-56.535,42.183c-2.335-0.446-4.743-0.688-7.208-0.688c-12.352,0-23.328,5.864-30.317,14.953
				c-2.38-1.201-5.062-1.894-7.91-1.894c-2.281,0-4.461,0.435-6.46,1.226c-5.168,2.044-3.593,9.785,1.964,9.785H440.832z"/>
			
				<linearGradient id="SVGID_00000029744932601920297410000011735493428780914053_" gradientUnits="userSpaceOnUse" x1="732.525" y1="239.8343" x2="732.525" y2="289.0839">
				<stop  offset="0.0068" style="stop-color:#FFFFFF"/>
				<stop  offset="1" style="stop-color:#B2CFE0"/>
			</linearGradient>
			<path style="fill:url(#SVGID_00000029744932601920297410000011735493428780914053_);" d="M824.627,275.843
				c2.895,0,4.795-3.114,3.383-5.641c-2.953-5.286-8.603-8.861-15.089-8.861c-3.536,0-6.823,1.064-9.561,2.887
				c-5.865-10.682-17.218-17.925-30.265-17.925c-4.871,0-9.503,1.015-13.705,2.836c-7.614-13.543-22.111-22.699-38.754-22.699
				c-20.145,0-37.149,13.409-42.599,31.785c-1.76-0.336-3.574-0.518-5.431-0.518c-9.307,0-17.578,4.418-22.844,11.267
				c-1.794-0.905-3.814-1.427-5.961-1.427c-1.719,0-3.361,0.328-4.868,0.923c-3.894,1.54-2.707,7.373,1.48,7.373H824.627z"/>
			
				<linearGradient id="SVGID_00000022521165090721023520000008114742529748206743_" gradientUnits="userSpaceOnUse" x1="477.512" y1="409.8104" x2="478.1846" y2="442.0923">
				<stop  offset="0.0068" style="stop-color:#FFFFFF"/>
				<stop  offset="1" style="stop-color:#B2CFE0"/>
			</linearGradient>
			<path style="fill:url(#SVGID_00000022521165090721023520000008114742529748206743_);" d="M528.799,437.975
				c1.595,0,2.642-1.715,1.864-3.108c-1.627-2.913-4.74-4.882-8.313-4.882c-1.948,0-3.759,0.586-5.268,1.591
				c-3.231-5.886-9.486-9.876-16.675-9.876c-2.684,0-5.236,0.559-7.551,1.562c-4.195-7.462-12.182-12.506-21.352-12.506
				c-11.099,0-20.468,7.388-23.471,17.512c-0.969-0.185-1.969-0.286-2.992-0.286c-5.128,0-9.685,2.434-12.586,6.208
				c-0.988-0.499-2.102-0.786-3.284-0.786c-0.947,0-1.852,0.18-2.682,0.509c-2.145,0.849-1.492,4.062,0.816,4.062H528.799z"/>
			
				<linearGradient id="SVGID_00000078758494929825526470000002689985271357955209_" gradientUnits="userSpaceOnUse" x1="397.7758" y1="270.5056" x2="398.4484" y2="309.5129">
				<stop  offset="0.0068" style="stop-color:#FFFFFF"/>
				<stop  offset="1" style="stop-color:#B2CFE0"/>
			</linearGradient>
			<path style="fill:url(#SVGID_00000078758494929825526470000002689985271357955209_);" d="M310.741,310.31
				c-2.755,0-4.563-2.963-3.22-5.369c2.811-5.031,8.188-8.434,14.36-8.434c3.366,0,6.493,1.013,9.099,2.748
				c5.582-10.167,16.387-17.06,28.804-17.06c4.636,0,9.045,0.966,13.044,2.699c7.246-12.89,21.044-21.603,36.883-21.603
				c19.173,0,35.356,12.762,40.543,30.251c1.675-0.32,3.402-0.493,5.169-0.493c8.858,0,16.73,4.205,21.741,10.723
				c1.707-0.861,3.63-1.358,5.673-1.358c1.636,0,3.199,0.312,4.633,0.879c3.706,1.466,2.577,7.017-1.409,7.017H310.741z"/>
			
				<linearGradient id="SVGID_00000134934455123600177860000013394472885960937904_" gradientUnits="userSpaceOnUse" x1="457.4048" y1="128.1672" x2="458.7498" y2="189.3682">
				<stop  offset="0.0068" style="stop-color:#FFFFFF"/>
				<stop  offset="1" style="stop-color:#B2CFE0"/>
			</linearGradient>
			<path style="fill:url(#SVGID_00000134934455123600177860000013394472885960937904_);" d="M594.633,174.465
				c-3.283,0-6.345,0.915-8.976,2.48c-3.674-7.762-11.574-13.133-20.732-13.133c-4.451,0-8.603,1.273-12.12,3.468
				c-2.385-23.05-21.866-41.026-45.547-41.026c-15.011,0-28.335,7.223-36.687,18.382c-7.987-5.466-17.645-8.668-28.053-8.668
				c-15.762,0-29.802,7.34-38.914,18.78c-4.763-2.131-10.036-3.326-15.592-3.326c-13.299,0-25.007,6.794-31.855,17.098
				c-2.397-1.222-5.102-1.925-7.977-1.925c-5.977,0-11.25,2.986-14.431,7.541c-2.476-1.329-5.305-2.087-8.312-2.087
				c-5.218,0-9.906,2.271-13.129,5.878c-4.042,4.523-0.64,11.726,5.426,11.731l281.734,0.238c7.299,0.006,9.966-9.811,3.555-13.302
				C600.532,175.236,597.673,174.465,594.633,174.465z"/>
			
				<linearGradient id="SVGID_00000093873508211422497830000004381661900276263299_" gradientUnits="userSpaceOnUse" x1="124.7802" y1="252.163" x2="124.7802" y2="298.5685">
				<stop  offset="0.0068" style="stop-color:#FFFFFF"/>
				<stop  offset="1" style="stop-color:#B2CFE0"/>
			</linearGradient>
			<path style="fill:url(#SVGID_00000093873508211422497830000004381661900276263299_);" d="M223.516,286.133
				c-2.383,0-4.605,0.664-6.515,1.8c-2.666-5.634-8.401-9.532-15.048-9.532c-3.231,0-6.244,0.924-8.797,2.517
				c-1.731-16.73-15.87-29.777-33.059-29.777c-10.895,0-20.566,5.242-26.628,13.342c-5.797-3.967-12.807-6.292-20.362-6.292
				c-11.44,0-21.631,5.328-28.245,13.631c-3.457-1.547-7.285-2.414-11.317-2.414c-9.653,0-18.15,4.931-23.121,12.41
				c-1.739-0.887-3.703-1.398-5.79-1.398c-4.339,0-8.166,2.168-10.475,5.474c-1.797-0.965-3.85-1.515-6.033-1.515
				c-3.787,0-7.19,1.648-9.529,4.266c-2.933,3.283-0.465,8.511,3.938,8.515l204.488,0.173c5.298,0.004,7.233-7.121,2.581-9.655
				C227.797,286.693,225.722,286.133,223.516,286.133z"/>
			
				<linearGradient id="SVGID_00000127758914700757626910000003565909997192848271_" gradientUnits="userSpaceOnUse" x1="618.7387" y1="322.4582" x2="619.4113" y2="347.3423">
				<stop  offset="0.0068" style="stop-color:#FFFFFF"/>
				<stop  offset="1" style="stop-color:#B2CFE0"/>
			</linearGradient>
			<path style="fill:url(#SVGID_00000127758914700757626910000003565909997192848271_);" d="M685.693,329.451
				c-1.609,0-3.109,0.449-4.398,1.216c-1.8-3.803-5.672-6.435-10.159-6.435c-2.181,0-4.216,0.624-5.939,1.699
				c-1.169-11.295-10.715-20.103-22.319-20.103c-7.356,0-13.885,3.539-17.977,9.008c-3.914-2.679-8.646-4.248-13.747-4.248
				c-7.724,0-14.603,3.597-19.069,9.202c-2.334-1.044-4.918-1.63-7.64-1.63c-6.517,0-12.254,3.329-15.609,8.378
				c-1.174-0.599-2.5-0.943-3.909-0.943c-2.929,0-5.513,1.463-7.072,3.695c-1.213-0.651-2.599-1.023-4.073-1.023
				c-2.557,0-4.854,1.113-6.433,2.88c-1.981,2.216-0.314,5.746,2.659,5.749l138.055,0.117c3.577,0.003,4.883-4.808,1.742-6.518
				C688.584,329.829,687.183,329.451,685.693,329.451z"/>
			
				<linearGradient id="SVGID_00000087390942863716095130000003811873741389562245_" gradientUnits="userSpaceOnUse" x1="54.5851" y1="467.6343" x2="55.4605" y2="500.0225">
				<stop  offset="0.0068" style="stop-color:#FFFFFF"/>
				<stop  offset="1" style="stop-color:#B2CFE0"/>
			</linearGradient>
			<path style="fill:url(#SVGID_00000087390942863716095130000003811873741389562245_);" d="M141.731,476.736
				c-2.094,0-4.047,0.584-5.724,1.582c-2.343-4.951-7.382-8.376-13.223-8.376c-2.839,0-5.487,0.812-7.73,2.212
				c-1.521-14.701-13.946-26.166-29.049-26.166c-9.574,0-18.072,4.606-23.398,11.724c-5.094-3.486-11.254-5.529-17.892-5.529
				c-10.053,0-19.007,4.682-24.819,11.978c-3.038-1.359-6.401-2.121-9.944-2.121c-8.482,0-15.949,4.333-20.317,10.905
				c-1.528-0.779-3.254-1.228-5.087-1.228c-3.812,0-7.175,1.905-9.204,4.81c-1.579-0.848-3.383-1.331-5.301-1.331
				c-3.328,0-6.318,1.448-8.373,3.749c-2.578,2.885-0.408,7.479,3.46,7.482l179.687,0.152c4.655,0.004,6.356-6.257,2.268-8.484
				C145.493,477.228,143.67,476.736,141.731,476.736z"/>
			
				<linearGradient id="SVGID_00000010282290576513017680000000779505744895387052_" gradientUnits="userSpaceOnUse" x1="243.4729" y1="202.3951" x2="243.4729" y2="236.6945">
				<stop  offset="0.0068" style="stop-color:#FFFFFF"/>
				<stop  offset="1" style="stop-color:#B2CFE0"/>
			</linearGradient>
			<path style="fill:url(#SVGID_00000010282290576513017680000000779505744895387052_);" d="M300.53,232.856
				c2.865,0,4.345-3.378,2.447-5.524c-4.075-4.607-10.028-7.512-16.662-7.512c-1.185,0-2.348,0.095-3.482,0.273
				c-5.613-11.511-17.425-19.443-31.093-19.443c-10.982,0-20.76,5.126-27.094,13.109c-4.392-3.209-9.802-5.107-15.658-5.107
				c-12.433,0-22.867,8.54-25.766,20.073c-0.527,2.094,1.04,4.132,3.2,4.132H300.53z"/>
			
				<linearGradient id="SVGID_00000124879497763879899520000017131824627619221133_" gradientUnits="userSpaceOnUse" x1="560.4348" y1="469.2744" x2="560.4348" y2="513.7818">
				<stop  offset="0.0068" style="stop-color:#FFFFFF"/>
				<stop  offset="1" style="stop-color:#B2CFE0"/>
			</linearGradient>
			<path style="fill:url(#SVGID_00000124879497763879899520000017131824627619221133_);" d="M634.472,508.801
				c3.717,0,5.638-4.384,3.175-7.168c-5.287-5.978-13.012-9.748-21.621-9.748c-1.538,0-3.046,0.123-4.519,0.354
				c-7.283-14.937-22.611-25.23-40.347-25.23c-14.25,0-26.939,6.652-35.157,17.01c-5.699-4.164-12.719-6.627-20.318-6.627
				c-16.133,0-29.672,11.081-33.435,26.047c-0.683,2.718,1.35,5.362,4.152,5.362H634.472z"/>
			
				<linearGradient id="SVGID_00000162325037012397412480000013706818981712735616_" gradientUnits="userSpaceOnUse" x1="206.5631" y1="430.8829" x2="206.5631" y2="459.1659">
				<stop  offset="0.0068" style="stop-color:#FFFFFF"/>
				<stop  offset="1" style="stop-color:#B2CFE0"/>
			</linearGradient>
			<path style="fill:url(#SVGID_00000162325037012397412480000013706818981712735616_);" d="M253.368,454.064
				c2.35,0,3.564-2.771,2.007-4.532c-3.343-3.779-8.226-6.163-13.668-6.163c-0.972,0-1.926,0.078-2.857,0.224
				c-4.604-9.443-14.294-15.95-25.506-15.95c-9.008,0-17.03,4.205-22.225,10.753c-3.603-2.632-8.041-4.19-12.844-4.19
				c-10.199,0-18.758,7.005-21.137,16.466c-0.432,1.718,0.853,3.39,2.625,3.39H253.368z"/>
			
				<linearGradient id="SVGID_00000120553202726542242510000003976630672844129720_" gradientUnits="userSpaceOnUse" x1="129.4896" y1="27.5346" x2="129.4896" y2="62.4874">
				<stop  offset="0.0068" style="stop-color:#FFFFFF"/>
				<stop  offset="1" style="stop-color:#B2CFE0"/>
			</linearGradient>
			<path style="fill:url(#SVGID_00000120553202726542242510000003976630672844129720_);" d="M186.546,58.922
				c2.865,0,4.345-3.378,2.447-5.524c-4.075-4.607-10.028-7.513-16.662-7.513c-1.185,0-2.348,0.095-3.482,0.273
				c-5.613-11.511-17.425-19.443-31.093-19.443c-10.982,0-20.76,5.126-27.094,13.109c-4.392-3.209-9.802-5.107-15.657-5.107
				c-12.433,0-22.867,8.54-25.766,20.073c-0.527,2.094,1.04,4.133,3.2,4.133H186.546z"/>
			
				<linearGradient id="SVGID_00000113352571224964702490000006307343586971660425_" gradientUnits="userSpaceOnUse" x1="721.7424" y1="441.6729" x2="721.7424" y2="476.6257">
				<stop  offset="0.0068" style="stop-color:#FFFFFF"/>
				<stop  offset="1" style="stop-color:#B2CFE0"/>
			</linearGradient>
			<path style="fill:url(#SVGID_00000113352571224964702490000006307343586971660425_);" d="M778.799,473.061
				c2.865,0,4.345-3.378,2.447-5.524c-4.075-4.607-10.028-7.513-16.662-7.513c-1.185,0-2.348,0.095-3.482,0.273
				c-5.613-11.511-17.425-19.443-31.093-19.443c-10.982,0-20.76,5.126-27.094,13.109c-4.392-3.209-9.802-5.107-15.657-5.107
				c-12.433,0-22.867,8.54-25.766,20.073c-0.527,2.094,1.041,4.133,3.2,4.133H778.799z"/>
			
				<linearGradient id="SVGID_00000036230933106638700010000013479384071086197131_" gradientUnits="userSpaceOnUse" x1="515.5521" y1="47.0383" x2="515.5521" y2="69.2321">
				<stop  offset="0.0068" style="stop-color:#FFFFFF"/>
				<stop  offset="1" style="stop-color:#B2CFE0"/>
			</linearGradient>
			<path style="fill:url(#SVGID_00000036230933106638700010000013479384071086197131_);" d="M481.591,68.507
				c-1.705,0-2.586-2.011-1.457-3.288c2.425-2.742,5.969-4.472,9.918-4.472c0.705,0,1.397,0.056,2.073,0.163
				c3.341-6.852,10.372-11.573,18.507-11.573c6.536,0,12.357,3.051,16.127,7.803c2.614-1.91,5.834-3.04,9.32-3.04
				c7.4,0,13.611,5.083,15.337,11.948c0.313,1.247-0.619,2.46-1.905,2.46H481.591z"/>
			
				<linearGradient id="SVGID_00000146494752583809937140000006557608930353845950_" gradientUnits="userSpaceOnUse" x1="83.7051" y1="365.472" x2="83.7051" y2="393.7577">
				<stop  offset="0.0068" style="stop-color:#FFFFFF"/>
				<stop  offset="1" style="stop-color:#B2CFE0"/>
			</linearGradient>
			<path style="fill:url(#SVGID_00000146494752583809937140000006557608930353845950_);" d="M40.422,392.834
				c-2.173,0-3.296-2.563-1.856-4.191c3.091-3.495,7.607-5.699,12.64-5.699c0.899,0,1.781,0.072,2.642,0.207
				c4.258-8.732,13.219-14.75,23.587-14.75c8.331,0,15.749,3.889,20.553,9.944c3.332-2.434,7.436-3.874,11.878-3.874
				c9.432,0,17.347,6.478,19.546,15.227c0.4,1.589-0.789,3.135-2.428,3.135H40.422z"/>
			
				<linearGradient id="SVGID_00000170998064801852330980000005712621998444340893_" gradientUnits="userSpaceOnUse" x1="438.3543" y1="357.7519" x2="438.3543" y2="374.5653">
				<stop  offset="0.0068" style="stop-color:#FFFFFF"/>
				<stop  offset="1" style="stop-color:#B2CFE0"/>
			</linearGradient>
			<path style="fill:url(#SVGID_00000170998064801852330980000005712621998444340893_);" d="M412.83,370.478
				c-1.282,0-1.944-1.511-1.095-2.471c1.823-2.061,4.486-3.361,7.454-3.361c0.53,0,1.05,0.042,1.558,0.122
				c2.511-5.149,7.795-8.698,13.909-8.698c4.913,0,9.287,2.293,12.12,5.864c1.965-1.435,4.385-2.285,7.004-2.285
				c5.562,0,10.229,3.82,11.526,8.979c0.236,0.937-0.465,1.849-1.432,1.849H412.83z"/>
			
				<linearGradient id="SVGID_00000065758938012869035050000000047665579868599986_" gradientUnits="userSpaceOnUse" x1="539.9624" y1="258.6542" x2="539.9624" y2="271.4032">
				<stop  offset="0.0068" style="stop-color:#FFFFFF"/>
				<stop  offset="1" style="stop-color:#B2CFE0"/>
			</linearGradient>
			<path style="fill:url(#SVGID_00000065758938012869035050000000047665579868599986_);" d="M520.609,268.304
				c-0.972,0-1.474-1.146-0.83-1.874c1.382-1.563,3.401-2.548,5.652-2.548c0.402,0,0.796,0.032,1.181,0.093
				c1.904-3.905,5.911-6.595,10.547-6.595c3.725,0,7.042,1.739,9.19,4.447c1.49-1.088,3.325-1.732,5.311-1.732
				c4.217,0,7.757,2.897,8.74,6.809c0.179,0.711-0.353,1.402-1.085,1.402H520.609z"/>
			
				<linearGradient id="SVGID_00000084496983162361686490000011527571942027386533_" gradientUnits="userSpaceOnUse" x1="712.0526" y1="27.9902" x2="712.0526" y2="40.7392">
				<stop  offset="0.0068" style="stop-color:#FFFFFF"/>
				<stop  offset="1" style="stop-color:#B2CFE0"/>
			</linearGradient>
			<path style="fill:url(#SVGID_00000084496983162361686490000011527571942027386533_);" d="M692.699,37.64
				c-0.972,0-1.474-1.146-0.83-1.874c1.382-1.563,3.401-2.548,5.652-2.548c0.402,0,0.796,0.032,1.181,0.093
				c1.904-3.905,5.911-6.595,10.547-6.595c3.725,0,7.042,1.739,9.19,4.447c1.49-1.088,3.325-1.732,5.311-1.732
				c4.217,0,7.757,2.897,8.74,6.809c0.179,0.71-0.353,1.402-1.085,1.402H692.699z"/>
			
				<linearGradient id="SVGID_00000066508855458900634290000013791921989826268560_" gradientUnits="userSpaceOnUse" x1="-825.2169" y1="406.5682" x2="-825.2169" y2="419.3172" gradientTransform="matrix(-1 0 0 1 -198.0978 0)">
				<stop  offset="0.0068" style="stop-color:#FFFFFF"/>
				<stop  offset="1" style="stop-color:#B2CFE0"/>
			</linearGradient>
			<path style="fill:url(#SVGID_00000066508855458900634290000013791921989826268560_);" d="M646.473,416.218
				c0.972,0,1.474-1.146,0.83-1.874c-1.382-1.563-3.401-2.548-5.652-2.548c-0.402,0-0.796,0.032-1.181,0.093
				c-1.904-3.904-5.911-6.595-10.547-6.595c-3.725,0-7.042,1.739-9.19,4.447c-1.49-1.088-3.325-1.732-5.311-1.732
				c-4.217,0-7.756,2.897-8.74,6.809c-0.179,0.71,0.353,1.402,1.086,1.402H646.473z"/>
			
				<linearGradient id="SVGID_00000174583602187971655460000004691993951901633446_" gradientUnits="userSpaceOnUse" x1="425.2406" y1="176.518" x2="424.568" y2="218.8881">
				<stop  offset="0.0068" style="stop-color:#FFFFFF"/>
				<stop  offset="1" style="stop-color:#B2CFE0"/>
			</linearGradient>
			<path style="fill:url(#SVGID_00000174583602187971655460000004691993951901633446_);" d="M495.99,216.753
				c6.355,0,10.04-7.27,6.219-12.348c-4.289-5.699-11.108-9.383-18.79-9.383c-1.252,0-2.481,0.1-3.68,0.289
				c-5.932-12.165-18.415-20.548-32.86-20.548c-12.003,0-22.654,5.788-29.315,14.725c-4.068-2.293-8.762-3.607-13.765-3.607
				c-8.476,0-16.069,3.76-21.218,9.697c-2.174-0.656-4.478-1.012-6.866-1.012c-6.678,0-12.708,2.761-17.022,7.199
				c-1.358-0.343-2.78-0.527-4.245-0.527c-0.75,0-1.49,0.048-2.215,0.141c-9.454,1.208-8.315,15.375,1.215,15.375H495.99z"/>
			
				<linearGradient id="SVGID_00000179644291387093706680000009514161189640674216_" gradientUnits="userSpaceOnUse" x1="636.5039" y1="82.8564" x2="635.1588" y2="122.5362">
				<stop  offset="0.0068" style="stop-color:#FFFFFF"/>
				<stop  offset="1" style="stop-color:#B2CFE0"/>
			</linearGradient>
			<path style="fill:url(#SVGID_00000179644291387093706680000009514161189640674216_);" d="M564.14,123.169
				c-6.355,0-10.04-7.27-6.219-12.348c4.289-5.698,11.107-9.383,18.79-9.383c1.252,0,2.481,0.1,3.68,0.289
				c5.931-12.165,18.415-20.548,32.86-20.548c12.003,0,22.654,5.788,29.315,14.725c4.068-2.293,8.762-3.607,13.765-3.607
				c8.476,0,16.069,3.76,21.218,9.697c2.174-0.656,4.478-1.012,6.866-1.012c6.678,0,12.708,2.761,17.022,7.199
				c1.358-0.343,2.78-0.527,4.245-0.527c0.75,0,1.49,0.048,2.215,0.141c9.454,1.208,8.315,15.375-1.215,15.375H564.14z"/>
			
				<linearGradient id="SVGID_00000016071685942768072570000002991085670713736611_" gradientUnits="userSpaceOnUse" x1="25.9025" y1="138.7579" x2="24.5574" y2="178.4377">
				<stop  offset="0.0068" style="stop-color:#FFFFFF"/>
				<stop  offset="1" style="stop-color:#B2CFE0"/>
			</linearGradient>
			<path style="fill:url(#SVGID_00000016071685942768072570000002991085670713736611_);" d="M-46.461,179.071
				c-6.355,0-10.04-7.27-6.219-12.348c4.289-5.698,11.108-9.383,18.79-9.383c1.252,0,2.481,0.1,3.68,0.289
				c5.931-12.165,18.415-20.548,32.86-20.548c12.003,0,22.654,5.788,29.315,14.725c4.068-2.293,8.762-3.607,13.765-3.607
				c8.476,0,16.069,3.76,21.218,9.697c2.174-0.656,4.478-1.012,6.866-1.012c6.678,0,12.708,2.761,17.022,7.199
				c1.358-0.343,2.78-0.527,4.245-0.527c0.75,0,1.49,0.048,2.215,0.141c9.454,1.208,8.315,15.375-1.215,15.375H-46.461z"/>
			
				<linearGradient id="SVGID_00000079481168312547660580000015531969076008621745_" gradientUnits="userSpaceOnUse" x1="287.7121" y1="367.4421" x2="288.3846" y2="401.0692">
				<stop  offset="0.0068" style="stop-color:#FFFFFF"/>
				<stop  offset="1" style="stop-color:#B2CFE0"/>
			</linearGradient>
			<path style="fill:url(#SVGID_00000079481168312547660580000015531969076008621745_);" d="M361.809,398.289
				c6.375,0,6.733-9.492,0.372-9.917c-0.374-0.025-0.752-0.038-1.133-0.038c-3.482,0-6.714,1.064-9.392,2.884
				c-4.165-5.281-10.615-8.676-17.863-8.676c-1.211,0-2.4,0.097-3.56,0.279c-5.737-11.766-17.811-19.874-31.782-19.874
				c-11.61,0-21.911,5.599-28.354,14.242c-3.935-2.218-8.475-3.489-13.314-3.489c-8.88,0-16.763,4.262-21.72,10.851
				c-2.619-1.285-5.564-2.01-8.678-2.01c-6.374,0-12.042,3.023-15.648,7.713c-2.525,3.284-0.237,8.034,3.906,8.034H361.809z"/>
			
				<linearGradient id="SVGID_00000170279538397834408020000009739124280592664988_" gradientUnits="userSpaceOnUse" x1="293.6756" y1="393.2755" x2="293.6756" y2="414.1243">
				<stop  offset="0.0068" style="stop-color:#FFFFFF"/>
				<stop  offset="1" style="stop-color:#B2CFE0"/>
			</linearGradient>
			<path style="fill:url(#SVGID_00000170279538397834408020000009739124280592664988_);" d="M259.77,410.756
				c-3.024,0-4.777-3.459-2.959-5.875c2.04-2.711,5.285-4.465,8.94-4.465c0.596,0,1.18,0.048,1.751,0.137
				c2.822-5.788,8.762-9.777,15.634-9.777c5.711,0,10.778,2.754,13.948,7.006c1.936-1.091,4.169-1.716,6.549-1.716
				c4.033,0,7.645,1.789,10.095,4.614c1.034-0.312,2.131-0.482,3.267-0.482c3.177,0,6.046,1.314,8.099,3.425
				c0.646-0.163,1.323-0.251,2.02-0.251c0.357,0,0.709,0.023,1.054,0.067c4.498,0.575,3.956,7.315-0.578,7.315H259.77z"/>
		</g>
	</g>
</g>
<g id="BACKGROUND_1">
	<g>
		<defs>
			<rect id="SVGID_00000049214177101716904920000016903562067766134915_" x="-539.454" width="500.001" height="500"/>
		</defs>
		<clipPath id="SVGID_00000143579032010696635160000007403874270837122986_">
			<use xlink:href="#SVGID_00000049214177101716904920000016903562067766134915_"  style="overflow:visible;"/>
		</clipPath>
		<g style="clip-path:url(#SVGID_00000143579032010696635160000007403874270837122986_);">
			
				<linearGradient id="SVGID_00000016046897571385676540000011077573402218187698_" gradientUnits="userSpaceOnUse" x1="68.6471" y1="239.8343" x2="68.6471" y2="289.0839">
				<stop  offset="0.0068" style="stop-color:#FFFFFF"/>
				<stop  offset="1" style="stop-color:#B2CFE0"/>
			</linearGradient>
			<path style="fill:url(#SVGID_00000016046897571385676540000011077573402218187698_);" d="M160.749,275.843
				c2.895,0,4.795-3.114,3.383-5.641c-2.953-5.286-8.602-8.861-15.088-8.861c-3.536,0-6.823,1.064-9.561,2.887
				c-5.865-10.682-17.218-17.925-30.265-17.925c-4.871,0-9.504,1.015-13.705,2.836c-7.614-13.543-22.111-22.699-38.754-22.699
				c-20.145,0-37.149,13.409-42.599,31.785c-1.76-0.336-3.574-0.518-5.432-0.518c-9.307,0-17.578,4.418-22.844,11.267
				c-1.794-0.905-3.814-1.427-5.96-1.427c-1.719,0-3.361,0.328-4.868,0.923c-3.894,1.54-2.707,7.373,1.48,7.373H160.749z"/>
			
				<linearGradient id="SVGID_00000152958858883948211600000005395124977605588153_" gradientUnits="userSpaceOnUse" x1="-45.1392" y1="322.4583" x2="-44.4667" y2="347.3423">
				<stop  offset="0.0068" style="stop-color:#FFFFFF"/>
				<stop  offset="1" style="stop-color:#B2CFE0"/>
			</linearGradient>
			<path style="fill:url(#SVGID_00000152958858883948211600000005395124977605588153_);" d="M21.815,329.451
				c-1.609,0-3.109,0.449-4.398,1.216c-1.8-3.803-5.672-6.435-10.159-6.435c-2.181,0-4.216,0.624-5.939,1.699
				C0.15,314.636-9.396,305.828-21,305.828c-7.356,0-13.884,3.539-17.977,9.008c-3.914-2.679-8.646-4.248-13.747-4.248
				c-7.724,0-14.603,3.597-19.069,9.202c-2.334-1.044-4.918-1.63-7.64-1.63c-6.517,0-12.254,3.329-15.609,8.378
				c-1.174-0.599-2.5-0.943-3.909-0.943c-2.929,0-5.513,1.463-7.072,3.695c-1.213-0.651-2.599-1.023-4.073-1.023
				c-2.557,0-4.854,1.113-6.433,2.88c-1.98,2.216-0.314,5.746,2.659,5.749l138.055,0.117c3.576,0.003,4.883-4.808,1.742-6.518
				C24.706,329.829,23.305,329.451,21.815,329.451z"/>
			
				<linearGradient id="SVGID_00000078017648179916332500000010202801574675949475_" gradientUnits="userSpaceOnUse" x1="57.8645" y1="441.6729" x2="57.8645" y2="476.6257">
				<stop  offset="0.0068" style="stop-color:#FFFFFF"/>
				<stop  offset="1" style="stop-color:#B2CFE0"/>
			</linearGradient>
			<path style="fill:url(#SVGID_00000078017648179916332500000010202801574675949475_);" d="M114.921,473.061
				c2.865,0,4.345-3.378,2.447-5.524c-4.075-4.607-10.028-7.513-16.662-7.513c-1.185,0-2.348,0.095-3.482,0.273
				c-5.613-11.511-17.425-19.443-31.093-19.443c-10.982,0-20.76,5.126-27.094,13.109c-4.392-3.209-9.802-5.107-15.657-5.107
				c-12.433,0-22.867,8.54-25.766,20.073c-0.527,2.094,1.041,4.133,3.2,4.133H114.921z"/>
			
				<linearGradient id="SVGID_00000103953523719978431990000011552061762478658434_" gradientUnits="userSpaceOnUse" x1="48.1747" y1="27.9902" x2="48.1747" y2="40.7392">
				<stop  offset="0.0068" style="stop-color:#FFFFFF"/>
				<stop  offset="1" style="stop-color:#B2CFE0"/>
			</linearGradient>
			<path style="fill:url(#SVGID_00000103953523719978431990000011552061762478658434_);" d="M28.821,37.64
				c-0.972,0-1.474-1.146-0.83-1.874c1.382-1.563,3.401-2.548,5.652-2.548c0.402,0,0.796,0.032,1.181,0.093
				c1.904-3.905,5.911-6.595,10.547-6.595c3.725,0,7.042,1.739,9.19,4.447c1.49-1.088,3.325-1.732,5.311-1.732
				c4.217,0,7.757,2.897,8.74,6.809c0.179,0.71-0.353,1.402-1.085,1.402H28.821z"/>
			
				<linearGradient id="SVGID_00000147935962319103284380000000235528183198311843_" gradientUnits="userSpaceOnUse" x1="-27.374" y1="82.8564" x2="-28.7191" y2="122.5362">
				<stop  offset="0.0068" style="stop-color:#FFFFFF"/>
				<stop  offset="1" style="stop-color:#B2CFE0"/>
			</linearGradient>
			<path style="fill:url(#SVGID_00000147935962319103284380000000235528183198311843_);" d="M-99.738,123.169
				c-6.355,0-10.04-7.27-6.219-12.348c4.289-5.698,11.107-9.383,18.79-9.383c1.252,0,2.481,0.1,3.68,0.289
				c5.932-12.165,18.415-20.548,32.86-20.548c12.003,0,22.654,5.788,29.315,14.725c4.068-2.293,8.762-3.607,13.765-3.607
				c8.476,0,16.069,3.76,21.218,9.697c2.174-0.656,4.478-1.012,6.866-1.012c6.678,0,12.708,2.761,17.022,7.199
				c1.359-0.343,2.78-0.527,4.245-0.527c0.75,0,1.49,0.048,2.215,0.141c9.454,1.208,8.315,15.375-1.215,15.375H-99.738z"/>
		</g>
	</g>
</g>
<g id="DESIGNED_BY_FREPIK">
	<g id="XMLID_1_">
		<g id="XMLID_38_">
			<path id="XMLID_59_" style="fill:#FFFFFF;" d="M306.087,466.63c-0.246,0-0.435,0.085-0.567,0.255
				c-0.133,0.17-0.199,0.421-0.199,0.753v2.392c-0.305-0.331-0.617-0.579-0.937-0.739c-0.321-0.159-0.715-0.24-1.181-0.24
				c-0.807,0-1.458,0.283-1.953,0.848c-0.494,0.566-0.742,1.356-0.742,2.369c0,0.478,0.063,0.923,0.187,1.335
				c0.124,0.412,0.307,0.77,0.549,1.074c0.241,0.304,0.527,0.539,0.857,0.704c0.33,0.164,0.69,0.246,1.078,0.246
				c0.293,0,0.563-0.04,0.809-0.122c0.248-0.081,0.477-0.2,0.689-0.356c0.212-0.156,0.427-0.359,0.644-0.608v0.16
				c0,0.297,0.072,0.525,0.217,0.685c0.145,0.161,0.328,0.24,0.549,0.24c0.226,0,0.409-0.078,0.552-0.231
				c0.143-0.154,0.214-0.386,0.214-0.694v-7.146c0-0.305-0.066-0.534-0.199-0.691C306.521,466.709,306.332,466.63,306.087,466.63z
				 M305.021,473.471c-0.14,0.306-0.328,0.533-0.563,0.682c-0.236,0.149-0.496,0.223-0.781,0.223c-0.281,0-0.539-0.079-0.777-0.236
				c-0.237-0.155-0.424-0.388-0.561-0.696c-0.136-0.309-0.204-0.682-0.204-1.122c0-0.416,0.064-0.78,0.193-1.095
				c0.128-0.315,0.309-0.556,0.543-0.724c0.233-0.168,0.499-0.253,0.795-0.253c0.285,0,0.547,0.082,0.786,0.246
				c0.239,0.165,0.429,0.402,0.569,0.712c0.141,0.311,0.211,0.682,0.211,1.114C305.232,472.78,305.162,473.164,305.021,473.471z"/>
			<path id="XMLID_56_" style="fill:#FFFFFF;" d="M313.452,472.551c0.233-0.122,0.35-0.385,0.35-0.793
				c0-0.438-0.113-0.87-0.339-1.294c-0.225-0.423-0.564-0.769-1.018-1.035c-0.453-0.268-0.996-0.4-1.628-0.4
				c-0.487,0-0.93,0.078-1.33,0.234c-0.4,0.157-0.737,0.381-1.009,0.674c-0.273,0.293-0.48,0.644-0.623,1.054
				c-0.143,0.409-0.214,0.853-0.214,1.332c0,1.017,0.289,1.822,0.866,2.415c0.577,0.592,1.387,0.89,2.427,0.89
				c0.455,0,0.858-0.059,1.207-0.178c0.352-0.12,0.641-0.268,0.873-0.448c0.232-0.18,0.404-0.368,0.52-0.564
				c0.115-0.197,0.172-0.367,0.172-0.514c0-0.166-0.052-0.294-0.155-0.386c-0.102-0.09-0.237-0.137-0.403-0.137
				c-0.154,0-0.273,0.035-0.356,0.107c-0.203,0.19-0.366,0.34-0.492,0.451c-0.126,0.111-0.265,0.216-0.416,0.312
				c-0.15,0.098-0.305,0.167-0.466,0.214c-0.16,0.045-0.337,0.067-0.531,0.067c-0.289,0-0.553-0.07-0.792-0.213
				c-0.239-0.142-0.432-0.354-0.576-0.635c-0.145-0.281-0.218-0.605-0.222-0.973h3.168
				C312.89,472.732,313.219,472.671,313.452,472.551z M309.297,471.812c0.056-0.546,0.212-0.959,0.472-1.238
				c0.259-0.279,0.59-0.418,0.994-0.418c0.423,0,0.764,0.137,1.024,0.412c0.259,0.275,0.409,0.69,0.448,1.244H309.297z"/>
			<path id="XMLID_55_" style="fill:#FFFFFF;" d="M318.879,472.114c-0.319-0.17-0.729-0.316-1.231-0.439
				c-0.425-0.103-0.756-0.19-0.997-0.261c-0.242-0.07-0.434-0.161-0.577-0.27c-0.142-0.109-0.213-0.248-0.213-0.419
				c0-0.186,0.096-0.341,0.29-0.465c0.194-0.126,0.437-0.187,0.73-0.187c0.286,0,0.511,0.047,0.677,0.142
				c0.166,0.095,0.31,0.222,0.433,0.38c0.151,0.19,0.284,0.332,0.401,0.427c0.116,0.095,0.258,0.143,0.424,0.143
				c0.23,0,0.408-0.06,0.532-0.178c0.124-0.119,0.186-0.272,0.186-0.457c0-0.171-0.058-0.345-0.175-0.523
				c-0.116-0.178-0.286-0.34-0.51-0.486c-0.223-0.146-0.502-0.264-0.837-0.35c-0.333-0.088-0.71-0.131-1.13-0.131
				c-0.535,0-0.99,0.085-1.367,0.259c-0.378,0.172-0.665,0.403-0.859,0.691c-0.194,0.289-0.291,0.596-0.291,0.92
				c0,0.364,0.105,0.671,0.315,0.92c0.21,0.249,0.489,0.45,0.84,0.602c0.35,0.153,0.804,0.298,1.362,0.436
				c0.494,0.12,0.849,0.244,1.066,0.375c0.216,0.131,0.323,0.338,0.323,0.622c0,0.187-0.104,0.352-0.311,0.497
				c-0.207,0.144-0.473,0.216-0.798,0.216c-0.4,0-0.715-0.071-0.947-0.213c-0.231-0.143-0.431-0.358-0.597-0.647
				c-0.082-0.15-0.17-0.267-0.261-0.35c-0.091-0.082-0.221-0.124-0.391-0.124c-0.194,0-0.355,0.064-0.481,0.19
				c-0.128,0.126-0.19,0.278-0.19,0.456c0,0.27,0.099,0.537,0.297,0.805c0.198,0.266,0.505,0.489,0.92,0.667
				c0.415,0.178,0.914,0.267,1.495,0.267c0.609,0,1.127-0.082,1.552-0.246c0.425-0.164,0.747-0.406,0.964-0.724
				c0.219-0.319,0.326-0.702,0.326-1.149c0-0.297-0.082-0.56-0.246-0.792C319.438,472.485,319.197,472.284,318.879,472.114z"/>
			<path id="XMLID_54_" style="fill:#FFFFFF;" d="M321.486,469.04c-0.237,0-0.43,0.081-0.578,0.243
				c-0.149,0.162-0.222,0.404-0.222,0.724v4.635c0,0.317,0.073,0.56,0.222,0.73c0.148,0.17,0.341,0.255,0.578,0.255
				c0.238,0,0.433-0.083,0.588-0.249c0.154-0.166,0.231-0.412,0.231-0.737v-4.682c0-0.289-0.078-0.514-0.231-0.677
				C321.919,469.121,321.724,469.04,321.486,469.04z"/>
			<path id="XMLID_53_" style="fill:#FFFFFF;" d="M321.504,466.701c-0.217,0-0.409,0.073-0.573,0.223
				c-0.164,0.149-0.246,0.337-0.246,0.567c0,0.254,0.08,0.45,0.24,0.588c0.16,0.138,0.353,0.208,0.578,0.208
				c0.217,0,0.405-0.071,0.563-0.211c0.158-0.14,0.238-0.335,0.238-0.585c0-0.258-0.081-0.453-0.243-0.588
				C321.9,466.768,321.714,466.701,321.504,466.701z"/>
			<path id="XMLID_50_" style="fill:#FFFFFF;" d="M328.626,469.04c-0.217,0-0.395,0.077-0.535,0.231
				c-0.138,0.155-0.207,0.372-0.207,0.653v0.22c-0.289-0.376-0.602-0.652-0.937-0.829c-0.337-0.175-0.735-0.264-1.194-0.264
				c-0.384,0-0.736,0.068-1.056,0.204c-0.32,0.137-0.604,0.34-0.849,0.609c-0.245,0.269-0.433,0.599-0.566,0.992
				c-0.133,0.391-0.199,0.83-0.199,1.317c0,0.653,0.109,1.228,0.327,1.727c0.217,0.499,0.529,0.886,0.934,1.163
				c0.406,0.277,0.88,0.416,1.422,0.416c0.45,0,0.84-0.091,1.165-0.273c0.327-0.182,0.615-0.447,0.864-0.796
				c-0.008,0.531-0.02,0.915-0.035,1.155c-0.016,0.24-0.07,0.464-0.164,0.673c-0.093,0.21-0.255,0.374-0.486,0.49
				c-0.231,0.117-0.557,0.175-0.977,0.175c-0.205,0-0.388-0.02-0.546-0.056c-0.159-0.038-0.294-0.095-0.406-0.171
				c-0.112-0.078-0.216-0.17-0.309-0.28c-0.093-0.109-0.183-0.217-0.27-0.324c-0.178-0.209-0.386-0.314-0.624-0.314
				c-0.189,0-0.352,0.062-0.486,0.187c-0.135,0.124-0.202,0.285-0.202,0.483c0,0.262,0.119,0.516,0.356,0.763
				c0.238,0.247,0.576,0.449,1.014,0.605c0.439,0.156,0.939,0.234,1.496,0.234c0.609,0,1.119-0.061,1.528-0.184
				c0.409-0.122,0.741-0.311,0.994-0.563c0.253-0.254,0.438-0.574,0.552-0.961c0.115-0.389,0.173-0.851,0.173-1.389v-4.706
				c0-0.384-0.051-0.678-0.155-0.882C329.146,469.142,328.938,469.04,328.626,469.04z M327.599,473.405
				c-0.151,0.29-0.345,0.508-0.586,0.653c-0.239,0.144-0.493,0.217-0.761,0.217c-0.455,0-0.826-0.168-1.113-0.505
				c-0.287-0.336-0.43-0.834-0.43-1.49c0-0.649,0.139-1.15,0.418-1.502c0.279-0.352,0.649-0.529,1.113-0.529
				c0.475,0,0.857,0.184,1.148,0.553c0.291,0.367,0.436,0.882,0.436,1.543C327.825,472.762,327.749,473.114,327.599,473.405z"/>
			<path id="XMLID_49_" style="fill:#FFFFFF;" d="M335.978,470.108c-0.165-0.339-0.417-0.602-0.753-0.788
				c-0.337-0.186-0.718-0.28-1.146-0.28c-0.439,0-0.828,0.088-1.166,0.264c-0.339,0.176-0.651,0.452-0.935,0.828v-0.196
				c0-0.193-0.034-0.358-0.104-0.493c-0.07-0.134-0.162-0.234-0.276-0.302c-0.115-0.068-0.244-0.101-0.387-0.101
				c-0.233,0-0.417,0.076-0.552,0.228c-0.134,0.152-0.201,0.383-0.201,0.692v4.682c0,0.317,0.076,0.56,0.226,0.73
				c0.15,0.17,0.342,0.255,0.576,0.255c0.241,0,0.438-0.082,0.59-0.246c0.152-0.164,0.228-0.411,0.228-0.74v-2.03
				c0-0.661,0.04-1.111,0.119-1.353c0.11-0.3,0.284-0.537,0.522-0.71c0.237-0.173,0.5-0.258,0.788-0.258
				c0.444,0,0.74,0.142,0.888,0.425c0.148,0.283,0.223,0.691,0.223,1.225v2.7c0,0.317,0.074,0.56,0.226,0.73
				c0.15,0.17,0.345,0.255,0.587,0.255c0.238,0,0.431-0.083,0.578-0.249c0.149-0.166,0.223-0.412,0.223-0.737v-3.015
				c0-0.356-0.016-0.648-0.048-0.878C336.155,470.52,336.085,470.306,335.978,470.108z"/>
			<path id="XMLID_46_" style="fill:#FFFFFF;" d="M342.821,472.551c0.234-0.122,0.35-0.385,0.35-0.793
				c0-0.438-0.113-0.87-0.338-1.294c-0.226-0.423-0.565-0.769-1.019-1.035c-0.453-0.268-0.995-0.4-1.628-0.4
				c-0.487,0-0.93,0.078-1.33,0.234c-0.4,0.157-0.736,0.381-1.009,0.674c-0.273,0.293-0.481,0.644-0.624,1.054
				c-0.142,0.409-0.214,0.853-0.214,1.332c0,1.017,0.289,1.822,0.866,2.415c0.578,0.592,1.387,0.89,2.428,0.89
				c0.455,0,0.858-0.059,1.208-0.178c0.35-0.12,0.64-0.268,0.871-0.448c0.232-0.18,0.405-0.368,0.52-0.564
				c0.115-0.197,0.172-0.367,0.172-0.514c0-0.166-0.051-0.294-0.154-0.386c-0.103-0.09-0.238-0.137-0.404-0.137
				c-0.154,0-0.273,0.035-0.356,0.107c-0.201,0.19-0.366,0.34-0.492,0.451c-0.128,0.111-0.266,0.216-0.416,0.312
				c-0.151,0.098-0.306,0.167-0.466,0.214c-0.161,0.045-0.338,0.067-0.532,0.067c-0.289,0-0.553-0.07-0.792-0.213
				c-0.239-0.142-0.431-0.354-0.576-0.635c-0.145-0.281-0.218-0.605-0.223-0.973h3.169
				C342.26,472.732,342.588,472.671,342.821,472.551z M338.667,471.812c0.056-0.546,0.212-0.959,0.471-1.238
				c0.259-0.279,0.591-0.418,0.995-0.418c0.424,0,0.765,0.137,1.024,0.412c0.259,0.275,0.409,0.69,0.448,1.244H338.667z"/>
			<path id="XMLID_43_" style="fill:#FFFFFF;" d="M349.207,466.63c-0.245,0-0.435,0.085-0.567,0.255
				c-0.132,0.17-0.199,0.421-0.199,0.753v2.392c-0.304-0.331-0.616-0.579-0.937-0.739c-0.32-0.159-0.714-0.24-1.181-0.24
				c-0.807,0-1.458,0.283-1.953,0.848c-0.495,0.566-0.741,1.356-0.741,2.369c0,0.478,0.062,0.923,0.187,1.335
				c0.124,0.412,0.308,0.77,0.549,1.074c0.241,0.304,0.527,0.539,0.857,0.704c0.33,0.164,0.689,0.246,1.077,0.246
				c0.293,0,0.563-0.04,0.811-0.122c0.247-0.081,0.476-0.2,0.688-0.356c0.211-0.156,0.426-0.359,0.643-0.608v0.16
				c0,0.297,0.073,0.525,0.217,0.685c0.145,0.161,0.328,0.24,0.549,0.24c0.226,0,0.409-0.078,0.552-0.231
				c0.143-0.154,0.214-0.386,0.214-0.694v-7.146c0-0.305-0.066-0.534-0.199-0.691C349.64,466.709,349.452,466.63,349.207,466.63z
				 M348.141,473.471c-0.14,0.306-0.328,0.533-0.564,0.682c-0.235,0.149-0.495,0.223-0.781,0.223c-0.281,0-0.539-0.079-0.776-0.236
				c-0.238-0.155-0.425-0.388-0.561-0.696c-0.137-0.309-0.205-0.682-0.205-1.122c0-0.416,0.064-0.78,0.193-1.095
				c0.129-0.315,0.31-0.556,0.543-0.724c0.233-0.168,0.499-0.253,0.795-0.253c0.285,0,0.547,0.082,0.786,0.246
				c0.239,0.165,0.43,0.402,0.57,0.712c0.14,0.311,0.21,0.682,0.21,1.114C348.352,472.78,348.281,473.164,348.141,473.471z"/>
			<path id="XMLID_40_" style="fill:#FFFFFF;" d="M358.586,469.434c-0.406-0.254-0.878-0.382-1.416-0.382
				c-0.467,0-0.859,0.084-1.175,0.252c-0.317,0.168-0.627,0.411-0.932,0.727v-2.475c0-0.297-0.068-0.524-0.202-0.685
				c-0.134-0.16-0.326-0.24-0.576-0.24c-0.237,0-0.423,0.084-0.555,0.252c-0.132,0.168-0.198,0.416-0.198,0.744v7.075
				c0,0.305,0.068,0.535,0.205,0.692c0.136,0.156,0.319,0.234,0.549,0.234c0.226,0,0.412-0.078,0.558-0.234
				c0.147-0.157,0.22-0.388,0.22-0.692v-0.16c0.178,0.205,0.322,0.361,0.43,0.463c0.109,0.103,0.241,0.203,0.395,0.3
				c0.154,0.098,0.341,0.175,0.561,0.234c0.22,0.06,0.454,0.089,0.704,0.089c0.407,0,0.78-0.082,1.119-0.246
				c0.338-0.164,0.626-0.397,0.864-0.698c0.237-0.3,0.418-0.656,0.543-1.065c0.125-0.41,0.187-0.859,0.187-1.35
				c0-0.665-0.112-1.241-0.336-1.725C359.305,470.06,358.991,469.69,358.586,469.434z M357.796,473.845
				c-0.295,0.355-0.646,0.531-1.053,0.531c-0.479,0-0.866-0.174-1.161-0.52c-0.295-0.346-0.442-0.841-0.442-1.487
				c0-0.439,0.069-0.818,0.208-1.136c0.138-0.319,0.328-0.562,0.57-0.73c0.24-0.168,0.516-0.253,0.825-0.253
				c0.3,0,0.564,0.085,0.79,0.253c0.225,0.168,0.399,0.406,0.522,0.715c0.123,0.308,0.184,0.677,0.184,1.104
				C358.238,472.983,358.09,473.49,357.796,473.845z"/>
			<path id="XMLID_39_" style="fill:#FFFFFF;" d="M365.529,469.138c-0.112-0.066-0.23-0.098-0.353-0.098
				c-0.171,0-0.303,0.03-0.395,0.09c-0.093,0.058-0.181,0.173-0.264,0.344c-0.083,0.17-0.176,0.406-0.279,0.706l-1.3,3.71
				l-1.371-3.988c-0.091-0.277-0.195-0.489-0.314-0.638c-0.119-0.148-0.295-0.223-0.528-0.223c-0.135,0-0.264,0.035-0.389,0.107
				c-0.125,0.071-0.222,0.166-0.294,0.285c-0.071,0.118-0.107,0.246-0.107,0.385c0,0.13,0.062,0.341,0.184,0.629l1.994,5.022
				l-0.148,0.363c-0.111,0.265-0.209,0.466-0.294,0.601c-0.085,0.138-0.181,0.234-0.287,0.289c-0.107,0.056-0.254,0.084-0.44,0.084
				c-0.074,0-0.164-0.012-0.266-0.035c-0.083-0.024-0.168-0.037-0.256-0.037c-0.221,0-0.388,0.051-0.5,0.152
				c-0.113,0.101-0.17,0.245-0.17,0.43c0,0.273,0.118,0.461,0.356,0.565c0.237,0.102,0.593,0.154,1.068,0.154
				c0.487,0,0.873-0.074,1.161-0.223c0.287-0.148,0.517-0.361,0.691-0.638c0.175-0.277,0.353-0.659,0.535-1.145l2.113-5.532
				c0.051-0.142,0.095-0.283,0.13-0.421c0.037-0.139,0.061-0.246,0.078-0.321c0-0.123-0.032-0.239-0.093-0.35
				C365.729,469.291,365.642,469.203,365.529,469.138z"/>
		</g>
		<g id="XMLID_2_">
			<g id="XMLID_17_">
				<path id="XMLID_37_" style="fill:#FFFFFF;" d="M387.93,466.626c-0.533,0-0.954,0.069-1.26,0.204
					c-0.307,0.137-0.527,0.354-0.654,0.652c-0.129,0.301-0.191,0.702-0.191,1.211v0.487h-0.387c-0.543,0-0.815,0.192-0.815,0.582
					c0,0.174,0.066,0.316,0.197,0.423c0.132,0.111,0.315,0.164,0.558,0.164h0.447v4.294c0,0.319,0.074,0.563,0.227,0.73
					c0.155,0.17,0.344,0.254,0.574,0.254c0.243,0,0.438-0.084,0.589-0.254c0.156-0.167,0.231-0.411,0.231-0.73v-4.294h0.396
					c0.29,0,0.517-0.035,0.68-0.108c0.166-0.071,0.245-0.24,0.245-0.502c0-0.374-0.306-0.56-0.926-0.56h-0.396v-0.386
					c0-0.322,0.043-0.568,0.122-0.74c0.087-0.172,0.273-0.259,0.566-0.259c0.107,0,0.241,0.014,0.389,0.034
					c0.156,0.026,0.267,0.038,0.33,0.038c0.134,0,0.252-0.054,0.348-0.16c0.101-0.108,0.15-0.236,0.15-0.384
					C389.35,466.856,388.879,466.626,387.93,466.626z"/>
				<path id="XMLID_36_" style="fill:#FFFFFF;" d="M393.089,469.292c-0.32-0.171-0.647-0.255-0.99-0.255
					c-0.342,0-0.611,0.084-0.818,0.255c-0.203,0.171-0.4,0.421-0.592,0.755c-0.014-0.334-0.08-0.584-0.198-0.755
					c-0.119-0.171-0.312-0.255-0.583-0.255c-0.525,0-0.788,0.364-0.788,1.093v4.513c0,0.323,0.078,0.569,0.225,0.733
					c0.15,0.168,0.34,0.25,0.579,0.25c0.237,0,0.432-0.081,0.586-0.247c0.151-0.163,0.234-0.41,0.234-0.737v-1.355
					c0-0.486,0.014-0.899,0.045-1.239c0.034-0.336,0.09-0.63,0.17-0.878c0.084-0.243,0.201-0.425,0.353-0.553
					c0.149-0.122,0.345-0.186,0.582-0.186c0.171,0,0.373,0.037,0.602,0.108c0.226,0.073,0.371,0.112,0.433,0.112
					c0.157,0,0.304-0.064,0.441-0.195c0.135-0.126,0.204-0.292,0.204-0.488C393.571,469.69,393.411,469.463,393.089,469.292z"/>
				<path id="XMLID_33_" style="fill:#FFFFFF;" d="M399.176,472.549c0.233-0.122,0.351-0.386,0.351-0.792
					c0-0.441-0.113-0.87-0.339-1.296c-0.222-0.423-0.566-0.77-1.018-1.034c-0.453-0.27-0.997-0.403-1.629-0.403
					c-0.488,0-0.931,0.078-1.33,0.233c-0.401,0.156-0.735,0.38-1.007,0.674c-0.276,0.295-0.484,0.643-0.624,1.055
					c-0.144,0.41-0.217,0.855-0.217,1.333c0,1.017,0.292,1.823,0.87,2.418c0.577,0.593,1.385,0.888,2.429,0.888
					c0.453,0,0.857-0.06,1.207-0.179c0.349-0.117,0.639-0.268,0.874-0.446c0.232-0.182,0.405-0.368,0.522-0.566
					c0.112-0.195,0.167-0.365,0.167-0.512c0-0.167-0.048-0.293-0.152-0.386c-0.105-0.092-0.238-0.139-0.406-0.139
					c-0.152,0-0.271,0.038-0.355,0.109c-0.202,0.189-0.367,0.34-0.494,0.449c-0.128,0.113-0.264,0.217-0.415,0.312
					c-0.15,0.097-0.307,0.17-0.466,0.213c-0.16,0.048-0.336,0.069-0.531,0.069c-0.29,0-0.552-0.069-0.793-0.212
					c-0.24-0.145-0.431-0.356-0.578-0.635c-0.144-0.281-0.216-0.607-0.221-0.974h3.171
					C398.615,472.73,398.943,472.67,399.176,472.549z M395.021,471.809c0.054-0.546,0.213-0.957,0.472-1.236
					c0.259-0.28,0.591-0.417,0.995-0.417c0.426,0,0.764,0.136,1.025,0.412c0.26,0.273,0.407,0.688,0.446,1.241H395.021z"/>
				<path id="XMLID_30_" style="fill:#FFFFFF;" d="M405.916,472.549c0.231-0.122,0.351-0.386,0.351-0.792
					c0-0.441-0.116-0.87-0.34-1.296c-0.222-0.423-0.563-0.77-1.013-1.034c-0.46-0.27-1.003-0.403-1.633-0.403
					c-0.486,0-0.932,0.078-1.331,0.233c-0.401,0.156-0.736,0.38-1.009,0.674c-0.273,0.295-0.481,0.643-0.622,1.055
					c-0.145,0.41-0.217,0.855-0.217,1.333c0,1.017,0.29,1.823,0.868,2.418c0.58,0.593,1.387,0.888,2.429,0.888
					c0.453,0,0.86-0.06,1.208-0.179c0.347-0.117,0.641-0.268,0.872-0.446c0.234-0.182,0.408-0.368,0.519-0.566
					c0.117-0.195,0.171-0.365,0.171-0.512c0-0.167-0.047-0.293-0.15-0.386c-0.104-0.092-0.239-0.139-0.406-0.139
					c-0.151,0-0.27,0.038-0.355,0.109c-0.203,0.189-0.368,0.34-0.492,0.449c-0.128,0.113-0.264,0.217-0.415,0.312
					c-0.153,0.097-0.307,0.17-0.469,0.213c-0.157,0.048-0.336,0.069-0.528,0.069c-0.291,0-0.555-0.069-0.794-0.212
					c-0.239-0.145-0.431-0.356-0.576-0.635c-0.143-0.281-0.218-0.607-0.221-0.974h3.17
					C405.354,472.73,405.682,472.67,405.916,472.549z M401.762,471.809c0.052-0.546,0.211-0.957,0.469-1.236
					c0.261-0.28,0.592-0.417,0.995-0.417c0.425,0,0.763,0.136,1.026,0.412c0.257,0.273,0.407,0.688,0.447,1.241H401.762z"/>
				<path id="XMLID_27_" style="fill:#FFFFFF;" d="M411.926,469.434c-0.42-0.256-0.882-0.386-1.379-0.386
					c-0.415,0-0.789,0.089-1.113,0.267c-0.332,0.176-0.649,0.452-0.953,0.827v-0.195c0-0.296-0.071-0.519-0.218-0.677
					c-0.143-0.156-0.329-0.234-0.56-0.234c-0.233,0-0.419,0.078-0.553,0.228c-0.134,0.155-0.2,0.382-0.2,0.692v6.995
					c0,0.355,0.051,0.62,0.146,0.807c0.102,0.183,0.301,0.275,0.607,0.275c0.517,0,0.777-0.359,0.777-1.069v-2.433
					c0.287,0.358,0.586,0.634,0.901,0.816c0.314,0.187,0.704,0.279,1.165,0.279c0.385,0,0.741-0.076,1.079-0.227
					c0.334-0.153,0.622-0.372,0.868-0.654c0.245-0.283,0.441-0.632,0.58-1.05c0.14-0.419,0.21-0.878,0.21-1.376
					c0-0.677-0.122-1.261-0.366-1.758C412.675,470.069,412.346,469.693,411.926,469.434z M411.451,473.437
					c-0.137,0.313-0.32,0.546-0.552,0.704c-0.229,0.154-0.48,0.233-0.748,0.233c-0.454,0-0.828-0.179-1.133-0.536
					c-0.306-0.358-0.459-0.862-0.459-1.504c0-0.686,0.154-1.204,0.462-1.558c0.306-0.35,0.684-0.527,1.13-0.527
					c0.281,0,0.541,0.084,0.77,0.248c0.229,0.163,0.411,0.397,0.541,0.705c0.13,0.306,0.196,0.674,0.196,1.101
					C411.658,472.745,411.588,473.123,411.451,473.437z"/>
				<path id="XMLID_26_" style="fill:#FFFFFF;" d="M414.9,469.037c-0.238,0-0.428,0.079-0.58,0.245
					c-0.146,0.162-0.222,0.403-0.222,0.721v4.642c0,0.313,0.076,0.555,0.222,0.729c0.152,0.17,0.342,0.254,0.58,0.254
					c0.238,0,0.432-0.082,0.588-0.25c0.154-0.165,0.231-0.41,0.231-0.732v-4.688c0-0.287-0.078-0.513-0.231-0.675
					C415.332,469.116,415.138,469.037,414.9,469.037z"/>
				<path id="XMLID_25_" style="fill:#FFFFFF;" d="M414.917,466.696c-0.217,0-0.408,0.076-0.571,0.223
					c-0.166,0.149-0.248,0.339-0.248,0.568c0,0.253,0.081,0.447,0.242,0.586c0.159,0.138,0.35,0.209,0.577,0.209
					c0.22,0,0.408-0.071,0.566-0.209c0.157-0.14,0.236-0.335,0.236-0.585c0-0.257-0.082-0.454-0.244-0.591
					C415.315,466.763,415.13,466.696,414.917,466.696z"/>
				<path id="XMLID_24_" style="fill:#FFFFFF;" d="M422.258,474.066l-1.662-2.614l0.86-0.789c0.438-0.396,0.659-0.714,0.659-0.951
					c0-0.192-0.068-0.354-0.2-0.483c-0.139-0.128-0.306-0.193-0.509-0.193c-0.169,0-0.313,0.043-0.431,0.13
					c-0.121,0.086-0.29,0.251-0.517,0.486l-1.822,1.914v-3.933c0-0.329-0.074-0.582-0.221-0.751
					c-0.148-0.171-0.344-0.257-0.593-0.257c-0.255,0-0.456,0.093-0.595,0.283c-0.135,0.189-0.207,0.462-0.207,0.821v6.913
					c0,0.323,0.073,0.569,0.215,0.733c0.141,0.168,0.339,0.25,0.588,0.25c0.213,0,0.406-0.084,0.566-0.254
					c0.165-0.167,0.248-0.406,0.248-0.718v-1.291l0.88-0.83l1.427,2.353c0.181,0.278,0.329,0.471,0.436,0.58
					c0.106,0.109,0.261,0.16,0.458,0.16c0.227,0,0.413-0.073,0.553-0.221c0.141-0.151,0.214-0.352,0.214-0.61
					c0-0.089-0.029-0.19-0.082-0.289C422.47,474.406,422.379,474.262,422.258,474.066z"/>
				<path id="XMLID_23_" style="fill:#FFFFFF;" d="M424.45,473.84c-0.25,0-0.458,0.087-0.63,0.261
					c-0.17,0.173-0.256,0.381-0.256,0.622c0,0.287,0.09,0.51,0.268,0.665c0.179,0.159,0.389,0.238,0.633,0.238
					c0.237,0,0.444-0.079,0.624-0.241c0.174-0.157,0.264-0.379,0.264-0.662c0-0.243-0.089-0.454-0.264-0.626
					C424.909,473.927,424.698,473.84,424.45,473.84z"/>
				<path id="XMLID_22_" style="fill:#FFFFFF;" d="M431.835,472.914c-0.167,0-0.308,0.054-0.422,0.156
					c-0.113,0.104-0.219,0.245-0.318,0.427c-0.178,0.309-0.381,0.538-0.616,0.689c-0.231,0.15-0.509,0.225-0.835,0.225
					c-0.24,0-0.463-0.045-0.665-0.141c-0.201-0.093-0.372-0.229-0.516-0.409c-0.143-0.18-0.252-0.398-0.325-0.652
					c-0.075-0.256-0.114-0.537-0.114-0.842c0-0.646,0.147-1.161,0.439-1.533c0.294-0.375,0.682-0.561,1.158-0.561
					c0.333,0,0.607,0.075,0.821,0.227c0.218,0.148,0.424,0.375,0.622,0.674c0.109,0.158,0.209,0.269,0.299,0.339
					c0.09,0.068,0.201,0.104,0.338,0.104c0.202,0,0.377-0.068,0.524-0.203c0.143-0.135,0.214-0.3,0.214-0.492
					c0-0.192-0.063-0.397-0.192-0.617c-0.128-0.218-0.314-0.423-0.556-0.62c-0.245-0.192-0.54-0.352-0.89-0.474
					c-0.353-0.123-0.736-0.184-1.157-0.184c-0.674,0-1.26,0.139-1.747,0.419c-0.486,0.279-0.859,0.674-1.113,1.183
					c-0.259,0.511-0.387,1.098-0.387,1.765c0,0.981,0.281,1.764,0.841,2.349c0.562,0.582,1.344,0.876,2.348,0.876
					c0.469,0,0.893-0.065,1.268-0.192c0.377-0.126,0.688-0.295,0.934-0.502c0.248-0.207,0.434-0.425,0.553-0.656
					c0.121-0.229,0.182-0.446,0.182-0.646c0-0.169-0.066-0.331-0.198-0.481C432.198,472.99,432.033,472.914,431.835,472.914z"/>
				<path id="XMLID_19_" style="fill:#FFFFFF;" d="M438.647,469.95c-0.288-0.29-0.629-0.517-1.027-0.674
					c-0.4-0.161-0.846-0.239-1.336-0.239c-0.483,0-0.924,0.078-1.326,0.234c-0.398,0.158-0.737,0.38-1.019,0.669
					c-0.281,0.288-0.498,0.637-0.649,1.045c-0.146,0.408-0.224,0.858-0.224,1.349c0,0.485,0.076,0.929,0.219,1.332
					c0.152,0.401,0.369,0.75,0.657,1.048c0.285,0.292,0.627,0.521,1.016,0.676c0.392,0.159,0.835,0.239,1.326,0.239
					c0.492,0,0.937-0.08,1.336-0.234c0.394-0.158,0.735-0.382,1.02-0.675c0.286-0.291,0.502-0.641,0.656-1.05
					c0.146-0.408,0.222-0.855,0.222-1.336c0-0.489-0.075-0.932-0.221-1.339C439.148,470.593,438.933,470.246,438.647,469.95z
					 M437.455,473.866c-0.29,0.372-0.682,0.557-1.171,0.557c-0.324,0-0.605-0.086-0.846-0.253c-0.24-0.168-0.423-0.41-0.553-0.729
					c-0.129-0.317-0.193-0.684-0.193-1.108c0-0.428,0.066-0.803,0.197-1.125c0.131-0.321,0.314-0.563,0.556-0.727
					c0.242-0.164,0.522-0.246,0.84-0.246c0.489,0,0.881,0.182,1.171,0.555c0.289,0.367,0.436,0.881,0.436,1.543
					C437.891,472.984,437.744,473.496,437.455,473.866z"/>
				<path id="XMLID_18_" style="fill:#FFFFFF;" d="M448.569,469.31c-0.32-0.173-0.705-0.262-1.146-0.262
					c-0.381,0-0.726,0.081-1.039,0.241c-0.313,0.161-0.607,0.408-0.881,0.738c-0.192-0.326-0.431-0.572-0.725-0.735
					c-0.292-0.162-0.641-0.243-1.048-0.243c-0.394,0-0.747,0.079-1.07,0.241c-0.319,0.156-0.619,0.403-0.903,0.738v-0.153
					c0-0.261-0.074-0.466-0.222-0.616c-0.15-0.145-0.334-0.222-0.557-0.222c-0.227,0-0.412,0.078-0.555,0.239
					c-0.14,0.157-0.21,0.389-0.21,0.694v4.636c0,0.336,0.078,0.591,0.235,0.765c0.156,0.171,0.357,0.258,0.604,0.258
					c0.248,0,0.447-0.087,0.603-0.258c0.15-0.173,0.226-0.428,0.226-0.765v-2.188c0-0.684,0.086-1.206,0.253-1.566
					c0.168-0.369,0.516-0.55,1.048-0.55c0.263,0,0.459,0.072,0.581,0.22c0.122,0.142,0.198,0.331,0.226,0.552
					c0.027,0.226,0.04,0.544,0.04,0.953v2.581c0,0.341,0.078,0.594,0.232,0.767c0.148,0.17,0.349,0.255,0.594,0.255
					c0.254,0,0.455-0.085,0.611-0.255c0.156-0.173,0.231-0.426,0.231-0.767v-2.153c0-0.695,0.062-1.178,0.178-1.452
					c0.109-0.209,0.259-0.383,0.45-0.508c0.192-0.125,0.395-0.191,0.609-0.191c0.264,0,0.463,0.072,0.596,0.215
					c0.128,0.142,0.209,0.319,0.239,0.529c0.029,0.209,0.043,0.486,0.043,0.836v2.725c0,0.336,0.079,0.591,0.235,0.765
					c0.157,0.171,0.356,0.258,0.603,0.258c0.253,0,0.458-0.085,0.612-0.255c0.154-0.173,0.229-0.426,0.229-0.767v-3.163
					c0-0.629-0.068-1.09-0.206-1.385C449.128,469.734,448.888,469.484,448.569,469.31z"/>
			</g>
			<g id="XMLID_3_">
				<path id="XMLID_16_" style="fill:#FFFFFF;" d="M370.273,471.941c-0.001-0.004-0.001-0.006-0.001-0.011
					C370.272,471.935,370.272,471.937,370.273,471.941z"/>
				<path id="XMLID_15_" style="fill:#FFFFFF;" d="M370.355,472.458c0.001,0,0.001,0,0.001,0c-0.03-0.147-0.055-0.294-0.073-0.438
					C370.301,472.166,370.326,472.313,370.355,472.458z"/>
				<path id="XMLID_14_" style="fill:#FFFFFF;" d="M370.891,473.962c-0.004-0.006-0.007-0.013-0.01-0.021
					C370.884,473.949,370.888,473.956,370.891,473.962z"/>
				<path id="XMLID_13_" style="fill:#FFFFFF;" d="M370.84,473.862c-0.014-0.027-0.027-0.056-0.041-0.084
					C370.813,473.808,370.826,473.835,370.84,473.862z"/>
				<path id="XMLID_12_" style="fill:#FFFFFF;" d="M370.506,473.038c0.079,0.25,0.175,0.492,0.285,0.724
					c-0.113-0.236-0.206-0.479-0.284-0.724H370.506z"/>
				<path id="XMLID_11_" style="fill:#FFFFFF;" d="M375.736,465.178l-0.076-0.259c0.299-0.063,0.524-0.329,0.524-0.646
					c0-0.364-0.297-0.659-0.66-0.659c-0.365,0-0.66,0.295-0.66,0.659c0,0.317,0.225,0.583,0.522,0.646l0.084,0.289
					c-1.021,0.14-1.834,0.539-1.834,0.539l0.144,0.441c0.617-0.206,1.153-0.331,1.64-0.383c0.476-0.051,0.834-0.073,1.126-0.073
					c0.314,0,0.544,0.025,0.809,0.069l0.075-0.476C377.429,465.325,376.698,465.099,375.736,465.178z"/>
				<path id="XMLID_10_" style="fill:#FFFFFF;" d="M370.453,467.685c-0.017,0.024-0.497,0.465-0.876,1.28
					c-0.016-0.026-0.035-0.051-0.056-0.074c-0.113-0.124-0.272-0.187-0.474-0.184c-0.003,0-0.006,0-0.01,0
					c-0.124,0-0.21-0.042-0.266-0.092c0.055-0.071,0.089-0.161,0.089-0.258c0-0.231-0.187-0.419-0.419-0.419
					c-0.23,0-0.417,0.188-0.417,0.419c0,0.231,0.187,0.417,0.417,0.417c0.037,0,0.071-0.005,0.105-0.012
					c0.103,0.113,0.266,0.214,0.504,0.209c0.123-0.001,0.214,0.03,0.273,0.097c0.069,0.076,0.093,0.185,0.1,0.267
					c-0.001,0.002-0.001,0.004-0.002,0.004c-0.272,0.743-0.195,1.668-0.195,1.668l0.661,0.026c0.014-0.336,0.062-0.926,0.233-1.393
					c0.328-0.906,0.741-1.472,0.757-1.496l0.004-0.005c0.024-0.031,0.047-0.06,0.071-0.089l-0.196-0.142L370.453,467.685z"/>
				<path id="XMLID_9_" style="fill:#FFFFFF;" d="M382.293,466.284c-0.23,0-0.418,0.187-0.418,0.417
					c0,0.037,0.005,0.071,0.015,0.104c-0.115,0.104-0.214,0.267-0.211,0.507c0.002,0.123-0.03,0.212-0.096,0.273
					c-0.053,0.047-0.12,0.072-0.185,0.088c-0.492-0.689-1.097-1.109-1.097-1.109l-0.474,0.508c0.358,0.326,0.724,0.734,1.08,1.244
					c0.246,0.352,0.499,0.806,0.71,1.259l0.64-0.304c0,0-0.292-0.722-0.704-1.369c0.071-0.025,0.143-0.064,0.207-0.12
					c0.125-0.113,0.187-0.273,0.183-0.474c-0.001-0.13,0.042-0.218,0.093-0.276c0.071,0.054,0.16,0.089,0.257,0.089
					c0.232,0,0.419-0.187,0.419-0.419C382.712,466.471,382.525,466.284,382.293,466.284z"/>
				<path id="XMLID_8_" style="fill:#FFFFFF;" d="M380.633,472.034c-0.88,0.429-2.33,0.996-4.237,1.262
					c-0.749,0.104-1.474,0.142-2.143,0.142c-0.869,0-1.637-0.065-2.226-0.139c-0.672-0.085-1.198-0.189-1.52-0.261
					c0.078,0.245,0.171,0.488,0.284,0.724c0.002,0.006,0.005,0.013,0.008,0.017c0.013,0.027,0.027,0.056,0.041,0.084
					c0.013,0.027,0.027,0.054,0.041,0.079c0.004,0.007,0.007,0.015,0.01,0.021c0.189,0.357,0.417,0.684,0.676,0.968
					c0.9,0.984,1.816,1.139,1.825,1.141l0.015,0.002l0.013,0.005c0.009,0.003,0.821,0.265,2.056,0.265
					c1.216,0,2.409-0.245,3.546-0.729c0.842-0.431,1.639-1.085,2.033-1.668c0.305-0.452,0.526-0.934,0.656-1.434
					c0.07-0.266,0.124-0.693,0.092-1.141C381.555,471.539,381.163,471.776,380.633,472.034z"/>
				<path id="XMLID_4_" style="fill:#FFFFFF;" d="M377.322,466.152c-0.264-0.043-0.477-0.068-0.777-0.068
					c-0.279,0-0.626,0.022-1.089,0.071c-0.465,0.049-0.982,0.171-1.583,0.373c-0.842,0.282-1.604,0.724-2.204,1.28l-0.02,0.019
					c-0.089,0.081-0.275,0.254-0.488,0.526c-0.026,0.037-0.408,0.578-0.709,1.408c-0.226,0.622-0.216,1.527-0.216,1.537v0.002
					c0,0.212,0.012,0.423,0.036,0.632c0,0.005,0,0.007,0.001,0.011c0.003,0.027,0.007,0.052,0.01,0.079
					c0.018,0.144,0.043,0.291,0.074,0.438c0.437,0.112,3.048,0.721,5.966,0.314c1.829-0.254,3.218-0.795,4.061-1.204
					c0.701-0.34,1.151-0.647,1.325-0.774c-0.173-0.643-0.651-1.65-1.089-2.279C379.367,466.726,378.016,466.266,377.322,466.152z
					 M373.679,471.41c-0.971,0-1.759-0.787-1.759-1.759c0-0.972,0.788-1.761,1.759-1.761c0.973,0,1.76,0.788,1.76,1.761
					C375.439,470.624,374.651,471.41,373.679,471.41z M378.828,470.114c-0.601,0-1.089-0.489-1.089-1.09
					c0-0.602,0.488-1.089,1.089-1.089c0.6,0,1.089,0.487,1.089,1.089C379.918,469.625,379.429,470.114,378.828,470.114z"/>
			</g>
		</g>
	</g>
</g>
</svg>
