<?xml version="1.0" encoding="utf-8"?>
<!-- Generator: Adobe Illustrator 27.5.0, SVG Export Plug-In . SVG Version: 6.00 Build 0)  -->
<svg version="1.1" xmlns="http://www.w3.org/2000/svg" xmlns:xlink="http://www.w3.org/1999/xlink" x="0px" y="0px"
	 viewBox="0 0 750 500" style="enable-background:new 0 0 750 500;" xml:space="preserve">
<g id="BACKGROUND">
	<g>
		<rect style="fill:#DAE6EA;" width="750" height="500"/>
	</g>
</g>
<g id="OBJECTS">
	<path style="fill:#FFFFFF;" d="M539.356,245.35c76.899,42.057,24.167,132.623-30.109,71.825
		c-73.499-82.331-170.864-119.11-265.641-45.936s-123.011,24.357-118.67,4.971c4.34-19.386-37.787-5.124-34.723,45.082
		c3.064,50.206,32.681,66.219,32.681,66.219l558.462,1.241C708.753,177.312,478.676,212.163,539.356,245.35z"/>
	<g>
		<g>
			<g>
				<path style="fill:#B9C4C9;" d="M240.166,104.633L240.166,104.633c-6.806,0-12.323,5.517-12.323,12.323v24.458h24.646v-24.458
					C252.488,110.15,246.971,104.633,240.166,104.633z"/>
				<path style="fill:#B9C4C9;" d="M240.116,86.922L240.116,86.922c-1.281,0-2.319,1.038-2.319,2.319v19.544h4.638V89.241
					C242.435,87.96,241.397,86.922,240.116,86.922z"/>
				<path style="fill:#A1ACB2;" d="M240.166,86.927v21.858h2.269V89.241C242.435,87.977,241.423,86.954,240.166,86.927z"/>
				<path style="fill:#A1ACB2;" d="M252.488,141.413v-24.458c0-6.806-5.517-12.323-12.323-12.323v36.781H252.488z"/>
			</g>
			<g>
				<path style="fill:#2A4A70;" d="M232.599,133.78L232.599,133.78c-0.663,0-1.201-0.538-1.201-1.201v-15.409
					c0-0.663,0.538-1.201,1.201-1.201l0,0c0.663,0,1.201,0.538,1.201,1.201v15.409C233.8,133.243,233.262,133.78,232.599,133.78z"/>
				<path style="fill:#2A4A70;" d="M240.116,133.78L240.116,133.78c-0.663,0-1.201-0.538-1.201-1.201v-15.409
					c0-0.663,0.538-1.201,1.201-1.201l0,0c0.663,0,1.201,0.538,1.201,1.201v15.409C241.317,133.243,240.779,133.78,240.116,133.78z"
					/>
				<path style="fill:#2A4A70;" d="M247.633,133.78L247.633,133.78c-0.663,0-1.201-0.538-1.201-1.201v-15.409
					c0-0.663,0.538-1.201,1.201-1.201l0,0c0.663,0,1.201,0.538,1.201,1.201v15.409C248.833,133.243,248.296,133.78,247.633,133.78z"
					/>
			</g>
		</g>
		<g>
			<g>
				<rect x="208.692" y="145.36" style="fill:#A1ACB2;" width="62.948" height="4.458"/>
				<g>
					<rect x="209.165" y="141.413" style="fill:#DAE2E5;" width="31.236" height="3.947"/>
					<rect x="239.931" y="141.413" style="fill:#B9C4C9;" width="31.236" height="3.947"/>
				</g>
			</g>
			<g>
				<g>
					<g>
						<path style="fill:#B9C4C9;" d="M216.515,134.226L216.515,134.226c-3.153,0-5.709,2.556-5.709,5.709v9.884h11.418v-9.884
							C222.224,136.782,219.668,134.226,216.515,134.226z"/>
						<path style="fill:#B9C4C9;" d="M216.492,126.021L216.492,126.021c-0.593,0-1.074,0.481-1.074,1.074v9.054h2.148v-9.054
							C217.566,126.502,217.085,126.021,216.492,126.021z"/>
						<path style="fill:#A1ACB2;" d="M216.515,126.024v10.126h1.051v-9.054C217.566,126.51,217.097,126.036,216.515,126.024z"/>
						<path style="fill:#A1ACB2;" d="M222.224,149.819v-9.884c0-3.153-2.556-5.709-5.709-5.709v15.592H222.224z"/>
					</g>
					<g>
						<path style="fill:#2A4A70;" d="M213.009,147.73L213.009,147.73c-0.307,0-0.556-0.249-0.556-0.556v-7.138
							c0-0.307,0.249-0.556,0.556-0.556l0,0c0.307,0,0.556,0.249,0.556,0.556v7.138C213.566,147.481,213.317,147.73,213.009,147.73z
							"/>
						<path style="fill:#2A4A70;" d="M216.492,147.73L216.492,147.73c-0.307,0-0.556-0.249-0.556-0.556v-7.138
							c0-0.307,0.249-0.556,0.556-0.556l0,0c0.307,0,0.556,0.249,0.556,0.556v7.138C217.048,147.481,216.799,147.73,216.492,147.73z
							"/>
						<path style="fill:#2A4A70;" d="M219.974,147.73L219.974,147.73c-0.307,0-0.556-0.249-0.556-0.556v-7.138
							c0-0.307,0.249-0.556,0.556-0.556l0,0c0.307,0,0.556,0.249,0.556,0.556v7.138C220.53,147.481,220.281,147.73,219.974,147.73z"
							/>
					</g>
				</g>
				<g>
					<g>
						<path style="fill:#B9C4C9;" d="M227.932,134.226L227.932,134.226c-3.153,0-5.709,2.556-5.709,5.709v9.884h11.418v-9.884
							C233.641,136.782,231.085,134.226,227.932,134.226z"/>
						<path style="fill:#B9C4C9;" d="M227.909,126.021L227.909,126.021c-0.593,0-1.074,0.481-1.074,1.074v9.054h2.148v-9.054
							C228.984,126.502,228.503,126.021,227.909,126.021z"/>
						<path style="fill:#A1ACB2;" d="M227.932,126.024v10.126h1.051v-9.054C228.984,126.51,228.515,126.036,227.932,126.024z"/>
						<path style="fill:#A1ACB2;" d="M233.641,149.819v-9.884c0-3.153-2.556-5.709-5.709-5.709v15.592H233.641z"/>
					</g>
					<g>
						<path style="fill:#2A4A70;" d="M224.427,147.73L224.427,147.73c-0.307,0-0.556-0.249-0.556-0.556v-7.138
							c0-0.307,0.249-0.556,0.556-0.556h0c0.307,0,0.556,0.249,0.556,0.556v7.138C224.983,147.481,224.734,147.73,224.427,147.73z"
							/>
						<path style="fill:#2A4A70;" d="M227.909,147.73L227.909,147.73c-0.307,0-0.556-0.249-0.556-0.556v-7.138
							c0-0.307,0.249-0.556,0.556-0.556l0,0c0.307,0,0.556,0.249,0.556,0.556v7.138C228.466,147.481,228.217,147.73,227.909,147.73z
							"/>
						<path style="fill:#2A4A70;" d="M231.392,147.73L231.392,147.73c-0.307,0-0.556-0.249-0.556-0.556v-7.138
							c0-0.307,0.249-0.556,0.556-0.556l0,0c0.307,0,0.556,0.249,0.556,0.556v7.138C231.948,147.481,231.699,147.73,231.392,147.73z
							"/>
					</g>
				</g>
				<g>
					<g>
						<path style="fill:#B9C4C9;" d="M252.408,134.226L252.408,134.226c-3.153,0-5.709,2.556-5.709,5.709v9.884h11.418v-9.884
							C258.117,136.782,255.561,134.226,252.408,134.226z"/>
						<path style="fill:#B9C4C9;" d="M252.385,126.021L252.385,126.021c-0.593,0-1.074,0.481-1.074,1.074v9.054h2.148v-9.054
							C253.459,126.502,252.978,126.021,252.385,126.021z"/>
						<path style="fill:#A1ACB2;" d="M252.408,126.024v10.126h1.051v-9.054C253.459,126.51,252.991,126.036,252.408,126.024z"/>
						<path style="fill:#A1ACB2;" d="M258.117,149.819v-9.884c0-3.153-2.556-5.709-5.709-5.709v15.592H258.117z"/>
					</g>
					<g>
						<path style="fill:#2A4A70;" d="M248.903,147.73L248.903,147.73c-0.307,0-0.556-0.249-0.556-0.556v-7.138
							c0-0.307,0.249-0.556,0.556-0.556l0,0c0.307,0,0.556,0.249,0.556,0.556v7.138C249.459,147.481,249.21,147.73,248.903,147.73z"
							/>
						<path style="fill:#2A4A70;" d="M252.385,147.73L252.385,147.73c-0.307,0-0.556-0.249-0.556-0.556v-7.138
							c0-0.307,0.249-0.556,0.556-0.556l0,0c0.307,0,0.556,0.249,0.556,0.556v7.138C252.941,147.481,252.692,147.73,252.385,147.73z
							"/>
						<path style="fill:#2A4A70;" d="M255.867,147.73L255.867,147.73c-0.307,0-0.556-0.249-0.556-0.556v-7.138
							c0-0.307,0.249-0.556,0.556-0.556l0,0c0.307,0,0.556,0.249,0.556,0.556v7.138C256.424,147.481,256.175,147.73,255.867,147.73z
							"/>
					</g>
				</g>
				<g>
					<g>
						<path style="fill:#B9C4C9;" d="M263.826,134.226L263.826,134.226c-3.153,0-5.709,2.556-5.709,5.709v9.884h11.418v-9.884
							C269.535,136.782,266.979,134.226,263.826,134.226z"/>
						<path style="fill:#B9C4C9;" d="M263.803,126.021L263.803,126.021c-0.593,0-1.074,0.481-1.074,1.074v9.054h2.148v-9.054
							C264.877,126.502,264.396,126.021,263.803,126.021z"/>
						<path style="fill:#A1ACB2;" d="M263.826,126.024v10.126h1.051v-9.054C264.877,126.51,264.408,126.036,263.826,126.024z"/>
						<path style="fill:#A1ACB2;" d="M269.535,149.819v-9.884c0-3.153-2.556-5.709-5.709-5.709v15.592H269.535z"/>
					</g>
					<g>
						<path style="fill:#2A4A70;" d="M260.321,147.73L260.321,147.73c-0.307,0-0.556-0.249-0.556-0.556v-7.138
							c0-0.307,0.249-0.556,0.556-0.556l0,0c0.307,0,0.556,0.249,0.556,0.556v7.138C260.877,147.481,260.628,147.73,260.321,147.73z
							"/>
						<path style="fill:#2A4A70;" d="M263.803,147.73L263.803,147.73c-0.307,0-0.556-0.249-0.556-0.556v-7.138
							c0-0.307,0.249-0.556,0.556-0.556l0,0c0.307,0,0.556,0.249,0.556,0.556v7.138C264.359,147.481,264.11,147.73,263.803,147.73z"
							/>
						<path style="fill:#2A4A70;" d="M267.285,147.73L267.285,147.73c-0.307,0-0.556-0.249-0.556-0.556v-7.138
							c0-0.307,0.249-0.556,0.556-0.556l0,0c0.307,0,0.556,0.249,0.556,0.556v7.138C267.841,147.481,267.592,147.73,267.285,147.73z
							"/>
					</g>
				</g>
			</g>
			<rect x="177.304" y="204.872" style="fill:#6F8087;" width="125.724" height="46.11"/>
			<rect x="240.166" y="204.872" style="fill:#6F8087;" width="62.862" height="46.11"/>
			<rect x="215.651" y="204.872" style="fill:#A1ACB2;" width="49.03" height="46.11"/>
			<rect x="240.166" y="204.872" style="fill:#86949B;" width="24.515" height="46.11"/>
			<rect x="201.056" y="149.819" style="fill:#6F8087;" width="78.219" height="46.11"/>
			<rect x="240.166" y="149.819" style="fill:#6F8087;" width="39.11" height="46.11"/>
			<rect x="226.848" y="149.819" style="fill:#86949B;" width="26.635" height="46.11"/>
			<rect x="240.166" y="149.819" style="fill:#86949B;" width="13.317" height="46.11"/>
			<g>
				<rect x="218.722" y="208.921" style="fill:#2A4A70;" width="7.534" height="21.031"/>
				<rect x="236.399" y="208.921" style="fill:#2A4A70;" width="7.534" height="21.031"/>
				<rect x="254.076" y="208.921" style="fill:#2A4A70;" width="7.534" height="21.031"/>
			</g>
			<g>
				<rect x="190.991" y="208.921" style="fill:#2A4A70;" width="18.483" height="42.061"/>
				<g>
					<g>
						<path style="fill:#B9C4C9;" d="M181.573,233.679L181.573,233.679c-3.499,0-6.335,2.836-6.335,6.335v10.968h12.67v-10.968
							C187.908,236.515,185.072,233.679,181.573,233.679z"/>
						<path style="fill:#B9C4C9;" d="M181.547,224.574L181.547,224.574c-0.658,0-1.192,0.534-1.192,1.192v10.048h2.384v-10.048
							C182.74,225.107,182.206,224.574,181.547,224.574z"/>
						<path style="fill:#A1ACB2;" d="M181.573,224.576v11.237h1.166v-10.048C182.74,225.116,182.219,224.59,181.573,224.576z"/>
						<path style="fill:#A1ACB2;" d="M187.908,250.982v-10.968c0-3.499-2.836-6.335-6.335-6.335v17.303H187.908z"/>
					</g>
					<g>
						<path style="fill:#2A4A70;" d="M177.683,248.664L177.683,248.664c-0.341,0-0.617-0.276-0.617-0.617v-7.922
							c0-0.341,0.276-0.617,0.617-0.617l0,0c0.341,0,0.617,0.276,0.617,0.617v7.922C178.3,248.388,178.024,248.664,177.683,248.664z
							"/>
						<path style="fill:#2A4A70;" d="M181.547,248.664L181.547,248.664c-0.341,0-0.617-0.276-0.617-0.617v-7.922
							c0-0.341,0.276-0.617,0.617-0.617l0,0c0.341,0,0.617,0.276,0.617,0.617v7.922
							C182.165,248.388,181.888,248.664,181.547,248.664z"/>
						<path style="fill:#2A4A70;" d="M185.412,248.664L185.412,248.664c-0.341,0-0.617-0.276-0.617-0.617v-7.922
							c0-0.341,0.276-0.617,0.617-0.617l0,0c0.341,0,0.617,0.276,0.617,0.617v7.922
							C186.029,248.388,185.753,248.664,185.412,248.664z"/>
					</g>
				</g>
				<g>
					<g>
						<path style="fill:#B9C4C9;" d="M190.991,242.523L190.991,242.523c-1.703,0-3.083,1.38-3.083,3.083v5.337h6.166v-5.337
							C194.074,243.903,192.694,242.523,190.991,242.523z"/>
						<rect x="190.398" y="238.092" style="fill:#B9C4C9;" width="1.16" height="5.469"/>
						<rect x="190.991" y="238.092" style="fill:#A1ACB2;" width="0.568" height="5.469"/>
						<path style="fill:#A1ACB2;" d="M194.074,250.943v-5.337c0-1.703-1.38-3.083-3.083-3.083v8.42H194.074z"/>
					</g>
					<g>
						<path style="fill:#B9C4C9;" d="M197.157,242.523L197.157,242.523c-1.703,0-3.083,1.38-3.083,3.083v5.337h6.166v-5.337
							C200.239,243.903,198.859,242.523,197.157,242.523z"/>
						<rect x="196.564" y="238.092" style="fill:#B9C4C9;" width="1.16" height="5.469"/>
						<rect x="197.157" y="238.092" style="fill:#A1ACB2;" width="0.568" height="5.469"/>
						<path style="fill:#A1ACB2;" d="M200.239,250.943v-5.337c0-1.703-1.38-3.083-3.083-3.083v8.42H200.239z"/>
					</g>
					<g>
						<path style="fill:#B9C4C9;" d="M203.322,242.523L203.322,242.523c-1.703,0-3.083,1.38-3.083,3.083v5.337h6.166v-5.337
							C206.405,243.903,205.025,242.523,203.322,242.523z"/>
						<rect x="202.73" y="238.092" style="fill:#B9C4C9;" width="1.16" height="5.469"/>
						<rect x="203.322" y="238.092" style="fill:#A1ACB2;" width="0.568" height="5.469"/>
						<path style="fill:#A1ACB2;" d="M206.405,250.943v-5.337c0-1.703-1.38-3.083-3.083-3.083v8.42H206.405z"/>
					</g>
					<g>
						<path style="fill:#B9C4C9;" d="M209.486,242.523L209.486,242.523c-1.703,0-3.083,1.38-3.083,3.083v5.337h6.166v-5.337
							C212.569,243.903,211.189,242.523,209.486,242.523z"/>
						<rect x="208.894" y="238.092" style="fill:#B9C4C9;" width="1.16" height="5.469"/>
						<rect x="209.486" y="238.092" style="fill:#A1ACB2;" width="0.568" height="5.469"/>
						<path style="fill:#A1ACB2;" d="M212.569,250.943v-5.337c0-1.703-1.38-3.083-3.083-3.083v8.42H212.569z"/>
					</g>
					<g>
						<path style="fill:#B9C4C9;" d="M215.651,242.523L215.651,242.523c-1.703,0-3.083,1.38-3.083,3.083v5.337h6.166v-5.337
							C218.734,243.903,217.353,242.523,215.651,242.523z"/>
						<rect x="215.058" y="238.092" style="fill:#B9C4C9;" width="1.16" height="5.469"/>
						<rect x="215.651" y="238.092" style="fill:#A1ACB2;" width="0.568" height="5.469"/>
						<path style="fill:#A1ACB2;" d="M218.734,250.943v-5.337c0-1.703-1.38-3.083-3.083-3.083v8.42H218.734z"/>
					</g>
				</g>
			</g>
			<g>
				
					<rect x="270.857" y="208.921" transform="matrix(-1 -4.487711e-11 4.487711e-11 -1 560.1978 459.9028)" style="fill:#2A4A70;" width="18.483" height="42.061"/>
				<g>
					<g>
						<path style="fill:#B9C4C9;" d="M298.758,233.679L298.758,233.679c3.499,0,6.335,2.836,6.335,6.335v10.968h-12.67v-10.968
							C292.423,236.515,295.26,233.679,298.758,233.679z"/>
						<path style="fill:#B9C4C9;" d="M298.784,224.574L298.784,224.574c0.658,0,1.192,0.534,1.192,1.192v10.048h-2.384v-10.048
							C297.592,225.107,298.126,224.574,298.784,224.574z"/>
						<path style="fill:#A1ACB2;" d="M298.758,224.576v11.237h-1.167v-10.048C297.592,225.116,298.112,224.59,298.758,224.576z"/>
						<path style="fill:#A1ACB2;" d="M292.423,250.982v-10.968c0-3.499,2.836-6.335,6.335-6.335v17.303H292.423z"/>
					</g>
					<g>
						<path style="fill:#2A4A70;" d="M302.648,248.664L302.648,248.664c0.341,0,0.617-0.276,0.617-0.617v-7.922
							c0-0.341-0.276-0.617-0.617-0.617l0,0c-0.341,0-0.617,0.276-0.617,0.617v7.922
							C302.031,248.388,302.307,248.664,302.648,248.664z"/>
						<path style="fill:#2A4A70;" d="M298.784,248.664L298.784,248.664c0.341,0,0.617-0.276,0.617-0.617v-7.922
							c0-0.341-0.276-0.617-0.617-0.617l0,0c-0.341,0-0.617,0.276-0.617,0.617v7.922
							C298.167,248.388,298.443,248.664,298.784,248.664z"/>
						<path style="fill:#2A4A70;" d="M294.92,248.664L294.92,248.664c0.341,0,0.617-0.276,0.617-0.617v-7.922
							c0-0.341-0.276-0.617-0.617-0.617l0,0c-0.341,0-0.617,0.276-0.617,0.617v7.922
							C294.302,248.388,294.579,248.664,294.92,248.664z"/>
					</g>
				</g>
				<g>
					<g>
						<path style="fill:#B9C4C9;" d="M289.34,242.523L289.34,242.523c1.703,0,3.083,1.38,3.083,3.083v5.337h-6.166v-5.337
							C286.258,243.903,287.638,242.523,289.34,242.523z"/>
						
							<rect x="288.773" y="238.092" transform="matrix(-1 -4.468393e-11 4.468393e-11 -1 578.7056 481.6542)" style="fill:#B9C4C9;" width="1.16" height="5.469"/>
						<rect x="288.773" y="238.092" style="fill:#A1ACB2;" width="0.568" height="5.469"/>
						<path style="fill:#A1ACB2;" d="M286.258,250.943v-5.337c0-1.703,1.38-3.083,3.083-3.083v8.42H286.258z"/>
					</g>
					<g>
						<path style="fill:#B9C4C9;" d="M283.175,242.523L283.175,242.523c1.703,0,3.083,1.38,3.083,3.083v5.337h-6.166v-5.337
							C280.092,243.903,281.472,242.523,283.175,242.523z"/>
						
							<rect x="282.607" y="238.092" transform="matrix(-1 -4.468393e-11 4.468393e-11 -1 566.3746 481.6542)" style="fill:#B9C4C9;" width="1.16" height="5.469"/>
						<rect x="282.607" y="238.092" style="fill:#A1ACB2;" width="0.568" height="5.469"/>
						<path style="fill:#A1ACB2;" d="M280.092,250.943v-5.337c0-1.703,1.38-3.083,3.083-3.083v8.42H280.092z"/>
					</g>
					<g>
						<path style="fill:#B9C4C9;" d="M277.009,242.523L277.009,242.523c1.703,0,3.083,1.38,3.083,3.083v5.337h-6.165v-5.337
							C273.927,243.903,275.307,242.523,277.009,242.523z"/>
						
							<rect x="276.442" y="238.092" transform="matrix(-1 -4.390012e-11 4.390012e-11 -1 554.0436 481.6542)" style="fill:#B9C4C9;" width="1.16" height="5.469"/>
						<rect x="276.442" y="238.092" style="fill:#A1ACB2;" width="0.568" height="5.469"/>
						<path style="fill:#A1ACB2;" d="M273.927,250.943v-5.337c0-1.703,1.38-3.083,3.083-3.083v8.42H273.927z"/>
					</g>
					<g>
						<path style="fill:#B9C4C9;" d="M270.845,242.523L270.845,242.523c1.703,0,3.083,1.38,3.083,3.083v5.337h-6.166v-5.337
							C267.762,243.903,269.142,242.523,270.845,242.523z"/>
						
							<rect x="270.277" y="238.092" transform="matrix(-1 -4.468393e-11 4.468393e-11 -1 541.7147 481.6542)" style="fill:#B9C4C9;" width="1.16" height="5.469"/>
						<rect x="270.277" y="238.092" style="fill:#A1ACB2;" width="0.568" height="5.469"/>
						<path style="fill:#A1ACB2;" d="M267.762,250.943v-5.337c0-1.703,1.38-3.083,3.083-3.083v8.42H267.762z"/>
					</g>
					<g>
						<path style="fill:#B9C4C9;" d="M264.68,242.523L264.68,242.523c1.703,0,3.083,1.38,3.083,3.083v5.337h-6.166v-5.337
							C261.598,243.903,262.978,242.523,264.68,242.523z"/>
						
							<rect x="264.113" y="238.092" transform="matrix(-1 -4.468393e-11 4.468393e-11 -1 529.3858 481.6542)" style="fill:#B9C4C9;" width="1.16" height="5.469"/>
						<rect x="264.113" y="238.092" style="fill:#A1ACB2;" width="0.568" height="5.469"/>
						<path style="fill:#A1ACB2;" d="M261.598,250.943v-5.337c0-1.703,1.38-3.083,3.083-3.083v8.42H261.598z"/>
					</g>
				</g>
			</g>
			<g>
				<g>
					<rect x="171.089" y="255.91" style="fill:#6F8087;" width="138.153" height="29.283"/>
					<rect x="240.166" y="255.91" style="fill:#6F8087;" width="69.077" height="29.283"/>
					<rect x="171.089" y="255.91" style="fill:#A1ACB2;" width="138.153" height="5.567"/>
				</g>
				<g>
					<rect x="172.127" y="250.982" style="fill:#DAE2E5;" width="68.554" height="4.928"/>
					<rect x="239.651" y="250.982" style="fill:#B9C4C9;" width="68.554" height="4.928"/>
				</g>
			</g>
			<g>
				<rect x="175.028" y="261.477" style="fill:#A1ACB2;" width="7.673" height="29.465"/>
				<rect x="178.864" y="261.477" style="fill:#86949B;" width="3.837" height="29.465"/>
				<rect x="200.706" y="261.477" style="fill:#A1ACB2;" width="7.673" height="29.465"/>
				<rect x="204.543" y="261.477" style="fill:#86949B;" width="3.837" height="29.465"/>
				<rect x="182.701" y="261.477" style="fill:#2A4A70;" width="18.006" height="29.465"/>
			</g>
			<g>
				
					<rect x="297.631" y="261.477" transform="matrix(-1 -4.480428e-11 4.480428e-11 -1 602.9344 552.4188)" style="fill:#A1ACB2;" width="7.673" height="29.465"/>
				
					<rect x="297.631" y="261.477" transform="matrix(-1 -4.456758e-11 4.456758e-11 -1 599.0978 552.4188)" style="fill:#86949B;" width="3.837" height="29.465"/>
				
					<rect x="271.952" y="261.477" transform="matrix(-1 -4.504143e-11 4.504143e-11 -1 551.577 552.4188)" style="fill:#A1ACB2;" width="7.673" height="29.465"/>
				
					<rect x="271.952" y="261.477" transform="matrix(-1 -4.456758e-11 4.456758e-11 -1 547.7404 552.4188)" style="fill:#86949B;" width="3.837" height="29.465"/>
				
					<rect x="279.625" y="261.477" transform="matrix(-1 -4.485446e-11 4.485446e-11 -1 577.2557 552.4188)" style="fill:#2A4A70;" width="18.006" height="29.465"/>
			</g>
			<g>
				<g>
					<rect x="165.857" y="297.122" style="fill:#6F8087;" width="148.617" height="36.723"/>
					<rect x="240.166" y="297.122" style="fill:#6F8087;" width="74.308" height="36.723"/>
				</g>
				<g>
					<rect x="166.974" y="290.942" style="fill:#DAE2E5;" width="73.746" height="6.18"/>
					<rect x="239.612" y="290.942" style="fill:#B9C4C9;" width="73.746" height="6.18"/>
				</g>
			</g>
			<g>
				<g>
					<path style="fill:#B9C4C9;" d="M171.106,279.656L171.106,279.656c-2.282,0-4.132,1.85-4.132,4.132v7.154h8.264v-7.154
						C175.238,281.506,173.388,279.656,171.106,279.656z"/>
					<rect x="170.311" y="273.717" style="fill:#B9C4C9;" width="1.555" height="7.331"/>
					<rect x="171.106" y="273.717" style="fill:#A1ACB2;" width="0.761" height="7.331"/>
					<path style="fill:#A1ACB2;" d="M175.238,290.942v-7.154c0-2.282-1.85-4.132-4.132-4.132v11.286H175.238z"/>
				</g>
				<g>
					<path style="fill:#B9C4C9;" d="M179.37,279.656L179.37,279.656c-2.282,0-4.132,1.85-4.132,4.132v7.154h8.264v-7.154
						C183.502,281.506,181.652,279.656,179.37,279.656z"/>
					<rect x="178.576" y="273.717" style="fill:#B9C4C9;" width="1.555" height="7.331"/>
					<rect x="179.37" y="273.717" style="fill:#A1ACB2;" width="0.761" height="7.331"/>
					<path style="fill:#A1ACB2;" d="M183.502,290.942v-7.154c0-2.282-1.85-4.132-4.132-4.132v11.286H183.502z"/>
				</g>
				<g>
					<path style="fill:#B9C4C9;" d="M187.634,279.656L187.634,279.656c-2.282,0-4.132,1.85-4.132,4.132v7.154h8.264v-7.154
						C191.766,281.506,189.916,279.656,187.634,279.656z"/>
					<rect x="186.84" y="273.717" style="fill:#B9C4C9;" width="1.555" height="7.331"/>
					<rect x="187.634" y="273.717" style="fill:#A1ACB2;" width="0.761" height="7.331"/>
					<path style="fill:#A1ACB2;" d="M191.766,290.942v-7.154c0-2.282-1.85-4.132-4.132-4.132v11.286H191.766z"/>
				</g>
				<g>
					<path style="fill:#B9C4C9;" d="M195.898,279.656L195.898,279.656c-2.282,0-4.132,1.85-4.132,4.132v7.154h8.264v-7.154
						C200.03,281.506,198.18,279.656,195.898,279.656z"/>
					<rect x="195.104" y="273.717" style="fill:#B9C4C9;" width="1.555" height="7.331"/>
					<rect x="195.898" y="273.717" style="fill:#A1ACB2;" width="0.761" height="7.331"/>
					<path style="fill:#A1ACB2;" d="M200.03,290.942v-7.154c0-2.282-1.85-4.132-4.132-4.132v11.286H200.03z"/>
				</g>
				<g>
					<path style="fill:#B9C4C9;" d="M204.162,279.656L204.162,279.656c-2.282,0-4.132,1.85-4.132,4.132v7.154h8.264v-7.154
						C208.295,281.506,206.445,279.656,204.162,279.656z"/>
					<rect x="203.368" y="273.717" style="fill:#B9C4C9;" width="1.555" height="7.331"/>
					<rect x="204.162" y="273.717" style="fill:#A1ACB2;" width="0.761" height="7.331"/>
					<path style="fill:#A1ACB2;" d="M208.295,290.942v-7.154c0-2.282-1.85-4.132-4.132-4.132v11.286H208.295z"/>
				</g>
				<g>
					<path style="fill:#B9C4C9;" d="M212.427,279.656L212.427,279.656c-2.282,0-4.132,1.85-4.132,4.132v7.154h8.264v-7.154
						C216.559,281.506,214.709,279.656,212.427,279.656z"/>
					<rect x="211.632" y="273.717" style="fill:#B9C4C9;" width="1.555" height="7.331"/>
					<rect x="212.427" y="273.717" style="fill:#A1ACB2;" width="0.761" height="7.331"/>
					<path style="fill:#A1ACB2;" d="M216.559,290.942v-7.154c0-2.282-1.85-4.132-4.132-4.132v11.286H216.559z"/>
				</g>
			</g>
			<g>
				<g>
					<path style="fill:#B9C4C9;" d="M267.905,279.656L267.905,279.656c-2.282,0-4.132,1.85-4.132,4.132v7.154h8.264v-7.154
						C272.037,281.506,270.187,279.656,267.905,279.656z"/>
					<rect x="267.111" y="273.717" style="fill:#B9C4C9;" width="1.555" height="7.331"/>
					<rect x="267.905" y="273.717" style="fill:#A1ACB2;" width="0.761" height="7.331"/>
					<path style="fill:#A1ACB2;" d="M272.037,290.942v-7.154c0-2.282-1.85-4.132-4.132-4.132v11.286H272.037z"/>
				</g>
				<g>
					<path style="fill:#B9C4C9;" d="M276.169,279.656L276.169,279.656c-2.282,0-4.132,1.85-4.132,4.132v7.154h8.264v-7.154
						C280.301,281.506,278.451,279.656,276.169,279.656z"/>
					<rect x="275.375" y="273.717" style="fill:#B9C4C9;" width="1.555" height="7.331"/>
					<rect x="276.169" y="273.717" style="fill:#A1ACB2;" width="0.761" height="7.331"/>
					<path style="fill:#A1ACB2;" d="M280.301,290.942v-7.154c0-2.282-1.85-4.132-4.132-4.132v11.286H280.301z"/>
				</g>
				<g>
					<path style="fill:#B9C4C9;" d="M284.433,279.656L284.433,279.656c-2.282,0-4.132,1.85-4.132,4.132v7.154h8.264v-7.154
						C288.565,281.506,286.715,279.656,284.433,279.656z"/>
					<rect x="283.639" y="273.717" style="fill:#B9C4C9;" width="1.555" height="7.331"/>
					<rect x="284.433" y="273.717" style="fill:#A1ACB2;" width="0.761" height="7.331"/>
					<path style="fill:#A1ACB2;" d="M288.565,290.942v-7.154c0-2.282-1.85-4.132-4.132-4.132v11.286H288.565z"/>
				</g>
				<g>
					<path style="fill:#B9C4C9;" d="M292.697,279.656L292.697,279.656c-2.282,0-4.132,1.85-4.132,4.132v7.154h8.264v-7.154
						C296.829,281.506,294.979,279.656,292.697,279.656z"/>
					<rect x="291.903" y="273.717" style="fill:#B9C4C9;" width="1.555" height="7.331"/>
					<rect x="292.697" y="273.717" style="fill:#A1ACB2;" width="0.761" height="7.331"/>
					<path style="fill:#A1ACB2;" d="M296.829,290.942v-7.154c0-2.282-1.85-4.132-4.132-4.132v11.286H296.829z"/>
				</g>
				<g>
					<path style="fill:#B9C4C9;" d="M300.961,279.656L300.961,279.656c-2.282,0-4.132,1.85-4.132,4.132v7.154h8.264v-7.154
						C305.094,281.506,303.244,279.656,300.961,279.656z"/>
					<rect x="300.167" y="273.717" style="fill:#B9C4C9;" width="1.555" height="7.331"/>
					<rect x="300.962" y="273.717" style="fill:#A1ACB2;" width="0.761" height="7.331"/>
					<path style="fill:#A1ACB2;" d="M305.094,290.942v-7.154c0-2.282-1.85-4.132-4.132-4.132v11.286H305.094z"/>
				</g>
				<g>
					<path style="fill:#B9C4C9;" d="M309.226,279.656L309.226,279.656c-2.282,0-4.132,1.85-4.132,4.132v7.154h8.264v-7.154
						C313.358,281.506,311.508,279.656,309.226,279.656z"/>
					<rect x="308.431" y="273.717" style="fill:#B9C4C9;" width="1.555" height="7.331"/>
					<rect x="309.226" y="273.717" style="fill:#A1ACB2;" width="0.761" height="7.331"/>
					<path style="fill:#A1ACB2;" d="M313.358,290.942v-7.154c0-2.282-1.85-4.132-4.132-4.132v11.286H313.358z"/>
				</g>
			</g>
			<rect x="146.543" y="362.128" style="fill:#B9C4C9;" width="187.245" height="6.83"/>
			<rect x="240.166" y="362.128" style="fill:#A1ACB2;" width="93.622" height="6.83"/>
			<rect x="128.566" y="375.789" style="fill:#B9C4C9;" width="223.2" height="6.83"/>
			<rect x="240.166" y="375.789" style="fill:#A1ACB2;" width="111.6" height="6.83"/>
			<rect x="136.155" y="368.958" style="fill:#A1ACB2;" width="208.021" height="6.83"/>
			<rect x="240.166" y="368.958" style="fill:#86949B;" width="104.01" height="6.83"/>
			<rect x="152.662" y="345.425" style="fill:#6F8087;" width="175.007" height="16.703"/>
			<rect x="240.166" y="345.425" style="fill:#6F8087;" width="87.503" height="16.703"/>
			<g>
				<g>
					<rect x="158.046" y="333.845" style="fill:#B9C4C9;" width="164.24" height="11.58"/>
					<rect x="240.166" y="333.845" style="fill:#A1ACB2;" width="82.12" height="11.58"/>
				</g>
				<g>
					<rect x="159.28" y="327.015" style="fill:#DAE2E5;" width="81.498" height="6.83"/>
					<rect x="239.554" y="327.015" style="fill:#B9C4C9;" width="81.498" height="6.83"/>
				</g>
			</g>
			<rect x="219.259" y="280.451" style="fill:#2A4A70;" width="41.813" height="86.614"/>
			<g>
				<g>
					<g>
						<rect x="219.259" y="363.743" style="fill:#DAE2E5;" width="41.813" height="3.322"/>
						<rect x="240.166" y="363.743" style="fill:#B9C4C9;" width="20.907" height="3.322"/>
					</g>
					<g>
						<rect x="219.259" y="360.421" style="fill:#B9C4C9;" width="41.813" height="3.322"/>
						<rect x="240.166" y="360.421" style="fill:#A1ACB2;" width="20.907" height="3.322"/>
					</g>
				</g>
				<g>
					<g>
						<rect x="219.259" y="357.099" style="fill:#DAE2E5;" width="41.813" height="3.322"/>
						<rect x="240.166" y="357.099" style="fill:#B9C4C9;" width="20.907" height="3.322"/>
					</g>
					<g>
						<rect x="219.259" y="353.777" style="fill:#B9C4C9;" width="41.813" height="3.322"/>
						<rect x="240.166" y="353.777" style="fill:#A1ACB2;" width="20.907" height="3.322"/>
					</g>
				</g>
				<g>
					<g>
						<rect x="219.259" y="350.455" style="fill:#DAE2E5;" width="41.813" height="3.322"/>
						<rect x="240.166" y="350.455" style="fill:#B9C4C9;" width="20.907" height="3.322"/>
					</g>
					<g>
						<rect x="219.259" y="347.133" style="fill:#B9C4C9;" width="41.813" height="3.322"/>
						<rect x="240.166" y="347.133" style="fill:#A1ACB2;" width="20.907" height="3.322"/>
					</g>
				</g>
				<g>
					<g>
						<rect x="219.259" y="343.811" style="fill:#DAE2E5;" width="41.813" height="3.322"/>
						<rect x="240.166" y="343.811" style="fill:#B9C4C9;" width="20.907" height="3.322"/>
					</g>
					<g>
						<rect x="219.259" y="340.489" style="fill:#B9C4C9;" width="41.813" height="3.322"/>
						<rect x="240.166" y="340.489" style="fill:#A1ACB2;" width="20.907" height="3.322"/>
					</g>
				</g>
				<g>
					<g>
						<rect x="219.259" y="337.167" style="fill:#DAE2E5;" width="41.813" height="3.322"/>
						<rect x="240.166" y="337.167" style="fill:#B9C4C9;" width="20.907" height="3.322"/>
					</g>
					<g>
						<rect x="219.259" y="333.845" style="fill:#B9C4C9;" width="41.813" height="3.322"/>
						<rect x="240.166" y="333.845" style="fill:#A1ACB2;" width="20.907" height="3.322"/>
					</g>
				</g>
				<g>
					<g>
						<rect x="219.259" y="330.523" style="fill:#DAE2E5;" width="41.813" height="3.322"/>
						<rect x="240.166" y="330.523" style="fill:#B9C4C9;" width="20.907" height="3.322"/>
					</g>
					<g>
						<rect x="219.259" y="327.201" style="fill:#B9C4C9;" width="41.813" height="3.322"/>
						<rect x="240.166" y="327.201" style="fill:#A1ACB2;" width="20.907" height="3.322"/>
					</g>
				</g>
			</g>
			<g>
				<g>
					<g>
						<rect x="224.951" y="323.879" style="fill:#DAE2E5;" width="30.429" height="3.322"/>
						<rect x="240.166" y="323.879" style="fill:#B9C4C9;" width="15.215" height="3.322"/>
					</g>
					<g>
						<rect x="224.951" y="320.557" style="fill:#B9C4C9;" width="30.429" height="3.322"/>
						<rect x="240.166" y="320.557" style="fill:#A1ACB2;" width="15.215" height="3.322"/>
					</g>
				</g>
				<g>
					<g>
						<rect x="224.951" y="317.235" style="fill:#DAE2E5;" width="30.429" height="3.322"/>
						<rect x="240.166" y="317.235" style="fill:#B9C4C9;" width="15.215" height="3.322"/>
					</g>
					<g>
						<rect x="224.951" y="313.913" style="fill:#B9C4C9;" width="30.429" height="3.322"/>
						<rect x="240.166" y="313.913" style="fill:#A1ACB2;" width="15.215" height="3.322"/>
					</g>
				</g>
				<g>
					<g>
						<rect x="224.951" y="310.591" style="fill:#DAE2E5;" width="30.429" height="3.322"/>
						<rect x="240.166" y="310.591" style="fill:#B9C4C9;" width="15.215" height="3.322"/>
					</g>
					<g>
						<rect x="224.951" y="307.269" style="fill:#B9C4C9;" width="30.429" height="3.322"/>
						<rect x="240.166" y="307.269" style="fill:#A1ACB2;" width="15.215" height="3.322"/>
					</g>
				</g>
				<g>
					<g>
						<rect x="224.951" y="303.947" style="fill:#DAE2E5;" width="30.429" height="3.322"/>
						<rect x="240.166" y="303.947" style="fill:#B9C4C9;" width="15.215" height="3.322"/>
					</g>
					<g>
						<rect x="224.951" y="300.625" style="fill:#B9C4C9;" width="30.429" height="3.322"/>
						<rect x="240.166" y="300.625" style="fill:#A1ACB2;" width="15.215" height="3.322"/>
					</g>
				</g>
				<g>
					<g>
						<rect x="224.951" y="297.303" style="fill:#DAE2E5;" width="30.429" height="3.322"/>
						<rect x="240.166" y="297.303" style="fill:#B9C4C9;" width="15.215" height="3.322"/>
					</g>
					<g>
						<rect x="224.951" y="293.981" style="fill:#B9C4C9;" width="30.429" height="3.322"/>
						<rect x="240.166" y="293.981" style="fill:#A1ACB2;" width="15.215" height="3.322"/>
					</g>
				</g>
				<g>
					<g>
						<rect x="224.951" y="290.659" style="fill:#DAE2E5;" width="30.429" height="3.322"/>
						<rect x="240.166" y="290.659" style="fill:#B9C4C9;" width="15.215" height="3.322"/>
					</g>
					<g>
						<rect x="224.951" y="287.337" style="fill:#B9C4C9;" width="30.429" height="3.322"/>
						<rect x="240.166" y="287.337" style="fill:#A1ACB2;" width="15.215" height="3.322"/>
					</g>
				</g>
			</g>
			<polygon style="fill:#DAE2E5;" points="214.077,275.518 214.077,367.065 219.259,367.065 219.259,280.451 261.072,280.451 
				261.072,367.065 266.254,367.065 266.254,275.518 			"/>
			<rect x="205.978" y="367.065" style="fill:#DAE2E5;" width="68.376" height="8.724"/>
			<rect x="240.166" y="367.065" style="fill:#B9C4C9;" width="34.188" height="8.724"/>
			<g>
				<path style="fill:#DAE2E5;" d="M163.691,350.08L163.691,350.08c-2.436,0-4.411,1.975-4.411,4.411v7.637h8.823v-7.637
					C168.102,352.055,166.127,350.08,163.691,350.08z"/>
				<path style="fill:#DAE2E5;" d="M181.621,350.08L181.621,350.08c-2.436,0-4.411,1.975-4.411,4.411v7.637h8.823v-7.637
					C186.032,352.055,184.057,350.08,181.621,350.08z"/>
				<path style="fill:#DAE2E5;" d="M199.551,350.08L199.551,350.08c-2.436,0-4.411,1.975-4.411,4.411v7.637h8.823v-7.637
					C203.962,352.055,201.987,350.08,199.551,350.08z"/>
			</g>
			<g>
				<path style="fill:#DAE2E5;" d="M316.64,350.08L316.64,350.08c2.436,0,4.411,1.975,4.411,4.411v7.637h-8.823v-7.637
					C312.229,352.055,314.204,350.08,316.64,350.08z"/>
				<path style="fill:#DAE2E5;" d="M298.71,350.08L298.71,350.08c2.436,0,4.411,1.975,4.411,4.411v7.637h-8.823v-7.637
					C294.299,352.055,296.274,350.08,298.71,350.08z"/>
				<path style="fill:#DAE2E5;" d="M280.781,350.08L280.781,350.08c2.436,0,4.411,1.975,4.411,4.411v7.637h-8.823v-7.637
					C276.369,352.055,278.344,350.08,280.781,350.08z"/>
			</g>
			<g>
				<g>
					<path style="fill:#B9C4C9;" d="M163.846,314.543L163.846,314.543c-2.522,0-4.566,2.044-4.566,4.566v7.906h9.133v-7.906
						C168.413,316.587,166.368,314.543,163.846,314.543z"/>
					<rect x="162.968" y="307.98" style="fill:#B9C4C9;" width="1.719" height="8.102"/>
					<rect x="163.846" y="307.98" style="fill:#A1ACB2;" width="0.841" height="8.102"/>
					<path style="fill:#A1ACB2;" d="M168.413,327.015v-7.906c0-2.522-2.044-4.566-4.566-4.566v12.472H168.413z"/>
				</g>
				<g>
					<path style="fill:#B9C4C9;" d="M172.979,314.543L172.979,314.543c-2.522,0-4.566,2.044-4.566,4.566v7.906h9.133v-7.906
						C177.545,316.587,175.501,314.543,172.979,314.543z"/>
					<rect x="172.101" y="307.98" style="fill:#B9C4C9;" width="1.719" height="8.102"/>
					<rect x="172.979" y="307.98" style="fill:#A1ACB2;" width="0.841" height="8.102"/>
					<path style="fill:#A1ACB2;" d="M177.545,327.015v-7.906c0-2.522-2.044-4.566-4.566-4.566v12.472H177.545z"/>
				</g>
				<g>
					<path style="fill:#B9C4C9;" d="M182.112,314.543L182.112,314.543c-2.522,0-4.566,2.044-4.566,4.566v7.906h9.133v-7.906
						C186.678,316.587,184.634,314.543,182.112,314.543z"/>
					<rect x="181.234" y="307.98" style="fill:#B9C4C9;" width="1.719" height="8.102"/>
					<rect x="182.112" y="307.98" style="fill:#A1ACB2;" width="0.841" height="8.102"/>
					<path style="fill:#A1ACB2;" d="M186.678,327.015v-7.906c0-2.522-2.044-4.566-4.566-4.566v12.472H186.678z"/>
				</g>
				<g>
					<path style="fill:#B9C4C9;" d="M191.245,314.543L191.245,314.543c-2.522,0-4.566,2.044-4.566,4.566v7.906h9.133v-7.906
						C195.811,316.587,193.767,314.543,191.245,314.543z"/>
					<rect x="190.367" y="307.98" style="fill:#B9C4C9;" width="1.719" height="8.102"/>
					<rect x="191.245" y="307.98" style="fill:#A1ACB2;" width="0.841" height="8.102"/>
					<path style="fill:#A1ACB2;" d="M195.811,327.015v-7.906c0-2.522-2.044-4.566-4.566-4.566v12.472H195.811z"/>
				</g>
				<g>
					<path style="fill:#B9C4C9;" d="M200.378,314.543L200.378,314.543c-2.522,0-4.566,2.044-4.566,4.566v7.906h9.133v-7.906
						C204.944,316.587,202.9,314.543,200.378,314.543z"/>
					<rect x="199.5" y="307.98" style="fill:#B9C4C9;" width="1.719" height="8.102"/>
					<rect x="200.378" y="307.98" style="fill:#A1ACB2;" width="0.841" height="8.102"/>
					<path style="fill:#A1ACB2;" d="M204.944,327.015v-7.906c0-2.522-2.044-4.566-4.566-4.566v12.472H204.944z"/>
				</g>
				<g>
					<path style="fill:#B9C4C9;" d="M209.511,314.543L209.511,314.543c-2.522,0-4.566,2.044-4.566,4.566v7.906h9.133v-7.906
						C214.077,316.587,212.033,314.543,209.511,314.543z"/>
					<rect x="208.633" y="307.98" style="fill:#B9C4C9;" width="1.719" height="8.102"/>
					<rect x="209.511" y="307.98" style="fill:#A1ACB2;" width="0.841" height="8.102"/>
					<path style="fill:#A1ACB2;" d="M214.077,327.015v-7.906c0-2.522-2.044-4.566-4.566-4.566v12.472H214.077z"/>
				</g>
			</g>
			<g>
				<g>
					<path style="fill:#B9C4C9;" d="M270.821,314.543L270.821,314.543c-2.522,0-4.566,2.044-4.566,4.566v7.906h9.133v-7.906
						C275.387,316.587,273.343,314.543,270.821,314.543z"/>
					<rect x="269.943" y="307.98" style="fill:#B9C4C9;" width="1.719" height="8.102"/>
					<rect x="270.821" y="307.98" style="fill:#A1ACB2;" width="0.841" height="8.102"/>
					<path style="fill:#A1ACB2;" d="M275.387,327.015v-7.906c0-2.522-2.044-4.566-4.566-4.566v12.472H275.387z"/>
				</g>
				<g>
					<path style="fill:#B9C4C9;" d="M279.954,314.543L279.954,314.543c-2.522,0-4.566,2.044-4.566,4.566v7.906h9.133v-7.906
						C284.52,316.587,282.476,314.543,279.954,314.543z"/>
					<rect x="279.076" y="307.98" style="fill:#B9C4C9;" width="1.719" height="8.102"/>
					<rect x="279.954" y="307.98" style="fill:#A1ACB2;" width="0.841" height="8.102"/>
					<path style="fill:#A1ACB2;" d="M284.52,327.015v-7.906c0-2.522-2.044-4.566-4.566-4.566v12.472H284.52z"/>
				</g>
				<g>
					<path style="fill:#B9C4C9;" d="M289.086,314.543L289.086,314.543c-2.522,0-4.566,2.044-4.566,4.566v7.906h9.133v-7.906
						C293.653,316.587,291.608,314.543,289.086,314.543z"/>
					<rect x="288.209" y="307.98" style="fill:#B9C4C9;" width="1.719" height="8.102"/>
					<rect x="289.087" y="307.98" style="fill:#A1ACB2;" width="0.841" height="8.102"/>
					<path style="fill:#A1ACB2;" d="M293.653,327.015v-7.906c0-2.522-2.044-4.566-4.566-4.566v12.472H293.653z"/>
				</g>
				<g>
					<path style="fill:#B9C4C9;" d="M298.219,314.543L298.219,314.543c-2.522,0-4.566,2.044-4.566,4.566v7.906h9.133v-7.906
						C302.786,316.587,300.741,314.543,298.219,314.543z"/>
					<rect x="297.342" y="307.98" style="fill:#B9C4C9;" width="1.719" height="8.102"/>
					<rect x="298.219" y="307.98" style="fill:#A1ACB2;" width="0.841" height="8.102"/>
					<path style="fill:#A1ACB2;" d="M302.786,327.015v-7.906c0-2.522-2.044-4.566-4.566-4.566v12.472H302.786z"/>
				</g>
				<g>
					<path style="fill:#B9C4C9;" d="M307.352,314.543L307.352,314.543c-2.522,0-4.566,2.044-4.566,4.566v7.906h9.133v-7.906
						C311.919,316.587,309.874,314.543,307.352,314.543z"/>
					<rect x="306.475" y="307.98" style="fill:#B9C4C9;" width="1.719" height="8.102"/>
					<rect x="307.352" y="307.98" style="fill:#A1ACB2;" width="0.841" height="8.102"/>
					<path style="fill:#A1ACB2;" d="M311.919,327.015v-7.906c0-2.522-2.044-4.566-4.566-4.566v12.472H311.919z"/>
				</g>
				<g>
					<path style="fill:#B9C4C9;" d="M316.485,314.543L316.485,314.543c-2.522,0-4.566,2.044-4.566,4.566v7.906h9.133v-7.906
						C321.052,316.587,319.007,314.543,316.485,314.543z"/>
					<rect x="315.608" y="307.98" style="fill:#B9C4C9;" width="1.719" height="8.102"/>
					<rect x="316.485" y="307.98" style="fill:#A1ACB2;" width="0.841" height="8.102"/>
					<path style="fill:#A1ACB2;" d="M321.052,327.015v-7.906c0-2.522-2.044-4.566-4.566-4.566v12.472H321.052z"/>
				</g>
			</g>
			<g>
				<g>
					<g>
						<path style="fill:#B9C4C9;" d="M223.626,249.438L223.626,249.438c-5.274,0-9.549,4.275-9.549,9.549v16.531h19.097v-16.531
							C233.174,253.713,228.899,249.438,223.626,249.438z"/>
						<path style="fill:#B9C4C9;" d="M223.587,235.714L223.587,235.714c-0.992,0-1.797,0.804-1.797,1.797v15.144h3.594v-15.144
							C225.384,236.519,224.58,235.714,223.587,235.714z"/>
						<path style="fill:#A1ACB2;" d="M223.626,235.718v16.937h1.758v-15.144C225.384,236.532,224.6,235.739,223.626,235.718z"/>
						<path style="fill:#A1ACB2;" d="M233.174,275.518v-16.531c0-5.274-4.275-9.549-9.549-9.549v26.08H233.174z"/>
					</g>
					<g>
						<path style="fill:#2A4A70;" d="M217.763,272.023L217.763,272.023c-0.514,0-0.93-0.417-0.93-0.93v-11.94
							c0-0.514,0.417-0.93,0.93-0.93l0,0c0.514,0,0.93,0.417,0.93,0.93v11.94C218.693,271.607,218.277,272.023,217.763,272.023z"/>
						<path style="fill:#2A4A70;" d="M223.587,272.023L223.587,272.023c-0.514,0-0.93-0.417-0.93-0.93v-11.94
							c0-0.514,0.417-0.93,0.93-0.93l0,0c0.514,0,0.93,0.417,0.93,0.93v11.94C224.518,271.607,224.101,272.023,223.587,272.023z"/>
						<path style="fill:#2A4A70;" d="M229.412,272.023L229.412,272.023c-0.514,0-0.93-0.417-0.93-0.93v-11.94
							c0-0.514,0.417-0.93,0.93-0.93l0,0c0.514,0,0.93,0.417,0.93,0.93v11.94C230.342,271.607,229.926,272.023,229.412,272.023z"/>
					</g>
				</g>
				<g>
					<g>
						<path style="fill:#B9C4C9;" d="M256.794,249.438L256.794,249.438c-5.274,0-9.549,4.275-9.549,9.549v16.531h19.097v-16.531
							C266.343,253.713,262.068,249.438,256.794,249.438z"/>
						<path style="fill:#B9C4C9;" d="M256.756,235.714L256.756,235.714c-0.992,0-1.797,0.804-1.797,1.797v15.144h3.594v-15.144
							C258.552,236.519,257.748,235.714,256.756,235.714z"/>
						<path style="fill:#A1ACB2;" d="M256.794,235.718v16.937h1.758v-15.144C258.552,236.532,257.768,235.739,256.794,235.718z"/>
						<path style="fill:#A1ACB2;" d="M266.343,275.518v-16.531c0-5.274-4.275-9.549-9.549-9.549v26.08H266.343z"/>
					</g>
					<g>
						<path style="fill:#2A4A70;" d="M250.931,272.023L250.931,272.023c-0.514,0-0.93-0.417-0.93-0.93v-11.94
							c0-0.514,0.417-0.93,0.93-0.93l0,0c0.514,0,0.93,0.417,0.93,0.93v11.94C251.862,271.607,251.445,272.023,250.931,272.023z"/>
						<path style="fill:#2A4A70;" d="M256.756,272.023L256.756,272.023c-0.514,0-0.93-0.417-0.93-0.93v-11.94
							c0-0.514,0.417-0.93,0.93-0.93l0,0c0.514,0,0.93,0.417,0.93,0.93v11.94C257.686,271.607,257.269,272.023,256.756,272.023z"/>
						<path style="fill:#2A4A70;" d="M262.58,272.023L262.58,272.023c-0.514,0-0.93-0.417-0.93-0.93v-11.94
							c0-0.514,0.417-0.93,0.93-0.93l0,0c0.514,0,0.93,0.417,0.93,0.93v11.94C263.511,271.607,263.094,272.023,262.58,272.023z"/>
					</g>
				</g>
				<g>
					<g>
						<path style="fill:#B9C4C9;" d="M240.166,243.606L240.166,243.606c-6.453,0-11.684,5.231-11.684,11.684v20.228h23.368V255.29
							C251.85,248.837,246.619,243.606,240.166,243.606z"/>
						<path style="fill:#B9C4C9;" d="M240.119,226.813L240.119,226.813c-1.214,0-2.199,0.984-2.199,2.199v18.531h4.397v-18.531
							C242.317,227.798,241.333,226.813,240.119,226.813z"/>
						<path style="fill:#A1ACB2;" d="M240.166,226.818v20.725h2.151v-18.531C242.317,227.814,241.358,226.844,240.166,226.818z"/>
						<path style="fill:#A1ACB2;" d="M251.85,275.518V255.29c0-6.453-5.231-11.684-11.684-11.684v31.912H251.85z"/>
					</g>
					<g>
						<path style="fill:#2A4A70;" d="M232.992,271.242L232.992,271.242c-0.629,0-1.138-0.51-1.138-1.138v-14.61
							c0-0.629,0.51-1.138,1.138-1.138l0,0c0.629,0,1.138,0.51,1.138,1.138v14.61C234.13,270.732,233.62,271.242,232.992,271.242z"
							/>
						<path style="fill:#2A4A70;" d="M240.119,271.242L240.119,271.242c-0.629,0-1.138-0.51-1.138-1.138v-14.61
							c0-0.629,0.51-1.138,1.138-1.138l0,0c0.629,0,1.138,0.51,1.138,1.138v14.61C241.257,270.732,240.747,271.242,240.119,271.242z
							"/>
						<path style="fill:#2A4A70;" d="M247.246,271.242L247.246,271.242c-0.629,0-1.138-0.51-1.138-1.138v-14.61
							c0-0.629,0.51-1.138,1.138-1.138l0,0c0.629,0,1.138,0.51,1.138,1.138v14.61C248.384,270.732,247.874,271.242,247.246,271.242z
							"/>
					</g>
				</g>
			</g>
			<g>
				<g>
					<rect x="184.843" y="171.866" style="fill:#6F8087;" width="110.645" height="28.056"/>
					<rect x="240.166" y="171.866" style="fill:#6F8087;" width="55.322" height="28.056"/>
					<rect x="211.967" y="187.569" style="fill:#A1ACB2;" width="56.397" height="12.353"/>
					<rect x="240.166" y="187.569" style="fill:#86949B;" width="28.198" height="12.353"/>
					<rect x="184.843" y="171.866" style="fill:#A1ACB2;" width="110.645" height="4.458"/>
				</g>
				<g>
					<rect x="185.675" y="167.919" style="fill:#DAE2E5;" width="54.904" height="3.947"/>
					<rect x="239.753" y="167.919" style="fill:#B9C4C9;" width="54.904" height="3.947"/>
				</g>
			</g>
			<g>
				<rect x="187.998" y="176.324" style="fill:#A1ACB2;" width="6.145" height="23.598"/>
				<rect x="191.07" y="176.324" style="fill:#86949B;" width="3.073" height="23.598"/>
				<rect x="208.563" y="176.324" style="fill:#A1ACB2;" width="6.145" height="23.598"/>
				<rect x="211.636" y="176.324" style="fill:#86949B;" width="3.073" height="23.598"/>
				<rect x="194.143" y="176.324" style="fill:#2A4A70;" width="14.42" height="23.598"/>
			</g>
			<g>
				
					<rect x="286.188" y="176.324" transform="matrix(-1 -4.499169e-11 4.499169e-11 -1 578.5219 376.2465)" style="fill:#A1ACB2;" width="6.145" height="23.598"/>
				
					<rect x="286.188" y="176.324" transform="matrix(-1 -4.528789e-11 4.528789e-11 -1 575.4493 376.2465)" style="fill:#86949B;" width="3.073" height="23.598"/>
				
					<rect x="265.623" y="176.324" transform="matrix(-1 -4.484381e-11 4.484381e-11 -1 537.3907 376.2465)" style="fill:#A1ACB2;" width="6.145" height="23.598"/>
				
					<rect x="265.623" y="176.324" transform="matrix(-1 -4.469592e-11 4.469592e-11 -1 534.3181 376.2465)" style="fill:#86949B;" width="3.073" height="23.598"/>
				
					<rect x="271.768" y="176.324" transform="matrix(-1 -4.490598e-11 4.490598e-11 -1 557.9563 376.2465)" style="fill:#2A4A70;" width="14.42" height="23.598"/>
			</g>
			<g>
				<rect x="181.547" y="199.922" style="fill:#DAE2E5;" width="59.062" height="4.95"/>
				<rect x="239.722" y="199.922" style="fill:#B9C4C9;" width="59.062" height="4.95"/>
			</g>
			<g>
				<g>
					<path style="fill:#B9C4C9;" d="M184.857,190.883L184.857,190.883c-1.828,0-3.309,1.482-3.309,3.309v5.729h6.619v-5.729
						C188.166,192.365,186.684,190.883,184.857,190.883z"/>
					<rect x="184.221" y="186.127" style="fill:#B9C4C9;" width="1.245" height="5.871"/>
					<rect x="184.857" y="186.127" style="fill:#A1ACB2;" width="0.609" height="5.871"/>
					<path style="fill:#A1ACB2;" d="M188.166,199.922v-5.729c0-1.828-1.482-3.309-3.309-3.309v9.039H188.166z"/>
				</g>
				<g>
					<path style="fill:#B9C4C9;" d="M191.475,190.883L191.475,190.883c-1.828,0-3.309,1.482-3.309,3.309v5.729h6.619v-5.729
						C194.785,192.365,193.303,190.883,191.475,190.883z"/>
					<rect x="190.839" y="186.127" style="fill:#B9C4C9;" width="1.245" height="5.871"/>
					<rect x="191.475" y="186.127" style="fill:#A1ACB2;" width="0.609" height="5.871"/>
					<path style="fill:#A1ACB2;" d="M194.785,199.922v-5.729c0-1.828-1.482-3.309-3.309-3.309v9.039H194.785z"/>
				</g>
				<g>
					<path style="fill:#B9C4C9;" d="M198.094,190.883L198.094,190.883c-1.828,0-3.309,1.482-3.309,3.309v5.729h6.619v-5.729
						C201.403,192.365,199.922,190.883,198.094,190.883z"/>
					<rect x="197.458" y="186.127" style="fill:#B9C4C9;" width="1.245" height="5.871"/>
					<rect x="198.094" y="186.127" style="fill:#A1ACB2;" width="0.609" height="5.871"/>
					<path style="fill:#A1ACB2;" d="M201.403,199.922v-5.729c0-1.828-1.482-3.309-3.309-3.309v9.039H201.403z"/>
				</g>
				<g>
					<path style="fill:#B9C4C9;" d="M204.713,190.883L204.713,190.883c-1.828,0-3.309,1.482-3.309,3.309v5.729h6.619v-5.729
						C208.022,192.365,206.54,190.883,204.713,190.883z"/>
					<rect x="204.077" y="186.127" style="fill:#B9C4C9;" width="1.245" height="5.871"/>
					<rect x="204.713" y="186.127" style="fill:#A1ACB2;" width="0.609" height="5.871"/>
					<path style="fill:#A1ACB2;" d="M208.022,199.922v-5.729c0-1.828-1.482-3.309-3.309-3.309v9.039H208.022z"/>
				</g>
				<g>
					<path style="fill:#B9C4C9;" d="M211.331,190.883L211.331,190.883c-1.828,0-3.309,1.482-3.309,3.309v5.729h6.619v-5.729
						C214.641,192.365,213.159,190.883,211.331,190.883z"/>
					<rect x="210.695" y="186.127" style="fill:#B9C4C9;" width="1.245" height="5.871"/>
					<rect x="211.331" y="186.127" style="fill:#A1ACB2;" width="0.609" height="5.871"/>
					<path style="fill:#A1ACB2;" d="M214.641,199.922v-5.729c0-1.828-1.482-3.309-3.309-3.309v9.039H214.641z"/>
				</g>
				<g>
					<path style="fill:#B9C4C9;" d="M217.95,190.883L217.95,190.883c-1.828,0-3.309,1.482-3.309,3.309v5.729h6.619v-5.729
						C221.259,192.365,219.778,190.883,217.95,190.883z"/>
					<rect x="217.314" y="186.127" style="fill:#B9C4C9;" width="1.245" height="5.871"/>
					<rect x="217.95" y="186.127" style="fill:#A1ACB2;" width="0.609" height="5.871"/>
					<path style="fill:#A1ACB2;" d="M221.259,199.922v-5.729c0-1.828-1.482-3.309-3.309-3.309v9.039H221.259z"/>
				</g>
			</g>
			<g>
				<g>
					<path style="fill:#B9C4C9;" d="M262.381,190.883L262.381,190.883c-1.828,0-3.309,1.482-3.309,3.309v5.729h6.619v-5.729
						C265.691,192.365,264.209,190.883,262.381,190.883z"/>
					<rect x="261.745" y="186.127" style="fill:#B9C4C9;" width="1.245" height="5.871"/>
					<rect x="262.381" y="186.127" style="fill:#A1ACB2;" width="0.609" height="5.871"/>
					<path style="fill:#A1ACB2;" d="M265.691,199.922v-5.729c0-1.828-1.482-3.309-3.309-3.309v9.039H265.691z"/>
				</g>
				<g>
					<path style="fill:#B9C4C9;" d="M269,190.883L269,190.883c-1.828,0-3.309,1.482-3.309,3.309v5.729h6.619v-5.729
						C272.309,192.365,270.828,190.883,269,190.883z"/>
					<rect x="268.364" y="186.127" style="fill:#B9C4C9;" width="1.245" height="5.871"/>
					<rect x="269" y="186.127" style="fill:#A1ACB2;" width="0.609" height="5.871"/>
					<path style="fill:#A1ACB2;" d="M272.309,199.922v-5.729c0-1.828-1.482-3.309-3.309-3.309v9.039H272.309z"/>
				</g>
				<g>
					<path style="fill:#B9C4C9;" d="M275.619,190.883L275.619,190.883c-1.828,0-3.309,1.482-3.309,3.309v5.729h6.619v-5.729
						C278.928,192.365,277.446,190.883,275.619,190.883z"/>
					<rect x="274.983" y="186.127" style="fill:#B9C4C9;" width="1.245" height="5.871"/>
					<rect x="275.619" y="186.127" style="fill:#A1ACB2;" width="0.609" height="5.871"/>
					<path style="fill:#A1ACB2;" d="M278.928,199.922v-5.729c0-1.828-1.482-3.309-3.309-3.309v9.039H278.928z"/>
				</g>
				<g>
					<path style="fill:#B9C4C9;" d="M282.237,190.883L282.237,190.883c-1.828,0-3.309,1.482-3.309,3.309v5.729h6.619v-5.729
						C285.547,192.365,284.065,190.883,282.237,190.883z"/>
					<rect x="281.601" y="186.127" style="fill:#B9C4C9;" width="1.245" height="5.871"/>
					<rect x="282.237" y="186.127" style="fill:#A1ACB2;" width="0.609" height="5.871"/>
					<path style="fill:#A1ACB2;" d="M285.547,199.922v-5.729c0-1.828-1.482-3.309-3.309-3.309v9.039H285.547z"/>
				</g>
				<g>
					<path style="fill:#B9C4C9;" d="M288.856,190.883L288.856,190.883c-1.828,0-3.309,1.482-3.309,3.309v5.729h6.619v-5.729
						C292.165,192.365,290.684,190.883,288.856,190.883z"/>
					<rect x="288.22" y="186.127" style="fill:#B9C4C9;" width="1.245" height="5.871"/>
					<rect x="288.856" y="186.127" style="fill:#A1ACB2;" width="0.609" height="5.871"/>
					<path style="fill:#A1ACB2;" d="M292.165,199.922v-5.729c0-1.828-1.482-3.309-3.309-3.309v9.039H292.165z"/>
				</g>
				<g>
					<path style="fill:#B9C4C9;" d="M295.475,190.883L295.475,190.883c-1.828,0-3.309,1.482-3.309,3.309v5.729h6.619v-5.729
						C298.784,192.365,297.302,190.883,295.475,190.883z"/>
					<rect x="294.839" y="186.127" style="fill:#B9C4C9;" width="1.245" height="5.871"/>
					<rect x="295.475" y="186.127" style="fill:#A1ACB2;" width="0.609" height="5.871"/>
					<path style="fill:#A1ACB2;" d="M298.784,199.922v-5.729c0-1.828-1.482-3.309-3.309-3.309v9.039H298.784z"/>
				</g>
			</g>
			<g>
				<g>
					<path style="fill:#B9C4C9;" d="M188.751,159.517L188.751,159.517c-1.699,0-3.076,1.377-3.076,3.076v5.326h6.153v-5.326
						C191.827,160.894,190.45,159.517,188.751,159.517z"/>
					<rect x="188.16" y="155.096" style="fill:#B9C4C9;" width="1.158" height="5.458"/>
					<rect x="188.751" y="155.096" style="fill:#A1ACB2;" width="0.566" height="5.458"/>
					<path style="fill:#A1ACB2;" d="M191.827,167.919v-5.326c0-1.699-1.377-3.076-3.076-3.076v8.402H191.827z"/>
				</g>
				<g>
					<path style="fill:#B9C4C9;" d="M194.904,159.517L194.904,159.517c-1.699,0-3.076,1.377-3.076,3.076v5.326h6.153v-5.326
						C197.98,160.894,196.603,159.517,194.904,159.517z"/>
					<rect x="194.312" y="155.096" style="fill:#B9C4C9;" width="1.158" height="5.458"/>
					<rect x="194.904" y="155.096" style="fill:#A1ACB2;" width="0.566" height="5.458"/>
					<path style="fill:#A1ACB2;" d="M197.98,167.919v-5.326c0-1.699-1.377-3.076-3.076-3.076v8.402H197.98z"/>
				</g>
				<g>
					<path style="fill:#B9C4C9;" d="M201.056,159.517L201.056,159.517c-1.699,0-3.076,1.377-3.076,3.076v5.326h6.153v-5.326
						C204.133,160.894,202.755,159.517,201.056,159.517z"/>
					<rect x="200.465" y="155.096" style="fill:#B9C4C9;" width="1.158" height="5.458"/>
					<rect x="201.056" y="155.096" style="fill:#A1ACB2;" width="0.566" height="5.458"/>
					<path style="fill:#A1ACB2;" d="M204.132,167.919v-5.326c0-1.699-1.377-3.076-3.076-3.076v8.402H204.132z"/>
				</g>
				<g>
					<path style="fill:#B9C4C9;" d="M207.209,159.517L207.209,159.517c-1.699,0-3.076,1.377-3.076,3.076v5.326h6.153v-5.326
						C210.285,160.894,208.908,159.517,207.209,159.517z"/>
					<rect x="206.618" y="155.096" style="fill:#B9C4C9;" width="1.158" height="5.458"/>
					<rect x="207.209" y="155.096" style="fill:#A1ACB2;" width="0.566" height="5.458"/>
					<path style="fill:#A1ACB2;" d="M210.285,167.919v-5.326c0-1.699-1.377-3.076-3.076-3.076v8.402H210.285z"/>
				</g>
				<g>
					<path style="fill:#B9C4C9;" d="M213.361,159.517L213.361,159.517c-1.699,0-3.076,1.377-3.076,3.076v5.326h6.153v-5.326
						C216.438,160.894,215.06,159.517,213.361,159.517z"/>
					<rect x="212.77" y="155.096" style="fill:#B9C4C9;" width="1.158" height="5.458"/>
					<rect x="213.361" y="155.096" style="fill:#A1ACB2;" width="0.566" height="5.458"/>
					<path style="fill:#A1ACB2;" d="M216.438,167.919v-5.326c0-1.699-1.377-3.076-3.076-3.076v8.402H216.438z"/>
				</g>
				<g>
					<path style="fill:#B9C4C9;" d="M219.514,159.517L219.514,159.517c-1.699,0-3.076,1.377-3.076,3.076v5.326h6.153v-5.326
						C222.59,160.894,221.213,159.517,219.514,159.517z"/>
					<rect x="218.923" y="155.096" style="fill:#B9C4C9;" width="1.158" height="5.458"/>
					<rect x="219.514" y="155.096" style="fill:#A1ACB2;" width="0.566" height="5.458"/>
					<path style="fill:#A1ACB2;" d="M222.59,167.919v-5.326c0-1.699-1.377-3.076-3.076-3.076v8.402H222.59z"/>
				</g>
			</g>
			<g>
				<g>
					<path style="fill:#B9C4C9;" d="M260.817,159.517L260.817,159.517c-1.699,0-3.076,1.377-3.076,3.076v5.326h6.153v-5.326
						C263.894,160.894,262.516,159.517,260.817,159.517z"/>
					<rect x="260.226" y="155.096" style="fill:#B9C4C9;" width="1.158" height="5.458"/>
					<rect x="260.817" y="155.096" style="fill:#A1ACB2;" width="0.566" height="5.458"/>
					<path style="fill:#A1ACB2;" d="M263.894,167.919v-5.326c0-1.699-1.377-3.076-3.076-3.076v8.402H263.894z"/>
				</g>
				<g>
					<path style="fill:#B9C4C9;" d="M266.97,159.517L266.97,159.517c-1.699,0-3.076,1.377-3.076,3.076v5.326h6.153v-5.326
						C270.046,160.894,268.669,159.517,266.97,159.517z"/>
					<rect x="266.379" y="155.096" style="fill:#B9C4C9;" width="1.158" height="5.458"/>
					<rect x="266.97" y="155.096" style="fill:#A1ACB2;" width="0.566" height="5.458"/>
					<path style="fill:#A1ACB2;" d="M270.046,167.919v-5.326c0-1.699-1.377-3.076-3.076-3.076v8.402H270.046z"/>
				</g>
				<g>
					<path style="fill:#B9C4C9;" d="M273.123,159.517L273.123,159.517c-1.699,0-3.076,1.377-3.076,3.076v5.326h6.153v-5.326
						C276.199,160.894,274.822,159.517,273.123,159.517z"/>
					<rect x="272.531" y="155.096" style="fill:#B9C4C9;" width="1.158" height="5.458"/>
					<rect x="273.123" y="155.096" style="fill:#A1ACB2;" width="0.566" height="5.458"/>
					<path style="fill:#A1ACB2;" d="M276.199,167.919v-5.326c0-1.699-1.377-3.076-3.076-3.076v8.402H276.199z"/>
				</g>
				<g>
					<path style="fill:#B9C4C9;" d="M279.275,159.517L279.275,159.517c-1.699,0-3.076,1.377-3.076,3.076v5.326h6.153v-5.326
						C282.352,160.894,280.974,159.517,279.275,159.517z"/>
					<rect x="278.684" y="155.096" style="fill:#B9C4C9;" width="1.158" height="5.458"/>
					<rect x="279.275" y="155.096" style="fill:#A1ACB2;" width="0.566" height="5.458"/>
					<path style="fill:#A1ACB2;" d="M282.352,167.919v-5.326c0-1.699-1.377-3.076-3.076-3.076v8.402H282.352z"/>
				</g>
				<g>
					<path style="fill:#B9C4C9;" d="M285.428,159.517L285.428,159.517c-1.699,0-3.076,1.377-3.076,3.076v5.326h6.153v-5.326
						C288.504,160.894,287.127,159.517,285.428,159.517z"/>
					<rect x="284.837" y="155.096" style="fill:#B9C4C9;" width="1.158" height="5.458"/>
					<rect x="285.428" y="155.096" style="fill:#A1ACB2;" width="0.566" height="5.458"/>
					<path style="fill:#A1ACB2;" d="M288.504,167.919v-5.326c0-1.699-1.377-3.076-3.076-3.076v8.402H288.504z"/>
				</g>
				<g>
					<path style="fill:#B9C4C9;" d="M291.58,159.517L291.58,159.517c-1.699,0-3.076,1.377-3.076,3.076v5.326h6.153v-5.326
						C294.657,160.894,293.279,159.517,291.58,159.517z"/>
					<rect x="290.989" y="155.096" style="fill:#B9C4C9;" width="1.158" height="5.458"/>
					<rect x="291.581" y="155.096" style="fill:#A1ACB2;" width="0.566" height="5.458"/>
					<path style="fill:#A1ACB2;" d="M294.657,167.919v-5.326c0-1.699-1.377-3.076-3.076-3.076v8.402H294.657z"/>
				</g>
			</g>
			<g>
				<g>
					<g>
						<path style="fill:#B9C4C9;" d="M226.919,166.682L226.919,166.682c-4.223,0-7.647,3.424-7.647,7.647v13.24h15.295v-13.24
							C234.566,170.106,231.143,166.682,226.919,166.682z"/>
						<path style="fill:#B9C4C9;" d="M226.888,155.691L226.888,155.691c-0.795,0-1.439,0.644-1.439,1.439v12.129h2.878V157.13
							C228.327,156.336,227.683,155.691,226.888,155.691z"/>
						<path style="fill:#A1ACB2;" d="M226.919,155.694v13.565h1.408V157.13C228.327,156.346,227.699,155.711,226.919,155.694z"/>
						<path style="fill:#A1ACB2;" d="M234.566,187.569V174.33c0-4.223-3.424-7.647-7.647-7.647v20.887H234.566z"/>
					</g>
					<g>
						<path style="fill:#2A4A70;" d="M222.224,184.771L222.224,184.771c-0.412,0-0.745-0.334-0.745-0.745v-9.562
							c0-0.412,0.334-0.745,0.745-0.745h0c0.411,0,0.745,0.334,0.745,0.745v9.562C222.969,184.437,222.635,184.771,222.224,184.771z
							"/>
						<path style="fill:#2A4A70;" d="M226.888,184.771L226.888,184.771c-0.412,0-0.745-0.334-0.745-0.745v-9.562
							c0-0.412,0.334-0.745,0.745-0.745l0,0c0.412,0,0.745,0.334,0.745,0.745v9.562C227.633,184.437,227.3,184.771,226.888,184.771z
							"/>
						<path style="fill:#2A4A70;" d="M231.553,184.771L231.553,184.771c-0.412,0-0.745-0.334-0.745-0.745v-9.562
							c0-0.412,0.334-0.745,0.745-0.745h0c0.411,0,0.745,0.334,0.745,0.745v9.562C232.298,184.437,231.965,184.771,231.553,184.771z
							"/>
					</g>
				</g>
				<g>
					<g>
						<path style="fill:#B9C4C9;" d="M253.483,166.682L253.483,166.682c-4.223,0-7.647,3.424-7.647,7.647v13.24h15.295v-13.24
							C261.13,170.106,257.707,166.682,253.483,166.682z"/>
						<path style="fill:#B9C4C9;" d="M253.452,155.691L253.452,155.691c-0.795,0-1.439,0.644-1.439,1.439v12.129h2.878V157.13
							C254.891,156.336,254.247,155.691,253.452,155.691z"/>
						<path style="fill:#A1ACB2;" d="M253.483,155.694v13.565h1.408V157.13C254.891,156.346,254.263,155.711,253.483,155.694z"/>
						<path style="fill:#A1ACB2;" d="M261.13,187.569V174.33c0-4.223-3.424-7.647-7.647-7.647v20.887H261.13z"/>
					</g>
					<g>
						<path style="fill:#2A4A70;" d="M248.788,184.771L248.788,184.771c-0.412,0-0.745-0.334-0.745-0.745v-9.562
							c0-0.412,0.334-0.745,0.745-0.745l0,0c0.412,0,0.745,0.334,0.745,0.745v9.562
							C249.533,184.437,249.199,184.771,248.788,184.771z"/>
						<path style="fill:#2A4A70;" d="M253.452,184.771L253.452,184.771c-0.411,0-0.745-0.334-0.745-0.745v-9.562
							c0-0.412,0.334-0.745,0.745-0.745l0,0c0.412,0,0.745,0.334,0.745,0.745v9.562
							C254.197,184.437,253.864,184.771,253.452,184.771z"/>
						<path style="fill:#2A4A70;" d="M258.117,184.771L258.117,184.771c-0.412,0-0.745-0.334-0.745-0.745v-9.562
							c0-0.412,0.334-0.745,0.745-0.745l0,0c0.411,0,0.745,0.334,0.745,0.745v9.562
							C258.862,184.437,258.529,184.771,258.117,184.771z"/>
					</g>
				</g>
				<g>
					<g>
						<path style="fill:#B9C4C9;" d="M240.166,162.012L240.166,162.012c-5.168,0-9.357,4.189-9.357,9.357v16.2h18.715v-16.2
							C249.523,166.201,245.334,162.012,240.166,162.012z"/>
						<path style="fill:#B9C4C9;" d="M240.128,148.563L240.128,148.563c-0.972,0-1.761,0.788-1.761,1.761v14.841h3.522v-14.841
							C241.889,149.351,241.1,148.563,240.128,148.563z"/>
						<path style="fill:#A1ACB2;" d="M240.166,148.567v16.598h1.723v-14.841C241.889,149.364,241.12,148.587,240.166,148.567z"/>
						<path style="fill:#A1ACB2;" d="M249.523,187.569v-16.2c0-5.168-4.189-9.357-9.357-9.357v25.558H249.523z"/>
					</g>
					<g>
						<path style="fill:#2A4A70;" d="M234.42,184.145L234.42,184.145c-0.504,0-0.912-0.408-0.912-0.912v-11.701
							c0-0.504,0.408-0.912,0.912-0.912l0,0c0.504,0,0.912,0.408,0.912,0.912v11.701
							C235.332,183.737,234.924,184.145,234.42,184.145z"/>
						<path style="fill:#2A4A70;" d="M240.128,184.145L240.128,184.145c-0.504,0-0.912-0.408-0.912-0.912v-11.701
							c0-0.504,0.408-0.912,0.912-0.912l0,0c0.504,0,0.912,0.408,0.912,0.912v11.701
							C241.04,183.737,240.631,184.145,240.128,184.145z"/>
						<path style="fill:#2A4A70;" d="M245.836,184.145L245.836,184.145c-0.504,0-0.912-0.408-0.912-0.912v-11.701
							c0-0.504,0.408-0.912,0.912-0.912l0,0c0.504,0,0.912,0.408,0.912,0.912v11.701
							C246.748,183.737,246.339,184.145,245.836,184.145z"/>
					</g>
				</g>
			</g>
		</g>
	</g>
	<g>
		<g>
			<rect x="55.547" y="388.752" style="fill:#753407;" width="638.905" height="7.854"/>
			<rect x="55.547" y="388.752" style="fill:#B75F00;" width="638.905" height="3.402"/>
		</g>
		<g>
			<rect x="81.238" y="382.916" style="fill:#EE8808;" width="587.524" height="5.936"/>
			<rect x="375" y="382.916" style="fill:#D87100;" width="293.762" height="5.936"/>
		</g>
	</g>
	<g>
		<rect x="532.834" y="355.709" style="fill:#B9C4C9;" width="121.608" height="27.206"/>
		<rect x="593.638" y="355.709" style="fill:#A1ACB2;" width="60.804" height="27.206"/>
		<rect x="555.124" y="265.732" style="fill:#B9C4C9;" width="77.029" height="5.818"/>
		<rect x="593.638" y="265.732" style="fill:#A1ACB2;" width="38.515" height="5.818"/>
		<rect x="591.999" y="233.343" style="fill:#B9C4C9;" width="3.278" height="32.389"/>
		<rect x="593.638" y="233.343" style="fill:#A1ACB2;" width="1.639" height="32.389"/>
		<rect x="539.308" y="342.106" style="fill:#A1ACB2;" width="108.661" height="13.603"/>
		<rect x="593.638" y="342.106" style="fill:#6F8087;" width="54.33" height="13.603"/>
		<rect x="548.404" y="271.55" style="fill:#A1ACB2;" width="90.469" height="13.603"/>
		<rect x="593.638" y="271.55" style="fill:#6F8087;" width="45.234" height="13.603"/>
		<rect x="548.404" y="335.55" style="fill:#B9C4C9;" width="90.469" height="6.556"/>
		<rect x="593.638" y="335.55" style="fill:#A1ACB2;" width="45.234" height="6.556"/>
		<rect x="552.092" y="285.153" style="fill:#B9C4C9;" width="83.093" height="50.397"/>
		<rect x="593.638" y="285.153" style="fill:#A1ACB2;" width="41.547" height="50.397"/>
		<rect x="589.049" y="294.577" style="fill:#2A4A70;" width="9.178" height="40.973"/>
		<rect x="574.422" y="294.577" style="fill:#2A4A70;" width="9.178" height="40.973"/>
		<rect x="563.523" y="294.577" style="fill:#2A4A70;" width="5.449" height="40.973"/>
		
			<rect x="603.676" y="294.577" transform="matrix(-1 -4.498947e-11 4.498947e-11 -1 1216.5308 630.1269)" style="fill:#2A4A70;" width="9.178" height="40.973"/>
		
			<rect x="618.304" y="294.577" transform="matrix(-1 -4.506230e-11 4.506230e-11 -1 1242.057 630.1269)" style="fill:#2A4A70;" width="5.449" height="40.973"/>
	</g>
	<g>
		<g>
			<g>
				<polygon style="fill:#E4ECEF;" points="491.463,248.558 489.641,248.558 489.641,246.356 507.312,246.356 507.312,248.558 
					505.49,248.558 508.44,382.916 504.309,382.916 488.513,382.916 				"/>
				<polygon style="fill:#B9C4C9;" points="507.312,248.557 507.312,246.356 498.361,246.356 498.361,382.915 504.309,382.915 
					508.44,382.915 505.49,248.557 				"/>
				<path style="fill:#2A4A70;" d="M495.506,260.874v0.661h0.661h4.389h0.661v-0.661v-6.428c0-1.574-1.281-2.855-2.855-2.855
					c-1.574,0-2.855,1.281-2.855,2.855V260.874z"/>
				
					<rect x="489.641" y="266.546" transform="matrix(-1 -4.488067e-11 4.488067e-11 -1 996.9528 536.5828)" style="fill:#EE8808;" width="17.671" height="3.491"/>
				
					<rect x="498.36" y="266.546" transform="matrix(-1 -8.859814e-11 8.859814e-11 -1 1005.6724 536.5828)" style="fill:#D87100;" width="8.951" height="3.491"/>
				
					<rect x="489.641" y="246.356" transform="matrix(-1 -2.841073e-11 2.841073e-11 -1 996.9529 494.9132)" style="fill:#EE8808;" width="17.671" height="2.202"/>
				
					<rect x="498.361" y="246.356" transform="matrix(-1 -5.588209e-11 5.588209e-11 -1 1005.6724 494.9132)" style="fill:#D87100;" width="8.951" height="2.202"/>
				<path style="fill:#2A4A70;" d="M495.622,284.754v0.661h0.661h4.389h0.661v-0.661v-6.428c0-1.574-1.281-2.855-2.855-2.855
					c-1.574,0-2.855,1.281-2.855,2.855V284.754z"/>
				
					<rect x="488.629" y="292.617" transform="matrix(-1 -4.479496e-11 4.479496e-11 -1 996.9528 588.725)" style="fill:#EE8808;" width="19.694" height="3.491"/>
				
					<rect x="498.36" y="292.617" transform="matrix(-1 -8.854752e-11 8.854752e-11 -1 1006.6841 588.725)" style="fill:#D87100;" width="9.963" height="3.491"/>
				<path style="fill:#2A4A70;" d="M495.622,314.859v0.661h0.661h4.389h0.661v-0.661v-6.428c0-1.574-1.281-2.855-2.855-2.855
					c-1.574,0-2.855,1.281-2.855,2.855V314.859z"/>
				<path style="fill:#2A4A70;" d="M495.622,347.469v0.661h0.661h4.389h0.661v-0.661v-6.428c0-1.574-1.281-2.855-2.855-2.855
					c-1.574,0-2.855,1.281-2.855,2.855V347.469z"/>
				
					<rect x="488.629" y="324.072" transform="matrix(-1 -4.479496e-11 4.479496e-11 -1 996.9528 651.6348)" style="fill:#EE8808;" width="19.694" height="3.491"/>
				
					<rect x="498.361" y="324.072" transform="matrix(-1 -8.873004e-11 8.873004e-11 -1 1006.6841 651.6348)" style="fill:#D87100;" width="9.963" height="3.491"/>
				<g>
					<g>
						<path style="fill:#FFA700;" d="M498.476,245.41h6.969c2.486-4.547-0.802-7.512-3.19-8.983
							c-1.92-1.183-2.873-2.251-3.342-2.964c0.153-0.126,0.252-0.315,0.252-0.528c0-0.261-0.147-0.486-0.362-0.603
							c0.081-0.083,0.132-0.196,0.132-0.321c0-0.135-0.06-0.256-0.153-0.34v-0.905h-0.161v-0.704
							c0.075,0.011,0.15,0.023,0.228,0.023c0.658,0,1.223-0.396,1.47-0.963c-0.264,0.191-0.588,0.305-0.939,0.305
							c-0.886,0-1.604-0.718-1.604-1.604c0-0.228,0.048-0.445,0.134-0.641c-0.403,0.292-0.665,0.764-0.665,1.299
							c0,0.704,0.456,1.295,1.086,1.511v0.775h-0.161v0.905c-0.093,0.084-0.153,0.205-0.153,0.34c0,0.125,0.05,0.238,0.132,0.321
							c-0.214,0.117-0.362,0.341-0.362,0.603c0,0.214,0.099,0.402,0.252,0.528c-0.469,0.713-1.422,1.781-3.342,2.964
							c-2.388,1.471-5.676,4.435-3.19,8.983H498.476z"/>
						<path style="fill:#EE8808;" d="M502.256,236.428c-1.92-1.183-2.873-2.251-3.342-2.964c0.153-0.126,0.252-0.315,0.252-0.528
							c0-0.261-0.147-0.486-0.362-0.603c0.081-0.083,0.132-0.196,0.132-0.321c0-0.135-0.06-0.256-0.153-0.34v-0.905h-0.161v-0.704
							c0.075,0.011,0.15,0.023,0.228,0.023c0.658,0,1.223-0.396,1.47-0.963c-0.264,0.191-0.588,0.305-0.939,0.305
							c-0.352,0-0.676-0.115-0.941-0.307v16.29h0.036h6.969C507.932,240.863,504.643,237.899,502.256,236.428z"/>
					</g>
					<g>
						<rect x="490.657" y="245.41" style="fill:#EE8808;" width="15.638" height="0.945"/>
						<rect x="498.44" y="245.41" style="fill:#D87100;" width="7.855" height="0.945"/>
					</g>
				</g>
			</g>
			<g>
				<polygon style="fill:#E4ECEF;" points="452.793,234.381 450.97,234.381 450.97,232.18 468.641,232.18 468.641,234.381 
					466.819,234.381 469.769,368.739 465.639,368.739 449.843,368.739 				"/>
				<polygon style="fill:#B9C4C9;" points="468.641,234.381 468.641,232.18 459.69,232.18 459.69,368.739 465.639,368.739 
					469.769,368.739 466.819,234.381 				"/>
				<path style="fill:#2A4A70;" d="M456.835,246.697v0.661h0.661h4.389h0.661v-0.661v-6.428c0-1.574-1.281-2.855-2.855-2.855
					c-1.574,0-2.855,1.281-2.855,2.855V246.697z"/>
				
					<rect x="450.97" y="252.37" transform="matrix(-1 -4.498325e-11 4.498325e-11 -1 919.6118 508.2306)" style="fill:#EE8808;" width="17.671" height="3.491"/>
				
					<rect x="459.69" y="252.37" transform="matrix(-1 -8.880154e-11 8.880154e-11 -1 928.3313 508.2306)" style="fill:#D87100;" width="8.951" height="3.491"/>
				
					<rect x="450.97" y="232.18" transform="matrix(-1 -2.841073e-11 2.841073e-11 -1 919.6118 466.561)" style="fill:#EE8808;" width="17.671" height="2.202"/>
				
					<rect x="459.69" y="232.18" transform="matrix(-1 -5.598334e-11 5.598334e-11 -1 928.3314 466.561)" style="fill:#D87100;" width="8.951" height="2.202"/>
				<path style="fill:#2A4A70;" d="M456.951,270.578v0.661h0.661H462h0.661v-0.661v-6.428c0-1.574-1.281-2.855-2.855-2.855
					c-1.574,0-2.855,1.281-2.855,2.855V270.578z"/>
				
					<rect x="449.959" y="278.441" transform="matrix(-1 -4.479496e-11 4.479496e-11 -1 919.6118 560.3728)" style="fill:#EE8808;" width="19.694" height="3.491"/>
				
					<rect x="459.69" y="278.441" transform="matrix(-1 -8.873004e-11 8.873004e-11 -1 929.343 560.3728)" style="fill:#D87100;" width="9.963" height="3.491"/>
				<path style="fill:#2A4A70;" d="M456.951,300.683v0.661h0.661H462h0.661v-0.661v-6.428c0-1.574-1.281-2.855-2.855-2.855
					c-1.574,0-2.855,1.281-2.855,2.855V300.683z"/>
				<path style="fill:#2A4A70;" d="M456.951,333.292v0.661h0.661H462h0.661v-0.661v-6.428c0-1.574-1.281-2.855-2.855-2.855
					c-1.574,0-2.855,1.281-2.855,2.855V333.292z"/>
				
					<rect x="449.959" y="309.896" transform="matrix(-1 -4.488733e-11 4.488733e-11 -1 919.6118 623.2827)" style="fill:#EE8808;" width="19.694" height="3.491"/>
				
					<rect x="459.69" y="309.896" transform="matrix(-1 -8.873004e-11 8.873004e-11 -1 929.3431 623.2827)" style="fill:#D87100;" width="9.963" height="3.491"/>
				<g>
					<g>
						<path style="fill:#FFA700;" d="M459.806,231.234h6.969c2.486-4.547-0.802-7.512-3.19-8.983
							c-1.92-1.183-2.873-2.251-3.342-2.964c0.153-0.126,0.252-0.315,0.252-0.528c0-0.261-0.147-0.486-0.362-0.603
							c0.081-0.083,0.132-0.196,0.132-0.321c0-0.135-0.06-0.256-0.153-0.34v-0.905h-0.161v-0.704
							c0.075,0.011,0.15,0.023,0.228,0.023c0.658,0,1.223-0.396,1.47-0.963c-0.264,0.191-0.588,0.305-0.939,0.305
							c-0.886,0-1.604-0.718-1.604-1.604c0-0.228,0.048-0.445,0.134-0.641c-0.403,0.292-0.665,0.764-0.665,1.299
							c0,0.704,0.456,1.295,1.086,1.511v0.775H459.5v0.905c-0.093,0.084-0.153,0.205-0.153,0.34c0,0.125,0.05,0.238,0.132,0.321
							c-0.214,0.117-0.362,0.341-0.362,0.603c0,0.214,0.099,0.402,0.252,0.528c-0.469,0.713-1.422,1.781-3.342,2.964
							c-2.388,1.471-5.676,4.435-3.19,8.983H459.806z"/>
						<path style="fill:#EE8808;" d="M463.585,222.252c-1.92-1.183-2.873-2.251-3.342-2.964c0.153-0.126,0.252-0.315,0.252-0.528
							c0-0.261-0.147-0.486-0.362-0.603c0.081-0.083,0.132-0.196,0.132-0.321c0-0.136-0.06-0.256-0.153-0.34v-0.905h-0.161v-0.704
							c0.075,0.011,0.15,0.023,0.228,0.023c0.658,0,1.223-0.396,1.47-0.963c-0.264,0.191-0.588,0.305-0.939,0.305
							c-0.352,0-0.676-0.115-0.941-0.307v16.29h0.036h6.969C469.261,226.687,465.973,223.723,463.585,222.252z"/>
					</g>
					<g>
						<rect x="451.987" y="231.234" style="fill:#EE8808;" width="15.638" height="0.945"/>
						<rect x="459.77" y="231.234" style="fill:#D87100;" width="7.855" height="0.945"/>
					</g>
				</g>
			</g>
		</g>
		<g>
			<g>
				<polygon style="fill:#E4ECEF;" points="335.032,248.558 333.21,248.558 333.21,246.356 350.881,246.356 350.881,248.558 
					349.059,248.558 352.009,382.916 347.878,382.916 332.082,382.916 				"/>
				<polygon style="fill:#B9C4C9;" points="350.881,248.557 350.881,246.356 341.93,246.356 341.93,382.915 347.878,382.915 
					352.009,382.915 349.059,248.557 				"/>
				<path style="fill:#2A4A70;" d="M339.075,260.874v0.661h0.661h4.389h0.661v-0.661v-6.428c0-1.574-1.281-2.855-2.855-2.855
					c-1.574,0-2.855,1.281-2.855,2.855V260.874z"/>
				
					<rect x="333.21" y="266.546" transform="matrix(-1 -4.508628e-11 4.508628e-11 -1 684.0913 536.5828)" style="fill:#EE8808;" width="17.671" height="3.491"/>
				
					<rect x="341.93" y="266.546" transform="matrix(-1 -8.880154e-11 8.880154e-11 -1 692.8109 536.5828)" style="fill:#D87100;" width="8.951" height="3.491"/>
				
					<rect x="333.21" y="246.356" transform="matrix(-1 -2.846224e-11 2.846224e-11 -1 684.0913 494.9132)" style="fill:#EE8808;" width="17.671" height="2.202"/>
				
					<rect x="341.93" y="246.356" transform="matrix(-1 -5.598334e-11 5.598334e-11 -1 692.8109 494.9132)" style="fill:#D87100;" width="8.951" height="2.202"/>
				<path style="fill:#2A4A70;" d="M339.191,284.754v0.661h0.661h4.389h0.661v-0.661v-6.428c0-1.574-1.281-2.855-2.855-2.855
					c-1.574,0-2.855,1.281-2.855,2.855V284.754z"/>
				
					<rect x="332.198" y="292.617" transform="matrix(-1 -4.479496e-11 4.479496e-11 -1 684.0913 588.725)" style="fill:#EE8808;" width="19.694" height="3.491"/>
				
					<rect x="341.93" y="292.617" transform="matrix(-1 -8.873004e-11 8.873004e-11 -1 693.8226 588.725)" style="fill:#D87100;" width="9.963" height="3.491"/>
				<path style="fill:#2A4A70;" d="M339.191,314.859v0.661h0.661h4.389h0.661v-0.661v-6.428c0-1.574-1.281-2.855-2.855-2.855
					c-1.574,0-2.855,1.281-2.855,2.855V314.859z"/>
				<path style="fill:#2A4A70;" d="M339.191,347.469v0.661h0.661h4.389h0.661v-0.661v-6.428c0-1.574-1.281-2.855-2.855-2.855
					c-1.574,0-2.855,1.281-2.855,2.855V347.469z"/>
				
					<rect x="332.198" y="324.072" transform="matrix(-1 -4.479496e-11 4.479496e-11 -1 684.0913 651.6348)" style="fill:#EE8808;" width="19.694" height="3.491"/>
				
					<rect x="341.93" y="324.072" transform="matrix(-1 -8.891256e-11 8.891256e-11 -1 693.8226 651.6348)" style="fill:#D87100;" width="9.963" height="3.491"/>
				<g>
					<g>
						<path style="fill:#FFA700;" d="M342.046,245.41h6.969c2.486-4.547-0.802-7.512-3.19-8.983
							c-1.92-1.183-2.873-2.251-3.342-2.964c0.153-0.126,0.252-0.315,0.252-0.528c0-0.261-0.147-0.486-0.362-0.603
							c0.081-0.083,0.132-0.196,0.132-0.321c0-0.135-0.06-0.256-0.153-0.34v-0.905h-0.161v-0.704
							c0.075,0.011,0.15,0.023,0.228,0.023c0.658,0,1.223-0.396,1.47-0.963c-0.264,0.191-0.588,0.305-0.939,0.305
							c-0.886,0-1.604-0.718-1.604-1.604c0-0.228,0.048-0.445,0.134-0.641c-0.403,0.292-0.665,0.764-0.665,1.299
							c0,0.704,0.456,1.295,1.086,1.511v0.775h-0.161v0.905c-0.093,0.084-0.153,0.205-0.153,0.34c0,0.125,0.05,0.238,0.132,0.321
							c-0.214,0.117-0.362,0.341-0.362,0.603c0,0.214,0.099,0.402,0.252,0.528c-0.469,0.713-1.422,1.781-3.342,2.964
							c-2.388,1.471-5.676,4.435-3.19,8.983H342.046z"/>
						<path style="fill:#EE8808;" d="M345.825,236.428c-1.92-1.183-2.873-2.251-3.342-2.964c0.153-0.126,0.252-0.315,0.252-0.528
							c0-0.261-0.147-0.486-0.362-0.603c0.081-0.083,0.132-0.196,0.132-0.321c0-0.135-0.06-0.256-0.153-0.34v-0.905h-0.161v-0.704
							c0.075,0.011,0.15,0.023,0.228,0.023c0.658,0,1.223-0.396,1.47-0.963c-0.264,0.191-0.588,0.305-0.939,0.305
							c-0.352,0-0.676-0.115-0.941-0.307v16.29h0.036h6.969C351.501,240.863,348.213,237.899,345.825,236.428z"/>
					</g>
					<g>
						<rect x="334.226" y="245.41" style="fill:#EE8808;" width="15.638" height="0.945"/>
						<rect x="342.009" y="245.41" style="fill:#D87100;" width="7.855" height="0.945"/>
					</g>
				</g>
			</g>
			<g>
				<polygon style="fill:#E4ECEF;" points="373.703,234.381 371.881,234.381 371.881,232.18 389.552,232.18 389.552,234.381 
					387.73,234.381 390.679,368.739 386.549,368.739 370.753,368.739 				"/>
				<polygon style="fill:#B9C4C9;" points="389.552,234.381 389.552,232.18 380.6,232.18 380.6,368.739 386.549,368.739 
					390.679,368.739 387.73,234.381 				"/>
				<path style="fill:#2A4A70;" d="M377.745,246.697v0.661h0.661h4.389h0.661v-0.661v-6.428c0-1.574-1.281-2.855-2.855-2.855
					c-1.574,0-2.855,1.281-2.855,2.855V246.697z"/>
				
					<rect x="371.881" y="252.37" transform="matrix(-1 -4.498325e-11 4.498325e-11 -1 761.4324 508.2306)" style="fill:#EE8808;" width="17.671" height="3.491"/>
				
					<rect x="380.6" y="252.37" transform="matrix(-1 -8.900448e-11 8.900448e-11 -1 770.1519 508.2306)" style="fill:#D87100;" width="8.951" height="3.491"/>
				
					<rect x="371.881" y="232.18" transform="matrix(-1 -2.841073e-11 2.841073e-11 -1 761.4324 466.561)" style="fill:#EE8808;" width="17.671" height="2.202"/>
				
					<rect x="380.6" y="232.18" transform="matrix(-1 -5.598334e-11 5.598334e-11 -1 770.152 466.561)" style="fill:#D87100;" width="8.951" height="2.202"/>
				<path style="fill:#2A4A70;" d="M377.861,270.578v0.661h0.661h4.389h0.661v-0.661v-6.428c0-1.574-1.281-2.855-2.855-2.855
					c-1.574,0-2.855,1.281-2.855,2.855V270.578z"/>
				
					<rect x="370.869" y="278.441" transform="matrix(-1 -4.470259e-11 4.470259e-11 -1 761.4324 560.3728)" style="fill:#EE8808;" width="19.694" height="3.491"/>
				
					<rect x="380.6" y="278.441" transform="matrix(-1 -8.854752e-11 8.854752e-11 -1 771.1636 560.3728)" style="fill:#D87100;" width="9.963" height="3.491"/>
				<path style="fill:#2A4A70;" d="M377.861,300.683v0.661h0.661h4.389h0.661v-0.661v-6.428c0-1.574-1.281-2.855-2.855-2.855
					c-1.574,0-2.855,1.281-2.855,2.855V300.683z"/>
				<path style="fill:#2A4A70;" d="M377.861,333.292v0.661h0.661h4.389h0.661v-0.661v-6.428c0-1.574-1.281-2.855-2.855-2.855
					c-1.574,0-2.855,1.281-2.855,2.855V333.292z"/>
				
					<rect x="370.869" y="309.896" transform="matrix(-1 -4.488733e-11 4.488733e-11 -1 761.4324 623.2827)" style="fill:#EE8808;" width="19.694" height="3.491"/>
				
					<rect x="380.6" y="309.896" transform="matrix(-1 -8.891256e-11 8.891256e-11 -1 771.1636 623.2827)" style="fill:#D87100;" width="9.963" height="3.491"/>
				<g>
					<g>
						<path style="fill:#FFA700;" d="M380.716,231.234h6.969c2.486-4.547-0.802-7.512-3.19-8.983
							c-1.92-1.183-2.873-2.251-3.342-2.964c0.153-0.126,0.252-0.315,0.252-0.528c0-0.261-0.147-0.486-0.362-0.603
							c0.081-0.083,0.132-0.196,0.132-0.321c0-0.135-0.06-0.256-0.153-0.34v-0.905h-0.161v-0.704
							c0.075,0.011,0.15,0.023,0.228,0.023c0.658,0,1.223-0.396,1.47-0.963c-0.264,0.191-0.588,0.305-0.939,0.305
							c-0.886,0-1.604-0.718-1.604-1.604c0-0.228,0.048-0.445,0.134-0.641c-0.403,0.292-0.665,0.764-0.665,1.299
							c0,0.704,0.456,1.295,1.086,1.511v0.775h-0.161v0.905c-0.093,0.084-0.153,0.205-0.153,0.34c0,0.125,0.05,0.238,0.132,0.321
							c-0.214,0.117-0.362,0.341-0.362,0.603c0,0.214,0.099,0.402,0.252,0.528c-0.469,0.713-1.422,1.781-3.342,2.964
							c-2.388,1.471-5.676,4.435-3.19,8.983H380.716z"/>
						<path style="fill:#EE8808;" d="M384.495,222.252c-1.92-1.183-2.873-2.251-3.342-2.964c0.153-0.126,0.252-0.315,0.252-0.528
							c0-0.261-0.147-0.486-0.362-0.603c0.081-0.083,0.132-0.196,0.132-0.321c0-0.136-0.06-0.256-0.153-0.34v-0.905h-0.161v-0.704
							c0.075,0.011,0.15,0.023,0.228,0.023c0.658,0,1.223-0.396,1.47-0.963c-0.264,0.191-0.588,0.305-0.939,0.305
							c-0.352,0-0.676-0.115-0.941-0.307v16.29h0.036h6.969C390.172,226.687,386.883,223.723,384.495,222.252z"/>
					</g>
					<g>
						<rect x="372.897" y="231.234" style="fill:#EE8808;" width="15.638" height="0.945"/>
						<rect x="380.68" y="231.234" style="fill:#D87100;" width="7.855" height="0.945"/>
					</g>
				</g>
			</g>
		</g>
		<g>
			<g>
				<path style="fill:#FFA700;" d="M365.498,294.305h17.506c6.245-11.422-2.015-18.868-8.013-22.563
					c-4.822-2.971-7.218-5.655-8.394-7.445c0.383-0.318,0.632-0.791,0.632-1.327c0-0.656-0.37-1.221-0.908-1.514
					c0.204-0.208,0.331-0.493,0.331-0.807c0-0.34-0.15-0.643-0.385-0.854v-2.274h-0.405v-1.769c0.189,0.027,0.377,0.058,0.573,0.058
					c1.653,0,3.071-0.996,3.693-2.419c-0.664,0.481-1.477,0.767-2.359,0.767c-2.226,0-4.03-1.804-4.03-4.03
					c0-0.573,0.121-1.117,0.337-1.611c-1.011,0.732-1.672,1.919-1.672,3.263c0,1.768,1.145,3.253,2.729,3.796v1.945h-0.405v2.274
					c-0.234,0.211-0.385,0.514-0.385,0.854c0,0.315,0.127,0.599,0.331,0.807c-0.539,0.293-0.908,0.858-0.908,1.514
					c0,0.536,0.249,1.01,0.632,1.327c-1.177,1.79-3.572,4.474-8.395,7.445c-5.998,3.695-14.258,11.141-8.013,22.563H365.498z"/>
				<g>
					<rect x="345.767" y="294.305" style="fill:#EE8808;" width="39.281" height="2.374"/>
					<rect x="365.407" y="294.305" style="fill:#D87100;" width="19.641" height="2.374"/>
				</g>
				<path style="fill:#EE8808;" d="M374.991,271.742c-4.822-2.971-7.218-5.655-8.394-7.445c0.383-0.318,0.632-0.791,0.632-1.327
					c0-0.656-0.37-1.221-0.908-1.514c0.204-0.208,0.331-0.493,0.331-0.807c0-0.34-0.15-0.643-0.385-0.854v-2.274h-0.405v-1.769
					c0.189,0.027,0.377,0.058,0.573,0.058c1.653,0,3.071-0.996,3.693-2.419c-0.664,0.48-1.477,0.767-2.358,0.767
					c-0.884,0-1.699-0.288-2.363-0.77v40.919h0.091h17.506C389.249,282.883,380.989,275.437,374.991,271.742z"/>
				<rect x="346.799" y="296.68" style="fill:#B9C4C9;" width="37.307" height="12.64"/>
				<rect x="365.407" y="296.68" style="fill:#A1ACB2;" width="18.699" height="12.64"/>
				<g>
					<g>
						<path style="fill:#2A4A70;" d="M352.237,298.207c-2.038,1-1.922,3.569-1.922,3.569v6.015h1.922h1.922v-6.015
							C354.159,301.776,354.274,299.207,352.237,298.207z"/>
					</g>
				</g>
				<g>
					<g>
						<path style="fill:#2A4A70;" d="M361.089,298.207c-2.038,1-1.922,3.569-1.922,3.569v6.015h1.922h1.922v-6.015
							C363.011,301.776,363.126,299.207,361.089,298.207z"/>
					</g>
				</g>
				<g>
					<g>
						<path style="fill:#2A4A70;" d="M369.941,298.207c-2.038,1-1.922,3.569-1.922,3.569v6.015h1.922h1.922v-6.015
							C371.863,301.776,371.978,299.207,369.941,298.207z"/>
					</g>
				</g>
				<g>
					<g>
						<path style="fill:#2A4A70;" d="M378.793,298.207c-2.038,1-1.922,3.569-1.922,3.569v6.015h1.922h1.922v-6.015
							C380.715,301.776,380.83,299.207,378.793,298.207z"/>
					</g>
				</g>
			</g>
			<g>
				<path style="fill:#FFA700;" d="M420.441,287.407h25.549c9.115-16.671-2.941-27.537-11.694-32.93
					c-7.038-4.336-10.534-8.253-12.251-10.865c0.559-0.463,0.923-1.154,0.923-1.937c0-0.958-0.54-1.781-1.326-2.21
					c0.298-0.304,0.483-0.719,0.483-1.178c0-0.497-0.219-0.939-0.561-1.247v-3.319h-0.59v-2.582c0.276,0.04,0.55,0.084,0.836,0.084
					c2.412,0,4.482-1.453,5.39-3.53c-0.968,0.701-2.155,1.119-3.442,1.119c-3.248,0-5.882-2.633-5.882-5.882
					c0-0.836,0.177-1.631,0.492-2.351c-1.476,1.069-2.44,2.801-2.44,4.762c0,2.58,1.672,4.748,3.982,5.541v2.839h-0.59v3.319
					c-0.342,0.308-0.561,0.75-0.561,1.247c0,0.459,0.185,0.874,0.483,1.178c-0.786,0.428-1.326,1.252-1.326,2.21
					c0,0.783,0.364,1.474,0.923,1.937c-1.717,2.612-5.214,6.53-12.252,10.865c-8.753,5.393-20.809,16.26-11.694,32.93H420.441z"/>
				<g>
					<rect x="391.643" y="287.407" style="fill:#EE8808;" width="57.33" height="3.465"/>
					<rect x="420.308" y="287.407" style="fill:#D87100;" width="28.665" height="3.465"/>
				</g>
				<path style="fill:#EE8808;" d="M434.295,254.476c-7.038-4.336-10.534-8.253-12.251-10.865c0.559-0.463,0.923-1.154,0.923-1.937
					c0-0.958-0.54-1.781-1.326-2.21c0.298-0.304,0.483-0.719,0.483-1.178c0-0.497-0.219-0.939-0.561-1.247v-3.319h-0.591v-2.582
					c0.276,0.04,0.55,0.084,0.836,0.084c2.412,0,4.482-1.453,5.39-3.53c-0.968,0.701-2.155,1.119-3.442,1.119
					c-1.29,0-2.479-0.42-3.449-1.124v59.72h0.133h25.549C455.104,270.736,443.049,259.869,434.295,254.476z"/>
				<rect x="393.15" y="290.872" style="fill:#B9C4C9;" width="54.449" height="18.447"/>
				<rect x="420.308" y="290.872" style="fill:#A1ACB2;" width="27.291" height="18.447"/>
				<g>
					<path style="fill:#2A4A70;" d="M401.086,293.102c-2.974,1.459-2.805,5.209-2.805,5.209v8.779h2.805h2.805v-8.779
						C403.891,298.311,404.059,294.561,401.086,293.102z"/>
				</g>
				<g>
					<g>
						<path style="fill:#2A4A70;" d="M414.005,293.102c-2.974,1.459-2.805,5.209-2.805,5.209v8.779h2.805h2.805v-8.779
							C416.81,298.311,416.979,294.561,414.005,293.102z"/>
					</g>
				</g>
				<g>
					<path style="fill:#2A4A70;" d="M426.924,293.102c-2.974,1.459-2.805,5.209-2.805,5.209v8.779h2.805h2.805v-8.779
						C429.73,298.311,429.898,294.561,426.924,293.102z"/>
				</g>
				<g>
					<g>
						<path style="fill:#2A4A70;" d="M439.844,293.102c-2.974,1.459-2.805,5.209-2.805,5.209v8.779h2.805h2.805v-8.779
							C442.649,298.311,442.817,294.561,439.844,293.102z"/>
					</g>
				</g>
			</g>
			<g>
				<path style="fill:#FFA700;" d="M475.117,294.305h17.506c6.245-11.422-2.015-18.868-8.013-22.563
					c-4.822-2.971-7.218-5.655-8.394-7.445c0.383-0.318,0.632-0.791,0.632-1.327c0-0.656-0.37-1.221-0.908-1.514
					c0.204-0.208,0.331-0.493,0.331-0.807c0-0.34-0.15-0.643-0.385-0.854v-2.274h-0.405v-1.769c0.189,0.027,0.377,0.058,0.573,0.058
					c1.653,0,3.071-0.996,3.693-2.419c-0.664,0.481-1.477,0.767-2.358,0.767c-2.226,0-4.03-1.804-4.03-4.03
					c0-0.573,0.121-1.117,0.337-1.611c-1.011,0.732-1.672,1.919-1.672,3.263c0,1.768,1.145,3.253,2.729,3.796v1.945h-0.405v2.274
					c-0.234,0.211-0.385,0.514-0.385,0.854c0,0.315,0.127,0.599,0.331,0.807c-0.539,0.293-0.908,0.858-0.908,1.514
					c0,0.536,0.249,1.01,0.632,1.327c-1.177,1.79-3.572,4.474-8.395,7.445c-5.998,3.695-14.258,11.141-8.013,22.563H475.117z"/>
				<g>
					<rect x="455.385" y="294.305" style="fill:#EE8808;" width="39.281" height="2.374"/>
					<rect x="475.026" y="294.305" style="fill:#D87100;" width="19.641" height="2.374"/>
				</g>
				<path style="fill:#EE8808;" d="M484.61,271.742c-4.822-2.971-7.218-5.655-8.394-7.445c0.383-0.318,0.632-0.791,0.632-1.327
					c0-0.656-0.37-1.221-0.908-1.514c0.204-0.208,0.331-0.493,0.331-0.807c0-0.34-0.15-0.643-0.385-0.854v-2.274h-0.405v-1.769
					c0.189,0.027,0.377,0.058,0.573,0.058c1.653,0,3.071-0.996,3.693-2.419c-0.664,0.48-1.477,0.767-2.358,0.767
					c-0.884,0-1.699-0.288-2.363-0.77v40.919h0.091h17.506C498.868,282.883,490.608,275.437,484.61,271.742z"/>
				<rect x="456.418" y="296.68" style="fill:#B9C4C9;" width="37.307" height="12.64"/>
				<rect x="475.026" y="296.68" style="fill:#A1ACB2;" width="18.699" height="12.64"/>
				<g>
					<path style="fill:#2A4A70;" d="M461.855,298.207c-2.038,1-1.922,3.569-1.922,3.569v6.015h1.922h1.922v-6.015
						C463.778,301.776,463.893,299.207,461.855,298.207z"/>
				</g>
				<g>
					<g>
						<path style="fill:#2A4A70;" d="M470.708,298.207c-2.038,1-1.922,3.569-1.922,3.569v6.015h1.922h1.922v-6.015
							C472.63,301.776,472.745,299.207,470.708,298.207z"/>
					</g>
				</g>
				<g>
					<g>
						<path style="fill:#2A4A70;" d="M479.56,298.207c-2.038,1-1.922,3.569-1.922,3.569v6.015h1.922h1.922v-6.015
							C481.482,301.776,481.597,299.207,479.56,298.207z"/>
					</g>
				</g>
				<g>
					<g>
						<path style="fill:#2A4A70;" d="M488.412,298.207c-2.038,1-1.922,3.569-1.922,3.569v6.015h1.922h1.922v-6.015
							C490.334,301.776,490.449,299.207,488.412,298.207z"/>
					</g>
				</g>
			</g>
			<rect x="342.046" y="309.319" style="fill:#EE8808;" width="156.433" height="4.646"/>
			<rect x="420.308" y="309.319" style="fill:#D87100;" width="78.171" height="4.646"/>
			<rect x="346.799" y="313.966" style="fill:#B9C4C9;" width="37.307" height="68.95"/>
			<path style="fill:#2A4A70;" d="M376.087,382.916h-21.361V349.85h0.004c-0.261-4.498,8.075-7.645,10.676-11.585
				c2.603,3.94,10.938,7.086,10.677,11.585h0.004V382.916z"/>
			<rect x="384.106" y="313.966" style="fill:#B9C4C9;" width="72.536" height="68.95"/>
			<rect x="384.106" y="313.966" style="fill:#E4ECEF;" width="14.39" height="68.95"/>
			<rect x="420.262" y="313.966" style="fill:#A1ACB2;" width="36.38" height="68.95"/>
			<path style="fill:#2A4A70;" d="M434.77,382.916h-29.017v-40.24h0.006c-0.355-5.474,10.969-9.304,14.502-14.098
				c3.535,4.794,14.859,8.624,14.504,14.098h0.005V382.916z"/>
			<rect x="386.043" y="322.395" style="fill:#B9C4C9;" width="10.516" height="24.444"/>
			<rect x="386.043" y="358.471" style="fill:#B9C4C9;" width="10.516" height="24.444"/>
			
				<rect x="456.642" y="313.966" transform="matrix(-1 -4.495394e-11 4.495394e-11 -1 950.5911 696.8812)" style="fill:#A1ACB2;" width="37.307" height="68.95"/>
			<path style="fill:#2A4A70;" d="M485.706,382.916h-21.361V349.85h0.004c-0.261-4.498,8.075-7.645,10.676-11.585
				c2.603,3.94,10.938,7.086,10.677,11.585h0.004V382.916z"/>
			<rect x="442.252" y="313.966" style="fill:#E4ECEF;" width="14.39" height="68.95"/>
			<rect x="444.189" y="322.395" style="fill:#B9C4C9;" width="10.516" height="24.444"/>
			<rect x="444.189" y="358.471" style="fill:#B9C4C9;" width="10.516" height="24.444"/>
		</g>
	</g>
	<g>
		<rect x="208" y="287.315" style="fill:#E62432;" width="110.709" height="17.844"/>
		<rect x="263.355" y="287.315" style="fill:#CE172D;" width="55.354" height="17.844"/>
		<polygon style="fill:#E62432;" points="349.229,326.478 177.481,326.478 168.654,326.478 168.654,382.916 263.355,382.916 
			358.056,382.916 358.056,326.478 		"/>
		<polygon style="fill:#CE172D;" points="358.056,382.916 358.056,326.478 349.229,326.478 263.355,326.478 263.355,382.916 		"/>
		<g>
			<g>
				<g>
					<path style="fill:#2A4A70;" d="M279.295,382.916h-31.881V355.54c0-8.804,7.137-15.941,15.94-15.941s15.94,7.137,15.94,15.941
						V382.916z"/>
				</g>
				<g>
					<g>
						<path style="fill:#2A4A70;" d="M190.948,369.032h-10.518v-14.731c0-2.904,2.354-5.259,5.259-5.259s5.259,2.355,5.259,5.259
							V369.032z"/>
					</g>
					<g>
						<path style="fill:#2A4A70;" d="M213.725,369.032h-10.518v-14.731c0-2.904,2.355-5.259,5.259-5.259s5.259,2.355,5.259,5.259
							V369.032z"/>
					</g>
					<g>
						<path style="fill:#2A4A70;" d="M236.502,369.032h-10.518v-14.731c0-2.904,2.354-5.259,5.259-5.259
							c2.904,0,5.259,2.355,5.259,5.259V369.032z"/>
					</g>
					<g>
						<path style="fill:#2A4A70;" d="M300.726,369.032h-10.518v-14.731c0-2.904,2.355-5.259,5.259-5.259
							c2.904,0,5.259,2.355,5.259,5.259V369.032z"/>
					</g>
					<g>
						<path style="fill:#2A4A70;" d="M323.502,369.032h-10.518v-14.731c0-2.904,2.354-5.259,5.259-5.259
							c2.904,0,5.259,2.355,5.259,5.259V369.032z"/>
					</g>
					<g>
						<path style="fill:#2A4A70;" d="M346.279,369.032h-10.518v-14.731c0-2.904,2.355-5.259,5.259-5.259
							c2.904,0,5.259,2.355,5.259,5.259V369.032z"/>
					</g>
				</g>
			</g>
		</g>
		<path style="fill:#385E84;" d="M318.709,305.159h-5.535h-6.882h-4.713h-6.882h-4.713h-6.882h-4.713h-6.882h-4.713h-6.882h-4.713
			h-6.882h-4.713h-6.882h-4.713h-6.882h-4.713h-6.882H208c0,0-9.724,10.772-46.976,10.772v4.488h7.63h189.402h7.63v-4.488
			C328.433,315.93,318.709,305.159,318.709,305.159z"/>
		<path style="fill:#385E84;" d="M318.709,281.256h15.11v-1.945c-19.299,0-29.847-10.023-29.847-10.023h-40.618h-40.618
			c0,0-10.547,10.023-29.847,10.023v1.945H208H318.709z"/>
		<path style="fill:#2A4A70;" d="M318.709,281.256h15.11v-1.945c-4.222,0-8.025-0.48-11.39-1.229
			c-0.962-0.214-1.887-0.45-2.777-0.704c-0.89-0.253-1.743-0.524-2.56-0.806c-8.577-2.968-13.12-7.285-13.12-7.285h-40.618v11.968
			H318.709z"/>
		<path style="fill:#2A4A70;" d="M318.709,305.159h-5.535h-6.882h-4.713h-6.882h-4.713h-6.882h-4.713h-6.882h-4.713h-3.441v15.26
			h94.701h7.63v-4.488C328.433,315.93,318.709,305.159,318.709,305.159z"/>
		<rect x="164.948" y="320.419" style="fill:#FFA700;" width="196.814" height="6.059"/>
		<rect x="263.355" y="320.419" style="fill:#EE8808;" width="98.407" height="6.059"/>
		<rect x="205.834" y="281.256" style="fill:#FFA700;" width="115.042" height="6.059"/>
		<rect x="263.355" y="281.256" style="fill:#EE8808;" width="57.521" height="6.059"/>
		<g>
			<g>
				<g>
					<path style="fill:#2A4A70;" d="M213.536,295.367c0-1.9,1.541-3.441,3.441-3.441c1.9,0,3.441,1.541,3.441,3.441v5.91h-6.882
						V295.367z"/>
				</g>
				<g>
					<path style="fill:#2A4A70;" d="M283.103,295.367c0-1.9,1.54-3.441,3.441-3.441c1.9,0,3.441,1.541,3.441,3.441v5.91h-6.882
						V295.367z"/>
				</g>
				<g>
					<path style="fill:#2A4A70;" d="M259.914,295.367c0-1.9,1.541-3.441,3.441-3.441s3.441,1.541,3.441,3.441v5.91h-6.882V295.367z"
						/>
				</g>
				<g>
					<path style="fill:#2A4A70;" d="M236.725,295.367c0-1.9,1.541-3.441,3.441-3.441c1.9,0,3.441,1.541,3.441,3.441v5.91h-6.882
						V295.367z"/>
				</g>
				<g>
					<path style="fill:#2A4A70;" d="M232.012,301.276h-6.882v-5.91c0-1.9,1.541-3.441,3.441-3.441s3.441,1.541,3.441,3.441V301.276z
						"/>
				</g>
				<g>
					<path style="fill:#2A4A70;" d="M255.201,301.276h-6.882v-5.91c0-1.9,1.541-3.441,3.441-3.441c1.9,0,3.441,1.541,3.441,3.441
						V301.276z"/>
				</g>
				<g>
					<path style="fill:#2A4A70;" d="M278.39,301.276h-6.882v-5.91c0-1.9,1.54-3.441,3.441-3.441c1.9,0,3.441,1.541,3.441,3.441
						V301.276z"/>
				</g>
				<g>
					<path style="fill:#2A4A70;" d="M301.579,301.276h-6.882v-5.91c0-1.9,1.541-3.441,3.441-3.441s3.441,1.541,3.441,3.441V301.276z
						"/>
				</g>
				<g>
					<path style="fill:#2A4A70;" d="M306.292,295.367c0-1.9,1.54-3.441,3.441-3.441c1.9,0,3.441,1.541,3.441,3.441v5.91h-6.882
						V295.367z"/>
				</g>
			</g>
		</g>
	</g>
	<g>
		<path style="fill:#B9C4C9;" d="M125.948,377.972c0,0-2.617-13.229-17.299-17.881h38.669v17.881H125.948z"/>
		<path style="fill:#A1ACB2;" d="M168.687,377.972c0,0,2.617-13.229,17.299-17.881h-38.669v17.881H168.687z"/>
		<rect x="108.648" y="355.149" style="fill:#DAE2E5;" width="77.339" height="4.943"/>
		<rect x="147.318" y="355.149" style="fill:#B9C4C9;" width="38.669" height="4.943"/>
		<rect x="139.649" y="234.925" style="fill:#DAE2E5;" width="15.337" height="2.471"/>
		<rect x="147.318" y="234.925" style="fill:#B9C4C9;" width="7.668" height="2.471"/>
		<rect x="140.957" y="228.783" style="fill:#DAE2E5;" width="12.72" height="1.816"/>
		<rect x="147.318" y="228.783" style="fill:#B9C4C9;" width="6.36" height="1.816"/>
		<rect x="142.6" y="230.599" style="fill:#B9C4C9;" width="9.436" height="4.326"/>
		<rect x="147.318" y="230.599" style="fill:#A1ACB2;" width="4.718" height="4.326"/>
		<rect x="99.78" y="377.972" style="fill:#DAE2E5;" width="95.074" height="4.943"/>
		<rect x="147.318" y="377.972" style="fill:#B9C4C9;" width="47.537" height="4.943"/>
		<polygon style="fill:#B9C4C9;" points="135.912,355.149 142.6,237.396 147.318,237.396 147.318,355.149 		"/>
		<polygon style="fill:#A1ACB2;" points="158.723,355.149 152.035,237.396 147.318,237.396 147.318,355.149 		"/>
		<path style="fill:#FFA700;" d="M143.651,228.783c0,0-2.366-2.914-0.465-6.756c1.901-3.842,4.131-10.435,4.131-10.435v17.19
			H143.651z"/>
		<path style="fill:#EE8808;" d="M150.984,228.783c0,0,2.366-2.914,0.465-6.756c-1.901-3.842-4.131-10.435-4.131-10.435v17.19
			H150.984z"/>
	</g>
	<g>
		<g>
			<g>
				<rect x="469.807" y="376.955" style="fill:#FBC637;" width="126.045" height="5.96"/>
				<rect x="532.829" y="376.955" style="fill:#FBA637;" width="63.022" height="5.96"/>
			</g>
			<g>
				<rect x="476.877" y="370.995" style="fill:#EE8808;" width="111.903" height="5.96"/>
				<rect x="532.829" y="370.995" style="fill:#D87100;" width="55.952" height="5.96"/>
			</g>
			<g>
				<rect x="482.867" y="365.034" style="fill:#FBC637;" width="99.924" height="5.96"/>
				<rect x="532.829" y="365.034" style="fill:#FBA637;" width="49.962" height="5.96"/>
			</g>
			<g>
				<rect x="489.616" y="359.074" style="fill:#EE8808;" width="86.426" height="5.96"/>
				<rect x="532.829" y="359.074" style="fill:#D87100;" width="43.213" height="5.96"/>
			</g>
		</g>
		<path style="fill:#FBC637;" d="M504.942,348.102c-3.798,7.847-9.658,10.972-9.658,10.972h37.545v-16.946h-18.318
			C510.444,342.128,506.714,344.441,504.942,348.102z"/>
		<path style="fill:#FBA637;" d="M560.716,348.102c3.798,7.847,9.658,10.972,9.658,10.972h-37.545v-16.946h18.318
			C555.214,342.128,558.944,344.441,560.716,348.102z"/>
		<path style="fill:#FBC637;" d="M514.511,342.128c0,0,2.102-18.29,9.815-27.231h8.502v27.231H514.511z"/>
		<path style="fill:#FBA637;" d="M551.146,342.128c0,0-2.102-18.29-9.815-27.231h-8.502v27.231H551.146z"/>
		<rect x="524.327" y="308.498" style="fill:#FBC637;" width="17.005" height="6.399"/>
		<rect x="532.829" y="308.498" style="fill:#FBA637;" width="8.502" height="6.399"/>
		<path style="fill:#FBC637;" d="M526.343,308.498c0,0,0.964-10.431,3.418-16.859h3.068v16.859H526.343z"/>
		<path style="fill:#FBA637;" d="M539.315,308.498c0,0-0.964-10.431-3.418-16.859h-3.068v16.859H539.315z"/>
		<g>
			<ellipse style="fill:#EE8808;" cx="532.836" cy="264.494" rx="0.65" ry="3.78"/>
			<circle style="fill:#EE8808;" cx="532.836" cy="267.919" r="1.556"/>
			<path style="fill:#FFA700;" d="M532.834,267.919c0,0-4.2,11.868-4.529,14.874s1.84,8.846,1.84,8.846h2.684L532.834,267.919z"/>
			<path style="fill:#EE8808;" d="M532.824,267.919c0,0,4.2,11.868,4.529,14.874c0.329,3.006-1.847,8.846-1.847,8.846h-2.677
				L532.824,267.919z"/>
		</g>
		<g>
			<rect x="526.781" y="290.026" style="fill:#EE8808;" width="12.096" height="3.228"/>
			<rect x="532.829" y="290.026" style="fill:#D87100;" width="6.048" height="3.228"/>
		</g>
		<g>
			<rect x="522.661" y="305.27" style="fill:#EE8808;" width="20.335" height="3.228"/>
			<rect x="532.829" y="305.27" style="fill:#D87100;" width="10.168" height="3.228"/>
		</g>
	</g>
	<g>
		<g>
			<rect x="92.959" y="354.549" style="fill:#FBA637;" width="3.625" height="28.366"/>
			<rect x="94.771" y="354.549" style="fill:#D87100;" width="1.813" height="28.366"/>
			<g>
				<ellipse style="fill:#98CB42;" cx="94.771" cy="352.074" rx="11.721" ry="19.712"/>
				<path style="fill:#84B22B;" d="M106.492,352.074c0-10.887-5.248-19.712-11.721-19.712v39.424
					C101.245,371.786,106.492,362.96,106.492,352.074z"/>
			</g>
		</g>
		<g>
			<rect x="67.162" y="365.543" style="fill:#FBA637;" width="2.966" height="23.209"/>
			<rect x="68.645" y="365.543" style="fill:#D87100;" width="1.483" height="23.209"/>
			<g>
				<ellipse style="fill:#98CB42;" cx="68.645" cy="363.517" rx="9.59" ry="16.128"/>
				<path style="fill:#84B22B;" d="M78.235,363.517c0-8.907-4.294-16.128-9.59-16.128v32.256
					C73.941,379.645,78.235,372.425,78.235,363.517z"/>
			</g>
		</g>
	</g>
	<g>
		<rect x="653.416" y="354.549" style="fill:#FBA637;" width="3.625" height="28.366"/>
		<rect x="655.229" y="354.549" style="fill:#D87100;" width="1.813" height="28.366"/>
		<g>
			<ellipse style="fill:#98CB42;" cx="655.229" cy="352.074" rx="11.721" ry="19.712"/>
			<path style="fill:#84B22B;" d="M666.949,352.074c0-10.887-5.248-19.712-11.721-19.712v39.424
				C661.702,371.786,666.949,362.96,666.949,352.074z"/>
		</g>
	</g>
	<g>
		<rect x="679.872" y="365.543" style="fill:#FBA637;" width="2.966" height="23.209"/>
		<rect x="681.355" y="365.543" style="fill:#D87100;" width="1.483" height="23.209"/>
		<g>
			<ellipse style="fill:#98CB42;" cx="681.355" cy="363.517" rx="9.59" ry="16.128"/>
			<path style="fill:#84B22B;" d="M690.945,363.517c0-8.907-4.294-16.128-9.59-16.128v32.256
				C686.652,379.645,690.945,372.425,690.945,363.517z"/>
		</g>
	</g>
	<path style="fill:#FFFFFF;" d="M458.909,183.553c2.115,0,4.038,0.8,5.501,2.104c0.292-7.418,6.381-13.347,13.871-13.347
		c6.592,0,12.099,4.593,13.528,10.751c1.772-1.682,4.161-2.72,6.796-2.72c5.459,0,9.884,4.425,9.884,9.884
		c0,5.459-4.425,9.884-9.884,9.884h-39.696c-4.572,0-8.278-3.706-8.278-8.278C450.631,187.259,454.337,183.553,458.909,183.553z"/>
	<path style="fill:#FFFFFF;" d="M534.166,131.97c3.09,0,5.9,1.168,8.037,3.074c0.427-10.839,9.324-19.502,20.268-19.502
		c9.631,0,17.678,6.712,19.765,15.708c2.589-2.457,6.079-3.974,9.93-3.974c7.976,0,14.442,6.466,14.442,14.442
		c0,7.976-6.466,14.442-14.442,14.442h-58.001c-6.68,0-12.095-5.415-12.095-12.095S527.487,131.97,534.166,131.97z"/>
	<g>
		<circle style="fill:#FFA700;" cx="415.558" cy="144.078" r="33.996"/>
		<circle style="fill:#FFCF00;" cx="415.558" cy="144.078" r="28.191"/>
	</g>
	<path style="fill:#FFFFFF;" d="M395.823,151.119c-2.913,0-5.563,1.102-7.578,2.899c-0.402-10.22-8.792-18.388-19.111-18.388
		c-9.081,0-16.669,6.328-18.637,14.811c-2.441-2.317-5.732-3.747-9.363-3.747c-7.52,0-13.617,6.097-13.617,13.617
		c0,7.521,6.097,13.617,13.617,13.617h54.689c6.298,0,11.404-5.106,11.404-11.404S402.121,151.119,395.823,151.119z"/>
</g>
</svg>
