<?xml version="1.0" encoding="utf-8"?>
<!-- Generator: Adobe Illustrator 27.5.0, SVG Export Plug-In . SVG Version: 6.00 Build 0)  -->
<svg version="1.1" xmlns="http://www.w3.org/2000/svg" xmlns:xlink="http://www.w3.org/1999/xlink" x="0px" y="0px"
	 viewBox="0 0 500 500" style="enable-background:new 0 0 500 500;" xml:space="preserve">
<g id="BACKGROUND">
	<g>
		<rect style="fill:#66BBFE;" width="500" height="500"/>
		<path style="fill:#7BC5FE;" d="M500,175.712H366.606c0,0,15.559-16.091,26.433-6.132c0,0,3.975-12.234,22.046-14.788
			c14.899-2.105,5.914,8.76,5.914,8.76s17.871-21.722,33.694-22.233c15.824-0.51,9.71,14.52,9.71,14.52s20.939-19.245,35.597-14.147
			V175.712z"/>
		<path style="fill:#7BC5FE;" d="M358.97,148.742h-97.798c0,0,8.535-10.931,17.664-10.931c5.719,0,7.667,3.287,7.667,3.287
			s5.178-9.545,14.638-9.775c9.459-0.23-1.123,11.147-1.123,11.147s11.13-7.949,16.059-5.862c4.929,2.087-3.856,7.744-3.856,7.744
			S326.106,145.552,358.97,148.742z"/>
		
			<linearGradient id="SVGID_1_" gradientUnits="userSpaceOnUse" x1="564.3431" y1="-1281.7843" x2="681.5909" y2="-1281.7843" gradientTransform="matrix(0 1 -1 0 -1108.0603 -511.686)">
			<stop  offset="0" style="stop-color:#FEE7A4"/>
			<stop  offset="0.2636" style="stop-color:#FEE4A1"/>
			<stop  offset="0.4873" style="stop-color:#FEDB96"/>
			<stop  offset="0.6964" style="stop-color:#FECB85"/>
			<stop  offset="0.8956" style="stop-color:#FDB56C"/>
			<stop  offset="1" style="stop-color:#FDA65C"/>
		</linearGradient>
		<circle style="fill:url(#SVGID_1_);" cx="173.724" cy="111.281" r="58.624"/>
		<path style="fill:#B3E3FE;" d="M500,200.551c0,0-37.272,14.033-40.025,13.477c-2.753-0.556-141.435-45.139-146.538-44.514
			c-5.103,0.625-72.325,30.939-72.325,30.939s-131.667-74.746-143.333-76.943C86.111,121.313,0,177.275,0,177.275v56.197h500
			V200.551z"/>
		<path style="fill:#94D8FE;" d="M321.927,237.845l-8.153-63.262c-0.169-1.308-1.544-2.09-2.755-1.566l-137.752,59.628
			c-1.951,0.844-1.386,3.75,0.738,3.803l145.905,3.633C321.126,240.112,322.082,239.051,321.927,237.845z"/>
		<path style="fill:#94D8FE;" d="M95.018,127.322c-14.274,6.836-86.888,50.173-94.392,54.656C0.237,182.21,0,182.63,0,183.083
			v54.178c0,0.712,0.577,1.288,1.288,1.288h97.955c0.716,0,1.295-0.583,1.288-1.299c-0.209-22.307-3.461-90.536-3.669-108.783
			C96.852,127.526,95.868,126.915,95.018,127.322z"/>
		<path style="fill:#94D8FE;" d="M206.457,184.631l-64.271-33.266c-1.343-0.695-2.578,1.093-1.452,2.103l46.314,41.541
			c0.875,0.785,2.258,0.084,2.142-1.086l-0.611-6.169c-0.077-0.781,0.556-1.45,1.341-1.414l15.888,0.723
			C207.186,187.124,207.684,185.266,206.457,184.631z"/>
		<path style="fill:#7BC5FE;" d="M482.256,50.586H348.427c0,0,11.68-19.396,24.172-19.396c7.826,0,10.492,5.832,10.492,5.832
			s7.086-16.936,20.03-17.345s-1.536,19.778-1.536,19.778s15.23-14.104,21.975-10.401c6.745,3.703-5.277,13.74-5.277,13.74
			S437.284,44.926,482.256,50.586z"/>
		<path style="fill:#7BC5FE;" d="M113,62.548H23.384c0,0,7.821-12.988,16.187-12.988c5.241,0,7.026,3.905,7.026,3.905
			s4.745-11.341,13.413-11.615c8.668-0.274-1.029,13.244-1.029,13.244s10.199-9.444,14.715-6.965
			c4.517,2.48-3.533,9.201-3.533,9.201S82.886,58.758,113,62.548z"/>
		<path style="fill:#7BC5FE;" d="M374.661,89.751h-119.6l11.542-4.632c0,0-1.139-7.675,3.418-9.85
			c4.558-2.175,7.596,6.073,7.596,6.073s3.798-14.346,15.192-13.196c11.394,1.15,3.697,12.249,3.697,12.249
			s10.312-6.496,15.651-3.86c5.339,2.636,2.3,6.503,2.3,6.503s6.077-7.24,12.154-6.503c6.077,0.737,3.418,7.59,3.418,7.59
			L374.661,89.751z"/>
		<path style="fill:#7BC5FE;" d="M500,107.967h-84.659c0,0,9.875-10.212,16.776-3.892c0,0,2.522-7.764,13.992-9.385
			c9.455-1.336,3.753,5.56,3.753,5.56s11.342-13.786,21.384-14.11c10.042-0.324,6.162,9.215,6.162,9.215S490.697,83.141,500,86.376
			V107.967z"/>
		<path style="fill:#7BC5FE;" d="M0,97.7h84.769c0,0-9.887-10.226-16.797-3.897c0,0-2.526-7.775-14.01-9.397
			c-9.468-1.338-3.758,5.567-3.758,5.567S38.847,76.168,28.791,75.844c-10.056-0.324-6.17,9.228-6.17,9.228S9.315,72.842,0,76.081
			V97.7z"/>
	</g>
</g>
<g id="OBJECTS">
	<g>
		<rect y="240.139" style="fill:#F7FFFF;" width="500" height="259.861"/>
		<path style="fill:#DCF4FF;" d="M500,364.82l-245.168,2.907c-3.728,0.044-4.277,5.397-0.635,6.196
			c15.414,3.382,33.287,7.649,45.336,10.575c2.601,0.632,2.313,4.42-0.354,4.651c-40.971,3.56-160.084,13.903-222.425,19.236
			c-3.852,0.329-3.809,5.979,0.048,6.25l330.976,23.281L12.111,500H500V364.82z"/>
		<path style="fill:#DCF4FF;" d="M0,240.139V349.85c14.842-1.339,29.45-2.688,44.444-4.294c17.917-1.944,35.417-4.167,53.333-4.722
			c19.861-0.556,39.444-4.444,59.444-5.972c8.056-0.556,15.833-2.222,23.889-2.778c8.75-0.694,16.944-2.222,25.556-4.306
			c5.833-1.528,11.528-2.778,16.805-6.389c1.25-0.972,2.917-1.111,4.306-1.806c0.833-0.417,1.389-1.111,2.222-1.667
			c1.111-0.694,2.222-0.972,3.333-1.667c0.833-0.556,1.389-1.25,2.222-1.667c4.861-2.222,8.75-5.417,12.083-9.583
			c0.972-1.25,1.944-2.639,1.111-4.306c0-0.139-0.694,0.139-0.972,0c-1.806-1.806-4.445-1.528-6.667-2.083
			c-1.25-0.417-2.639,0-3.889-0.139c-0.972-0.139-1.805-0.417-2.778-0.556c-1.111,0-2.222,0.139-3.333,0
			c-2.5-0.417-4.861-0.556-7.222-0.694c-2.639,0-5.139-0.694-7.778-0.833c-6.528-0.417-12.917-1.944-19.444-2.222
			c-3.75-0.278-7.361,0.139-11.111-0.278c-2.778-0.417-5.556-0.833-8.333-1.389c-2.5-0.417-4.861,0-7.222-0.278
			c-7.361-0.694-14.306-2.361-21.667-2.917c-7.778-0.556-15.139-3.194-22.778-5.417c-7.361-2.083-14.583-2.917-21.528-5.556
			c-1.528-0.556-0.833-2.222-0.417-3.056c1.111-2.778,2.222-5.556,4.306-7.778c2.778-3.194,5.694-5.694,9.305-7.778
			c5.556-3.333,10.972-5.417,17.222-6.805c0.972-0.139,1.806,0.139,2.778-0.139c8.611-2.083,16.667-0.556,25-0.417
			c11.667,0.139,23.333,0.695,35-0.417c9.028-0.833,18.194-0.833,27.222-0.417c10.139,0.417,20.278,1.528,30.556,1.389
			c1.667,0,3.333,0.555,5,0.555c24.722,0,49.167,2.5,73.889,2.778c11.528,3.056,23.333,1.944,35,2.222
			c1.111,0.139,2.222,0.417,3.333,0.556c2.917,0.139,5.972-0.139,8.889,0c38.056,2.222,75.972,1.111,113.889,0.833
			c1.658,0,3.328-0.076,5-0.236v-19.486H0z"/>
		<path style="fill:#3E47C3;" d="M268.889,500H500v-86.312c0,0-0.019-23.375-21.268-24.63
			c-26.939-1.592-36.155,31.011-36.155,31.011s-3.545-56.143-47.498-56.074c-43.954,0.069-56.006,53.239-41.118,83.723
			C353.96,447.716,281.111,429.599,268.889,500z"/>
		<path style="fill:#3740AB;" d="M372.535,500H500v-47.604c0,0-0.011-12.892-11.73-13.584
			c-14.858-0.878-19.941,17.103-19.941,17.103s-1.955-30.965-26.197-30.927c-24.242,0.038-30.889,29.363-22.678,46.176
			C419.455,471.164,379.276,461.171,372.535,500z"/>
		<path style="fill:#3E47C3;" d="M447.051,399.203c5.625-5.159,20.61-21.877,8.028-44.342c-0.635-1.135-2.176-1.349-3.113-0.448
			c-5.253,5.055-19.099,21.344-8.052,44.181C444.495,399.796,446.067,400.105,447.051,399.203z"/>
		<path style="fill:#3E47C3;" d="M343.592,439.992c-1.521-6.002-7.695-23.134-28.578-22.79c-1.055,0.017-1.801,1.035-1.517,2.051
			c1.589,5.696,7.896,21.849,28.453,22.745C343.032,442.045,343.858,441.042,343.592,439.992z"/>
		<g>
			<g>
				<path style="fill:#373A7D;" d="M420.861,223.762l-0.414,10.522h5.371v-29.211h-3.815l-0.729,13.062l-2.079-2.725
					c-0.425-0.557-1.301-0.084-1.068,0.577L420.861,223.762z"/>
				<g>
					<polygon style="fill:#4374E1;" points="446.55,208.415 425.329,214.621 411.319,212.046 402.666,206.894 425.206,118.217 					
						"/>
					<path style="fill:#3E47C3;" d="M416.676,200.507c-2.886-4.123-6.593-7.148-9.661-10.722l-4.349,17.109l8.653,5.152l14.01,2.575
						l21.221-6.206l-8.624-36.444C431.178,181.715,424.126,191.244,416.676,200.507z"/>
				</g>
			</g>
			<g>
				<g>
					<polygon style="fill:#4374E1;" points="374.243,234.284 366.879,208.329 358.97,234.284 					"/>
					<path style="fill:#3E47C3;" d="M374.243,234.284l-2.766-9.752c-2.439,2.938-4.987,5.81-7.679,8.602
						c-1.043-1.243-2.382-2.155-3.491-3.232l-1.335,4.382H374.243z"/>
				</g>
			</g>
			<g>
				<g>
					<polygon style="fill:#4374E1;" points="403.08,234.284 388.353,182.373 372.535,234.284 					"/>
					<path style="fill:#3E47C3;" d="M403.08,234.284l-5.533-19.504c-4.878,5.875-9.974,11.62-15.359,17.204
						c-2.086-2.485-4.765-4.31-6.983-6.464l-2.671,8.764H403.08z"/>
				</g>
			</g>
		</g>
		<g>
			<g>
				<path style="fill:#373A7D;" d="M116.761,227.181l0.314,7.103H113v-19.72h2.895l0.553,8.818l1.577-1.84
					c0.322-0.376,0.987-0.057,0.811,0.389L116.761,227.181z"/>
				<g>
					<polygon style="fill:#4374E1;" points="97.269,216.82 113.371,221.01 124.001,219.271 130.566,215.793 113.464,155.929 					
						"/>
					<path style="fill:#3E47C3;" d="M119.936,211.482c2.19-2.783,5.002-4.826,7.33-7.238l3.3,11.55l-6.566,3.478l-10.63,1.739
						l-16.101-4.19l6.544-24.603C108.933,198.796,114.283,205.229,119.936,211.482z"/>
				</g>
			</g>
			<g>
				<g>
					<polygon style="fill:#4374E1;" points="169.154,234.284 175.491,214.4 182.298,234.284 					"/>
					<path style="fill:#3E47C3;" d="M169.154,234.284l2.381-7.471c2.099,2.25,4.292,4.451,6.609,6.59
						c0.898-0.952,2.051-1.651,3.005-2.476l1.149,3.357H169.154z"/>
				</g>
			</g>
			<g>
				<g>
					<polygon style="fill:#4374E1;" points="135.446,234.284 148.121,194.515 161.735,234.284 					"/>
					<path style="fill:#3E47C3;" d="M135.446,234.284l4.762-14.942c4.198,4.501,8.584,8.902,13.218,13.18
						c1.795-1.904,4.101-3.302,6.01-4.952l2.298,6.714H135.446z"/>
				</g>
			</g>
			<g>
				<g>
					<polygon style="fill:#4374E1;" points="74.343,234.284 85.397,199.602 97.269,234.284 					"/>
					<path style="fill:#3E47C3;" d="M74.343,234.284l4.153-13.031c3.661,3.925,7.486,7.763,11.528,11.494
						c1.565-1.661,3.576-2.879,5.241-4.319l2.004,5.855H74.343z"/>
				</g>
			</g>
		</g>
		<polygon style="fill:#4374E1;" points="255.327,236.223 247.777,208.329 241.482,229.408 236.236,222.276 229.417,236.223 		"/>
		<path style="fill:#66BBFE;" d="M0,233.472h500v14.038c0,0-333.455,15.072-356.667,27.618
			c-33.889,18.317,105.556,9.454,106.667,28.045c1.474,24.666-162.222,26.429-250,28.224V233.472z"/>
		<g>
			<path style="fill:#57B4FE;" d="M119.414,264.344c-11.361,7.498,2.167,10.23,21.416,12.3c0.696-0.484,1.527-0.988,2.503-1.516
				C166.545,262.582,500,247.51,500,247.51v-12.127C398.76,240.478,134.09,254.659,119.414,264.344z"/>
			<path style="fill:#57B4FE;" d="M202.843,290.6c0.032,0.18,0.054,0.362,0.063,0.547C203.959,312.645,74.853,310.904,0,311.732
				v19.665c87.778-1.795,251.474-3.558,250-28.224C249.559,295.799,227.359,292.745,202.843,290.6z"/>
		</g>
		<path style="fill:#DCF4FF;" d="M355.338,344.409h-94.157c-1.369,0-1.493-2.007-0.135-2.176l41.902-5.23
			c1.149-0.143,1.314-1.741,0.219-2.117l-13.46-4.621c-1.164-0.399-0.881-2.119,0.349-2.125l88.717-0.446
			c1.32-0.007,1.517,1.898,0.224,2.162l-29.529,6.034c-0.953,0.195-1.195,1.444-0.384,1.981l6.856,4.533
			C356.844,343.003,356.421,344.409,355.338,344.409z"/>
		<path style="fill:#DCF4FF;" d="M442.076,310.374h-62.52c-0.909,0-0.992-1.332-0.09-1.445l27.823-3.473
			c0.763-0.095,0.873-1.156,0.146-1.405l-8.938-3.068c-0.773-0.265-0.585-1.407,0.232-1.411l58.908-0.296
			c0.876-0.004,1.007,1.26,0.149,1.436l-19.607,4.007c-0.633,0.129-0.794,0.959-0.255,1.315l4.553,3.01
			C443.075,309.44,442.795,310.374,442.076,310.374z"/>
		<g>
			<g>
				<path style="fill:#373A7D;" d="M320.48,323.087l-0.839,21.321h10.883v-59.19h-7.731l-1.477,26.468l-4.212-5.523
					c-0.86-1.128-2.635-0.17-2.165,1.168L320.48,323.087z"/>
				<g>
					<polygon style="fill:#4374E1;" points="372.535,291.989 329.534,304.564 301.145,299.346 283.611,288.906 329.284,109.218 
											"/>
					<path style="fill:#3E47C3;" d="M311.999,275.964c-5.848-8.354-13.359-14.485-19.577-21.726l-8.812,34.668l17.534,10.44
						l28.389,5.218l43.001-12.576l-17.475-73.848C341.384,237.886,327.096,257.195,311.999,275.964z"/>
				</g>
			</g>
			<g>
				<g>
					<polygon style="fill:#4374E1;" points="461.229,310.374 473.568,266.878 486.823,310.374 					"/>
					<path style="fill:#3E47C3;" d="M461.229,310.374l4.636-16.343c4.087,4.923,8.357,9.736,12.869,14.415
						c1.748-2.082,3.993-3.611,5.851-5.416l2.238,7.343H461.229z"/>
				</g>
			</g>
			<g>
				<g>
					<polygon style="fill:#4374E1;" points="412.903,310.374 437.582,223.381 464.091,310.374 					"/>
					<path style="fill:#3E47C3;" d="M412.903,310.374l9.272-32.685c8.174,9.845,16.714,19.472,25.738,28.831
						c3.495-4.165,7.985-7.222,11.702-10.833l4.475,14.687H412.903z"/>
				</g>
			</g>
		</g>
		<g>
			<g>
				<path style="fill:#FFFFFF;" d="M301.203,134.028c-1.743,2.751-4.668,4.022-6.534,2.84c-1.866-1.182-1.966-4.371-0.224-7.121
					c1.743-2.751,4.668-4.022,6.534-2.84C302.846,128.089,302.946,131.278,301.203,134.028z"/>
				<path style="fill:#FFFFFF;" d="M382.931,167.192c-1.743,2.751-4.668,4.022-6.534,2.84c-1.866-1.182-1.966-4.371-0.224-7.121
					c1.743-2.751,4.668-4.022,6.534-2.84C384.574,161.253,384.674,164.441,382.931,167.192z"/>
				<path style="fill:#FFFFFF;" d="M442.106,36.884c-1.08,1.705-2.893,2.493-4.05,1.76c-1.157-0.733-1.219-2.709-0.139-4.414
					c1.08-1.705,2.893-2.493,4.05-1.76C443.124,33.203,443.186,35.179,442.106,36.884z"/>
				<path style="fill:#FFFFFF;" d="M389.712,54.293c-1.08,1.705-2.894,2.493-4.05,1.76c-1.157-0.733-1.219-2.709-0.139-4.414
					c1.08-1.705,2.893-2.493,4.05-1.76C390.73,50.612,390.792,52.588,389.712,54.293z"/>
				<path style="fill:#FFFFFF;" d="M472.224,131.153c-1.08,1.705-2.893,2.493-4.05,1.76c-1.157-0.733-1.219-2.709-0.139-4.414
					c1.08-1.705,2.893-2.493,4.05-1.76C473.242,127.472,473.304,129.448,472.224,131.153z"/>
				<path style="fill:#FFFFFF;" d="M386.27,29.391c-1.08,1.705-2.893,2.493-4.05,1.76c-1.157-0.733-1.219-2.709-0.139-4.414
					c1.08-1.705,2.893-2.493,4.05-1.76C387.288,25.709,387.35,27.686,386.27,29.391z"/>
				<path style="fill:#FFFFFF;" d="M331.458,33.473c-0.465,0.735-1.247,1.074-1.745,0.758c-0.498-0.316-0.525-1.167-0.06-1.902
					c0.465-0.735,1.247-1.074,1.745-0.758C331.897,31.886,331.924,32.738,331.458,33.473z"/>
				<path style="fill:#FFFFFF;" d="M356.576,82.336c-0.465,0.735-1.247,1.074-1.745,0.758c-0.498-0.316-0.525-1.167-0.06-1.902
					c0.465-0.735,1.247-1.074,1.745-0.758C357.014,80.75,357.041,81.601,356.576,82.336z"/>
				<path style="fill:#FFFFFF;" d="M351.268,86.918c-0.465,0.735-1.247,1.074-1.745,0.758c-0.498-0.316-0.525-1.167-0.06-1.902
					c0.465-0.735,1.247-1.074,1.745-0.758C351.707,85.331,351.734,86.183,351.268,86.918z"/>
				<path style="fill:#FFFFFF;" d="M464.83,63.798c-0.465,0.735-1.247,1.074-1.745,0.758c-0.498-0.316-0.525-1.167-0.06-1.902
					c0.465-0.735,1.247-1.074,1.745-0.758C465.269,62.212,465.295,63.063,464.83,63.798z"/>
				<path style="fill:#FFFFFF;" d="M361.581,127.037c-0.465,0.735-1.247,1.074-1.745,0.759c-0.498-0.316-0.525-1.167-0.06-1.902
					c0.465-0.735,1.247-1.074,1.745-0.758C362.02,125.451,362.047,126.302,361.581,127.037z"/>
				<path style="fill:#FFFFFF;" d="M460.441,147.681c-1.08,1.705-2.894,2.493-4.05,1.76c-1.157-0.733-1.219-2.709-0.139-4.414
					c1.08-1.705,2.893-2.493,4.05-1.76C461.459,144,461.521,145.976,460.441,147.681z"/>
				<path style="fill:#FFFFFF;" d="M278.85,152.336c-0.552,0.871-1.479,1.274-2.07,0.9c-0.591-0.374-0.623-1.385-0.071-2.256
					c0.552-0.871,1.479-1.274,2.07-0.9C279.371,150.455,279.402,151.465,278.85,152.336z"/>
				<path style="fill:#FFFFFF;" d="M274.781,115.759c-0.552,0.871-1.479,1.274-2.07,0.9c-0.591-0.374-0.623-1.384-0.071-2.256
					c0.552-0.871,1.479-1.274,2.07-0.9C275.301,113.878,275.333,114.888,274.781,115.759z"/>
				<path style="fill:#FFFFFF;" d="M370.85,48.482c-0.552,0.871-1.479,1.274-2.07,0.9c-0.591-0.375-0.623-1.385-0.071-2.256
					s1.479-1.274,2.07-0.9C371.37,46.6,371.402,47.61,370.85,48.482z"/>
				<path style="fill:#FFFFFF;" d="M452.371,45.022c-0.552,0.871-1.479,1.274-2.07,0.9s-0.623-1.384-0.071-2.256
					c0.552-0.871,1.479-1.274,2.07-0.9C452.892,43.141,452.923,44.151,452.371,45.022z"/>
				<path style="fill:#FFFFFF;" d="M406.909,77.638c-0.552,0.871-1.479,1.274-2.07,0.9c-0.591-0.374-0.623-1.384-0.071-2.256
					c0.552-0.871,1.479-1.274,2.07-0.9C407.43,75.757,407.461,76.767,406.909,77.638z"/>
				<path style="fill:#FFFFFF;" d="M363.214,151.754c-0.552,0.871-1.479,1.274-2.07,0.9c-0.591-0.375-0.623-1.384-0.071-2.256
					c0.552-0.871,1.479-1.274,2.07-0.9C363.734,149.872,363.766,150.882,363.214,151.754z"/>
				<path style="fill:#FFFFFF;" d="M396.243,154.097c-0.552,0.871-1.479,1.274-2.07,0.9c-0.591-0.374-0.623-1.384-0.071-2.256
					c0.552-0.871,1.479-1.274,2.07-0.9C396.763,152.216,396.795,153.226,396.243,154.097z"/>
				<path style="fill:#FFFFFF;" d="M298.895,79.356c-0.552,0.871-1.479,1.274-2.07,0.9c-0.591-0.375-0.623-1.384-0.071-2.256
					s1.479-1.274,2.07-0.9C299.415,77.475,299.447,78.484,298.895,79.356z"/>
				<path style="fill:#FFFFFF;" d="M466.462,95.242c-0.552,0.871-1.479,1.274-2.07,0.9c-0.591-0.374-0.623-1.384-0.071-2.256
					c0.552-0.871,1.479-1.274,2.07-0.9C466.983,93.361,467.014,94.371,466.462,95.242z"/>
				<path style="fill:#FFFFFF;" d="M383.72,76.199c-1.316,2.077-3.525,3.037-4.934,2.145c-1.409-0.893-1.485-3.3-0.169-5.378
					c1.316-2.077,3.525-3.037,4.934-2.145C384.96,71.714,385.036,74.122,383.72,76.199z"/>
				<path style="fill:#FFFFFF;" d="M295.753,98.558c-1.316,2.077-3.525,3.037-4.935,2.145c-1.409-0.893-1.485-3.3-0.169-5.378
					c1.316-2.077,3.525-3.038,4.935-2.145C296.993,94.073,297.069,96.481,295.753,98.558z"/>
				<path style="fill:#FFFFFF;" d="M385.595,114.98c-1.316,2.077-3.525,3.038-4.934,2.145c-1.409-0.893-1.485-3.3-0.169-5.378
					c1.316-2.077,3.525-3.037,4.934-2.145C386.836,110.495,386.911,112.902,385.595,114.98z"/>
				<path style="fill:#FFFFFF;" d="M436.004,72.115c-0.914,1.443-2.449,2.111-3.429,1.49c-0.979-0.62-1.032-2.293-0.117-3.737
					c0.914-1.443,2.449-2.111,3.429-1.49C436.865,68.999,436.918,70.672,436.004,72.115z"/>
			</g>
			<g>
				<path style="fill:#FFFFFF;" d="M113.19,224.91c-1.743,2.751-4.668,4.022-6.534,2.84c-1.866-1.182-1.966-4.371-0.224-7.121
					c1.743-2.751,4.668-4.022,6.534-2.84C114.832,218.971,114.932,222.159,113.19,224.91z"/>
				<path style="fill:#FFFFFF;" d="M194.918,258.073c-1.743,2.751-4.668,4.022-6.534,2.84c-1.866-1.182-1.966-4.371-0.224-7.121
					c1.743-2.751,4.668-4.022,6.534-2.84C196.56,252.134,196.661,255.322,194.918,258.073z"/>
				<path style="fill:#FFFFFF;" d="M254.092,127.765c-1.08,1.705-2.893,2.493-4.05,1.76c-1.157-0.733-1.219-2.709-0.139-4.414
					c1.08-1.705,2.894-2.493,4.05-1.76C255.111,124.084,255.173,126.06,254.092,127.765z"/>
				<path style="fill:#FFFFFF;" d="M201.698,145.175c-1.08,1.705-2.893,2.493-4.05,1.76c-1.157-0.733-1.219-2.709-0.139-4.414
					c1.08-1.705,2.894-2.493,4.05-1.76C202.717,141.493,202.779,143.47,201.698,145.175z"/>
				<path style="fill:#FFFFFF;" d="M284.211,222.034c-1.08,1.705-2.894,2.493-4.05,1.76c-1.157-0.733-1.219-2.709-0.139-4.414
					c1.08-1.705,2.893-2.493,4.05-1.76C285.229,218.353,285.291,220.329,284.211,222.034z"/>
				<path style="fill:#FFFFFF;" d="M198.257,120.272c-1.08,1.705-2.893,2.493-4.05,1.76c-1.157-0.733-1.219-2.709-0.139-4.414
					c1.08-1.705,2.894-2.493,4.05-1.76C199.275,116.59,199.337,118.567,198.257,120.272z"/>
				<path style="fill:#FFFFFF;" d="M143.445,124.354c-0.465,0.735-1.247,1.074-1.745,0.758c-0.498-0.316-0.525-1.167-0.06-1.902
					c0.465-0.735,1.247-1.074,1.745-0.759C143.883,122.768,143.91,123.619,143.445,124.354z"/>
				<path style="fill:#FFFFFF;" d="M168.562,173.217c-0.465,0.735-1.247,1.074-1.745,0.758c-0.498-0.316-0.525-1.167-0.06-1.902
					c0.465-0.735,1.247-1.074,1.745-0.758S169.027,172.482,168.562,173.217z"/>
				<path style="fill:#FFFFFF;" d="M163.255,177.799c-0.465,0.735-1.247,1.074-1.745,0.758c-0.498-0.316-0.525-1.167-0.06-1.902
					c0.465-0.735,1.247-1.074,1.745-0.758C163.693,176.213,163.72,177.064,163.255,177.799z"/>
				<path style="fill:#FFFFFF;" d="M276.816,154.679c-0.465,0.735-1.247,1.074-1.745,0.758c-0.498-0.316-0.525-1.167-0.06-1.902
					c0.465-0.735,1.247-1.074,1.745-0.758C277.255,153.093,277.282,153.945,276.816,154.679z"/>
				<path style="fill:#FFFFFF;" d="M173.568,217.918c-0.465,0.735-1.247,1.074-1.745,0.758c-0.498-0.316-0.525-1.167-0.06-1.902
					s1.247-1.074,1.745-0.758C174.006,216.332,174.033,217.183,173.568,217.918z"/>
				<path style="fill:#FFFFFF;" d="M272.427,238.562c-1.08,1.705-2.894,2.493-4.05,1.76c-1.157-0.733-1.219-2.709-0.139-4.414
					c1.08-1.705,2.893-2.493,4.05-1.76C273.445,234.881,273.508,236.857,272.427,238.562z"/>
				<path style="fill:#FFFFFF;" d="M90.837,243.217c-0.552,0.871-1.479,1.274-2.07,0.9c-0.591-0.375-0.623-1.384-0.071-2.256
					c0.552-0.871,1.479-1.274,2.07-0.9C91.357,241.336,91.389,242.346,90.837,243.217z"/>
				<path style="fill:#FFFFFF;" d="M86.767,206.64c-0.552,0.871-1.479,1.274-2.07,0.9c-0.591-0.374-0.623-1.384-0.071-2.256
					c0.552-0.871,1.479-1.274,2.07-0.9C87.287,204.759,87.319,205.769,86.767,206.64z"/>
				<path style="fill:#FFFFFF;" d="M182.836,139.363c-0.552,0.871-1.479,1.274-2.07,0.9c-0.591-0.374-0.623-1.384-0.071-2.256
					c0.552-0.871,1.479-1.274,2.07-0.9C183.357,137.482,183.388,138.492,182.836,139.363z"/>
				<path style="fill:#FFFFFF;" d="M264.358,135.903c-0.552,0.871-1.479,1.274-2.07,0.9c-0.591-0.374-0.623-1.384-0.071-2.256
					c0.552-0.871,1.479-1.274,2.07-0.9C264.878,134.022,264.91,135.032,264.358,135.903z"/>
				<path style="fill:#FFFFFF;" d="M218.896,168.519c-0.552,0.871-1.479,1.274-2.07,0.9c-0.591-0.374-0.623-1.384-0.071-2.256
					c0.552-0.871,1.479-1.274,2.07-0.9S219.448,167.648,218.896,168.519z"/>
				<path style="fill:#FFFFFF;" d="M175.2,242.635c-0.552,0.871-1.479,1.274-2.07,0.9c-0.591-0.374-0.623-1.384-0.071-2.256
					c0.552-0.871,1.479-1.274,2.07-0.9C175.721,240.753,175.752,241.764,175.2,242.635z"/>
				<path style="fill:#FFFFFF;" d="M208.229,244.978c-0.552,0.871-1.479,1.274-2.07,0.9c-0.591-0.374-0.623-1.384-0.071-2.256
					c0.552-0.871,1.479-1.274,2.07-0.9C208.75,243.097,208.781,244.107,208.229,244.978z"/>
				<path style="fill:#FFFFFF;" d="M110.881,170.237c-0.552,0.871-1.479,1.274-2.07,0.9c-0.591-0.375-0.623-1.384-0.071-2.256
					c0.552-0.871,1.479-1.274,2.07-0.9C111.401,168.356,111.433,169.365,110.881,170.237z"/>
				<path style="fill:#FFFFFF;" d="M278.449,186.124c-0.552,0.871-1.479,1.274-2.07,0.9c-0.591-0.374-0.623-1.384-0.071-2.256
					c0.552-0.871,1.479-1.274,2.07-0.9S279.001,185.252,278.449,186.124z"/>
				<path style="fill:#FFFFFF;" d="M195.706,167.08c-1.316,2.077-3.525,3.038-4.935,2.145c-1.409-0.893-1.485-3.3-0.169-5.378
					c1.316-2.077,3.525-3.038,4.934-2.145C196.947,162.595,197.022,165.003,195.706,167.08z"/>
				<path style="fill:#FFFFFF;" d="M107.739,189.439c-1.316,2.077-3.525,3.037-4.934,2.145c-1.409-0.893-1.485-3.3-0.169-5.378
					c1.316-2.077,3.525-3.038,4.934-2.145C108.98,184.954,109.055,187.362,107.739,189.439z"/>
				<path style="fill:#FFFFFF;" d="M197.582,205.861c-1.316,2.077-3.525,3.038-4.935,2.145c-1.409-0.893-1.485-3.301-0.169-5.378
					c1.316-2.077,3.525-3.038,4.935-2.145S198.898,203.784,197.582,205.861z"/>
				<path style="fill:#FFFFFF;" d="M247.99,162.996c-0.914,1.443-2.449,2.111-3.429,1.49s-1.032-2.293-0.117-3.737
					c0.914-1.443,2.449-2.111,3.429-1.49C248.852,159.88,248.904,161.553,247.99,162.996z"/>
			</g>
			<g>
				<path style="fill:#FFFFFF;" d="M52.695,149.699c-1.743,2.751-4.668,4.022-6.534,2.84c-1.866-1.182-1.966-4.371-0.224-7.121
					c1.743-2.751,4.668-4.022,6.534-2.84C54.338,143.76,54.438,146.949,52.695,149.699z"/>
				<path style="fill:#FFFFFF;" d="M111.87,19.391c-1.08,1.705-2.894,2.493-4.05,1.76s-1.219-2.709-0.139-4.414
					c1.08-1.705,2.893-2.493,4.05-1.76C112.888,15.71,112.95,17.686,111.87,19.391z"/>
				<path style="fill:#FFFFFF;" d="M59.476,36.801c-1.08,1.705-2.894,2.493-4.05,1.76s-1.219-2.709-0.139-4.414
					c1.08-1.705,2.893-2.493,4.05-1.76S60.556,35.096,59.476,36.801z"/>
				<path style="fill:#FFFFFF;" d="M141.988,113.66c-1.08,1.705-2.893,2.493-4.05,1.76c-1.157-0.733-1.219-2.709-0.139-4.414
					c1.08-1.705,2.893-2.493,4.05-1.76C143.006,109.979,143.068,111.955,141.988,113.66z"/>
				<path style="fill:#FFFFFF;" d="M56.034,11.898c-1.08,1.705-2.894,2.493-4.05,1.76c-1.157-0.733-1.219-2.709-0.139-4.414
					c1.08-1.705,2.893-2.493,4.05-1.76C57.052,8.217,57.114,10.193,56.034,11.898z"/>
				<path style="fill:#FFFFFF;" d="M26.339,64.843c-0.465,0.735-1.247,1.074-1.745,0.758c-0.498-0.316-0.525-1.167-0.06-1.902
					c0.465-0.735,1.247-1.074,1.745-0.758C26.778,63.257,26.805,64.109,26.339,64.843z"/>
				<path style="fill:#FFFFFF;" d="M21.032,69.425c-0.465,0.735-1.247,1.074-1.745,0.759c-0.498-0.316-0.525-1.167-0.06-1.902
					c0.465-0.735,1.247-1.074,1.745-0.758C21.47,67.839,21.497,68.69,21.032,69.425z"/>
				<path style="fill:#FFFFFF;" d="M134.594,46.306c-0.465,0.735-1.247,1.074-1.745,0.758c-0.498-0.316-0.525-1.167-0.06-1.902
					c0.465-0.735,1.247-1.074,1.745-0.758C135.032,44.72,135.059,45.571,134.594,46.306z"/>
				<path style="fill:#FFFFFF;" d="M31.345,109.544c-0.465,0.735-1.247,1.074-1.745,0.758c-0.498-0.316-0.525-1.167-0.06-1.902
					c0.465-0.735,1.247-1.074,1.745-0.758C31.784,107.958,31.81,108.81,31.345,109.544z"/>
				<path style="fill:#FFFFFF;" d="M130.205,130.189c-1.08,1.705-2.894,2.493-4.05,1.76c-1.157-0.733-1.219-2.709-0.139-4.414
					c1.08-1.705,2.893-2.493,4.05-1.76C131.223,126.507,131.285,128.484,130.205,130.189z"/>
				<path style="fill:#FFFFFF;" d="M40.614,30.989c-0.552,0.871-1.479,1.274-2.07,0.9c-0.591-0.375-0.623-1.385-0.071-2.256
					c0.552-0.871,1.479-1.274,2.07-0.9C41.134,29.108,41.166,30.118,40.614,30.989z"/>
				<path style="fill:#FFFFFF;" d="M122.135,27.529c-0.552,0.871-1.479,1.274-2.07,0.9c-0.591-0.375-0.623-1.384-0.071-2.256
					c0.552-0.871,1.479-1.274,2.07-0.9C122.655,25.648,122.687,26.658,122.135,27.529z"/>
				<path style="fill:#FFFFFF;" d="M76.673,60.146c-0.552,0.871-1.479,1.274-2.07,0.9c-0.591-0.375-0.623-1.384-0.071-2.256
					c0.552-0.871,1.479-1.274,2.07-0.9C77.193,58.264,77.225,59.274,76.673,60.146z"/>
				<path style="fill:#FFFFFF;" d="M32.977,134.261c-0.552,0.871-1.479,1.274-2.07,0.9c-0.591-0.375-0.623-1.384-0.071-2.256
					c0.552-0.871,1.479-1.274,2.07-0.9C33.498,132.38,33.529,133.39,32.977,134.261z"/>
				<path style="fill:#FFFFFF;" d="M66.007,136.604c-0.552,0.871-1.479,1.274-2.07,0.9c-0.591-0.374-0.623-1.384-0.071-2.256
					c0.552-0.871,1.479-1.274,2.07-0.9S66.559,135.733,66.007,136.604z"/>
				<path style="fill:#FFFFFF;" d="M136.226,77.75c-0.552,0.871-1.479,1.274-2.07,0.9c-0.591-0.374-0.623-1.384-0.071-2.256
					c0.552-0.871,1.479-1.274,2.07-0.9C136.746,75.868,136.778,76.879,136.226,77.75z"/>
				<path style="fill:#FFFFFF;" d="M53.483,58.707c-1.316,2.077-3.525,3.037-4.934,2.145c-1.409-0.893-1.485-3.3-0.169-5.378
					c1.316-2.077,3.525-3.037,4.934-2.145C54.724,54.222,54.799,56.629,53.483,58.707z"/>
				<path style="fill:#FFFFFF;" d="M55.359,97.487c-1.316,2.077-3.525,3.037-4.934,2.145c-1.409-0.893-1.485-3.3-0.169-5.378
					c1.316-2.077,3.525-3.037,4.934-2.145C56.599,93.002,56.675,95.41,55.359,97.487z"/>
				<path style="fill:#FFFFFF;" d="M105.767,54.622c-0.914,1.443-2.449,2.111-3.429,1.49s-1.032-2.293-0.117-3.737
					c0.914-1.443,2.449-2.111,3.429-1.49C106.629,51.506,106.682,53.179,105.767,54.622z"/>
			</g>
			<g>
				<path style="fill:#FFFFFF;" d="M25.248,338.643c-1.743,2.751-4.668,4.022-6.534,2.84c-1.866-1.182-1.966-4.371-0.224-7.121
					c1.743-2.751,4.668-4.022,6.534-2.84C26.89,332.704,26.99,335.892,25.248,338.643z"/>
				<path style="fill:#FFFFFF;" d="M106.976,371.807c-1.743,2.751-4.668,4.022-6.534,2.84c-1.866-1.182-1.966-4.371-0.224-7.121
					c1.743-2.751,4.668-4.022,6.534-2.84C108.618,365.868,108.718,369.056,106.976,371.807z"/>
				<path style="fill:#FFFFFF;" d="M166.15,241.499c-1.08,1.705-2.893,2.493-4.05,1.76c-1.157-0.733-1.219-2.709-0.139-4.414
					c1.08-1.705,2.893-2.493,4.05-1.76C167.168,237.817,167.231,239.794,166.15,241.499z"/>
				<path style="fill:#FFFFFF;" d="M113.756,258.908c-1.08,1.705-2.894,2.493-4.05,1.76c-1.157-0.733-1.219-2.709-0.139-4.414
					c1.08-1.705,2.893-2.493,4.05-1.76S114.837,257.203,113.756,258.908z"/>
				<path style="fill:#FFFFFF;" d="M196.268,335.768c-1.08,1.705-2.893,2.493-4.05,1.76c-1.157-0.733-1.219-2.709-0.139-4.414
					c1.08-1.705,2.894-2.493,4.05-1.76C197.286,332.086,197.349,334.063,196.268,335.768z"/>
				<path style="fill:#FFFFFF;" d="M110.314,234.005c-1.08,1.705-2.893,2.493-4.05,1.76c-1.157-0.733-1.219-2.709-0.139-4.414
					c1.08-1.705,2.894-2.493,4.05-1.76C111.332,230.324,111.395,232.3,110.314,234.005z"/>
				<path style="fill:#FFFFFF;" d="M55.502,238.087c-0.465,0.735-1.247,1.074-1.745,0.758c-0.498-0.316-0.525-1.167-0.06-1.902
					c0.465-0.735,1.247-1.074,1.745-0.758C55.941,236.501,55.968,237.352,55.502,238.087z"/>
				<path style="fill:#FFFFFF;" d="M80.62,286.95c-0.465,0.735-1.247,1.074-1.745,0.759s-0.525-1.167-0.06-1.902
					c0.465-0.735,1.247-1.074,1.745-0.758C81.059,285.364,81.085,286.216,80.62,286.95z"/>
				<path style="fill:#FFFFFF;" d="M75.312,291.532c-0.465,0.735-1.247,1.074-1.745,0.758c-0.498-0.316-0.525-1.167-0.06-1.902
					s1.247-1.074,1.745-0.758C75.751,289.946,75.778,290.797,75.312,291.532z"/>
				<path style="fill:#FFFFFF;" d="M188.874,268.413c-0.465,0.735-1.247,1.074-1.745,0.759c-0.498-0.316-0.525-1.167-0.06-1.902
					c0.465-0.735,1.247-1.074,1.745-0.758C189.313,266.827,189.34,267.678,188.874,268.413z"/>
				<path style="fill:#FFFFFF;" d="M85.626,331.651c-0.465,0.735-1.247,1.074-1.745,0.758c-0.498-0.316-0.525-1.167-0.06-1.902
					c0.465-0.735,1.247-1.074,1.745-0.758C86.064,330.065,86.091,330.917,85.626,331.651z"/>
				<path style="fill:#FFFFFF;" d="M184.485,352.296c-1.08,1.705-2.893,2.493-4.05,1.76c-1.157-0.733-1.219-2.709-0.139-4.414
					c1.08-1.705,2.894-2.493,4.05-1.76C185.503,348.615,185.565,350.591,184.485,352.296z"/>
				<path style="fill:#FFFFFF;" d="M2.895,356.951c-0.552,0.871-1.479,1.274-2.07,0.9c-0.591-0.374-0.623-1.384-0.071-2.256
					c0.552-0.871,1.479-1.274,2.07-0.9C3.415,355.069,3.447,356.079,2.895,356.951z"/>
				<path style="fill:#FFFFFF;" d="M94.894,253.096c-0.552,0.871-1.479,1.274-2.07,0.9c-0.591-0.374-0.623-1.384-0.071-2.256
					c0.552-0.871,1.479-1.274,2.07-0.9C95.415,251.215,95.446,252.225,94.894,253.096z"/>
				<path style="fill:#FFFFFF;" d="M176.416,249.637c-0.552,0.871-1.479,1.274-2.07,0.9c-0.591-0.374-0.623-1.384-0.071-2.256
					c0.552-0.871,1.479-1.274,2.07-0.9C176.936,247.755,176.968,248.765,176.416,249.637z"/>
				<path style="fill:#FFFFFF;" d="M130.954,282.253c-0.552,0.871-1.479,1.274-2.07,0.9c-0.591-0.374-0.623-1.384-0.071-2.256
					c0.552-0.871,1.479-1.274,2.07-0.9C131.474,280.371,131.506,281.381,130.954,282.253z"/>
				<path style="fill:#FFFFFF;" d="M87.258,356.368c-0.552,0.871-1.479,1.274-2.07,0.9c-0.591-0.374-0.623-1.384-0.071-2.256
					c0.552-0.871,1.479-1.274,2.07-0.9C87.778,354.487,87.81,355.497,87.258,356.368z"/>
				<path style="fill:#FFFFFF;" d="M120.287,358.711c-0.552,0.871-1.479,1.274-2.07,0.9c-0.591-0.375-0.623-1.384-0.071-2.256
					c0.552-0.871,1.479-1.274,2.07-0.9C120.808,356.83,120.839,357.84,120.287,358.711z"/>
				<path style="fill:#FFFFFF;" d="M22.939,283.97c-0.552,0.871-1.479,1.274-2.07,0.9c-0.591-0.375-0.623-1.384-0.071-2.256
					c0.552-0.871,1.479-1.274,2.07-0.9C23.459,282.089,23.491,283.099,22.939,283.97z"/>
				<path style="fill:#FFFFFF;" d="M190.507,299.857c-0.552,0.871-1.479,1.274-2.07,0.9c-0.591-0.374-0.623-1.384-0.071-2.256
					c0.552-0.871,1.479-1.274,2.07-0.9C191.027,297.976,191.059,298.986,190.507,299.857z"/>
				<path style="fill:#FFFFFF;" d="M107.764,280.814c-1.316,2.077-3.525,3.037-4.934,2.145c-1.409-0.893-1.485-3.301-0.169-5.378
					c1.316-2.077,3.525-3.037,4.934-2.145C109.004,276.329,109.08,278.737,107.764,280.814z"/>
				<path style="fill:#FFFFFF;" d="M19.797,303.173c-1.316,2.077-3.525,3.037-4.934,2.145c-1.409-0.893-1.485-3.3-0.169-5.378
					c1.316-2.077,3.525-3.038,4.934-2.145C21.038,298.688,21.113,301.095,19.797,303.173z"/>
				<path style="fill:#FFFFFF;" d="M109.64,319.594c-1.316,2.077-3.525,3.038-4.935,2.145c-1.409-0.893-1.485-3.301-0.169-5.378
					c1.316-2.077,3.525-3.038,4.935-2.145C110.88,315.109,110.956,317.517,109.64,319.594z"/>
				<path style="fill:#FFFFFF;" d="M160.048,276.729c-0.914,1.443-2.449,2.111-3.429,1.49s-1.032-2.293-0.117-3.737
					c0.914-1.443,2.449-2.111,3.429-1.49C160.91,273.613,160.962,275.286,160.048,276.729z"/>
			</g>
			<g>
				<path style="fill:#FFFFFF;" d="M242.019,283.681c-1.743,2.751-4.668,4.022-6.534,2.84c-1.866-1.182-1.966-4.371-0.224-7.121
					c1.743-2.751,4.668-4.022,6.534-2.84C243.662,277.742,243.762,280.93,242.019,283.681z"/>
				<path style="fill:#FFFFFF;" d="M323.747,316.845c-1.743,2.751-4.668,4.022-6.534,2.84c-1.866-1.182-1.966-4.371-0.224-7.121
					c1.743-2.751,4.668-4.022,6.534-2.84C325.39,310.905,325.49,314.094,323.747,316.845z"/>
				<path style="fill:#FFFFFF;" d="M382.922,186.536c-1.08,1.705-2.894,2.493-4.05,1.76c-1.157-0.733-1.219-2.709-0.139-4.414
					s2.893-2.493,4.05-1.76S384.002,184.831,382.922,186.536z"/>
				<path style="fill:#FFFFFF;" d="M330.528,203.946c-1.08,1.705-2.894,2.493-4.05,1.76s-1.219-2.709-0.139-4.414
					c1.08-1.705,2.893-2.493,4.05-1.76C331.546,200.265,331.608,202.241,330.528,203.946z"/>
				<path style="fill:#FFFFFF;" d="M413.04,280.806c-1.08,1.705-2.893,2.493-4.05,1.76c-1.157-0.733-1.219-2.709-0.139-4.414
					c1.08-1.705,2.893-2.493,4.05-1.76C414.058,277.124,414.12,279.101,413.04,280.806z"/>
				<path style="fill:#FFFFFF;" d="M327.086,179.043c-1.08,1.705-2.893,2.493-4.05,1.76c-1.157-0.733-1.219-2.709-0.139-4.414
					c1.08-1.705,2.893-2.493,4.05-1.76C328.104,175.362,328.166,177.338,327.086,179.043z"/>
				<path style="fill:#FFFFFF;" d="M272.274,183.125c-0.465,0.735-1.247,1.074-1.745,0.758c-0.498-0.316-0.525-1.167-0.06-1.902
					c0.465-0.735,1.247-1.074,1.745-0.758C272.713,181.539,272.74,182.391,272.274,183.125z"/>
				<path style="fill:#FFFFFF;" d="M297.391,231.988c-0.465,0.735-1.247,1.074-1.745,0.758c-0.498-0.316-0.525-1.167-0.06-1.902
					c0.465-0.735,1.247-1.074,1.745-0.758C297.83,230.402,297.857,231.254,297.391,231.988z"/>
				<path style="fill:#FFFFFF;" d="M292.084,236.57c-0.465,0.735-1.247,1.074-1.745,0.758c-0.498-0.316-0.525-1.167-0.06-1.902
					c0.465-0.735,1.247-1.074,1.745-0.758C292.523,234.984,292.549,235.835,292.084,236.57z"/>
				<path style="fill:#FFFFFF;" d="M405.646,213.451c-0.465,0.735-1.247,1.074-1.745,0.758c-0.498-0.316-0.525-1.167-0.06-1.902
					c0.465-0.735,1.247-1.074,1.745-0.758C406.085,211.865,406.111,212.716,405.646,213.451z"/>
				<path style="fill:#FFFFFF;" d="M302.397,276.689c-0.465,0.735-1.247,1.074-1.745,0.759c-0.498-0.316-0.525-1.167-0.06-1.902
					c0.465-0.735,1.247-1.074,1.745-0.758C302.836,275.103,302.863,275.955,302.397,276.689z"/>
				<path style="fill:#FFFFFF;" d="M401.257,297.334c-1.08,1.705-2.894,2.493-4.05,1.76c-1.157-0.733-1.219-2.709-0.139-4.414
					c1.08-1.705,2.893-2.493,4.05-1.76C402.275,293.652,402.337,295.629,401.257,297.334z"/>
				<path style="fill:#FFFFFF;" d="M219.666,301.989c-0.552,0.871-1.479,1.274-2.07,0.9c-0.591-0.375-0.623-1.385-0.071-2.256
					c0.552-0.871,1.479-1.274,2.07-0.9C220.187,300.107,220.218,301.117,219.666,301.989z"/>
				<path style="fill:#FFFFFF;" d="M215.597,265.411c-0.552,0.871-1.479,1.274-2.07,0.9c-0.591-0.374-0.623-1.384-0.071-2.256
					c0.552-0.871,1.479-1.274,2.07-0.9C216.117,263.53,216.149,264.54,215.597,265.411z"/>
				<path style="fill:#FFFFFF;" d="M311.666,198.134c-0.552,0.871-1.479,1.274-2.07,0.9c-0.591-0.375-0.623-1.385-0.071-2.256
					c0.552-0.871,1.479-1.274,2.07-0.9C312.186,196.253,312.218,197.263,311.666,198.134z"/>
				<path style="fill:#FFFFFF;" d="M393.187,194.675c-0.552,0.871-1.479,1.274-2.07,0.9c-0.591-0.374-0.623-1.384-0.071-2.256
					c0.552-0.871,1.479-1.274,2.07-0.9C393.707,192.793,393.739,193.803,393.187,194.675z"/>
				<path style="fill:#FFFFFF;" d="M347.725,227.291c-0.552,0.871-1.479,1.274-2.07,0.9s-0.623-1.384-0.071-2.256
					c0.552-0.871,1.479-1.274,2.07-0.9C348.246,225.409,348.277,226.419,347.725,227.291z"/>
				<path style="fill:#FFFFFF;" d="M304.03,301.406c-0.552,0.871-1.479,1.274-2.07,0.9c-0.591-0.374-0.623-1.384-0.071-2.256
					c0.552-0.871,1.479-1.274,2.07-0.9C304.55,299.525,304.582,300.535,304.03,301.406z"/>
				<path style="fill:#FFFFFF;" d="M337.059,303.75c-0.552,0.871-1.479,1.274-2.07,0.9c-0.591-0.375-0.623-1.384-0.071-2.256
					c0.552-0.871,1.479-1.274,2.07-0.9C337.579,301.868,337.611,302.878,337.059,303.75z"/>
				<path style="fill:#FFFFFF;" d="M239.711,229.008c-0.552,0.871-1.479,1.274-2.07,0.9c-0.591-0.374-0.623-1.384-0.071-2.256
					c0.552-0.871,1.479-1.274,2.07-0.9C240.231,227.127,240.263,228.137,239.711,229.008z"/>
				<path style="fill:#FFFFFF;" d="M407.278,244.895c-0.552,0.871-1.479,1.274-2.07,0.9c-0.591-0.374-0.623-1.384-0.071-2.256
					c0.552-0.871,1.479-1.274,2.07-0.9C407.799,243.014,407.83,244.024,407.278,244.895z"/>
				<path style="fill:#FFFFFF;" d="M324.536,225.852c-1.316,2.077-3.525,3.037-4.934,2.145c-1.409-0.893-1.485-3.301-0.169-5.378
					c1.316-2.077,3.525-3.037,4.934-2.145C325.776,221.367,325.852,223.775,324.536,225.852z"/>
				<path style="fill:#FFFFFF;" d="M236.569,248.211c-1.316,2.077-3.525,3.037-4.934,2.145c-1.409-0.893-1.485-3.301-0.169-5.378
					c1.316-2.077,3.525-3.038,4.934-2.145C237.809,243.726,237.885,246.133,236.569,248.211z"/>
				<path style="fill:#FFFFFF;" d="M326.411,264.632c-1.316,2.077-3.525,3.038-4.934,2.145c-1.409-0.893-1.485-3.301-0.169-5.378
					c1.316-2.077,3.525-3.037,4.934-2.145C327.652,260.147,327.727,262.555,326.411,264.632z"/>
				<path style="fill:#FFFFFF;" d="M376.819,221.767c-0.914,1.443-2.449,2.111-3.429,1.49c-0.979-0.62-1.032-2.293-0.117-3.737
					c0.914-1.443,2.449-2.111,3.429-1.49C377.681,218.651,377.734,220.324,376.819,221.767z"/>
			</g>
			<g>
				<path style="fill:#FFFFFF;" d="M357.214,273.956c-1.743,2.751-4.668,4.022-6.534,2.84c-1.866-1.182-1.966-4.371-0.224-7.121
					c1.743-2.751,4.668-4.022,6.534-2.84C358.857,268.016,358.957,271.205,357.214,273.956z"/>
				<path style="fill:#FFFFFF;" d="M438.942,307.119c-1.743,2.751-4.668,4.022-6.534,2.84c-1.866-1.182-1.966-4.371-0.224-7.121
					c1.743-2.751,4.668-4.022,6.534-2.84C440.585,301.18,440.685,304.368,438.942,307.119z"/>
				<path style="fill:#FFFFFF;" d="M445.723,194.221c-1.08,1.705-2.893,2.493-4.05,1.76s-1.219-2.709-0.139-4.414
					c1.08-1.705,2.893-2.493,4.05-1.76S446.803,192.516,445.723,194.221z"/>
				<path style="fill:#FFFFFF;" d="M442.281,169.318c-1.08,1.705-2.894,2.493-4.05,1.76c-1.157-0.733-1.219-2.709-0.139-4.414
					c1.08-1.705,2.893-2.493,4.05-1.76C443.299,165.636,443.361,167.613,442.281,169.318z"/>
				<path style="fill:#FFFFFF;" d="M387.469,173.4c-0.465,0.735-1.247,1.074-1.745,0.758c-0.498-0.316-0.525-1.167-0.06-1.902
					c0.465-0.735,1.247-1.074,1.745-0.758C387.908,171.814,387.934,172.665,387.469,173.4z"/>
				<path style="fill:#FFFFFF;" d="M412.586,222.263c-0.465,0.735-1.247,1.074-1.745,0.758c-0.498-0.316-0.525-1.167-0.06-1.902
					c0.465-0.735,1.247-1.074,1.745-0.758C413.025,220.677,413.052,221.528,412.586,222.263z"/>
				<path style="fill:#FFFFFF;" d="M407.279,226.845c-0.465,0.735-1.247,1.074-1.745,0.758c-0.498-0.316-0.525-1.167-0.06-1.902
					c0.465-0.734,1.247-1.074,1.745-0.758C407.718,225.258,407.744,226.11,407.279,226.845z"/>
				<path style="fill:#FFFFFF;" d="M417.592,266.964c-0.465,0.735-1.247,1.074-1.745,0.759c-0.498-0.316-0.525-1.167-0.06-1.902
					c0.465-0.735,1.247-1.074,1.745-0.758C418.031,265.378,418.058,266.229,417.592,266.964z"/>
				<path style="fill:#FFFFFF;" d="M334.861,292.263c-0.552,0.871-1.479,1.274-2.07,0.9c-0.591-0.374-0.623-1.384-0.071-2.256
					c0.552-0.871,1.479-1.274,2.07-0.9C335.382,290.382,335.413,291.392,334.861,292.263z"/>
				<path style="fill:#FFFFFF;" d="M330.792,255.686c-0.552,0.871-1.479,1.274-2.07,0.9c-0.591-0.374-0.623-1.384-0.071-2.256
					c0.552-0.871,1.479-1.274,2.07-0.9C331.312,253.805,331.344,254.815,330.792,255.686z"/>
				<path style="fill:#FFFFFF;" d="M426.861,188.409c-0.552,0.871-1.479,1.274-2.07,0.9c-0.591-0.374-0.623-1.384-0.071-2.256
					c0.552-0.871,1.479-1.274,2.07-0.9C427.381,186.527,427.413,187.538,426.861,188.409z"/>
				<path style="fill:#FFFFFF;" d="M462.92,217.565c-0.552,0.871-1.479,1.274-2.07,0.9c-0.591-0.374-0.623-1.384-0.071-2.256
					c0.552-0.871,1.479-1.274,2.07-0.9C463.441,215.684,463.472,216.694,462.92,217.565z"/>
				<path style="fill:#FFFFFF;" d="M419.225,291.681c-0.552,0.871-1.479,1.274-2.07,0.9c-0.591-0.375-0.623-1.385-0.071-2.256
					c0.552-0.871,1.479-1.274,2.07-0.9C419.745,289.799,419.777,290.809,419.225,291.681z"/>
				<path style="fill:#FFFFFF;" d="M452.254,294.024c-0.552,0.871-1.479,1.274-2.07,0.9c-0.591-0.375-0.623-1.384-0.071-2.256
					s1.479-1.274,2.07-0.9C452.774,292.143,452.806,293.153,452.254,294.024z"/>
				<path style="fill:#FFFFFF;" d="M354.906,219.283c-0.552,0.871-1.479,1.274-2.07,0.9c-0.591-0.374-0.623-1.384-0.071-2.256
					c0.552-0.871,1.479-1.274,2.07-0.9C355.426,217.402,355.458,218.411,354.906,219.283z"/>
				<path style="fill:#FFFFFF;" d="M439.731,216.126c-1.316,2.077-3.525,3.038-4.935,2.145c-1.409-0.893-1.485-3.3-0.169-5.378
					c1.316-2.077,3.525-3.037,4.935-2.145C440.971,211.641,441.047,214.049,439.731,216.126z"/>
				<path style="fill:#FFFFFF;" d="M351.764,238.485c-1.316,2.077-3.525,3.038-4.935,2.145c-1.409-0.893-1.485-3.3-0.169-5.378
					c1.316-2.077,3.525-3.037,4.934-2.145C353.004,234,353.08,236.408,351.764,238.485z"/>
				<path style="fill:#FFFFFF;" d="M441.606,254.907c-1.316,2.077-3.525,3.037-4.934,2.145c-1.409-0.893-1.485-3.301-0.169-5.378
					c1.316-2.077,3.525-3.037,4.934-2.145C442.847,250.422,442.922,252.83,441.606,254.907z"/>
				<path style="fill:#FFFFFF;" d="M492.014,212.042c-0.914,1.443-2.449,2.11-3.429,1.49c-0.979-0.62-1.032-2.293-0.117-3.737
					c0.914-1.443,2.449-2.111,3.429-1.49C492.876,208.926,492.929,210.599,492.014,212.042z"/>
			</g>
		</g>
		<path style="fill:#DCF4FF;" d="M84.674,333.342c0,0,2.708-8.958-7.291-10.624c-9.999-1.667-15.416,2.292-15.416,2.292
			s6.041-21.249-7.916-25.624c-13.958-4.375-25.624,6.458-23.54,19.582c0,0-6.25-8.958-14.583-5.625
			c-8.333,3.333-12.083,20.416,10.208,22.291C48.425,337.508,84.674,333.342,84.674,333.342z"/>
		<path style="fill:#F7FFFF;" d="M273.731,431.485c0,0,1.932-6.39-5.202-7.579c-7.133-1.189-10.997,1.635-10.997,1.635
			s4.31-15.159-5.647-18.28c-9.957-3.121-18.28,4.607-16.794,13.97c0,0-4.458-6.39-10.403-4.013
			c-5.945,2.378-8.62,14.564,7.282,15.902C247.872,434.457,273.731,431.485,273.731,431.485z"/>
		<path style="fill:#F7FFFF;" d="M248.494,266.491c0,0,0.948-3.136-2.552-3.719c-3.5-0.583-5.396,0.802-5.396,0.802
			s2.115-7.438-2.771-8.969c-4.886-1.531-8.969,2.261-8.24,6.855c0,0-2.188-3.136-5.105-1.969c-2.917,1.167-4.229,7.146,3.573,7.803
			C235.806,267.949,248.494,266.491,248.494,266.491z"/>
		<g>
			<path style="fill:#7E92C1;" d="M141.492,380.342c0,0-3.334-17.198-14.238-17.197C119.129,363.146,113,380.342,113,380.342
				H141.492z"/>
			<path style="fill:#DCF4FF;" d="M141.492,380.342c0,0-16.669,7.981-27.574,7.98c-8.125-0.001-0.918-7.98-0.918-7.98H141.492z"/>
		</g>
		<g>
			<path style="fill:#7E92C1;" d="M454.444,340.259c0,0-2.504-12.917-10.694-12.916c-6.103,0.001-10.706,12.916-10.706,12.916
				H454.444z"/>
			<path style="fill:#DCF4FF;" d="M454.444,340.259c0,0-12.52,5.995-20.71,5.994c-6.103,0-0.689-5.994-0.689-5.994H454.444z"/>
		</g>
		<g>
			<path style="fill:#7E92C1;" d="M462.219,342.092c0,0-1.649-8.506-7.042-8.505c-4.018,0-7.049,8.505-7.049,8.505H462.219z"/>
			<path style="fill:#DCF4FF;" d="M462.219,342.092c0,0-8.244,3.947-13.637,3.947c-4.018,0-0.454-3.947-0.454-3.947H462.219z"/>
		</g>
		<g>
			<path style="fill:#7E92C1;" d="M173.363,379.335c0,0-2.627-8.455-11.219-8.454c-6.402,0-11.231,8.454-11.231,8.454H173.363z"/>
			<path style="fill:#DCF4FF;" d="M173.363,379.335c0,0-13.134,3.924-21.726,3.923c-6.402,0-0.723-3.923-0.723-3.923H173.363z"/>
		</g>
		<polygon style="fill:#7BC5FE;" points="0,233.472 182.298,233.472 85.008,254.142 97.269,240.139 19.396,267.06 54.444,243.89 
			15.646,256.014 30.647,240.807 0,249.083 		"/>
		<path style="fill:#FFFFFF;" d="M270.537,51.968c0,0-15.277,2.075-20.299,14.475c0,0-7.799-16.667-24.712-16.394
			c0,0,14.506-4.943,24.712,8.986C250.238,59.035,257.443,50.938,270.537,51.968z"/>
		<path style="fill:#FFFFFF;" d="M294.651,35.065c0,0-11.844,1.609-15.738,11.222c0,0-6.046-12.922-19.159-12.71
			c0,0,11.247-3.832,19.159,6.967C278.913,40.544,284.499,34.267,294.651,35.065z"/>
	</g>
</g>
<g id="DESIGNED_BY_FREEPIK">
	<g>
		<g id="XMLID_319_">
			<g id="XMLID_338_">
				<path id="XMLID_346_" style="fill:#1D262D;" d="M260.104,474.465c-0.432,0.443-0.803,0.931-1.108,1.453l-0.465-0.241
					c-0.067-0.298-0.349-0.503-0.659-0.466c-0.331,0.039-0.568,0.339-0.529,0.67c0.039,0.331,0.339,0.568,0.67,0.529
					c0.065-0.008,0.127-0.026,0.183-0.052l0.452,0.234c-0.251,0.554-0.433,1.139-0.539,1.744l0.747,0.132
					c0.23-1.306,0.85-2.507,1.792-3.473L260.104,474.465z"/>
				<path id="XMLID_345_" style="fill:#1D262D;" d="M265.592,472.163c-0.171,0-0.341,0.006-0.51,0.017l-0.074-0.626
					c0.188-0.149,0.296-0.389,0.266-0.645c-0.046-0.393-0.402-0.674-0.795-0.628c-0.393,0.046-0.674,0.402-0.628,0.795
					c0.03,0.254,0.189,0.461,0.405,0.564l0.073,0.624c-0.714,0.116-1.403,0.332-2.06,0.646l0.327,0.684
					c0.934-0.447,1.942-0.673,2.995-0.673c0.496,0,0.993,0.053,1.475,0.158l0.161-0.741
					C266.692,472.222,266.142,472.163,265.592,472.163z"/>
				<path id="XMLID_344_" style="fill:#1D262D;" d="M272.194,474.711c0.331-0.04,0.566-0.341,0.526-0.672
					c-0.04-0.331-0.341-0.566-0.672-0.526c-0.309,0.038-0.535,0.304-0.53,0.609l-0.416,0.363c-0.418-0.43-0.89-0.813-1.408-1.139
					l-0.404,0.641c1.134,0.715,2.021,1.726,2.563,2.925l0.691-0.313c-0.251-0.554-0.568-1.072-0.942-1.545l0.402-0.351
					C272.065,474.716,272.129,474.719,272.194,474.711z"/>
				<path id="XMLID_343_" style="fill:#1D262D;" d="M265.044,482.372c-0.386,0.023-0.775,0.035-1.157,0.035
					c-0.88,0-1.733-0.061-2.478-0.179c-0.39-0.062-0.846-0.155-1.27-0.292c1.046,1.861,3.069,3.125,5.388,3.125
					c2.855,0,5.262-1.916,5.95-4.504c-0.682,0.449-1.505,0.825-2.459,1.123C267.839,482.047,266.464,482.286,265.044,482.372z"/>
				<path id="XMLID_339_" style="fill:#1D262D;" d="M265.592,473.68c-3.352,0-6.08,2.666-6.08,5.943
					c0,0.426,0.046,0.849,0.137,1.261c0.673,0.483,2.706,0.89,5.348,0.731c2.879-0.173,5.297-0.957,6.672-2.159
					c-0.005-0.195-0.021-0.39-0.045-0.582C271.244,475.913,268.65,473.68,265.592,473.68z M263.432,480.194
					c-1.02,0-1.85-0.83-1.85-1.85c0-1.02,0.83-1.85,1.85-1.85c1.02,0,1.85,0.83,1.85,1.85
					C265.282,479.365,264.452,480.194,263.432,480.194z M268.17,479.286c-0.75,0-1.36-0.61-1.36-1.36s0.61-1.361,1.36-1.361
					c0.75,0,1.361,0.61,1.361,1.361S268.92,479.286,268.17,479.286z"/>
			</g>
			<path id="XMLID_336_" style="fill:#1D262D;" d="M281.595,475.547c-0.295-0.116-0.805-0.309-1.382-0.237
				c-0.551,0.069-0.844,0.341-0.844,1.007v0.866h2.228v1.717h-2.228v5.455h-1.932v-5.455h-1.34v-1.717h1.34v-0.888
				c0-1.68,0.896-2.783,2.568-2.783c0.643,0,1.157,0.122,1.59,0.308L281.595,475.547z"/>
			<path id="XMLID_334_" style="fill:#1D262D;" d="M286.298,478.879c-0.177-0.03-0.358-0.046-0.526-0.046
				c-0.896,0-1.51,0.548-1.51,1.614v3.908h-1.932v-7.172h1.873v0.785c0.451-0.673,1.14-0.977,2.021-0.977
				c0.414,0,0.848,0.128,1.094,0.337L286.298,478.879z"/>
			<path id="XMLID_331_" style="fill:#1D262D;" d="M293.965,480.757c0,0.222-0.015,0.489-0.037,0.651h-5.085
				c0.207,1.036,0.933,1.488,1.843,1.488c0.622,0,1.295-0.252,1.813-0.688l1.132,1.243c-0.814,0.748-1.85,1.088-3.057,1.088
				c-2.198,0-3.723-1.495-3.723-3.753c0-2.258,1.48-3.797,3.627-3.797C292.544,476.99,293.958,478.522,293.965,480.757z
				 M288.851,480.091h3.175c-0.177-0.918-0.733-1.436-1.562-1.436C289.554,478.655,289.021,479.203,288.851,480.091z"/>
			<path id="XMLID_328_" style="fill:#1D262D;" d="M301.618,480.757c0,0.222-0.015,0.489-0.037,0.651h-5.085
				c0.207,1.036,0.933,1.488,1.843,1.488c0.622,0,1.295-0.252,1.813-0.688l1.132,1.243c-0.814,0.748-1.85,1.088-3.057,1.088
				c-2.198,0-3.723-1.495-3.723-3.753c0-2.258,1.48-3.797,3.627-3.797C300.197,476.99,301.611,478.522,301.618,480.757z
				 M296.504,480.091h3.175c-0.178-0.918-0.733-1.436-1.562-1.436C297.207,478.655,296.674,479.203,296.504,480.091z"/>
			<path id="XMLID_325_" style="fill:#1D262D;" d="M309.964,480.764c0,2.154-1.495,3.775-3.471,3.775
				c-0.962,0-1.643-0.378-2.109-0.933v3.708h-1.924v-10.133h1.887v0.792c0.466-0.585,1.155-0.984,2.139-0.984
				C308.469,476.99,309.964,478.61,309.964,480.764z M304.287,480.764c0,1.132,0.747,1.976,1.843,1.976
				c1.14,0,1.85-0.881,1.85-1.976c0-1.095-0.71-1.976-1.85-1.976C305.035,478.788,304.287,479.632,304.287,480.764z"/>
			<path id="XMLID_322_" style="fill:#1D262D;" d="M313.068,474.836c0,0.696-0.54,1.229-1.236,1.229
				c-0.696,0-1.229-0.533-1.229-1.229c0-0.696,0.533-1.243,1.229-1.243C312.527,473.592,313.068,474.14,313.068,474.836z
				 M312.809,484.354h-1.932v-7.172h1.932V484.354z"/>
			<path id="XMLID_320_" style="fill:#1D262D;" d="M316.032,479.736l2.701-2.554h2.368l-3.479,3.375l3.501,3.797h-2.376
				l-2.716-2.901v2.901H314.1v-10.658h1.932V479.736z"/>
		</g>
		<g>
			<path style="fill:#1D262D;" d="M184.412,484.289v-1.055c-0.527,0.718-1.391,1.23-2.387,1.23c-1.846,0-3.149-1.406-3.149-3.706
				c0-2.256,1.289-3.721,3.149-3.721c0.952,0,1.816,0.469,2.387,1.245v-3.765h1.099v9.77H184.412z M184.412,482.37v-3.208
				c-0.395-0.615-1.245-1.143-2.124-1.143c-1.421,0-2.27,1.172-2.27,2.739c0,1.567,0.85,2.724,2.27,2.724
				C183.168,483.483,184.017,482.986,184.412,482.37z"/>
			<path style="fill:#1D262D;" d="M186.932,480.744c0-2.051,1.465-3.706,3.486-3.706c2.139,0,3.398,1.67,3.398,3.794v0.279h-5.727
				c0.088,1.333,1.025,2.446,2.549,2.446c0.805,0,1.626-0.322,2.182-0.894l0.527,0.718c-0.703,0.703-1.655,1.084-2.812,1.084
				C188.44,484.465,186.932,482.956,186.932,480.744z M190.403,477.947c-1.509,0-2.256,1.274-2.314,2.358h4.643
				C192.718,479.25,192.015,477.947,190.403,477.947z"/>
			<path style="fill:#1D262D;" d="M194.607,483.351l0.571-0.791c0.469,0.542,1.362,1.011,2.329,1.011c1.084,0,1.67-0.513,1.67-1.216
				c0-1.714-4.38-0.659-4.38-3.281c0-1.098,0.952-2.036,2.636-2.036c1.201,0,2.051,0.454,2.622,1.026l-0.513,0.762
				c-0.424-0.513-1.201-0.894-2.109-0.894c-0.967,0-1.567,0.483-1.567,1.113c0,1.552,4.38,0.527,4.38,3.281
				c0,1.187-0.952,2.138-2.783,2.138C196.306,484.465,195.325,484.113,194.607,483.351z"/>
			<path style="fill:#1D262D;" d="M201.477,475.471c0-0.41,0.337-0.747,0.732-0.747c0.41,0,0.747,0.337,0.747,0.747
				c0,0.41-0.337,0.732-0.747,0.732C201.814,476.203,201.477,475.881,201.477,475.471z M201.667,484.289v-7.075h1.099v7.075H201.667
				z"/>
			<path style="fill:#1D262D;" d="M204.582,486.105l0.556-0.82c0.586,0.703,1.289,0.967,2.3,0.967c1.172,0,2.27-0.571,2.27-2.124
				v-1.011c-0.513,0.718-1.377,1.26-2.373,1.26c-1.845,0-3.149-1.377-3.149-3.662c0-2.27,1.289-3.677,3.149-3.677
				c0.952,0,1.802,0.469,2.373,1.245v-1.069h1.098v6.87c0,2.344-1.641,3.076-3.369,3.076
				C206.237,487.16,205.417,486.926,204.582,486.105z M209.709,482.253v-3.091c-0.381-0.615-1.23-1.143-2.109-1.143
				c-1.421,0-2.27,1.128-2.27,2.695c0,1.553,0.849,2.695,2.27,2.695C208.478,483.41,209.328,482.868,209.709,482.253z"/>
			<path style="fill:#1D262D;" d="M217.413,484.289v-4.629c0-1.245-0.63-1.641-1.582-1.641c-0.865,0-1.685,0.527-2.095,1.099v5.17
				h-1.099v-7.075h1.099v1.025c0.498-0.586,1.465-1.201,2.519-1.201c1.48,0,2.256,0.747,2.256,2.285v4.966H217.413z"/>
			<path style="fill:#1D262D;" d="M219.932,480.744c0-2.051,1.465-3.706,3.486-3.706c2.139,0,3.398,1.67,3.398,3.794v0.279h-5.727
				c0.088,1.333,1.025,2.446,2.549,2.446c0.806,0,1.626-0.322,2.183-0.894l0.527,0.718c-0.703,0.703-1.655,1.084-2.812,1.084
				C221.441,484.465,219.932,482.956,219.932,480.744z M223.404,477.947c-1.509,0-2.256,1.274-2.314,2.358h4.643
				C225.718,479.25,225.015,477.947,223.404,477.947z"/>
			<path style="fill:#1D262D;" d="M233.35,484.289v-1.055c-0.527,0.718-1.392,1.23-2.388,1.23c-1.846,0-3.149-1.406-3.149-3.706
				c0-2.256,1.289-3.721,3.149-3.721c0.952,0,1.817,0.469,2.388,1.245v-3.765h1.098v9.77H233.35z M233.35,482.37v-3.208
				c-0.396-0.615-1.245-1.143-2.124-1.143c-1.421,0-2.27,1.172-2.27,2.739c0,1.567,0.849,2.724,2.27,2.724
				C232.105,483.483,232.954,482.986,233.35,482.37z"/>
			<path style="fill:#1D262D;" d="M239.692,484.289v-9.77h1.098v3.765c0.572-0.776,1.421-1.245,2.388-1.245
				c1.845,0,3.149,1.465,3.149,3.721c0,2.299-1.304,3.706-3.149,3.706c-0.996,0-1.86-0.513-2.388-1.23v1.055H239.692z
				 M242.9,483.483c1.436,0,2.285-1.157,2.285-2.724c0-1.568-0.85-2.739-2.285-2.739c-0.864,0-1.728,0.527-2.109,1.143v3.208
				C241.171,482.986,242.036,483.483,242.9,483.483z"/>
			<path style="fill:#1D262D;" d="M247.528,486.061c0.161,0.073,0.425,0.117,0.601,0.117c0.483,0,0.805-0.161,1.055-0.747
				l0.469-1.069l-2.959-7.148h1.187l2.358,5.8l2.344-5.8h1.201l-3.545,8.51c-0.425,1.025-1.143,1.421-2.08,1.435
				c-0.234,0-0.601-0.044-0.806-0.103L247.528,486.061z"/>
		</g>
	</g>
</g>
</svg>
