<?xml version="1.0" encoding="utf-8"?>
<!-- Generator: Adobe Illustrator 27.5.0, SVG Export Plug-In . SVG Version: 6.00 Build 0)  -->
<svg version="1.1" xmlns="http://www.w3.org/2000/svg" xmlns:xlink="http://www.w3.org/1999/xlink" x="0px" y="0px"
	 viewBox="0 0 500 500" style="enable-background:new 0 0 500 500;" xml:space="preserve">
<g id="BACKGROUND">
	<rect style="fill:#F9E4D9;" width="500" height="500"/>
</g>
<g id="OBJECTS">
	<g>
		<ellipse style="fill:#D8B3A3;" cx="376.514" cy="465.055" rx="63.667" ry="4.667"/>
		<ellipse style="fill:#D8B3A3;" cx="129.027" cy="465.055" rx="63.667" ry="4.667"/>
	</g>
	<line style="fill:none;stroke:#D8B3A3;stroke-miterlimit:10;" x1="1.36" y1="444.055" x2="497.671" y2="444.055"/>
	<g>
		<g>
			<path style="fill:#A8451A;" d="M277.486,171.086c-1.737-2.913-3.182-5.999-4.306-9.199c-1.325-3.771-2.201-7.911-1.068-11.744
				c1.133-3.833,4.822-7.14,8.79-6.655c2.507,0.307,4.663,2.031,6.086,4.118s2.223,4.524,3.005,6.925
				c1.359,4.171,2.718,8.342,4.077,12.513"/>
			<path style="fill:#9B8BB3;" d="M314.184,206.298c-1.228-1.607-16.092-40.925-16.092-40.925l-24.134,7.096l16.713,53.611
				c1.589,4.922,6.706,8.427,12.452,8.518c9.454,0.15,12.202-0.963,18.367-9.745"/>
			<path style="fill:#9B8BB3;" d="M356.628,219.544c-5.131,4.382-12.074,6.841-18.364,8.99c-7.787,2.66-15.814,4.717-23.915,6.166
				c-4.997,0.894-10.364,2.512-15.461,1.424c-4.916-1.049-5.887-4.757-7.564-8.878c-2.232-5.484-1.415-9.396-2.861-15.138
				c18.973-4.377,59.553-16.676,70.652-18.207c4.354,3.373-5.788,9.159-1.433,12.532
				C358.683,207.209,356.024,218.432,356.628,219.544z"/>
			<path style="fill:#7762A0;" d="M301.706,174.764c-3.866,1.279-7.883,2.483-11.913,3.663c-4.326,1.267-8.667,2.507-12.848,3.78
				c-1.221-3.262-1.994-6.725-3.215-9.987c7.615-2.578,16.573-5.147,24.244-7.551C297.974,164.239,301.706,174.764,301.706,174.764z
				"/>
			
				<path style="fill:none;stroke:#54439C;stroke-width:1.1482;stroke-linecap:round;stroke-linejoin:round;stroke-miterlimit:10;" d="
				M301.706,174.764c-3.866,1.279-7.883,2.483-11.913,3.663c-4.326,1.267-8.667,2.507-12.848,3.78"/>
			
				<path style="fill:none;stroke:#54439C;stroke-width:1.1482;stroke-linecap:round;stroke-linejoin:round;stroke-miterlimit:10;" d="
				M276.945,182.208l2.108-11.151l7.966,8.109l1.22-10.549l8.181,7.535c0,0,0.724-8.003,0.93-10.775"/>
			<path style="fill:#BFBB2C;" d="M313.852,205.43c2.001,4.073,8.979,5.733,12.257,2.595c0.542-0.519,1.012-1.128,1.652-1.519
				c1.601-0.977,3.655-0.304,5.527-0.418c3.577-0.218,6.523-3.942,5.911-7.473L313.852,205.43z"/>
		</g>
		<g>
			<path style="fill:#174382;" d="M335.729,296.899c-3.142,37.847-3.716,89.516-3.569,130.946c0.013,3.784,2.105,7.229,5.743,8.269
				c5.301,1.515,9.023,3.515,17.302,2.43c4.251-0.557,6.481-4.6,6.262-8.881c-1.86-36.281,1.809-98.136-1.29-133.855"/>
			<path style="fill:#A8451A;" d="M336.852,438.388c-0.5,5.667-2.611,9.713-6.872,12.37c-4.532,2.826-7.012,3.641-11.23,6.366
				c-3.421,2.21-5.195,2.724-4.978,5.849c0.104,1.5,1.359,2.666,2.863,2.666h27.102c5.161,0,9.454-3.968,9.854-9.114
				c0.52-6.691,1.261-16.971,1.261-16.971"/>
			<path style="fill:#174382;" d="M355.768,431.421c0.008,3.004-0.945,10.22-0.945,10.22c-6.459-0.109-13.394-0.798-19.84-0.377
				c-0.25-2.487-0.048-7.523-0.298-10.01"/>
		</g>
		<g>
			<g>
				<path style="fill:#C15C27;" d="M406.766,426.936c0.219,5.017,1.582,8.457-0.375,13.082c-2.081,4.919-3.641,7.012-5.522,11.668
					c-1.223,3.026-2.208,4.552-1.534,6.291c0.814,2.1,3.466,2.792,5.358,1.57c6.477-4.186,22.747-14.651,22.747-14.651
					c4.222-2.97,5.45-8.685,2.817-13.124c-3.424-5.772-7.51-12.585-7.51-12.585"/>
				
					<path style="fill:none;stroke:#0D060E;stroke-width:0.9217;stroke-linecap:round;stroke-linejoin:round;stroke-miterlimit:10;" d="
					M421.026,428.523c0.302,1.672,0.604,3.345,0.907,5.017"/>
			</g>
			<g>
				<path style="fill:#3C69B6;" d="M357.502,294.942c1.919,18.708-9.353,35.243-4.593,54.73
					c4.434,18.151,29.865,53.74,38.702,71.143c2.224,4.38,7.59,6.104,12.004,3.949c6.243-3.048,9.223-4.389,14.785-8.744
					c3.788-2.967,4.632-8.338,2.025-12.383c-8.717-13.524-30.121-48.022-34.398-62.658c-5.097-17.446,5.569-31.999,2.476-47.568"/>
				<path style="fill:none;stroke:#174382;stroke-linecap:round;stroke-linejoin:round;stroke-miterlimit:10;" d="M407.436,396.749
					c0,0-13.383-23.99-21.098-38.608c-3.765-7.135-7.176-17.366-7.32-23.681"/>
				<path style="fill:#3C69B6;" d="M419.133,412.681c1.606,2.538,2.731,4.456,4.337,6.994c-5.525,3.347-11.762,6.456-16.994,10.245
					c-1.536-1.972-2.312-3.484-3.848-5.456"/>
				<path style="fill:#BFBB2C;" d="M374.268,391.472c1.75-5.583,10.333-5.75,12.332-0.978c1.312,3.133,2.588,6.57,5.33,8.575
					c2.367,1.731,5.774,1.416,8.167,3.112c3.27,2.316,3.137,7.507,0.839,10.79c-2.297,3.283-6.447,4.983-10.001,6.835
					L374.268,391.472z"/>
				<path style="fill:#BFBB2C;" d="M391.709,390.304c0.423,1.459,0.121,2.828-0.675,3.059c-0.796,0.231-1.783-0.765-2.206-2.224
					c-0.423-1.459-0.12-2.828,0.675-3.059C390.298,387.85,391.286,388.845,391.709,390.304z"/>
				<path style="fill:none;stroke:#174382;stroke-linecap:round;stroke-linejoin:round;stroke-miterlimit:10;" d="M403.496,424.307
					c5.267-3.009,10.393-6.265,15.354-9.755"/>
			</g>
		</g>
		<g>
			<path style="fill:#9B8BB3;" d="M369.832,193.327c0,0,26.217,5.167,27.652,7.559c5.56,9.267,9.067,87.248,10.763,120.091
				c0.144,2.797,0.288,5.243,0.432,7.263c-6.885,1.889-28.198,4.431-35.309,3.796c-15.604-1.393-29.203-3.287-44.801-4.752
				c0-1.96,0.006-4.276,0.018-6.891c0.151-31.08,7.955-100.369,11.764-120.837l7.758-3.236l16.364-3.375L369.832,193.327z"/>
			<path style="fill:#7762A0;" d="M408.129,318.576c0.144,2.797,0.406,7.643,0.55,9.664c-6.885,1.889-19.374,4.385-33.489,4.401
				c-17.848,0.02-32.245-1.244-46.621-5.358c0-1.96,0.011-6.858,0.024-9.473c0,0,24.878,4.784,43.823,4.306
				C390.018,321.672,408.129,318.576,408.129,318.576z"/>
			
				<path style="fill:none;stroke:#54439C;stroke-width:1.1482;stroke-linecap:round;stroke-linejoin:round;stroke-miterlimit:10;" d="
				M328.632,317.127c12.304,2.693,23.46,3.678,35.268,4.798c9.316,0.883,20.128-0.62,29.47-1.148
				c6.174-0.349,9.907-2.272,14.759-2.201"/>
			
				<path style="fill:none;stroke:#54439C;stroke-width:1.1482;stroke-linecap:round;stroke-linejoin:round;stroke-miterlimit:10;" d="
				M328.632,326.887c12.926,3.41,22.647,4.157,34.454,5.276c9.316,0.883,19.806,0.144,29.566-1.005
				c6.141-0.723,10.908-2.009,15.477-2.823"/>
			
				<path style="fill:none;stroke:#54439C;stroke-width:1.1482;stroke-linecap:round;stroke-linejoin:round;stroke-miterlimit:10;" d="
				M328.935,326.598c2.167-2.679,4.427-5.282,6.776-7.803c2.554,3.57,4.584,7.023,7.138,10.593c2.755-2.982,5.525-5.569,8.28-8.551
				c3.239,3.416,5.703,7.103,8.418,10.948c2.717-3.028,6.011-6.492,8.365-9.81c2.293,3.319,4.367,7.186,6.66,10.505
				c2.633-3.732,5.665-7.515,8.298-11.247c3.074,3.306,6.588,6.83,9.662,10.135c2.439-3.562,5.173-6.917,7.613-10.479
				c2.437,2.795,4.97,5.301,7.407,8.097"/>
			
				<path style="fill:none;stroke:#54439C;stroke-width:1.1482;stroke-linecap:round;stroke-linejoin:round;stroke-miterlimit:10;" d="
				M346.948,275.82c3.362,7.311,6.724,14.622,10.086,21.934"/>
			
				<path style="fill:none;stroke:#54439C;stroke-width:1.1482;stroke-linecap:round;stroke-linejoin:round;stroke-miterlimit:10;" d="
				M348.335,287.211c1.19,2.66,2.38,5.321,3.57,7.982"/>
			<g>
				<path style="fill:#7762A0;" d="M352.762,195.183c-1.678,4.553,0.047,8.824,3.452,12.281c1.11,1.127,2.483,1.974,3.939,2.592
					c5.27,2.236,10.428,1.264,14.846-2.377c3.939-3.246,4.512-7.199,6.219-12.008c-3.571-0.843-6.17-1.625-10.238-1.914
					c-3.631-0.258-7.754-1.005-11.29-0.144C357.563,194.132,352.514,194.954,352.762,195.183z"/>
				
					<path style="fill:none;stroke:#54439C;stroke-width:1.1482;stroke-linecap:round;stroke-linejoin:round;stroke-miterlimit:10;" d="
					M352.379,195.374c-1.678,4.553,0.047,8.824,3.452,12.281c1.11,1.127,2.483,1.974,3.939,2.592
					c5.27,2.236,10.428,1.264,14.846-2.377c3.939-3.246,4.512-7.199,6.219-12.008"/>
				
					<path style="fill:none;stroke:#54439C;stroke-width:1.1482;stroke-linecap:round;stroke-linejoin:round;stroke-miterlimit:10;" d="
					M356.532,195.049c-0.095,3.114,1.543,6.978,4.306,8.42c2.762,1.442,6.746,1.907,9.382,0.246c2.637-1.66,4.789-5.649,4.922-8.762
					"/>
				
					<path style="fill:none;stroke:#54439C;stroke-width:1.1482;stroke-linecap:round;stroke-linejoin:round;stroke-miterlimit:10;" d="
					M352.309,195.542c1.176,1.089,2.547,1.967,4.028,2.579c-1.291,1.591-1.998,3.177-3.124,4.889c2.076,0.391,4.748,0.77,6.86,0.79
					c0.276,1.82,0.573,4.549,0.849,6.369c1.708-1.651,3.496-3.242,4.797-5.23c1.939,1.301,3.65,3.004,5.59,4.306
					c-0.156-2.106,0.467-3.595,0.747-5.689c1.916,0.271,3.34-0.091,5.256,0.18c-0.683-2.196-1.342-4.289-2.026-6.485
					c1.722,0,3.157-0.287,4.88-0.287"/>
			</g>
			<path style="fill:#FF9300;" d="M328.852,310.93c3.065-0.355,6.902-1.852,8.403-4.548c1.5-2.696,1.617-6.117,0.303-8.909
				c-0.972-2.065-2.716-4.233-1.854-6.347c0.254-0.623,0.713-1.135,1.098-1.686c1.665-2.382,1.91-5.682,0.615-8.283
				c-1.295-2.602-3.327-4.328-6.231-4.435C329.552,288.301,328.611,299.239,328.852,310.93z"/>
		</g>
		<g>
			<path style="fill:#8C1871;" d="M361.654,242.917c-1.701,3.501-6.162,12.668-7.051,13.456c-1.886,1.671-17.303,1.923-20.456,0
				c-0.76-0.463-7.181-13.864-7.181-13.864L361.654,242.917z"/>
			<path style="fill:#BFBB2C;" d="M329.685,242.504c-0.233-1.306,0.185-2.643,0.917-3.75c1.76-2.664,5.061-3.188,8.246-3.42
				c-1.017-3.15,0.517-6.33,3.565-7.62c3.049-1.29,5.195-0.478,7.939,1.374c1.469-1.27,5.586,1.111,6.454,2.848
				c0.868,1.737,0.511,3.834-0.142,5.663c1.198-0.269,2.257,0.535,2.737,1.665c0.481,1.13,0.415,2.408,0.34,3.633"/>
			<path style="fill:none;stroke:#828E0C;stroke-linecap:round;stroke-linejoin:round;stroke-miterlimit:10;" d="M341.17,236.006
				c2.1-0.625,4.579,0.663,5.275,2.74"/>
			<path style="fill:none;stroke:#828E0C;stroke-linecap:round;stroke-linejoin:round;stroke-miterlimit:10;" d="M349.505,232.021
				c1.163-0.468,2.628,0.005,3.298,1.064"/>
		</g>
		<g>
			<path style="fill:#9B8BB3;" d="M426.249,238.781c-6.615-17.984-15.215-30.526-26.755-37.226
				c-4.248-2.466-13.891-3.075-17.171,0.581c-2.391,9.402-1.858,13.63,3.01,21.043c5.568,8.478,10.013,12.173,14.352,18.563
				c-6.011,0.501-18.531,0.419-27.557,0.376c-6.49-0.031-11.174-0.042-10.334,0.198c1.292,6.889,0.287,18.084-0.431,23.825
				c2.965,0.322,6.426,0.579,10.195,0.764c14.474,0.71,33.506,0.363,46.571-1.378c8.299-1.106,13.648-9.417,11.187-17.42
				C428.341,244.935,427.235,241.665,426.249,238.781z"/>
			<path style="fill:#7762A0;" d="M372.894,242.31c-6.49-0.031-11.174-0.042-10.334,0.198c1.292,6.889,0.287,18.084-0.431,23.825
				c2.965,0.322,6.426,0.579,10.195,0.764"/>
			
				<path style="fill:none;stroke:#54439C;stroke-width:1.1482;stroke-linecap:round;stroke-linejoin:round;stroke-miterlimit:10;" d="
				M384.496,200.525c-3.482,9.055-3.449,13.316,0.513,21.251c4.531,9.075,8.206,13.26,11.763,20.116
				c-0.191-0.191-0.339-0.532-0.531-0.723l-33.106,1.531"/>
			
				<path style="fill:none;stroke:#54439C;stroke-width:1.1482;stroke-linecap:round;stroke-linejoin:round;stroke-miterlimit:10;" d="
				M397.353,241.812c2.663,1.37,5.327,2.74,7.99,4.11"/>
			
				<path style="fill:none;stroke:#54439C;stroke-width:1.1482;stroke-linecap:round;stroke-linejoin:round;stroke-miterlimit:10;" d="
				M395.678,240.583c1.365,1.452,2.361,3.248,2.869,5.175"/>
			
				<path style="fill:none;stroke:#54439C;stroke-width:1.1482;stroke-linecap:round;stroke-linejoin:round;stroke-miterlimit:10;" d="
				M362.914,242.489c0.946,8.015,0.535,16.189-1.21,24.069"/>
			
				<path style="fill:none;stroke:#54439C;stroke-width:1.1482;stroke-linecap:round;stroke-linejoin:round;stroke-miterlimit:10;" d="
				M372.723,242.891c0.054,8.037-0.148,16.076-0.605,24.101"/>
			
				<path style="fill:none;stroke:#54439C;stroke-width:1.1482;stroke-linecap:round;stroke-linejoin:round;stroke-miterlimit:10;" d="
				M362.101,266.404c14.233,0.867,28.517,0.872,42.751,0.017"/>
			
				<path style="fill:none;stroke:#54439C;stroke-width:1.1482;stroke-linecap:round;stroke-linejoin:round;stroke-miterlimit:10;" d="
				M362.396,265.672c3.487-0.905,6.782-2.543,9.608-4.778c-2.939-1.605-5.702-4.087-8.477-5.962l8.607-6.597"/>
			
				<path style="fill:none;stroke:#54439C;stroke-width:1.1482;stroke-linecap:round;stroke-linejoin:round;stroke-miterlimit:10;" d="
				M363.164,243.001c2.99,1.778,5.98,3.556,8.97,5.333"/>
			<path style="fill:#FF9300;" d="M423.164,231.055c-1.913,0.692-4.88,0.163-6.342-1.252c-1.462-1.415-2.294-3.353-2.914-5.29
				c-0.63-1.969-1.306-4.264-3.217-5.052c-0.895-0.369-1.929-0.327-2.792-0.764c-0.929-0.471-1.513-1.424-1.914-2.384
				c-1.171-2.801-1.082-7.155,0.117-9.944c0,0,1.534,1.122,1.929,1.42c4.821,3.642,7.585,7.191,10.071,11.767
				C420.588,224.132,421.6,226.087,423.164,231.055z"/>
		</g>
		<g>
			<path style="fill:#A8451A;" d="M357.059,179.453c0.009,4.51-0.06,15.615,0.086,16.82c0.357,2.936,2.101,5.733,4.721,7.104
				c2.621,1.371,7.152,1.146,9.41-0.764c2.103-1.779,2.944-4.637,3.282-7.371c0.863-6.996-0.37-19.269-0.348-18.804"/>
			<path style="fill:#C15C27;" d="M375.286,164.534c-0.935-2.077-2.158-3.911-3.579-5.225c-2.411-2.229-5.706-3.633-9.009-3.451
				c-4.536,0.25-9.15,2.724-11.14,6.898c-1.051,2.206-1.233,7.592-1.34,10.047c-0.154,3.543,0.264,7.404,1.663,10.681
				c0.735,1.722,1.834,3.454,3.122,4.485c1.815,1.453,5.413,1.67,7.66,1.177c6.174-1.355,11.448-5.293,13.608-10.225
				C378.015,174.935,377.358,169.137,375.286,164.534z"/>
			<path style="fill:#C15C27;" d="M373.249,169.852c1.683-2.015,5.447-2.312,7.458-0.541c2.011,1.771,2.265,5.058,0.911,7.253
				c-1.354,2.196-3.974,3.643-6.736,4.279"/>
			<path style="fill:#0D060E;" d="M376.53,168.139c-5-1.646-9.199-6.631-9.951-11.841
				C371.459,157.637,374.808,161.441,376.53,168.139z"/>
			<path style="fill:#0D060E;" d="M370.622,156.059c-4.614-1.105-12.994-0.096-16.577,3.014c-1.38,1.198-2.946,3.627-3.182,5.44
				C357.798,165.221,367.424,162.253,370.622,156.059z"/>
			<path style="fill:#0D060E;" d="M379.232,178.992c0.193,4.456-4.502,7.811-4.502,7.811l-0.281-4.91c0,0,0.478-0.545,0.885-1.34
				C376.685,180.169,378.031,179.721,379.232,178.992z"/>
			
				<path style="fill:none;stroke:#0D060E;stroke-width:0.9217;stroke-linecap:round;stroke-linejoin:round;stroke-miterlimit:10;" d="
				M377.345,170.758c0.544-0.532,1.581-0.463,2.222-0.023c0.642,0.441,0.966,1.143,1.187,1.829"/>
			<path style="fill:#0D060E;" d="M366.459,156.489c0.79-1.137,3.725-2.655,7.369-2.225c7.66,0.905,8.557,5.789,7.342,15.477
				c-2.416-2.368-5.119-1.34-5.119-1.34c-3.509-1.623-4.627-4.978-6.084-8.19"/>
			<path style="fill:#0D060E;" d="M350.959,164.491c-1.399,0.155-2.246,0.013-3.381-0.82c-0.893-0.655-1.373-1.829-1.196-2.922
				c0.177-1.093,1.004-2.055,2.058-2.394c-1.436-1.492-2.59-4.069-1.68-5.929c0.91-1.86,3.046-3.04,5.105-2.821
				c1.333,0.142,2.559,0.802,3.877,1.043c1.414,0.259,2.87,0.026,4.306,0.103c3.746,0.201,7.272,2.706,8.696,6.176
				c-0.978-0.408-2.802,0.278-3.605,0.969c-2.219,1.91-4.781,3.515-7.638,4.159C355.423,162.525,352.518,163.036,350.959,164.491z"
				/>
			<path style="fill:#0D060E;" d="M372.785,166.184c0.657,2.585,1.496,7.6,3.266,7.815c0,0,0.205-5.338,0.269-7.562"/>
			<path style="fill:#0D060E;" d="M351.892,160.364c-2.166,0.859-4.517,3.987-4.165,6.291c0.201,1.314,1.371,3.077,2.676,2.823
				C351.091,166.413,351.204,163.429,351.892,160.364z"/>
			<g>
				<g>
					<path style="fill:#FFFFFF;" d="M360.599,177.396c-0.902,2.082-2.08,3.837-4.355,3.494c-1.252-0.188-2.629-1.975-3.132-3.375
						C355.157,179.381,358.015,179.596,360.599,177.396z"/>
					
						<path style="fill:none;stroke:#0D060E;stroke-width:0.8611;stroke-linecap:round;stroke-linejoin:round;stroke-miterlimit:10;" d="
						M356.341,170.842c-0.404,0.824-0.8,1.652-1.19,2.483c-0.123,0.262-0.247,0.53-0.278,0.818
						c-0.051,0.468,0.154,0.936,0.455,1.298c0.301,0.363,0.692,0.637,1.077,0.908"/>
					<path style="fill:#0D060E;" d="M353.742,171.511c0,0.414-0.336,0.75-0.75,0.75c-0.414,0-0.75-0.336-0.75-0.75
						c0-0.414,0.336-0.75,0.75-0.75C353.406,170.761,353.742,171.097,353.742,171.511z"/>
					<path style="fill:#0D060E;" d="M361.795,171.416c0,0.414-0.336,0.75-0.75,0.75c-0.414,0-0.75-0.336-0.75-0.75
						c0-0.414,0.336-0.75,0.75-0.75C361.459,170.665,361.795,171.001,361.795,171.416z"/>
					
						<path style="fill:none;stroke:#0D060E;stroke-width:0.9217;stroke-linecap:round;stroke-linejoin:round;stroke-miterlimit:10;" d="
						M359.867,167.344c1.073-0.28,2.283,0.043,3.075,0.82"/>
					
						<path style="fill:none;stroke:#0D060E;stroke-width:0.9217;stroke-linecap:round;stroke-linejoin:round;stroke-miterlimit:10;" d="
						M350.027,168.285c0.869-0.689,2.106-0.882,3.144-0.49"/>
				</g>
				<g>
					<path style="fill:#A5311B;" d="M369.665,174.286c0,1.387-1.125,2.512-2.512,2.512c-1.387,0-2.512-1.125-2.512-2.512
						c0-1.387,1.125-2.512,2.512-2.512C368.54,171.775,369.665,172.899,369.665,174.286z"/>
					<path style="fill:#A5311B;" d="M350.434,178.042c0,0,0.032-0.019,0.066-0.051c0.72-0.679,1.321-1.658,1.234-2.501
						c-0.086-0.841-0.699-1.62-1.447-2.103c-0.038-0.025-0.115-0.072-0.115-0.072s-0.038,1.581-0.016,2.107
						C350.184,176.09,350.434,178.042,350.434,178.042z"/>
				</g>
			</g>
			
				<path style="fill:none;stroke:#0D060E;stroke-width:0.9217;stroke-linecap:round;stroke-linejoin:round;stroke-miterlimit:10;" d="
				M368.392,155.269c2.822-2.729,7.754-2.868,10.725-0.302c2.971,2.566,3.551,7.466,1.262,10.655"/>
			
				<path style="fill:none;stroke:#0D060E;stroke-width:0.9217;stroke-linecap:round;stroke-linejoin:round;stroke-miterlimit:10;" d="
				M350.16,158.276c-2.086,0.684-4.509-1.053-4.765-3.233c-0.257-2.18,1.45-4.33,3.588-4.831c2.137-0.501,4.473,0.507,5.812,2.247"
				/>
		</g>
		<g>
			<path style="fill:#C15C27;" d="M361.477,265.055c-6.678,0.32-15.54,1.605-23.288-0.98c-2.555-0.853-4.517-4.336-4.212-8.395
				c0.375-5,4.621-3.609,7.498-3.705c3.728-0.125,7.445,0.301,11.166,0.5c3.494,0.186,6.795-0.501,10.273-0.673
				c0,0-0.138,4.885-0.311,6.504C362.42,260.006,361.477,265.055,361.477,265.055z"/>
			<path style="fill:#C15C27;" d="M357.245,257.791c-1.589-1.777-3.177-3.553-4.766-5.33c-0.52-0.581-1.065-1.214-1.225-2.046
				c-0.331-1.726,1.298-3.265,2.763-3.112c1.464,0.153,2.67,1.409,3.694,2.679c1.632,2.025,3.093,4.249,4.353,6.629"/>
		</g>
	</g>
	<g>
		<path style="fill:#9B8BB3;" d="M280.763,467.766c0,1.362-12.595,2.467-28.131,2.467c-15.536,0-28.131-1.105-28.131-2.467
			c0-1.362,12.595-2.467,28.131-2.467C268.168,465.299,280.763,466.404,280.763,467.766z"/>
		<ellipse style="fill:#BFBB2C;" cx="213.494" cy="471.32" rx="12.53" ry="1.497"/>
		<ellipse style="fill:#FF9300;" cx="299.36" cy="486.32" rx="12.53" ry="1.497"/>
		<ellipse style="fill:#E9381B;" cx="469.83" cy="469.055" rx="12.53" ry="1.497"/>
		<ellipse style="fill:#9B8BB3;" cx="123.36" cy="486.32" rx="12.53" ry="1.497"/>
		<ellipse style="fill:#BFBB2C;" cx="30.83" cy="470.32" rx="12.53" ry="1.497"/>
	</g>
	<g>
		<g>
			<path style="fill:#BFBB2C;" d="M289.684,130.932c-0.225-4.774-4.039-10.762-9.41-11.855c-5.371-1.093-10.525,1.34-13.191,5.578
				c-4.175-0.746-10.023,0.701-13.361,3.559c-3.986,3.414-4.204,6.565-3.301,14.783c-4.101,4.847-4.246,11.61-0.383,16.649
				c4.401,5.741,15.121,6.94,19.022,1.931c2.898,3.524,7.641,6.067,12.189,5.698c4.548-0.369,8.843-3.078,11.134-7.024
				c4.504-1.333,9.015-2.745,12.128-6.262c3.381-3.82,3.513-12.781,0.066-16.541C300.367,132.855,295.2,130.751,289.684,130.932z"/>
			<path style="fill:none;stroke:#828E0C;stroke-linecap:round;stroke-linejoin:round;stroke-miterlimit:10;" d="M266.873,147.618
				c1.109-3.343,3.918-6.073,7.291-7.086c3.373-1.013,7.221-0.283,9.989,1.896c1.352-2.667,3.733-4.986,6.693-5.412"/>
			<path style="fill:none;stroke:#828E0C;stroke-linecap:round;stroke-linejoin:round;stroke-miterlimit:10;" d="M262.823,129.53
				c1.06-1.195,2.82-1.717,4.36-1.296c1.541,0.422,2.788,1.768,3.093,3.336"/>
		</g>
		<g>
			<circle style="fill:#BFBB2C;" cx="240.602" cy="140.305" r="2.75"/>
			<path style="fill:#BFBB2C;" d="M241.507,148.727c0,1.009-0.818,1.827-1.827,1.827c-1.009,0-1.827-0.818-1.827-1.827
				c0-1.009,0.818-1.827,1.827-1.827C240.688,146.9,241.507,147.718,241.507,148.727z"/>
			<path style="fill:#BFBB2C;" d="M297.518,121.722c0,1.009-0.818,1.827-1.827,1.827c-1.009,0-1.827-0.818-1.827-1.827
				s0.818-1.827,1.827-1.827C296.7,119.894,297.518,120.712,297.518,121.722z"/>
		</g>
	</g>
	<g>
		<circle style="fill:#E9381B;" cx="334.36" cy="140.305" r="2.75"/>
		<circle style="fill:#E9381B;" cx="480.86" cy="284.555" r="2.75"/>
		<circle style="fill:#E9381B;" cx="225.943" cy="106.388" r="2.75"/>
		<circle style="fill:#3C69B6;" cx="188.318" cy="68.763" r="2.75"/>
		<circle style="fill:#8C1871;" cx="390.027" cy="85.055" r="2.75"/>
		<circle style="fill:#3C69B6;" cx="472.61" cy="251.055" r="2.75"/>
		<circle style="fill:#3C69B6;" cx="62.36" cy="234.055" r="2.75"/>
		<circle style="fill:#BFBB2C;" cx="390.027" cy="115.055" r="2.75"/>
		<circle style="fill:#FF9300;" cx="318.36" cy="15.055" r="2.75"/>
		<circle style="fill:#FF9300;" cx="186.61" cy="11.055" r="2.75"/>
		<circle style="fill:#FF9300;" cx="186.61" cy="364.055" r="2.75"/>
		<circle style="fill:#FF9300;" cx="405.61" cy="347.055" r="2.75"/>
		<circle style="fill:#E9381B;" cx="164.693" cy="111.722" r="2.75"/>
		<circle style="fill:#E9381B;" cx="30.777" cy="306.388" r="2.75"/>
		<circle style="fill:#8C1871;" cx="183.36" cy="165.055" r="2.75"/>
		<path style="fill:#BFBB2C;" d="M419.188,21.882c0,1.009-0.818,1.827-1.828,1.827s-1.827-0.818-1.827-1.827
			s0.818-1.827,1.827-1.827S419.188,20.873,419.188,21.882z"/>
		<path style="fill:#BFBB2C;" d="M438.188,36.882c0,1.009-0.818,1.827-1.828,1.827s-1.827-0.818-1.827-1.827
			s0.818-1.827,1.827-1.827S438.188,35.873,438.188,36.882z"/>
		<path style="fill:#BFBB2C;" d="M391.188,33.228c0,1.009-0.818,1.827-1.828,1.827s-1.827-0.818-1.827-1.827
			s0.818-1.827,1.827-1.827S391.188,32.218,391.188,33.228z"/>
		<path style="fill:#FF9300;" d="M338.36,111.055c0,1.009-0.818,1.827-1.827,1.827c-1.009,0-1.827-0.818-1.827-1.827
			s0.818-1.827,1.827-1.827C337.542,109.228,338.36,110.046,338.36,111.055z"/>
		<path style="fill:#FF9300;" d="M438.188,200.883c0,1.009-0.818,1.827-1.828,1.827s-1.827-0.818-1.827-1.827
			c0-1.009,0.818-1.828,1.827-1.828S438.188,199.873,438.188,200.883z"/>
		<path style="fill:#FF9300;" d="M445.188,287.883c0,1.009-0.818,1.827-1.828,1.827s-1.827-0.818-1.827-1.827
			s0.818-1.828,1.827-1.828S445.188,286.873,445.188,287.883z"/>
		<path style="fill:#FF9300;" d="M435.188,333.883c0,1.009-0.818,1.827-1.828,1.827s-1.827-0.818-1.827-1.827
			s0.818-1.828,1.827-1.828S435.188,332.873,435.188,333.883z"/>
		<path style="fill:#E9381B;" d="M450.188,382.228c0,1.009-0.818,1.827-1.828,1.827s-1.827-0.818-1.827-1.827
			c0-1.009,0.818-1.827,1.827-1.827S450.188,381.218,450.188,382.228z"/>
		<path style="fill:#E9381B;" d="M46.015,382.228c0,1.009-0.818,1.827-1.827,1.827s-1.827-0.818-1.827-1.827
			c0-1.009,0.818-1.827,1.827-1.827S46.015,381.218,46.015,382.228z"/>
		<path style="fill:#FF9300;" d="M455.86,298.555c0,1.009-0.818,1.828-1.827,1.828c-1.009,0-1.827-0.818-1.827-1.828
			s0.818-1.827,1.827-1.827C455.042,296.728,455.86,297.546,455.86,298.555z"/>
		<path style="fill:#3C69B6;" d="M478.36,321.055c0,1.009-0.818,1.828-1.827,1.828c-1.009,0-1.827-0.818-1.827-1.828
			s0.818-1.827,1.827-1.827C477.542,319.228,478.36,320.046,478.36,321.055z"/>
		<path style="fill:#3C69B6;" d="M478.36,352.055c0,1.009-0.818,1.828-1.827,1.828c-1.009,0-1.827-0.818-1.827-1.828
			s0.818-1.827,1.827-1.827C477.542,350.228,478.36,351.046,478.36,352.055z"/>
		<circle style="fill:#E9381B;" cx="463.36" cy="212.055" r="1.828"/>
		<circle style="fill:#3C69B6;" cx="124.36" cy="111.055" r="1.828"/>
		<path style="fill:#FF9300;" d="M202.78,304.143c0,1.009-0.818,1.828-1.827,1.828c-1.009,0-1.827-0.818-1.827-1.828
			c0-1.009,0.818-1.827,1.827-1.827C201.962,302.315,202.78,303.134,202.78,304.143z"/>
		<path style="fill:#3C69B6;" d="M202.78,336.814c0,1.009-0.818,1.827-1.827,1.827c-1.009,0-1.827-0.818-1.827-1.827
			c0-1.009,0.818-1.827,1.827-1.827C201.962,334.986,202.78,335.804,202.78,336.814z"/>
		<circle style="fill:#3C69B6;" cx="211.452" cy="347.313" r="1.827"/>
		<path style="fill:#3C69B6;" d="M107.238,130.761c-0.714,0.714-1.871,0.714-2.584,0c-0.714-0.714-0.714-1.871,0-2.585
			c0.714-0.714,1.871-0.714,2.584,0S107.952,130.047,107.238,130.761z"/>
		<path style="fill:#3C69B6;" d="M20.944,228.055c-0.714,0.714-1.871,0.714-2.584,0c-0.714-0.714-0.714-1.871,0-2.584
			c0.714-0.714,1.871-0.714,2.584,0C21.658,226.184,21.658,227.341,20.944,228.055z"/>
		<path style="fill:#3C69B6;" d="M28.152,235.263c-0.714,0.714-1.871,0.714-2.584,0c-0.714-0.714-0.714-1.871,0-2.585
			c0.714-0.714,1.871-0.714,2.584,0C28.866,233.392,28.866,234.549,28.152,235.263z"/>
		<path style="fill:#BFBB2C;" d="M83.531,107.053c-0.714,0.714-1.871,0.714-2.584,0c-0.714-0.714-0.714-1.871,0-2.585
			c0.714-0.714,1.871-0.714,2.584,0C84.244,105.182,84.244,106.34,83.531,107.053z"/>
		<path style="fill:#FF9300;" d="M83.531,336.347c-0.714,0.714-1.871,0.714-2.584,0c-0.714-0.714-0.714-1.871,0-2.584
			c0.714-0.714,1.871-0.714,2.584,0C84.244,334.477,84.244,335.634,83.531,336.347z"/>
		<path style="fill:#FF9300;" d="M29.944,346.973c-0.714,0.714-1.871,0.714-2.584,0c-0.714-0.714-0.714-1.871,0-2.585
			c0.714-0.714,1.871-0.714,2.584,0C30.658,345.102,30.658,346.259,29.944,346.973z"/>
		<path style="fill:#FF9300;" d="M68.673,362.327c-0.714,0.714-1.871,0.714-2.585,0c-0.714-0.714-0.714-1.871,0-2.585
			c0.714-0.714,1.871-0.714,2.585,0C69.386,360.456,69.386,361.613,68.673,362.327z"/>
		<path style="fill:#BFBB2C;" d="M58.944,107.053c-0.714,0.714-1.871,0.714-2.584,0c-0.714-0.714-0.714-1.871,0-2.585
			c0.714-0.714,1.871-0.714,2.584,0C59.658,105.182,59.658,106.34,58.944,107.053z"/>
		<path style="fill:#BFBB2C;" d="M48.36,255.639c-0.714,0.714-1.871,0.714-2.584,0c-0.714-0.714-0.714-1.871,0-2.584
			c0.714-0.714,1.871-0.714,2.584,0C49.074,253.769,49.074,254.926,48.36,255.639z"/>
		<path style="fill:#BFBB2C;" d="M56.36,26.055c-0.714,0.714-1.871,0.714-2.584,0c-0.714-0.714-0.714-1.871,0-2.584
			c0.714-0.714,1.871-0.714,2.584,0C57.074,24.184,57.074,25.341,56.36,26.055z"/>
		<path style="fill:#BFBB2C;" d="M77.944,36.055c-0.714,0.714-1.871,0.714-2.584,0c-0.714-0.714-0.714-1.871,0-2.584
			c0.714-0.714,1.871-0.714,2.584,0C78.658,34.184,78.658,35.341,77.944,36.055z"/>
		<path style="fill:#FF9300;" d="M353.44,95.975c0,1.009-0.818,1.827-1.828,1.827s-1.827-0.818-1.827-1.827s0.818-1.827,1.827-1.827
			S353.44,94.965,353.44,95.975z"/>
		<path style="fill:#FF9300;" d="M469.854,98.561c0,1.009-0.818,1.827-1.827,1.827c-1.009,0-1.827-0.818-1.827-1.827
			c0-1.009,0.818-1.827,1.827-1.827C469.036,96.733,469.854,97.552,469.854,98.561z"/>
		<path style="fill:#BFBB2C;" d="M442.521,107.549c0,1.009-0.818,1.827-1.827,1.827c-1.009,0-1.827-0.818-1.827-1.827
			c0-1.009,0.818-1.827,1.827-1.827C441.703,105.722,442.521,106.54,442.521,107.549z"/>
		<circle style="fill:#FF9300;" cx="280.36" cy="90.055" r="1.828"/>
		<circle style="fill:#FF9300;" cx="250.94" cy="60.635" r="1.827"/>
		<path style="fill:#FF9300;" d="M156.521,13.055c0,1.009-0.818,1.827-1.827,1.827s-1.827-0.818-1.827-1.827
			s0.818-1.828,1.827-1.828S156.521,12.046,156.521,13.055z"/>
		<path style="fill:#FF9300;" d="M119.854,17.055c0,1.009-0.818,1.827-1.827,1.827c-1.009,0-1.827-0.818-1.827-1.827
			s0.818-1.828,1.827-1.828C119.036,15.227,119.854,16.046,119.854,17.055z"/>
		<circle style="fill:#E9381B;" cx="20.199" cy="17.055" r="1.827"/>
		<path style="fill:#FF9300;" d="M198.015,132.055c0,1.009-0.818,1.828-1.827,1.828c-1.009,0-1.827-0.818-1.827-1.828
			c0-1.009,0.818-1.827,1.827-1.827C197.197,130.227,198.015,131.046,198.015,132.055z"/>
		<path style="fill:#FF9300;" d="M220.688,154.727c0,1.009-0.818,1.827-1.827,1.827c-1.009,0-1.828-0.818-1.828-1.827
			c0-1.009,0.818-1.827,1.828-1.827C219.869,152.9,220.688,153.718,220.688,154.727z"/>
		<path style="fill:#FF9300;" d="M295.854,300.561c0,1.009-0.818,1.827-1.827,1.827s-1.828-0.818-1.828-1.827
			c0-1.009,0.818-1.828,1.828-1.828S295.854,299.552,295.854,300.561z"/>
		<path style="fill:#FF9300;" d="M313.544,312.875c0.563,0.838,0.34,1.973-0.498,2.536c-0.838,0.563-1.973,0.34-2.536-0.498
			c-0.563-0.838-0.34-1.973,0.498-2.536C311.845,311.814,312.981,312.037,313.544,312.875z"/>
		<path style="fill:#E9381B;" d="M270.377,278.009c0.946,0.352,1.427,1.404,1.076,2.35c-0.352,0.946-1.404,1.428-2.35,1.076
			c-0.946-0.352-1.427-1.404-1.075-2.35C268.379,278.138,269.431,277.657,270.377,278.009z"/>
		<path style="fill:#E9381B;" d="M292.693,265.055c0.628,0.79,0.498,1.939-0.292,2.568c-0.79,0.629-1.939,0.498-2.568-0.292
			c-0.628-0.79-0.498-1.939,0.292-2.568C290.915,264.134,292.065,264.265,292.693,265.055z"/>
		<path style="fill:#E9381B;" d="M357.188,129.883c0,1.009-0.818,1.827-1.828,1.827s-1.827-0.818-1.827-1.827
			c0-1.009,0.818-1.828,1.827-1.828S357.188,128.873,357.188,129.883z"/>
		<path style="fill:#E9381B;" d="M357.188,16.882c0,1.009-0.818,1.827-1.828,1.827s-1.827-0.818-1.827-1.827
			s0.818-1.827,1.827-1.827S357.188,15.873,357.188,16.882z"/>
		<path style="fill:#3C69B6;" d="M472.188,20.882c0,1.009-0.818,1.827-1.828,1.827s-1.827-0.818-1.827-1.827
			s0.818-1.827,1.827-1.827S472.188,19.873,472.188,20.882z"/>
	</g>
	<g>
		<path style="fill:#BFBB2C;" d="M244.754,322.133c-1.393-6.164-2.675-14.194,2.762-17.415c3.721-2.204,8.718-0.448,11.717,2.668
			c2.999,3.116,4.577,7.285,6.51,11.154c1.933,3.869,4.548,7.756,8.574,9.336c4.967,1.949,10.9-0.083,15.743,2.156
			c2.293,1.06,4.072,2.972,5.655,4.941c1.97,2.451,3.773,5.155,4.42,8.232c0.646,3.077-0.076,6.604-2.477,8.634
			c-2.372,2.006-5.747,2.168-8.647,3.281c-6.236,2.395-9.713,8.852-13.219,14.538c-3.506,5.686-8.567,11.598-15.247,11.577
			c-5.257-0.017-10.047-4.227-11.24-9.346c-2.264-9.71-12.91-10.633-12.02-19.622c0.442-4.463,6.878-9.057,8.167-13.88
			C246.855,333.14,245.928,327.323,244.754,322.133z"/>
		<path style="fill:#BFBB2C;" d="M291.067,362.508c-3.014,2.004-5.415,4.917-6.808,8.257c-0.336,0.805-0.618,1.661-0.566,2.532
			c0.147,2.43,2.975,4.004,5.378,3.614c2.403-0.39,4.342-2.163,5.887-4.045c1.192-1.452,2.268-3.074,2.631-4.917
			s-0.122-3.948-1.596-5.112c-1.474-1.164-3.974-0.973-4.938,0.639"/>
		<g>
			<g>
				<path style="fill:#BFBB2C;" d="M234.908,336.06c0.654-5.566,1.307-11.132,1.961-16.698c-1.667,0-3.333,0-5,0
					c-0.105,2.93-0.21,5.859-0.314,8.789c1.423-0.589,2.845-1.179,4.268-1.768c-2.378-2.691-3.465-6.02-2.946-9.6
					c0.205-1.413-0.614-3.368-2.411-3.165c-3.331,0.378-5.94,2.268-6.431,5.748c-0.444,3.147,4.373,4.507,4.821,1.329
					c0.537-0.692,1.073-1.385,1.61-2.077c-0.804-1.055-1.607-2.11-2.411-3.165c-0.795,5.482,0.547,10.295,4.232,14.464
					c1.505,1.703,4.195,0.272,4.268-1.768c0.105-2.93,0.21-5.859,0.314-8.789c0.118-3.287-4.635-3.112-5,0
					c-0.654,5.566-1.307,11.132-1.961,16.698C229.533,339.25,234.536,339.223,234.908,336.06L234.908,336.06z"/>
			</g>
		</g>
	</g>
	<g>
		<path style="fill:#FF9300;" d="M435.373,174.463c-5.668-2.421-9.464-8.649-9.019-14.796c0.249-3.435,1.682-6.855,0.972-10.226
			c-0.876-4.163-4.738-7.002-6.538-10.856c-1.93-4.132-1.157-9.381,1.882-12.781c3.039-3.4,8.169-4.755,12.491-3.299
			c3.538,1.192,6.269,3.964,9.3,6.144c3.031,2.18,6.987,3.84,10.438,2.417c3.025-1.247,5.008-4.628,8.238-5.154
			c2.245-0.365,4.471,0.799,6.208,2.267c3.683,3.113,6.022,8.224,4.671,12.853c-1.75,5.994-9.025,9.963-8.691,16.198
			c0.205,3.837,3.317,6.807,4.893,10.311c2.455,5.46,0.524,12.697-4.635,15.733c-6.469,3.808-9.754-0.589-14.612-3.492
			C446.024,176.827,440.718,176.746,435.373,174.463z"/>
		<g>
			<g>
				<path style="fill:#FF9300;" d="M411.852,144.479c2.012,1.669,3.673,3.56,5.012,5.805c1.309-1.01,2.618-2.02,3.926-3.029
					c-1.7-1.317-3.423-2.303-5.448-3.041c-2.205-0.803-3.722,1.889-2.823,3.673c0.53,1.051,1.059,2.103,1.589,3.154
					c1.309-1.01,2.618-2.02,3.926-3.029c-1.342-1.537-3.043-2.219-5.035-2.433c-1.317-0.141-2.54,1.26-2.5,2.5
					c0.07,2.195,0.805,3.958,2.209,5.63c2.072,2.467,5.593-1.086,3.535-3.536c-0.525-0.625-0.719-1.294-0.745-2.095
					c-0.833,0.833-1.667,1.667-2.5,2.5c0.666,0.072,1.083,0.492,1.499,0.968c1.953,2.237,5.145-0.611,3.926-3.03
					c-0.53-1.051-1.059-2.103-1.589-3.154c-0.941,1.224-1.882,2.448-2.823,3.673c1.152,0.42,2.269,1.001,3.242,1.755
					c2.087,1.617,5.504-0.383,3.926-3.03c-1.545-2.59-3.472-4.891-5.794-6.817C412.928,138.904,409.372,142.422,411.852,144.479
					L411.852,144.479z"/>
			</g>
		</g>
		<g>
			<g>
				<path style="fill:#FF9300;" d="M482.464,187.979c0.962,0.902,1.266,1.771,1.186,3.065c1.055-0.804,2.11-1.607,3.165-2.411
					c-1.639-0.378-3.111-0.376-4.735,0.075c-1.3,0.361-2.107,1.768-1.746,3.075c0.632,2.286,1.264,4.572,1.895,6.858
					c0.856,3.097,5.681,1.782,4.821-1.329c-0.632-2.286-1.264-4.572-1.895-6.857c-0.582,1.025-1.164,2.05-1.746,3.075
					c0.775-0.215,1.285-0.258,2.077-0.075c1.653,0.382,3.062-0.751,3.165-2.411c0.157-2.545-0.796-4.861-2.651-6.601
					C483.654,182.243,480.111,185.772,482.464,187.979L482.464,187.979z"/>
			</g>
		</g>
	</g>
	<g>
		<path style="fill:#9B8BB3;" d="M46.101,146.728c1.396-2.305,2.844-4.667,4.995-6.29c2.151-1.623,5.2-2.354,7.575-1.079
			c3.009,1.615,3.844,5.655,6.526,7.77c4.112,3.243,10.247,0.626,15.3,2.004c5.964,1.627,9.055,8.87,7.768,14.916
			c-1.287,6.047-5.859,10.884-10.879,14.492c-5.018,3.605-17.132,2.72-22.017,6.509c-5.815,4.51-4.215,11.491-8.449,16.544
			c-4.884,5.83-13.89,4.965-17.693-1.611c-4.696-8.121-3.09-20.559-0.121-28.983C32.763,160.624,40.805,155.468,46.101,146.728z"/>
		<g>
			<g>
				<path style="fill:#9B8BB3;" d="M29.072,132.705c0.832-2.14,0.905-4.284,0.498-6.525c-0.532-2.935-4.708-1.975-4.911,0.665
					c-0.082,1.069-0.518,1.878-1.141,2.722c1.439,0,2.878,0,4.317,0c-0.395-0.834-0.791-1.668-1.186-2.502
					c-1.016-2.144-3.876-1.203-4.569,0.597c-0.518,1.344-0.624,2.759-0.604,4.187c0.019,1.314,0.285,2.773-0.334,3.986
					c1.523,0.642,3.046,1.284,4.569,1.926c0.753-1.818,1.831-3.495,3.118-4.976c-1.393-0.368-2.786-0.736-4.178-1.103
					c0.427,1.418,0.997,2.767,1.718,4.061c1.567,2.811,5.887,0.292,4.317-2.524c-0.519-0.931-0.908-1.847-1.214-2.866
					c-0.51-1.693-2.897-2.577-4.179-1.103c-1.895,2.18-3.302,4.518-4.404,7.182c-1.082,2.613,3.292,4.431,4.569,1.926
					c0.764-1.498,1.052-2.996,1.066-4.674c0.014-1.624-0.221-3.144,0.377-4.694c-1.523,0.199-3.046,0.398-4.569,0.597
					c0.395,0.834,0.791,1.668,1.186,2.503c0.886,1.869,3.315,1.358,4.317,0c1.16-1.572,1.676-3.316,1.823-5.245
					c-1.637,0.222-3.274,0.443-4.911,0.665c0.248,1.37,0,2.585-0.498,3.867C23.085,134.377,27.918,135.677,29.072,132.705
					L29.072,132.705z"/>
			</g>
		</g>
		<g>
			<g>
				<path style="fill:#9B8BB3;" d="M62.684,185.401c-2.493,0.246-4.277,1.593-5.58,3.704c-1.199,1.942-2.719,5.089-0.771,7.038
					c2.044,2.045,5.194,0.254,7.009-1.173c2.003-1.575,3.395-3.696,4.153-6.12c0.482-1.543-0.827-3.188-2.411-3.165
					c-3.866,0.057-6.698,2.948-7.138,6.685c-0.158,1.343,1.262,2.5,2.5,2.5c1.483,0,2.341-1.153,2.5-2.5
					c0.118-0.999,1.228-1.672,2.138-1.685c-0.804-1.055-1.607-2.11-2.411-3.165c-0.352,1.127-0.936,2.121-1.771,2.961
					c-0.568,0.571-1.762,1.634-2.518,1.554c0.421,0.114,0.841,0.228,1.262,0.341c-0.095-0.053-0.19-0.107-0.285-0.16
					c0.299,0.299,0.598,0.598,0.897,0.897c-0.064-0.103-0.128-0.205-0.192-0.308c0.114,0.421,0.227,0.841,0.341,1.262
					c-0.094-0.892,1.203-3.56,2.274-3.666c1.344-0.132,2.5-1.054,2.5-2.5C65.184,186.652,64.036,185.268,62.684,185.401
					L62.684,185.401z"/>
			</g>
		</g>
	</g>
	<g>
		<g>
			<g>
				<path style="fill:#A8451A;" d="M147.025,441.911c0,0-4.281-44.27-4.344-66.213c3.982,0.852,21.83,0.361,22.485,0.67
					c0.831,0.392,1.393,69.314,1.722,72.623"/>
				<path style="fill:#003F2B;" d="M165.984,296.899c0.203,37.465,0.578,66.926,3.569,105.225c0.295,3.772-2.105,7.229-5.743,8.269
					c-5.301,1.515-9.023,3.515-17.302,2.43c-4.251-0.557-6.481-4.6-6.262-8.881c1.86-36.281-1.809-72.415,1.29-108.134"/>
				<path style="fill:#A8451A;" d="M163.942,439.321c2.707,4.229,3.531,8.78,7.792,11.437c4.532,2.826,7.012,3.641,11.23,6.366
					c0.042,0.027,0.084,0.054,0.126,0.081c3.855,2.474,2.127,8.435-2.454,8.435h-22.658c-5.161,0-9.454-3.968-9.854-9.114
					c-0.52-6.691-1.098-14.615-1.098-14.615"/>
				<path style="fill:#003F2B;" d="M144.102,409.754c0.423,3.401,0.667,7.583,0.917,11.167c7.185,0.051,14.394-0.075,21.521-0.991
					c0-5.188-0.191-9.856,0.432-14.995"/>
			</g>
			<path style="fill:#BFBB2C;" d="M168.683,390.577c0.012,0.17-7.275,5.153-12.606,2.488c-0.766-0.383-2.966-2.153-2.53-4.536
				c0.368-2.015,3.533-3.893,4.827-5.081c2.627-2.412,1.332-5.464,0.566-8.948c-0.355-1.615-0.62-3.689,0.245-5.193
				c1.629-2.833,5.476-1.005,6.603,1.225c0.749,1.482,1.963,4.544,1.963,4.544S168.683,390.576,168.683,390.577z"/>
			<path style="fill:#BFBB2C;" d="M167.742,375.125c0.932,7.343,1.236,14.825,1.71,22.211c-1.505,0.308-3.144,0.6-4.517-0.089
				c-0.904-0.453-1.557-1.271-2.283-1.975c-0.725-0.704-1.643-1.343-2.652-1.274"/>
			<ellipse style="fill:#BFBB2C;" cx="157.608" cy="396.749" rx="1.148" ry="0.789"/>
		</g>
		<path style="fill:#E9381B;" d="M132.164,239.974c-14.513,19.897-31.636,38.427-52.986,50.704
			c-2.722-3.739-5.028-10.488-7.75-14.227c8.604-4.76,16.256-11.232,22.378-18.927c9.346-11.748,16.861-23.324,26.03-35.21"/>
		<g>
			<path style="fill:#0D060E;" d="M156.842,159.934c1.148,7.942,4.401,10.047,5.454,14.496c0.924,3.908-0.905,6.654,0.567,9.277
				c2.009,3.58,7.022,3.605,10.853,5.082c4.649,1.792,8.04,6.47,8.297,11.446c0.257,4.976-2.633,9.978-7.073,12.24
				c-1.949,0.993-4.115,1.477-6.27,1.856c-3.704,0.651-7.459,1.019-11.219,1.1c-5.624,0.12-11.711-0.591-15.864-4.385
				c-4.756-4.345-5.644-11.543-4.889-17.94c0.79-6.692,3.021-13.088,5.592-19.281c2.222-5.352,4.352-13.514,7.945-17.892
				C152.652,157.773,156.345,156.496,156.842,159.934z"/>
			
				<path style="fill:none;stroke:#0D060E;stroke-width:0.8611;stroke-linecap:round;stroke-linejoin:round;stroke-miterlimit:10;" d="
				M161.332,182.032c0.06,2.296,2.224,4.039,4.438,4.652c2.214,0.613,4.565,0.434,6.838,0.763c3.37,0.488,6.608,2.172,8.713,4.849
				s2.974,6.361,2.007,9.626c-0.967,3.265-3.857,5.953-7.232,6.41"/>
			<path style="fill:#0D060E;" d="M121.248,185.516c-5.615-0.38-11.571,1.75-14.918,6.274c-4.365,5.9-2.943,15.248,2.978,19.584
				c2.445,1.791,6.288,1.755,9.291,1.34c3.814-0.526,7.909-1.185,10.655-3.883c2.79-2.741,3.501-6.924,3.814-10.822
				c0.346-4.308,0.386-8.641,0.119-12.955C129.78,184.831,124.653,185.747,121.248,185.516z"/>
			<path style="fill:#0D060E;" d="M113.976,196.006c-0.808,0.193-2.361-5.46-2.493-6.147c-0.709-3.672-0.304-7.639,1.501-10.949
				c0.911-1.671,2.2-3.268,3.781-4.351c1.658-1.135,2.173-1.854,3.335-3.622c4.401-6.698,4.496-14.15,9.568-18.945
				c4.326-4.089,16.108-4.57,20.476-0.526c-3.603,4.092-10.87,9.805-12.128,15.11c-0.487,2.053-0.581,4.176-0.673,6.283
				c-0.168,3.856-0.336,7.712-0.505,11.568c-0.032,0.744-0.076,6.738-0.472,7.369c-0.497,0.793-1.435,1.173-2.314,1.497
				C127.611,195.669,120.655,194.406,113.976,196.006z"/>
			
				<path style="fill:none;stroke:#0D060E;stroke-width:0.8611;stroke-linecap:round;stroke-linejoin:round;stroke-miterlimit:10;" d="
				M112.769,188.641c-2.445-4.476-2.145-10.653,1.798-14.167c2.224-1.981,5.185-2.742,7.386-4.704
				c2.839-2.529,5.586-5.424,6.664-9.07"/>
			
				<path style="fill:none;stroke:#0D060E;stroke-width:0.8611;stroke-linecap:round;stroke-linejoin:round;stroke-miterlimit:10;" d="
				M107.388,210.2c-2.275-3.936-3.975-8.337-3.962-12.882c0.012-4.546,1.961-9.244,5.737-11.775
				c1.713-1.148,3.914-1.815,5.855-1.119"/>
		</g>
		<g>
			<path style="fill:#C15C27;" d="M78.968,419.187c0,0,21.969-38.672,34.542-56.656c2.767,2.988,17.648,12.854,18.006,13.484
				c0.454,0.799-35.372,52.125-37.006,55.021"/>
			<path style="fill:#C15C27;" d="M95.271,427.463c-0.718,4.664-1.904,7.931,0.052,12.556c2.081,4.919,3.641,7.012,5.522,11.668
				c1.223,3.026,2.208,4.552,1.534,6.291c-0.814,2.1-3.466,2.792-5.358,1.57c-6.477-4.186-22.747-14.651-22.747-14.651
				c-4.222-2.97-5.45-8.685-2.817-13.124c3.424-5.772,7.511-12.585,7.511-12.585"/>
			<path style="fill:#00694C;" d="M144.212,294.942c-1.919,18.708,9.353,35.243,4.593,54.73
				c-4.434,18.151-21.194,38.527-30.032,55.929c-2.224,4.38-7.59,6.104-12.004,3.949c-6.243-3.048-9.223-4.389-14.785-8.744
				c-3.788-2.967-4.632-8.338-2.025-12.383c8.717-13.524,21.451-32.809,25.727-47.445c5.097-17.446-5.569-31.999-2.476-47.568"/>
			
				<path style="fill:none;stroke:#003F2B;stroke-width:0.8611;stroke-linecap:round;stroke-linejoin:round;stroke-miterlimit:10;" d="
				M93.692,395.6c0,0,13.383-23.99,21.098-38.608c3.765-7.135,7.176-17.366,7.32-23.681"/>
			<path style="fill:#00694C;" d="M92.349,396.386c-1.764,2.33-3.282,4.845-4.521,7.491c2.627,4.54,15.381,11.368,17.874,11.164
				c2.062-3.894,4.344-7.672,6.831-11.309"/>
			
				<path style="fill:none;stroke:#0D060E;stroke-width:0.9217;stroke-linecap:round;stroke-linejoin:round;stroke-miterlimit:10;" d="
				M81.878,430.549c0.331,1.501,0.661,3.001,0.992,4.502"/>
			
				<path style="fill:none;stroke:#003F2B;stroke-width:0.8611;stroke-linecap:round;stroke-linejoin:round;stroke-miterlimit:10;" d="
				M90.765,398.183c5.863,3.957,11.725,7.913,17.588,11.87"/>
		</g>
		<g>
			<path style="fill:#8C1871;" d="M95.031,323.647c14.545,5.857,60.089,22.007,78.269,11.865
				c0.383-29.47-19.902-66.212-8.706-110.299c2.813-11.078-5.599-21.503-11.268-32.411c-6.504-3.217-9.857-4.497-17.295-5.167
				c-1.725-0.155-15.835,4.832-20.237,6.746c-1.948,8.135-3.23,18.525-4.593,36.742C108.044,273.318,93.118,298.578,95.031,323.647z
				"/>
			<path style="fill:#7A0B65;" d="M95.031,323.647c23.404,12.88,67.121,19.28,78.532,12.176c0,0-0.287-5.382-0.646-7.104
				c-20.859,2.009-34.733,0.478-56.261-5.263c-4.678-1.247-17.093-5.687-21.744-7.033C94.72,319.03,94.696,320.92,95.031,323.647z"
				/>
			
				<path style="fill:none;stroke:#510149;stroke-width:0.8611;stroke-linecap:round;stroke-linejoin:round;stroke-miterlimit:10;" d="
				M95.646,315.703c19.287,8.852,38.653,13.042,58.709,14.067c5.909,0.302,12.753,0.071,18.563-1.052"/>
			<path style="fill:#FF9300;" d="M172.774,324.987c-0.931-1.832-3.357-2.88-5.197-3.794c-1.84-0.914-3.801-1.664-5.37-2.991
				c-1.569-1.327-2.697-3.431-2.184-5.42c0.357-1.385,1.445-2.51,1.719-3.913c0.802-4.111-5.461-6.814-5.189-10.993
				c0.173-2.664,3.335-4.442,5.913-3.753s4.877,3.224,5.5,5.82C170.094,308.816,171.52,315.524,172.774,324.987z"/>
			<path style="fill:#FF9300;" d="M158.509,305.019c-0.314-1.537-1.185-2.954-2.416-3.928c-0.32-0.253-0.678-0.483-1.082-0.54
				c-0.404-0.057-0.861,0.099-1.053,0.459c-0.534,1.002,0.2,2.398,1.094,3.098C155.947,304.809,157.399,305.259,158.509,305.019z"/>
			
				<path style="fill:none;stroke:#510149;stroke-width:0.8676;stroke-linecap:round;stroke-linejoin:round;stroke-miterlimit:10;" d="
				M95.539,320.728c0.214-0.998,1.584-1.366,2.531-0.954c0.947,0.413,1.557,1.316,2.137,2.16c0.581,0.844,1.25,1.724,2.235,2.039
				c1.95,0.624,4.034-1.257,6.004-0.698c2.24,0.636,2.796,3.945,5.044,4.555c2.211,0.6,4.495-1.867,6.637-1.059
				c0.88,0.332,1.44,1.12,1.972,1.937c0.948,1.453,2.738,2.093,4.404,1.608c3.594-1.045,5.339,0.206,7.151,2.073
				c0.628,0.647,1.143,1.442,1.951,1.853c3.112,1.583,6.59-3.737,9.754-2.256c1.697,0.795,2.288,3.268,4.133,3.62
				c2.363,0.452,3.926-3.011,6.332-2.937c2.387,0.073,3.773,3.58,6.131,3.203c1.829-0.292,2.514-2.741,4.26-3.354
				c2.28-0.8,4.758,1.979,6.984,1.044"/>
		</g>
		<g>
			<path style="fill:#7A0B65;" d="M159.713,242.029c6.315,0.957,22.795-8.128,22.773-8.898
				c-0.017-0.586-12.883-30.024-18.371-33.872l-10.788-6.459C153.326,192.801,159.425,236.045,159.713,242.029z"/>
			<path style="fill:#FF9167;" d="M177.319,221.553c-3.566-0.346-6.566-2.445-6.971-6.005c-0.197-1.729,0.17-3.552-0.464-5.172
				c-0.523-1.337-1.654-2.335-2.388-3.568c-0.735-1.233-1.027-2.654,0.111-3.53C171.71,209.55,174.693,214.533,177.319,221.553z"/>
		</g>
		<g>
			<path style="fill:#A8451A;" d="M146.903,183.938c-0.193-5.527-2-7.196-3.673-12.457c-3.905-0.446-7.748-0.395-11.678-0.346
				c0.146,5.864,0.053,11.734-0.278,17.59c0,0,0.069,0.463,0.069,0.464c0.578,3.513,3.588,6.372,7.112,6.949
				c3.397,0.556,8.818-1.455,8.677-5.574C147.131,190.564,146.903,183.938,146.903,183.938z"/>
			<g>
				<path style="fill:#C15C27;" d="M131.542,165.488c-2.311-0.938-5.154,0.837-5.713,3.267c-0.559,2.43,0.879,5.044,3.04,6.287
					c2.162,1.243,4.868,1.268,7.253,0.538"/>
				
					<path style="fill:none;stroke:#0D060E;stroke-width:0.8611;stroke-linecap:round;stroke-linejoin:round;stroke-miterlimit:10;" d="
					M128.019,169.981c-0.019-0.689,0.339-1.376,0.914-1.755c0.575-0.379,1.349-0.437,1.974-0.147"/>
				<g>
					<path style="fill:#C15C27;" d="M132.298,159.335c1.976-5.552,7.837-9.927,13.459-8.579c1.678,0.402,3.224,1.265,4.597,2.326
						c2.21,1.708,4.319,1.867,5.532,4.412c1.051,2.206,1.233,7.592,1.34,10.047c0.154,3.543-0.264,7.404-1.662,10.681
						c-0.735,1.722-1.834,3.454-3.122,4.485c-1.815,1.453-5.413,1.67-7.66,1.177c-6.174-1.355-11.448-5.292-13.608-10.225
						C129.228,169.214,130.669,163.918,132.298,159.335z"/>
					<g>
						<path style="fill:#A5311B;" d="M156.977,171.99c0,0-0.032-0.019-0.066-0.051c-0.72-0.68-1.321-1.658-1.234-2.501
							c0.086-0.841,0.699-1.62,1.447-2.103c0.038-0.025,0.115-0.072,0.115-0.072s0.038,1.581,0.016,2.107
							C157.227,170.038,156.977,171.99,156.977,171.99z"/>
						<path style="fill:#A5311B;" d="M144.069,171.057c0,1.387-1.125,2.512-2.512,2.512c-1.387,0-2.512-1.124-2.512-2.512
							c0-1.387,1.124-2.512,2.512-2.512C142.944,168.545,144.069,169.67,144.069,171.057z"/>
					</g>
					<g>
						<path style="fill:#FFFFFF;" d="M154.355,172.181c-0.902,2.082-2.08,3.837-4.355,3.494c-1.252-0.188-2.909-2.035-3.491-3.16
							C148.805,174.047,151.771,174.382,154.355,172.181z"/>
						<g>
							<path style="fill:#0D060E;" d="M156.206,166.25c-0.389-0.015-0.67,0.022-0.935,0.072c-0.262,0.06-0.504,0.119-0.738,0.212
								c-0.24,0.077-0.464,0.185-0.704,0.304c-0.236,0.129-0.478,0.278-0.771,0.535c-0.136-0.371-0.031-0.795,0.193-1.119
								c0.22-0.335,0.56-0.57,0.929-0.711c0.374-0.123,0.786-0.156,1.169-0.036C155.726,165.617,156.076,165.878,156.206,166.25z"/>
						</g>
						<g>
							<path style="fill:#0D060E;" d="M143.775,167.501c0.082-0.424,0.44-0.751,0.815-0.931c0.382-0.193,0.807-0.252,1.221-0.233
								c0.413,0.039,0.826,0.153,1.179,0.399c0.347,0.23,0.659,0.611,0.667,1.045c-0.381-0.182-0.688-0.233-0.998-0.291
								c-0.31-0.044-0.612-0.087-0.92-0.101c-0.307-0.032-0.613-0.028-0.928-0.029C144.494,167.373,144.18,167.384,143.775,167.501z
								"/>
						</g>
						<g>
							<path style="fill:#0D060E;" d="M143.08,163.976c0.344-0.645,0.952-1.032,1.592-1.256c0.647-0.202,1.367-0.251,2.027,0.065
								c-0.625,0.368-1.183,0.552-1.758,0.753C144.36,163.716,143.8,163.899,143.08,163.976z"/>
						</g>
						<g>
							<path style="fill:#0D060E;" d="M152.311,162.418c0.599-0.419,1.316-0.489,1.988-0.398c0.669,0.113,1.332,0.395,1.778,0.976
								c-0.724,0.045-1.305-0.044-1.908-0.125C153.57,162.765,152.988,162.676,152.311,162.418z"/>
						</g>
						
							<path style="fill:none;stroke:#0D060E;stroke-width:0.8611;stroke-linecap:round;stroke-linejoin:round;stroke-miterlimit:10;" d="
							M150.498,166.325c0.403,0.824,0.8,1.652,1.19,2.483c0.123,0.262,0.247,0.53,0.278,0.818c0.051,0.468-0.154,0.936-0.455,1.298
							c-0.301,0.363-0.692,0.637-1.077,0.908"/>
					</g>
					<g>
						<path style="fill:#0D060E;" d="M147.572,150.859C147.848,150.748,147.69,149.699,147.572,150.859
							c-0.872,8.597-10.968,11.766-16.349,13.596c-0.605-4.282,0.761-7.751,3.999-10.617
							C138.461,150.972,142.586,149.026,147.572,150.859z"/>
						<path style="fill:#0D060E;" d="M156.938,161.512c-5.326-1.793-10.511-6-11.362-11.554c3.516,0.311,7.248,2.129,8.779,3.851
							c2.235,2.515,2.772,5.69,2.775,7.176C157.13,161.307,157.242,161.615,156.938,161.512z"/>
						<path style="fill:#0D060E;" d="M130.051,163.091c0.115,1.404,0.933,4.497,1.293,6.032c2.917,1.12,3.172-5.158,4.858-7.64"/>
						
							<path style="fill:none;stroke:#0D060E;stroke-width:0.8611;stroke-linecap:round;stroke-linejoin:round;stroke-miterlimit:10;" d="
							M145.289,150.389c2.566-0.54,6.772,0.514,8.875,2.081c3.241,2.416,2.249,8.36,2.249,8.36"/>
						
							<path style="fill:none;stroke:#0D060E;stroke-width:0.8611;stroke-linecap:round;stroke-linejoin:round;stroke-miterlimit:10;" d="
							M133.663,163.522c3.295-0.062,6.769-0.65,9.171-2.906c2.402-2.256,4.535-5.634,4.197-8.708"/>
					</g>
				</g>
				<path style="fill:#FF9300;" d="M131.439,173.664c-0.884,0.323-0.358,3.282-0.646,5.394c-0.066,0.48-0.592,2.092-1.842,1.686
					c-0.816-0.265-1.048-1.083-1.244-1.722c-0.425-1.387-0.41-3.6-0.182-5.032l-0.694-0.792c-0.774,1.452-1.466,4.794-1.327,6.303
					c0.165,1.8,1.123,3.589,2.721,4.432c0.725,0.382,1.596,0.557,2.372,0.292c1.456-0.497,2.019-2.261,2.106-3.797
					C132.875,177.389,132.305,176.582,131.439,173.664z"/>
			</g>
		</g>
		<g>
			<path style="fill:#9B8BB3;" d="M217.307,260.022c-15.9,6.406-28.124,13.295-48.375,21.31
				c-12.951-7.154-18.404-19.784-18.724-31.403c13.855-10.447,26.507-18.889,38.785-31.151
				C190.427,233.705,200.474,251.502,217.307,260.022z"/>
			<path style="fill:#54439C;" d="M188.992,218.779c9.212,2.359,15.984,10.306,21.402,18.122
				c7.734,11.157,6.825,22.161,6.913,23.122C197.46,249.564,189.666,231.879,188.992,218.779z"/>
			<path style="fill:#FF9300;" d="M192.508,233.849c2.28-2.475,4.884-5.169,7.067-8.01c5.838-7.596,15.179-14.075,23.843-18.162
				c7.392-3.488,15.714-5.165,23.831-4.404c3.604,0.338,5.066,5.065,2.128,7.179c-0.233,0.168-0.479,0.307-0.737,0.412
				c-2.961,1.208-6.442,1.014-8.86,3.538c-1.163,1.215-1.536,3.064-0.625,4.477c1.168,1.813,3.539,1.626,5.56,1.574
				c2.966-0.077,5.946,0.424,8.722,1.473c1.164,0.44,2.206,1.219,2.788,2.318c1.823,3.444-1.966,6.539-5.366,7.615
				c-2.839,0.899-5.83,1.317-8.807,1.231c-3.616-0.104-8.388,0.719-11.993,0.425c-5.373-0.439-10.308,4.606-4.023,6.803
				c1.69-0.266,3.158,1.622,2.92,3.316c-0.238,1.694-1.697,3-3.29,3.626c-1.593,0.626-3.335,0.716-5.032,0.933
				c-4.645,0.596-9.012,2.161-13.181,4.263c-0.278,0.14-0.831,0.427-0.831,0.427S195.699,245.772,192.508,233.849"/>
			<path style="fill:#FF9300;" d="M256.711,216.56c0,1.332-2.455,2.413-5.483,2.413c-3.028,0-7.424-1.768-7.53-2.193
				c-0.11-0.439,4.502-2.632,7.53-2.632C254.256,214.147,256.711,215.227,256.711,216.56z"/>
			<path style="fill:#FF9300;" d="M262.955,220.152c0,0.903-1.664,1.636-3.717,1.636c-2.053,0-3.718-1.636-3.718-1.636
				c0-0.448,1.664-1.636,3.718-1.636C261.29,218.516,262.955,219.249,262.955,220.152z"/>
			<path style="fill:#FF9300;" d="M250.716,195.061c0.242,0.87-1.166,2.021-3.145,2.57c-1.978,0.549-4.02-0.582-4.02-0.582
				c-0.12-0.432,1.167-2.021,3.145-2.57C248.675,193.93,250.475,194.191,250.716,195.061z"/>
			
				<path style="fill:none;stroke:#54439C;stroke-width:1.1482;stroke-linecap:round;stroke-linejoin:round;stroke-miterlimit:10;" d="
				M183.328,226.429c0.793,15.39,12.553,29.474,23.843,36.363"/>
			<path style="fill:none;stroke:#F9E4D9;stroke-linecap:round;stroke-linejoin:round;stroke-miterlimit:10;" d="M253.215,223.252
				c1.325,1.104,1.508,3.326,0.382,4.633"/>
			<path style="fill:none;stroke:#F9E4D9;stroke-linecap:round;stroke-linejoin:round;stroke-miterlimit:10;" d="M243.845,204.864
				c2.052-0.367,4.27,1.005,4.856,3.006"/>
			<path style="fill:none;stroke:#F9E4D9;stroke-linecap:round;stroke-linejoin:round;stroke-miterlimit:10;" d="M213.931,215.576
				c4.266-3.221,9.2-5.552,14.396-6.803"/>
		</g>
		<path style="fill:#E9381B;" d="M98.98,288.002c25.613-24.129,45.85-53.306,54.372-87.447c0.508-2.034,0.73-5.798-0.026-7.754
			c6.268,0.944,6.771,7.935,6.493,14.268c-1.829,41.754-27.139,85.156-66.669,102.4"/>
		<g>
			<path style="fill:#C15C27;" d="M152.68,251.646c0,0,18.802-0.287,19.663,3.014c0.535,2.049,0.469,4.65-1.005,6.172
				c-4.401,4.545-11.955,3.551-18.084,3.11"/>
			<path style="fill:#C15C27;" d="M148.423,251.973c2.47-1.711,7.036-6.01,9.056-4.924c0.23,0.123,0.447,0.296,0.516,0.58
				c0.139,0.573-0.348,1.295-0.793,1.867c-0.819,1.055-1.638,2.109-2.456,3.164"/>
			<path style="fill:#C15C27;" d="M111.995,226.189c-1.178,4.872-4.812,12.121-4.812,12.121s47.472,13.678,47.363,14.532
				c-0.618,4.824,0.574,11.099,0.574,11.099c-20.093-2.105-44.78-0.239-63.868-9.712c-3.488-1.731-7.54-4.718-7.607-8.611
				c-0.035-2.045,0.819-5.897,1.838-7.67c2.79-4.856,7.141-16.028,9.931-20.884"/>
			
				<path style="fill:none;stroke:#FF9300;stroke-width:1.7223;stroke-linecap:round;stroke-linejoin:round;stroke-miterlimit:10;" d="
				M138.255,263.822c-0.149,1.304-1.975,1.84-3.102,1.167c-1.127-0.673-1.62-2.049-1.815-3.348c-0.711-4.737,1.457-9.46,4.266-13.34
				c0.672-0.928,1.489-1.894,2.619-2.084c1.13-0.19,2.446,0.947,1.972,1.989"/>
			
				<path style="fill:none;stroke:#FF9300;stroke-width:1.7223;stroke-linecap:round;stroke-linejoin:round;stroke-miterlimit:10;" d="
				M135.705,245.717c-0.263-1.5-2.263-2.145-3.659-1.537c-1.396,0.608-2.257,2.017-2.896,3.399
				c-1.928,4.166-2.656,8.879-2.076,13.433c0.094,0.736,0.226,1.484,0.592,2.129c0.366,0.645,1.006,1.177,1.746,1.228
				c0.728,0.051,1.407-0.357,1.981-0.808"/>
			<path style="fill:#A8451A;" d="M108.403,235.858c-3.277-1.148-13.563-6.243-17.707-8.988c0.018,0.054-0.975,2.018-1.274,2.906
				c5.705,3.068,11.59,5.938,18.072,7.972C107.494,237.748,108.403,235.93,108.403,235.858z"/>
			<path style="fill:#A5311B;" d="M85.272,238.394c-1.568,2.462-2.273,6.085-1.34,8.851c0.934,2.766,4.006,5.593,6.746,6.602
				C90.006,248.91,87.134,243.014,85.272,238.394z"/>
		</g>
		<g>
			<path style="fill:#8C1871;" d="M106.035,199.546c-4.48,5.641-14.448,17.701-17.319,25.356
				c6.663,6.525,27.844,11.099,32.819,9.951c1.909-5.74,14.551-32.289,13.778-35.594c0.658,2.815-5.885-9.616-5.885-9.616
				S111.202,193.04,106.035,199.546z"/>
			<path style="fill:#7A0B65;" d="M114.933,237.437c0,0,2.44-6.889,2.44-6.602c-10.047-2.512-16.17-7.176-25.284-12.702
				c-1.507,2.488-2.284,4.086-3.6,6.617c4.687,2.774,7.659,5.502,12.594,7.807c1.313,0.613,4.016,1.527,5.382,2.009
				C110.125,235.858,111.38,237.426,114.933,237.437z"/>
			
				<path style="fill:none;stroke:#510149;stroke-width:0.8611;stroke-linecap:round;stroke-linejoin:round;stroke-miterlimit:10;" d="
				M88.716,224.902c7.463,5.741,23.336,12.506,26.648,12.822c5.932-19.902,8.946-33.106,3.014-40.761"/>
			
				<path style="fill:none;stroke:#510149;stroke-width:0.8611;stroke-linecap:round;stroke-linejoin:round;stroke-miterlimit:10;" d="
				M92.732,218.232c8.641,5.273,14.982,9.573,24.641,12.602"/>
			<path style="fill:#FF9300;" d="M104.741,201.16c1.16,0.582,1.945,1.925,1.788,3.213c-0.064,0.524-0.257,1.063-0.096,1.566
				c0.159,0.497,0.619,0.824,0.962,1.217c0.514,0.591,0.779,1.393,0.717,2.174c-0.085,1.085-0.791,2.072-1.735,2.613
				c-0.943,0.542-2.094,0.663-3.162,0.459c-0.635-0.121-1.389-0.321-1.853,0.129c-0.264,0.255-0.335,0.642-0.467,0.984
				c-0.401,1.041-1.517,1.759-2.63,1.695c-1.114-0.064-2.261-1.236-2.54-2.316C98.671,208.851,101.555,205.016,104.741,201.16z"/>
			<path style="fill:#FF9300;" d="M104.887,215.119c0,0.436-0.514,0.789-1.148,0.789c-0.634,0-1.148-0.353-1.148-0.789
				c0-0.436,0.514-0.789,1.148-0.789C104.373,214.329,104.887,214.683,104.887,215.119z"/>
			
				<path style="fill:none;stroke:#510149;stroke-width:0.8676;stroke-linecap:round;stroke-linejoin:round;stroke-miterlimit:10;" d="
				M90.521,221.695c0.475-0.783,1.705-0.73,2.424-0.162c0.718,0.569,1.079,1.461,1.5,2.275c0.42,0.814,1.009,1.646,1.897,1.871
				c1.156,0.293,2.33-0.553,3.517-0.433c1.502,0.152,2.385,1.698,3.154,2.998c0.769,1.299,2.089,2.684,3.535,2.249
				c0.647-0.194,1.168-0.737,1.838-0.827c1.386-0.187,2.158,1.484,3.119,2.501c1.213,1.283,3.31,1.622,4.865,0.785"/>
		</g>
		<g>
			<path style="fill:#FF9300;" d="M130.649,163.809c0,0.555-0.45,1.005-1.005,1.005c-0.555,0-1.005-0.45-1.005-1.005
				c0-0.555,0.45-1.005,1.005-1.005C130.199,162.804,130.649,163.254,130.649,163.809z"/>
			<path style="fill:#FF9300;" d="M131.726,161.512c0,0.555-0.45,1.005-1.005,1.005c-0.555,0-1.005-0.45-1.005-1.005
				c0-0.555,0.45-1.005,1.005-1.005C131.276,160.508,131.726,160.958,131.726,161.512z"/>
			<path style="fill:#FF9300;" d="M132.694,159.252c0,0.555-0.45,1.005-1.005,1.005c-0.555,0-1.005-0.45-1.005-1.005
				c0-0.555,0.45-1.005,1.005-1.005C132.245,158.247,132.694,158.697,132.694,159.252z"/>
			<path style="fill:#FF9300;" d="M133.95,157.183c0,0.555-0.45,1.005-1.005,1.005c-0.555,0-1.005-0.45-1.005-1.005
				c0-0.555,0.45-1.005,1.005-1.005C133.5,156.178,133.95,156.628,133.95,157.183z"/>
			<circle style="fill:#FF9300;" cx="134.596" cy="155.197" r="1.005"/>
			<path style="fill:#FF9300;" d="M137.227,153.475c0,0.555-0.45,1.005-1.005,1.005c-0.555,0-1.005-0.45-1.005-1.005
				c0-0.555,0.45-1.005,1.005-1.005C136.778,152.471,137.227,152.92,137.227,153.475z"/>
			<path style="fill:#FF9300;" d="M139.093,151.992c0,0.555-0.45,1.005-1.005,1.005c-0.555,0-1.005-0.45-1.005-1.005
				c0-0.555,0.45-1.005,1.005-1.005C138.643,150.987,139.093,151.437,139.093,151.992z"/>
			<path style="fill:#FF9300;" d="M141.103,150.748c0,0.555-0.45,1.005-1.005,1.005c-0.555,0-1.005-0.45-1.005-1.005
				c0-0.555,0.45-1.005,1.005-1.005C140.653,149.743,141.103,150.193,141.103,150.748z"/>
			<path style="fill:#FF9300;" d="M143.303,149.552c0,0.555-0.45,1.005-1.005,1.005c-0.555,0-1.005-0.45-1.005-1.005
				c0-0.555,0.45-1.005,1.005-1.005C142.854,148.548,143.303,148.997,143.303,149.552z"/>
			<circle style="fill:#FF9300;" cx="144.404" cy="148.93" r="1.005"/>
			<path style="fill:#FF9300;" d="M147.848,148.978c0,0.555-0.45,1.005-1.005,1.005s-1.005-0.45-1.005-1.005
				c0-0.555,0.45-1.005,1.005-1.005S147.848,148.423,147.848,148.978z"/>
		</g>
		<g>
			<path style="fill:#7A0B65;" d="M146.975,189.894c-1.758,5.849-5.392,5.601-7.069,5.346c-1.872-0.285-4.278-0.581-5.669-1.866
				c-1.362-1.258-2.081-2.942-2.964-4.65c-1.199,0.541-3.947,0.999-5.145,1.54c1.081,3.549,4.588,7.628,8.037,8.994
				c3.449,1.367,7.899,1.391,11.338,0c3.071-1.242,5.753-4.121,5.956-7.427C150.069,191.21,148.662,190.469,146.975,189.894z"/>
			
				<path style="fill:none;stroke:#510149;stroke-width:0.8611;stroke-linecap:round;stroke-linejoin:round;stroke-miterlimit:10;" d="
				M126.502,190.812c1.438,4.959,5.726,8.089,11.294,9.187c0.764,0.151,2.265,0.167,3.043,0.122
				c7.463-0.431,9.879-5.263,10.645-7.75"/>
		</g>
	</g>
	<g>
		<defs>
			<rect id="SVGID_1_" width="500" height="500"/>
		</defs>
		<clipPath id="SVGID_00000127004937028928958820000005882539296427049896_">
			<use xlink:href="#SVGID_1_"  style="overflow:visible;"/>
		</clipPath>
		<g style="clip-path:url(#SVGID_00000127004937028928958820000005882539296427049896_);">
			<path style="fill:#E9381B;" d="M500.61,47.305c8.816,7.53,17.683,17.238,26.5,24.768c-0.213-10.961-2.013-32.834-2.013-32.834"/>
			<path style="fill:#E9381B;" d="M265.728,4.202c-2.817,11.247-6.161,21.068-8.978,32.315c9.72-5.071,31.008-18.411,31.008-18.411"
				/>
			<path style="fill:#FF9300;" d="M293.763,21.539c-0.109,11.594-1.313,22.751-1.422,34.345
				c8.265-7.203,24.528-23.232,24.528-23.232"/>
			<path style="fill:#8C1871;" d="M326.901,36.446c1.446,11.504,1.749,22.722,3.196,34.226c7.224-8.246,21.192-26.311,21.192-26.311
				"/>
			<path style="fill:#E9381B;" d="M399.157,53.724c3.228,11.136,5.734,23.181,8.962,34.317c5.846-9.275,17.965-32.463,17.965-32.463
				"/>
			<path style="fill:#FF9300;" d="M432.133,55.89c5.742,10.073,10.746,20.896,16.488,30.969c3.516-10.384,9.5-32.421,9.5-32.421"/>
			<path style="fill:#8C1871;" d="M465.263,54.029c7.04,9.212,13.569,19.642,20.609,28.854c2.091-10.762,4.919-32.526,4.919-32.526"
				/>
			<path style="fill:#00694C;" d="M362.573,47.638c3.256,11.128,5.337,22.155,8.593,33.283
				c8.622-11.303,16.831-28.575,16.831-28.575"/>
			
				<path style="fill:none;stroke:#0D060E;stroke-width:0.9218;stroke-linecap:round;stroke-linejoin:round;stroke-miterlimit:10;" d="
				M527.138,38.306C444.867,73.526,318.64,54.175,250.598-8.97"/>
		</g>
		<g style="clip-path:url(#SVGID_00000127004937028928958820000005882539296427049896_);">
			<path style="fill:#E9381B;" d="M-2.874,48.305c-8.816,7.53-17.683,17.238-26.5,24.768c0.213-10.961,2.013-32.834,2.013-32.834"/>
			<path style="fill:#E9381B;" d="M229.009,4.202c2.817,11.247,6.161,21.068,8.978,32.315c-9.72-5.071-31.007-18.411-31.007-18.411"
				/>
			<path style="fill:#FF9300;" d="M200.973,21.539c0.109,11.594,1.313,22.751,1.422,34.345
				c-8.265-7.203-24.528-23.232-24.528-23.232"/>
			<path style="fill:#8C1871;" d="M167.835,36.446c-1.446,11.504-1.749,22.722-3.196,34.226
				c-7.224-8.246-21.192-26.311-21.192-26.311"/>
			<path style="fill:#E9381B;" d="M95.579,53.724c-3.228,11.136-5.734,23.181-8.962,34.317
				c-5.846-9.275-17.965-32.463-17.965-32.463"/>
			<path style="fill:#FF9300;" d="M62.603,55.89C56.861,65.963,51.857,76.787,46.116,86.86c-3.515-10.384-9.5-32.421-9.5-32.421"/>
			<path style="fill:#8C1871;" d="M29.474,54.029c-7.04,9.212-13.569,19.642-20.609,28.854c-2.091-10.762-4.92-32.526-4.92-32.526"
				/>
			<path style="fill:#00694C;" d="M132.163,47.638c-3.256,11.128-5.337,22.155-8.593,33.283
				c-8.622-11.303-16.831-28.575-16.831-28.575"/>
			
				<path style="fill:none;stroke:#0D060E;stroke-width:0.9218;stroke-linecap:round;stroke-linejoin:round;stroke-miterlimit:10;" d="
				M-32.402,38.306C49.87,73.526,176.096,54.175,244.138-8.97"/>
		</g>
	</g>
</g>
</svg>
