<?xml version="1.0" encoding="utf-8"?>
<!-- Generator: Adobe Illustrator 27.5.0, SVG Export Plug-In . SVG Version: 6.00 Build 0)  -->
<svg version="1.1" xmlns="http://www.w3.org/2000/svg" xmlns:xlink="http://www.w3.org/1999/xlink" x="0px" y="0px"
	 viewBox="0 0 800 800" style="enable-background:new 0 0 800 800;" xml:space="preserve">
<g id="Background">
	<radialGradient id="SVGID_1_" cx="400" cy="400" r="659.296" gradientUnits="userSpaceOnUse">
		<stop  offset="0" style="stop-color:#FFFFFF;stop-opacity:0"/>
		<stop  offset="0.18" style="stop-color:#FCFCFC;stop-opacity:0.054"/>
		<stop  offset="0.3178" style="stop-color:#F2F2F2;stop-opacity:0.0953"/>
		<stop  offset="0.4416" style="stop-color:#E2E2E2;stop-opacity:0.1325"/>
		<stop  offset="0.5572" style="stop-color:#CBCBCB;stop-opacity:0.1671"/>
		<stop  offset="0.6671" style="stop-color:#ADAEAD;stop-opacity:0.2001"/>
		<stop  offset="0.7727" style="stop-color:#898988;stop-opacity:0.2318"/>
		<stop  offset="0.875" style="stop-color:#5D5E5D;stop-opacity:0.2625"/>
		<stop  offset="0.9721" style="stop-color:#2C2D2C;stop-opacity:0.2916"/>
		<stop  offset="1" style="stop-color:#1D1E1C;stop-opacity:0.3"/>
	</radialGradient>
	<rect style="fill:url(#SVGID_1_);" width="800" height="800"/>
</g>
<g id="Objects">
	<g>
		<g>
			<g>
				<rect x="592.761" y="219.053" style="fill:#494949;" width="24.949" height="21.309"/>
				<rect x="621.868" y="197.744" style="fill:#494949;" width="24.949" height="42.618"/>
				<rect x="650.976" y="167.344" style="fill:#494949;" width="24.95" height="73.018"/>
				<rect x="680.084" y="136.944" style="fill:#494949;" width="24.949" height="103.418"/>
				<rect x="709.191" y="106.544" style="fill:#494949;" width="24.95" height="133.818"/>
			</g>
			<g>
				<g>
					<path style="fill:none;stroke:#494949;stroke-width:8.7988;stroke-miterlimit:10;" d="M716.329,77.818
						c-19.045,28.976-63.956,90.21-123.568,125.307"/>
					<g>
						<polygon style="fill:#494949;" points="703.042,73.979 726.345,61.744 725.293,88.043 						"/>
					</g>
				</g>
			</g>
		</g>
		<g>
			<polygon style="fill:#494949;" points="584.534,249.098 584.534,88.49 580.988,88.49 580.988,249.098 580.988,252.644 
				584.534,252.644 745.143,252.644 745.143,249.098 			"/>
			<g>
				<rect x="597.233" y="249.23" style="fill:#494949;" width="3.546" height="9.186"/>
				<rect x="639.94" y="249.23" style="fill:#494949;" width="3.545" height="9.186"/>
				<rect x="682.646" y="249.23" style="fill:#494949;" width="3.545" height="9.186"/>
				<rect x="725.353" y="249.23" style="fill:#494949;" width="3.544" height="9.186"/>
			</g>
			<g>
				<rect x="574.813" y="104.734" style="fill:#494949;" width="9.185" height="3.545"/>
				<rect x="574.813" y="147.441" style="fill:#494949;" width="9.185" height="3.545"/>
				<rect x="574.813" y="190.146" style="fill:#494949;" width="9.185" height="3.545"/>
				<rect x="574.813" y="232.853" style="fill:#494949;" width="9.185" height="3.545"/>
			</g>
		</g>
	</g>
	<g>
		<g>
			<path style="fill:#494949;" d="M361.14,452.211c0,3.213-1.992,5.818-4.448,5.818h-17.36c-2.456,0-4.447-2.605-4.447-5.818l0,0
				c0-3.214,1.991-5.818,4.447-5.818h17.36C359.147,446.393,361.14,448.997,361.14,452.211L361.14,452.211z"/>
			<path style="fill:#494949;" d="M361.14,437.571c0,3.214-1.992,5.817-4.448,5.817h-17.36c-2.456,0-4.447-2.604-4.447-5.817l0,0
				c0-3.213,1.991-5.818,4.447-5.818h17.36C359.147,431.753,361.14,434.358,361.14,437.571L361.14,437.571z"/>
			<path style="fill:#494949;" d="M361.14,422.932c0,3.214-1.992,5.818-4.448,5.818h-17.36c-2.456,0-4.447-2.604-4.447-5.818l0,0
				c0-3.213,1.991-5.818,4.447-5.818h17.36C359.147,417.113,361.14,419.719,361.14,422.932L361.14,422.932z"/>
			<path style="fill:#494949;" d="M361.14,408.293c0,3.213-1.992,5.818-4.448,5.818h-17.36c-2.456,0-4.447-2.605-4.447-5.818l0,0
				c0-3.213,1.991-5.818,4.447-5.818h17.36C359.147,402.475,361.14,405.08,361.14,408.293L361.14,408.293z"/>
			<path style="fill:#494949;" d="M361.14,393.654c0,3.213-1.992,5.818-4.448,5.818h-17.36c-2.456,0-4.447-2.605-4.447-5.818l0,0
				c0-3.213,1.991-5.818,4.447-5.818h17.36C359.147,387.836,361.14,390.44,361.14,393.654L361.14,393.654z"/>
			<path style="fill:#494949;" d="M361.14,379.015c0,3.213-1.992,5.818-4.448,5.818h-17.36c-2.456,0-4.447-2.605-4.447-5.818l0,0
				c0-3.213,1.991-5.818,4.447-5.818h17.36C359.147,373.197,361.14,375.802,361.14,379.015L361.14,379.015z"/>
			<path style="fill:#494949;" d="M361.14,364.375c0,3.213-1.992,5.818-4.448,5.818h-17.36c-2.456,0-4.447-2.605-4.447-5.818l0,0
				c0-3.213,1.991-5.818,4.447-5.818h17.36C359.147,358.557,361.14,361.163,361.14,364.375L361.14,364.375z"/>
			<path style="fill:#494949;" d="M361.14,349.736c0,3.213-1.992,5.819-4.448,5.819h-17.36c-2.456,0-4.447-2.605-4.447-5.819l0,0
				c0-3.213,1.991-5.818,4.447-5.818h17.36C359.147,343.918,361.14,346.523,361.14,349.736L361.14,349.736z"/>
			<path style="fill:#494949;" d="M391.383,452.211c0,3.213-1.991,5.818-4.447,5.818h-17.36c-2.456,0-4.447-2.605-4.447-5.818l0,0
				c0-3.214,1.991-5.818,4.447-5.818h17.36C389.392,446.393,391.383,448.997,391.383,452.211L391.383,452.211z"/>
			<path style="fill:#494949;" d="M391.383,437.571c0,3.214-1.991,5.817-4.447,5.817h-17.36c-2.456,0-4.447-2.604-4.447-5.817l0,0
				c0-3.213,1.991-5.818,4.447-5.818h17.36C389.392,431.753,391.383,434.358,391.383,437.571L391.383,437.571z"/>
			<path style="fill:#494949;" d="M391.383,422.932c0,3.214-1.991,5.818-4.447,5.818h-17.36c-2.456,0-4.447-2.604-4.447-5.818l0,0
				c0-3.213,1.991-5.818,4.447-5.818h17.36C389.392,417.113,391.383,419.719,391.383,422.932L391.383,422.932z"/>
			<path style="fill:#494949;" d="M391.383,408.293c0,3.213-1.991,5.818-4.447,5.818h-17.36c-2.456,0-4.447-2.605-4.447-5.818l0,0
				c0-3.213,1.991-5.818,4.447-5.818h17.36C389.392,402.475,391.383,405.08,391.383,408.293L391.383,408.293z"/>
			<path style="fill:#494949;" d="M421.627,452.211c0,3.213-1.992,5.818-4.448,5.818h-17.359c-2.455,0-4.448-2.605-4.448-5.818l0,0
				c0-3.214,1.992-5.818,4.448-5.818h17.359C419.635,446.393,421.627,448.997,421.627,452.211L421.627,452.211z"/>
			<path style="fill:#494949;" d="M421.627,437.571c0,3.214-1.992,5.817-4.448,5.817h-17.359c-2.455,0-4.448-2.604-4.448-5.817l0,0
				c0-3.213,1.992-5.818,4.448-5.818h17.359C419.635,431.753,421.627,434.358,421.627,437.571L421.627,437.571z"/>
			<path style="fill:#494949;" d="M421.627,422.932c0,3.214-1.992,5.818-4.448,5.818h-17.359c-2.455,0-4.448-2.604-4.448-5.818l0,0
				c0-3.213,1.992-5.818,4.448-5.818h17.359C419.635,417.113,421.627,419.719,421.627,422.932L421.627,422.932z"/>
			<path style="fill:#494949;" d="M421.627,408.293c0,3.213-1.992,5.818-4.448,5.818h-17.359c-2.455,0-4.448-2.605-4.448-5.818l0,0
				c0-3.213,1.992-5.818,4.448-5.818h17.359C419.635,402.475,421.627,405.08,421.627,408.293L421.627,408.293z"/>
			<path style="fill:#494949;" d="M421.627,393.654c0,3.213-1.992,5.818-4.448,5.818h-17.359c-2.455,0-4.448-2.605-4.448-5.818l0,0
				c0-3.213,1.992-5.818,4.448-5.818h17.359C419.635,387.836,421.627,390.44,421.627,393.654L421.627,393.654z"/>
			<path style="fill:#494949;" d="M451.87,452.211c0,3.213-1.99,5.818-4.447,5.818h-17.359c-2.456,0-4.448-2.605-4.448-5.818l0,0
				c0-3.214,1.992-5.818,4.448-5.818h17.359C449.88,446.393,451.87,448.997,451.87,452.211L451.87,452.211z"/>
			<path style="fill:#494949;" d="M451.87,437.571c0,3.214-1.99,5.817-4.447,5.817h-17.359c-2.456,0-4.448-2.604-4.448-5.817l0,0
				c0-3.213,1.992-5.818,4.448-5.818h17.359C449.88,431.753,451.87,434.358,451.87,437.571L451.87,437.571z"/>
			<path style="fill:#494949;" d="M451.87,422.932c0,3.214-1.99,5.818-4.447,5.818h-17.359c-2.456,0-4.448-2.604-4.448-5.818l0,0
				c0-3.213,1.992-5.818,4.448-5.818h17.359C449.88,417.113,451.87,419.719,451.87,422.932L451.87,422.932z"/>
			<path style="fill:#494949;" d="M482.114,452.211c0,3.213-1.991,5.818-4.447,5.818h-17.36c-2.456,0-4.447-2.605-4.447-5.818l0,0
				c0-3.214,1.991-5.818,4.447-5.818h17.36C480.123,446.393,482.114,448.997,482.114,452.211L482.114,452.211z"/>
			<path style="fill:#494949;" d="M482.114,437.571c0,3.214-1.991,5.817-4.447,5.817h-17.36c-2.456,0-4.447-2.604-4.447-5.817l0,0
				c0-3.213,1.991-5.818,4.447-5.818h17.36C480.123,431.753,482.114,434.358,482.114,437.571L482.114,437.571z"/>
			<path style="fill:#494949;" d="M482.114,422.932c0,3.214-1.991,5.818-4.447,5.818h-17.36c-2.456,0-4.447-2.604-4.447-5.818l0,0
				c0-3.213,1.991-5.818,4.447-5.818h17.36C480.123,417.113,482.114,419.719,482.114,422.932L482.114,422.932z"/>
			<path style="fill:#494949;" d="M482.114,408.293c0,3.213-1.991,5.818-4.447,5.818h-17.36c-2.456,0-4.447-2.605-4.447-5.818l0,0
				c0-3.213,1.991-5.818,4.447-5.818h17.36C480.123,402.475,482.114,405.08,482.114,408.293L482.114,408.293z"/>
			<path style="fill:#494949;" d="M482.114,393.654c0,3.213-1.991,5.818-4.447,5.818h-17.36c-2.456,0-4.447-2.605-4.447-5.818l0,0
				c0-3.213,1.991-5.818,4.447-5.818h17.36C480.123,387.836,482.114,390.44,482.114,393.654L482.114,393.654z"/>
			<path style="fill:#494949;" d="M482.114,379.015c0,3.213-1.991,5.818-4.447,5.818h-17.36c-2.456,0-4.447-2.605-4.447-5.818l0,0
				c0-3.213,1.991-5.818,4.447-5.818h17.36C480.123,373.197,482.114,375.802,482.114,379.015L482.114,379.015z"/>
			<g>
				<g>
					<polyline style="fill:none;stroke:#494949;stroke-width:7.1217;stroke-linecap:round;stroke-linejoin:round;" points="
						349.08,306.904 378.255,380.504 410.457,357.231 437.81,402.475 464.413,343.568 					"/>
					<g>
						<polygon style="fill:#494949;" points="472.839,350.793 470.724,329.596 453.422,342.024 						"/>
					</g>
				</g>
			</g>
		</g>
		<g>
			<polygon style="fill:#494949;" points="327.311,465.75 327.311,305.141 323.767,305.141 323.767,465.75 323.767,469.295 
				327.311,469.295 487.92,469.295 487.92,465.75 			"/>
			<g>
				<rect x="340.012" y="465.882" style="fill:#494949;" width="3.545" height="9.185"/>
				<rect x="382.718" y="465.882" style="fill:#494949;" width="3.544" height="9.185"/>
				<rect x="425.424" y="465.882" style="fill:#494949;" width="3.545" height="9.185"/>
				<rect x="468.13" y="465.882" style="fill:#494949;" width="3.545" height="9.185"/>
			</g>
			<g>
				<rect x="317.591" y="321.386" style="fill:#494949;" width="9.185" height="3.545"/>
				<rect x="317.591" y="364.093" style="fill:#494949;" width="9.185" height="3.544"/>
				<rect x="317.591" y="406.797" style="fill:#494949;" width="9.185" height="3.547"/>
				<rect x="317.591" y="449.504" style="fill:#494949;" width="9.185" height="3.545"/>
			</g>
		</g>
	</g>
	<g>
		<g>
			<path style="fill:#494949;" d="M240.899,507.022l-23.55,6.252l5.723,5.749l-47.932,47.723l-20.499-29.466
				c-0.903-1.3-2.477-1.96-4.037-1.689c-1.56,0.271-2.821,1.418-3.236,2.946l-24.141,88.826l-18.023-32.372
				c-0.622-1.116-1.729-1.876-2.995-2.053c-1.268-0.18-2.54,0.25-3.443,1.152l-35.294,35.296c-1.591,1.591-1.591,4.168,0,5.759
				c1.591,1.591,4.169,1.591,5.76,0l31.479-31.479l20.265,36.4c0.724,1.3,2.093,2.09,3.557,2.09c0.164,0,0.329-0.009,0.494-0.029
				c1.645-0.199,3.003-1.377,3.438-2.975l24.474-90.057l18.288,26.288c0.688,0.989,1.778,1.623,2.978,1.732
				c1.201,0.104,2.386-0.321,3.24-1.171l51.374-51.149l5.724,5.75L240.899,507.022z"/>
			<g>
				<polygon style="fill:#494949;" points="77.407,631.909 77.407,680.986 101.969,680.986 101.969,613.1 99.911,609.404 				"/>
				<path style="fill:#494949;" d="M125.449,645.591c-0.302,0.038-0.61,0.057-0.916,0.057c-2.741,0-5.272-1.488-6.607-3.884
					l-10.732-19.277v58.5h24.562v-40.697C130.882,643.152,128.439,645.227,125.449,645.591z"/>
				<polygon style="fill:#494949;" points="136.981,621.125 136.981,680.986 161.542,680.986 161.542,567.575 154.346,557.229 				
					"/>
				<path style="fill:#494949;" d="M174.566,580.623c-0.222,0-0.444-0.012-0.667-0.029c-2.242-0.203-4.258-1.375-5.537-3.217
					l-1.593-2.291v105.9h24.561V567.047l-11.423,11.371C178.48,579.839,176.583,580.623,174.566,580.623z"/>
				<polygon style="fill:#494949;" points="196.555,680.986 221.116,680.986 221.116,537.391 196.555,561.843 				"/>
			</g>
		</g>
		<g>
			<polygon style="fill:#494949;" points="59.888,689.723 59.888,529.114 56.344,529.114 56.344,689.723 56.344,693.268 
				59.888,693.268 240.899,693.268 240.899,689.723 			"/>
			<g>
				<rect x="72.588" y="689.854" style="fill:#494949;" width="3.545" height="9.184"/>
				<rect x="115.294" y="689.854" style="fill:#494949;" width="3.544" height="9.184"/>
				<rect x="158" y="689.854" style="fill:#494949;" width="3.545" height="9.184"/>
				<rect x="200.707" y="689.854" style="fill:#494949;" width="3.544" height="9.184"/>
			</g>
			<g>
				<rect x="50.167" y="545.359" style="fill:#494949;" width="9.185" height="3.546"/>
				<rect x="50.167" y="588.066" style="fill:#494949;" width="9.185" height="3.543"/>
				<rect x="50.167" y="630.771" style="fill:#494949;" width="9.185" height="3.545"/>
				<rect x="50.167" y="673.477" style="fill:#494949;" width="9.185" height="3.545"/>
			</g>
		</g>
	</g>
	<g>
		<g>
			<polygon style="fill:#494949;" points="584.534,465.75 584.534,305.141 580.988,305.141 580.988,465.75 580.988,469.295 
				584.534,469.295 745.143,469.295 745.143,465.75 			"/>
			<g>
				<rect x="597.233" y="465.882" style="fill:#494949;" width="3.546" height="9.184"/>
				<rect x="639.94" y="465.882" style="fill:#494949;" width="3.545" height="9.184"/>
				<rect x="682.646" y="465.882" style="fill:#494949;" width="3.545" height="9.184"/>
				<rect x="725.353" y="465.882" style="fill:#494949;" width="3.544" height="9.184"/>
			</g>
			<g>
				<rect x="574.813" y="321.386" style="fill:#494949;" width="9.185" height="3.545"/>
				<rect x="574.813" y="364.093" style="fill:#494949;" width="9.185" height="3.544"/>
				<rect x="574.813" y="406.797" style="fill:#494949;" width="9.185" height="3.547"/>
				<rect x="574.813" y="449.504" style="fill:#494949;" width="9.185" height="3.545"/>
			</g>
		</g>
		<g>
			<path style="fill:#494949;" d="M663.065,320.824c6.593,0,11.957,5.364,11.957,11.958c0,6.593-5.364,11.957-11.957,11.957h-65.082
				v-23.915H663.065 M663.065,318.497h-67.409v28.569h67.409c7.889,0,14.284-6.395,14.284-14.284
				C677.35,324.893,670.954,318.497,663.065,318.497L663.065,318.497z"/>
		</g>
		<path style="fill:#494949;" d="M687.769,353.825h-92.113v28.569h92.113c7.89,0,14.285-6.396,14.285-14.285
			C702.055,360.22,695.659,353.825,687.769,353.825z"/>
		<g>
			<path style="fill:#494949;" d="M636.343,391.479c6.593,0,11.957,5.364,11.957,11.958c0,6.594-5.364,11.958-11.957,11.958h-38.359
				v-23.916H636.343 M636.343,389.152h-40.686v28.57h40.686c7.889,0,14.284-6.396,14.284-14.285
				C650.627,395.547,644.231,389.152,636.343,389.152L636.343,389.152z"/>
		</g>
		<path style="fill:#494949;" d="M714.613,424.479H595.656v28.569h118.957c7.888,0,14.284-6.395,14.284-14.283
			C728.897,430.874,722.501,424.479,714.613,424.479z"/>
	</g>
	<g>
		<g>
			<polygon style="fill:#494949;" points="327.311,689.723 327.311,529.114 323.767,529.114 323.767,689.723 323.767,693.268 
				327.311,693.268 487.92,693.268 487.92,689.723 			"/>
			<g>
				<rect x="340.012" y="689.854" style="fill:#494949;" width="3.545" height="9.184"/>
				<rect x="382.718" y="689.854" style="fill:#494949;" width="3.544" height="9.184"/>
				<rect x="425.424" y="689.854" style="fill:#494949;" width="3.545" height="9.184"/>
				<rect x="468.13" y="689.854" style="fill:#494949;" width="3.545" height="9.184"/>
			</g>
			<g>
				<rect x="317.591" y="545.359" style="fill:#494949;" width="9.185" height="3.546"/>
				<rect x="317.591" y="588.066" style="fill:#494949;" width="9.185" height="3.543"/>
				<rect x="317.591" y="630.771" style="fill:#494949;" width="9.185" height="3.545"/>
				<rect x="317.591" y="673.477" style="fill:#494949;" width="9.185" height="3.545"/>
			</g>
		</g>
		<g>
			<path style="fill:#494949;" d="M421.883,650.782l11.958,11.956l-11.958,11.957h-85.888v-23.913H421.883 M422.847,648.455h-89.179
				v28.567h89.179l14.285-14.284L422.847,648.455L422.847,648.455z"/>
		</g>
		<polygon style="fill:#494949;" points="386.867,641.695 333.668,641.695 333.668,613.125 386.867,613.125 401.152,627.411 		"/>
		<g>
			<path style="fill:#494949;" d="M460.024,580.125l11.957,11.957l-11.957,11.96H335.995v-23.917H460.024 M460.988,577.798h-127.32
				v28.571h127.32l14.284-14.287L460.988,577.798L460.988,577.798z"/>
		</g>
		<polygon style="fill:#494949;" points="412.911,571.041 333.668,571.041 333.668,542.471 412.911,542.471 427.196,556.754 		"/>
	</g>
	<g>
		<g>
			<polygon style="fill:#494949;" points="582.635,689.723 582.635,529.114 579.09,529.114 579.09,689.723 579.09,693.268 
				582.635,693.268 743.243,693.268 743.243,689.723 			"/>
			<g>
				<rect x="595.334" y="689.854" style="fill:#494949;" width="3.547" height="9.184"/>
				<rect x="638.042" y="689.854" style="fill:#494949;" width="3.544" height="9.184"/>
				<rect x="680.747" y="689.854" style="fill:#494949;" width="3.544" height="9.184"/>
				<rect x="723.453" y="689.854" style="fill:#494949;" width="3.545" height="9.184"/>
			</g>
			<g>
				<rect x="572.914" y="545.359" style="fill:#494949;" width="9.184" height="3.546"/>
				<rect x="572.914" y="588.066" style="fill:#494949;" width="9.184" height="3.543"/>
				<rect x="572.914" y="630.771" style="fill:#494949;" width="9.184" height="3.545"/>
				<rect x="572.914" y="673.477" style="fill:#494949;" width="9.184" height="3.545"/>
			</g>
		</g>
		<g>
			<g>
				<path style="fill:#494949;" d="M715.967,651.466c4.158,0,7.54,3.382,7.54,7.538c0,4.158-3.382,7.541-7.54,7.541
					s-7.541-3.383-7.541-7.541C708.426,654.848,711.809,651.466,715.967,651.466 M715.967,647.975
					c-6.094,0-11.032,4.938-11.032,11.029c0,6.094,4.938,11.032,11.032,11.032c6.093,0,11.031-4.938,11.031-11.032
					C726.998,652.913,722.06,647.975,715.967,647.975L715.967,647.975z"/>
			</g>
			<g>
				<path style="fill:#494949;" d="M638.042,642.078c4.158,0,7.54,3.382,7.54,7.54s-3.382,7.54-7.54,7.54s-7.541-3.382-7.541-7.54
					S633.884,642.078,638.042,642.078 M638.042,638.587c-6.093,0-11.032,4.938-11.032,11.031c0,6.093,4.939,11.031,11.032,11.031
					c6.093,0,11.031-4.939,11.031-11.031C649.073,643.525,644.135,638.587,638.042,638.587L638.042,638.587z"/>
			</g>
			<g>
				<path style="fill:#494949;" d="M641.586,595.573c4.157,0,7.539,3.382,7.539,7.54s-3.382,7.541-7.539,7.541
					c-4.157,0-7.539-3.383-7.539-7.541S637.429,595.573,641.586,595.573 M641.586,592.082c-6.092,0-11.03,4.939-11.03,11.031
					c0,6.094,4.938,11.032,11.03,11.032s11.03-4.939,11.03-11.032C652.616,597.021,647.678,592.082,641.586,592.082L641.586,592.082
					z"/>
			</g>
			<g>
				<path style="fill:#494949;" d="M698.621,595.573c4.158,0,7.541,3.382,7.541,7.54s-3.383,7.541-7.541,7.541
					s-7.541-3.383-7.541-7.541S694.463,595.573,698.621,595.573 M698.621,592.082c-6.094,0-11.032,4.939-11.032,11.031
					c0,6.094,4.938,11.032,11.032,11.032c6.094,0,11.032-4.939,11.032-11.032C709.653,597.021,704.715,592.082,698.621,592.082
					L698.621,592.082z"/>
			</g>
			<g>
				<path style="fill:#494949;" d="M671.489,561.88c4.156,0,7.538,3.383,7.538,7.541s-3.382,7.54-7.538,7.54
					c-4.158,0-7.541-3.382-7.541-7.54S667.331,561.88,671.489,561.88 M671.489,558.389c-6.093,0-11.032,4.938-11.032,11.032
					c0,6.093,4.94,11.031,11.032,11.031c6.093,0,11.029-4.938,11.029-11.031C682.519,563.327,677.582,558.389,671.489,558.389
					L671.489,558.389z"/>
			</g>
			<g>
				<path style="fill:#494949;" d="M608.14,566.607c4.157,0,7.539,3.383,7.539,7.541s-3.382,7.54-7.539,7.54
					c-4.158,0-7.54-3.382-7.54-7.54S603.981,566.607,608.14,566.607 M608.14,563.116c-6.093,0-11.031,4.938-11.031,11.032
					c0,6.093,4.938,11.031,11.031,11.031c6.092,0,11.03-4.938,11.03-11.031C619.17,568.055,614.231,563.116,608.14,563.116
					L608.14,563.116z"/>
			</g>
			<g>
				<path style="fill:#494949;" d="M608.14,619.871c4.157,0,7.539,3.382,7.539,7.538c0,4.158-3.382,7.541-7.539,7.541
					c-4.158,0-7.54-3.383-7.54-7.541C600.6,623.253,603.981,619.871,608.14,619.871 M608.14,616.38
					c-6.093,0-11.031,4.939-11.031,11.029c0,6.093,4.938,11.032,11.031,11.032c6.092,0,11.03-4.939,11.03-11.032
					C619.17,621.318,614.231,616.38,608.14,616.38L608.14,616.38z"/>
			</g>
			<g>
				<path style="fill:#494949;" d="M673.263,623.123c4.156,0,7.537,3.382,7.537,7.54s-3.381,7.541-7.537,7.541
					c-4.158,0-7.541-3.383-7.541-7.541S669.104,623.123,673.263,623.123 M673.263,619.632c-6.094,0-11.032,4.939-11.032,11.031
					c0,6.094,4.938,11.032,11.032,11.032c6.092,0,11.028-4.939,11.028-11.032C684.291,624.57,679.354,619.632,673.263,619.632
					L673.263,619.632z"/>
			</g>
			
				<line style="fill:none;stroke:#494949;stroke-width:3.4909;stroke-miterlimit:10;" x1="580.865" y1="588.066" x2="598.881" y2="574.148"/>
			
				<line style="fill:none;stroke:#494949;stroke-width:3.4909;stroke-miterlimit:10;" x1="615.838" y1="580.452" x2="632.753" y2="596.525"/>
			
				<line style="fill:none;stroke:#494949;stroke-width:3.4909;stroke-miterlimit:10;" x1="647.523" y1="596.525" x2="664.892" y2="575.449"/>
			
				<line style="fill:none;stroke:#494949;stroke-width:3.4909;stroke-miterlimit:10;" x1="678.271" y1="575.449" x2="691.89" y2="594.389"/>
			<g>
				<g>
					
						<line style="fill:none;stroke:#494949;stroke-width:3.4909;stroke-miterlimit:10;" x1="706.2" y1="596.525" x2="742.428" y2="549.931"/>
					<g>
						<polygon style="fill:#494949;" points="745.613,554.343 747.041,543.998 737.368,547.932 						"/>
					</g>
				</g>
			</g>
			
				<line style="fill:none;stroke:#494949;stroke-width:3.4909;stroke-miterlimit:10;" x1="580.865" y1="632.543" x2="598.881" y2="627.411"/>
			
				<line style="fill:none;stroke:#494949;stroke-width:3.4909;stroke-miterlimit:10;" x1="614.896" y1="632.543" x2="629.449" y2="644.455"/>
			
				<line style="fill:none;stroke:#494949;stroke-width:3.4909;stroke-miterlimit:10;" x1="645.879" y1="645.864" x2="664.892" y2="634.315"/>
			
				<line style="fill:none;stroke:#494949;stroke-width:3.4909;stroke-miterlimit:10;" x1="680.747" y1="635.3" x2="706.2" y2="655.016"/>
			<g>
				<g>
					
						<line style="fill:none;stroke:#494949;stroke-width:3.4909;stroke-miterlimit:10;" x1="725.226" y1="654.078" x2="737.308" y2="644.697"/>
					<g>
						<polygon style="fill:#494949;" points="739.303,649.76 743.243,640.089 732.898,641.511 						"/>
					</g>
				</g>
			</g>
		</g>
	</g>
	<g>
		<g>
			<path style="fill:#494949;" d="M173.235,324.101c14.202,5.948,26.053,16.274,33.893,29.532l-52.597,26.144L173.235,324.101
				 M171.091,319.52l-22.554,67.135l63.422-31.525C203.535,339.119,189.352,326.123,171.091,319.52L171.091,319.52z"/>
		</g>
		<path style="fill:#494949;" d="M213.514,358.254l-63.422,31.526l67.135,22.553C222.988,393.79,221.19,374.637,213.514,358.254z"/>
		<path style="fill:#494949;" d="M167.782,318.408c-18.544-5.761-37.697-3.963-54.079,3.712l31.525,63.423L167.782,318.408z"/>
		<g>
			<path style="fill:#494949;" d="M109.081,328.505l29.44,59.23l-59.229,29.441c-6.526-15.919-7.119-33.495-1.614-49.881
				C83.183,350.91,94.267,337.256,109.081,328.505 M110.577,323.674c-16.49,8.678-29.806,23.451-36.208,42.51
				c-6.403,19.058-4.707,38.874,3.2,55.747l65.632-32.624L110.577,323.674L110.577,323.674z"/>
		</g>
		<path style="fill:#494949;" d="M145.67,391.978l-66.548,33.079c8.677,16.488,23.452,29.805,42.509,36.208
			c38.753,13.018,80.655-7.378,94.485-45.621L145.67,391.978z"/>
	</g>
	<g>
		<g>
			<g>
				<polygon style="fill:#494949;" points="426.634,219.102 402.195,229.364 402.195,96.191 426.634,85.93 				"/>
			</g>
			<g>
				<polygon style="fill:#494949;" points="377.757,219.102 402.195,229.364 402.195,96.191 377.757,85.93 				"/>
			</g>
			<g>
				<polygon style="fill:#494949;" points="402.195,75.671 426.634,85.93 402.195,96.191 377.757,85.93 				"/>
			</g>
		</g>
		<g>
			<g>
				<polygon style="fill:#F1F1F1;" points="418.928,232.553 418.928,144.733 440.093,153.62 440.093,241.44 				"/>
				<path style="fill:#494949;" d="M420.565,147.196l17.89,7.512v84.269l-17.89-7.512V147.196 M417.291,142.27v91.372l24.439,10.261
					v-91.371L417.291,142.27L417.291,142.27z"/>
			</g>
			<g>
				<polygon style="fill:#F1F1F1;" points="418.928,232.553 418.928,179.851 440.093,188.738 440.093,241.44 				"/>
				<path style="fill:#494949;" d="M420.565,182.314l17.89,7.512v49.151l-17.89-7.512V182.314 M417.291,177.388v56.253
					l24.439,10.261v-56.253L417.291,177.388L417.291,177.388z"/>
			</g>
			<g>
				<polygon style="fill:#494949;" points="466.168,233.642 441.729,243.903 441.729,152.532 466.168,142.27 				"/>
			</g>
			<g>
				<polygon style="fill:#494949;" points="441.729,132.01 417.291,142.27 441.729,152.532 466.168,142.27 				"/>
			</g>
		</g>
		<g>
			<g>
				<polygon style="fill:#F1F1F1;" points="457.642,247.067 457.642,181.749 478.807,190.637 478.807,255.953 				"/>
				<path style="fill:#494949;" d="M459.279,184.213l17.89,7.512v61.765l-17.89-7.511V184.213 M456.005,179.287v68.869l24.439,10.26
					v-68.867L456.005,179.287L456.005,179.287z"/>
			</g>
			<g>
				<polygon style="fill:#F1F1F1;" points="457.642,247.067 457.642,237.591 478.807,246.477 478.807,255.953 				"/>
				<path style="fill:#494949;" d="M459.279,240.054l17.89,7.512v5.924l-17.89-7.511V240.054 M456.005,235.128v13.027l24.439,10.26
					v-13.026L456.005,235.128L456.005,235.128z"/>
			</g>
			<g>
				<polygon style="fill:#494949;" points="504.882,248.155 480.443,258.415 480.443,189.548 504.882,179.287 				"/>
			</g>
			<g>
				<polygon style="fill:#494949;" points="480.443,169.026 456.005,179.287 480.443,189.548 504.882,179.287 				"/>
			</g>
		</g>
		<g>
			<g>
				<polygon style="fill:#F1F1F1;" points="365.604,167.59 386.769,158.703 386.769,232.368 365.604,241.255 				"/>
				<path style="fill:#494949;" d="M385.131,161.167v70.113l-17.89,7.512v-70.113L385.131,161.167 M388.406,156.24l-24.439,10.262
					v77.216l24.439-10.262V156.24L388.406,156.24z"/>
			</g>
			<g>
				<polygon style="fill:#F1F1F1;" points="365.604,225.07 386.769,216.183 386.769,232.368 365.604,241.255 				"/>
				<path style="fill:#494949;" d="M385.131,218.646v12.634l-17.89,7.512v-12.634L385.131,218.646 M388.406,213.72l-24.439,10.262
					v19.736l24.439-10.262V213.72L388.406,213.72z"/>
			</g>
			<g>
				<polygon style="fill:#494949;" points="339.528,233.456 363.967,243.718 363.967,166.502 339.528,156.24 				"/>
			</g>
			<g>
				<polygon style="fill:#494949;" points="363.967,145.979 388.406,156.24 363.967,166.502 339.528,156.24 				"/>
			</g>
		</g>
		<g>
			<g>
				<polygon style="fill:#F1F1F1;" points="326.706,126.334 347.87,117.447 347.87,247.067 326.706,255.953 				"/>
				<path style="fill:#494949;" d="M346.232,119.91v126.069l-17.89,7.511V127.421L346.232,119.91 M349.507,114.984l-24.438,10.261
					v133.17l24.438-10.26V114.984L349.507,114.984z"/>
			</g>
			<g>
				<polygon style="fill:#F1F1F1;" points="326.706,126.334 347.87,117.447 347.87,171.17 326.706,180.056 				"/>
				<path style="fill:#494949;" d="M346.232,119.91v50.173l-17.89,7.51v-50.171L346.232,119.91 M349.507,114.984l-24.438,10.261
					v57.273l24.438-10.26V114.984L349.507,114.984z"/>
			</g>
			<g>
				<polygon style="fill:#494949;" points="300.63,248.155 325.068,258.415 325.068,125.245 300.63,114.984 				"/>
			</g>
			<g>
				<polygon style="fill:#494949;" points="325.068,104.722 349.507,114.984 325.068,125.245 300.63,114.984 				"/>
			</g>
		</g>
	</g>
	<g>
		<g>
			<polygon style="fill:#494949;" points="70.089,249.098 70.089,88.489 66.544,88.489 66.544,249.098 66.544,252.644 
				70.089,252.644 230.698,252.644 230.698,249.098 			"/>
			<g>
				<rect x="82.789" y="249.23" style="fill:#494949;" width="3.545" height="9.186"/>
				<rect x="125.496" y="249.23" style="fill:#494949;" width="3.544" height="9.186"/>
				<rect x="168.201" y="249.23" style="fill:#494949;" width="3.546" height="9.186"/>
				<rect x="210.908" y="249.23" style="fill:#494949;" width="3.544" height="9.186"/>
			</g>
			<g>
				<rect x="60.368" y="104.734" style="fill:#494949;" width="9.185" height="3.546"/>
				<rect x="60.368" y="147.442" style="fill:#494949;" width="9.185" height="3.544"/>
				<rect x="60.368" y="190.146" style="fill:#494949;" width="9.185" height="3.545"/>
				<rect x="60.368" y="232.853" style="fill:#494949;" width="9.185" height="3.545"/>
			</g>
		</g>
		<g>
			<polygon style="fill:#494949;" points="214.524,156.221 214.524,249.33 185.956,249.33 185.956,156.221 200.24,145.705 			"/>
		</g>
		<polygon style="fill:#494949;" points="179.197,164.591 179.197,249.33 150.627,249.33 150.627,164.591 164.913,154.075 		"/>
		<g>
			<polygon style="fill:#494949;" points="143.87,139.913 143.87,249.33 115.299,249.33 115.299,139.913 129.585,129.396 			"/>
		</g>
		<polygon style="fill:#494949;" points="108.542,163.536 108.542,249.33 79.972,249.33 79.972,163.536 94.256,153.019 		"/>
		<g>
			<g>
				<polyline style="fill:none;stroke:#494949;stroke-width:6.9818;stroke-miterlimit:10;" points="68.404,131.169 94.257,145.705 
					129.585,114.322 164.912,144.82 200.24,123.577 213.078,134.126 				"/>
				<g>
					<polygon style="fill:#494949;" points="204.086,140.255 224.689,143.67 217.347,124.118 					"/>
				</g>
			</g>
		</g>
	</g>
	<g>
		<g>
			<path style="fill:#3D3D3C;" d="M397.954,771.646h0.745v-0.936c0-0.987,0.123-1.761,0.373-2.342
				c0.245-0.58,0.67-0.998,1.262-1.263c0.589-0.261,1.407-0.393,2.437-0.393c1.831,0,2.743,0.444,2.743,1.347
				c0,0.286-0.099,0.535-0.289,0.741c-0.189,0.203-0.414,0.31-0.673,0.31c-0.122,0-0.336-0.023-0.639-0.072
				c-0.286-0.041-0.548-0.068-0.752-0.068c-0.563,0-0.927,0.169-1.09,0.501c-0.158,0.332-0.24,0.81-0.24,1.431v0.745h0.767
				c1.194,0,1.789,0.361,1.789,1.082c0,0.506-0.155,0.831-0.476,0.97c-0.317,0.139-0.756,0.207-1.313,0.207h-0.767v8.299
				c0,0.615-0.144,1.088-0.444,1.41c-0.294,0.33-0.669,0.49-1.142,0.49c-0.439,0-0.809-0.16-1.106-0.49
				c-0.292-0.322-0.439-0.795-0.439-1.41v-8.299h-0.862c-0.467,0-0.826-0.1-1.079-0.315c-0.25-0.207-0.38-0.481-0.38-0.816
				C396.377,772.019,396.905,771.646,397.954,771.646z"/>
			<path style="fill:#3D3D3C;" d="M408.204,779.586v2.618c0,0.632-0.157,1.111-0.453,1.424c-0.299,0.321-0.674,0.477-1.131,0.477
				c-0.459,0-0.83-0.157-1.116-0.483c-0.293-0.318-0.438-0.794-0.438-1.417v-8.726c0-1.407,0.509-2.11,1.524-2.11
				c0.523,0,0.897,0.166,1.13,0.494c0.228,0.332,0.354,0.815,0.38,1.464c0.372-0.648,0.754-1.132,1.147-1.464
				c0.397-0.328,0.919-0.494,1.578-0.494c0.663,0,1.298,0.166,1.917,0.494c0.618,0.332,0.931,0.766,0.931,1.308
				c0,0.384-0.132,0.704-0.396,0.949c-0.266,0.25-0.543,0.371-0.853,0.371c-0.119,0-0.396-0.068-0.834-0.214
				c-0.443-0.139-0.83-0.208-1.165-0.208c-0.457,0-0.832,0.124-1.121,0.358c-0.291,0.245-0.52,0.6-0.679,1.07
				c-0.16,0.476-0.272,1.043-0.33,1.695C408.231,777.851,408.204,778.646,408.204,779.586z"/>
			<path style="fill:#3D3D3C;" d="M422.599,778.51h-6.128c0.009,0.706,0.151,1.339,0.432,1.878c0.277,0.544,0.648,0.952,1.112,1.229
				c0.469,0.273,0.975,0.412,1.532,0.412c0.376,0,0.716-0.043,1.025-0.138c0.311-0.082,0.613-0.22,0.901-0.408
				c0.292-0.185,0.557-0.386,0.804-0.602c0.244-0.216,0.562-0.507,0.953-0.873c0.163-0.135,0.392-0.207,0.686-0.207
				c0.321,0,0.58,0.088,0.783,0.264c0.2,0.182,0.296,0.426,0.296,0.745c0,0.287-0.108,0.614-0.326,0.993
				c-0.226,0.384-0.56,0.744-1.012,1.093c-0.444,0.345-1.01,0.641-1.686,0.863c-0.676,0.232-1.455,0.345-2.333,0.345
				c-2.013,0-3.575-0.567-4.688-1.718c-1.121-1.149-1.681-2.708-1.681-4.669c0-0.929,0.14-1.789,0.417-2.579
				c0.272-0.796,0.676-1.469,1.206-2.034c0.526-0.568,1.176-1.005,1.946-1.304c0.772-0.301,1.625-0.452,2.567-0.452
				c1.228,0,2.276,0.256,3.15,0.778c0.876,0.512,1.538,1.18,1.97,1.997c0.435,0.822,0.654,1.654,0.654,2.505
				c0,0.782-0.228,1.296-0.679,1.529C424.054,778.392,423.416,778.51,422.599,778.51z M416.471,776.729h5.68
				c-0.076-1.069-0.365-1.871-0.864-2.401c-0.5-0.531-1.16-0.796-1.98-0.796c-0.777,0-1.422,0.265-1.924,0.81
				C416.884,774.878,416.578,775.675,416.471,776.729z"/>
			<path style="fill:#3D3D3C;" d="M435.623,778.51h-6.126c0.008,0.706,0.152,1.339,0.431,1.878c0.277,0.544,0.65,0.952,1.112,1.229
				c0.46,0.273,0.975,0.412,1.532,0.412c0.371,0,0.718-0.043,1.023-0.138c0.313-0.082,0.61-0.22,0.905-0.408
				c0.288-0.185,0.556-0.386,0.803-0.602c0.24-0.216,0.561-0.507,0.949-0.873c0.163-0.135,0.394-0.207,0.687-0.207
				c0.324,0,0.586,0.088,0.786,0.264c0.198,0.182,0.291,0.426,0.291,0.745c0,0.287-0.106,0.614-0.332,0.993
				c-0.215,0.384-0.551,0.744-1.003,1.093c-0.444,0.345-1.012,0.641-1.686,0.863c-0.675,0.232-1.455,0.345-2.336,0.345
				c-2.007,0-3.572-0.567-4.689-1.718c-1.118-1.149-1.677-2.708-1.677-4.669c0-0.929,0.139-1.789,0.416-2.579
				c0.278-0.796,0.676-1.469,1.202-2.034c0.53-0.568,1.179-1.005,1.951-1.304c0.774-0.301,1.631-0.452,2.57-0.452
				c1.221,0,2.272,0.256,3.154,0.778c0.872,0.512,1.53,1.18,1.963,1.997c0.435,0.822,0.653,1.654,0.653,2.505
				c0,0.782-0.228,1.296-0.675,1.529C437.075,778.392,436.438,778.51,435.623,778.51z M429.497,776.729h5.68
				c-0.075-1.069-0.37-1.871-0.866-2.401c-0.503-0.531-1.161-0.796-1.982-0.796c-0.78,0-1.418,0.265-1.92,0.81
				C429.905,774.878,429.603,775.675,429.497,776.729z"/>
			<path style="fill:#3D3D3C;" d="M442.481,773.131v0.375c0.587-0.725,1.205-1.262,1.841-1.598c0.631-0.343,1.352-0.516,2.152-0.516
				c0.963,0,1.854,0.251,2.664,0.746c0.814,0.5,1.452,1.226,1.92,2.184c0.473,0.955,0.71,2.087,0.71,3.395
				c0,0.961-0.136,1.849-0.408,2.654c-0.268,0.809-0.646,1.482-1.117,2.032c-0.476,0.539-1.039,0.966-1.681,1.262
				c-0.65,0.29-1.344,0.438-2.088,0.438c-0.892,0-1.645-0.18-2.254-0.538c-0.607-0.354-1.185-0.89-1.739-1.58v4.703
				c0,1.373-0.502,2.065-1.5,2.065c-0.592,0-0.978-0.178-1.172-0.531c-0.186-0.361-0.284-0.875-0.284-1.56v-13.515
				c0-0.597,0.13-1.037,0.386-1.339c0.263-0.289,0.622-0.441,1.07-0.441c0.443,0,0.807,0.152,1.082,0.453
				C442.346,772.127,442.481,772.559,442.481,773.131z M448.62,777.683c0-0.828-0.124-1.537-0.378-2.129
				c-0.25-0.595-0.601-1.047-1.045-1.361c-0.446-0.318-0.946-0.479-1.489-0.479c-0.862,0-1.594,0.341-2.184,1.018
				c-0.596,0.686-0.89,1.684-0.89,3.01c0,1.242,0.292,2.215,0.882,2.906c0.59,0.693,1.314,1.037,2.191,1.037
				c0.519,0,1.005-0.151,1.446-0.449c0.444-0.303,0.802-0.755,1.068-1.36C448.491,779.268,448.62,778.536,448.62,777.683z"/>
			<path style="fill:#3D3D3C;" d="M454.921,769.911c-0.438,0-0.806-0.138-1.114-0.402c-0.311-0.271-0.47-0.644-0.47-1.129
				c0-0.445,0.161-0.813,0.478-1.101c0.317-0.282,0.686-0.429,1.106-0.429c0.408,0,0.765,0.131,1.082,0.384
				c0.311,0.264,0.472,0.645,0.472,1.146c0,0.478-0.156,0.856-0.462,1.126C455.707,769.773,455.344,769.911,454.921,769.911z
				 M456.475,773.148v9.056c0,0.623-0.153,1.099-0.449,1.417c-0.302,0.326-0.679,0.483-1.141,0.483c-0.457,0-0.827-0.16-1.113-0.49
				c-0.289-0.335-0.435-0.802-0.435-1.41v-8.966c0-0.619,0.146-1.086,0.435-1.396c0.286-0.318,0.656-0.474,1.113-0.474
				c0.462,0,0.839,0.155,1.141,0.474C456.321,772.152,456.475,772.593,456.475,773.148z"/>
			<path style="fill:#3D3D3C;" d="M466.568,782.677l-2.761-4.55l-1.702,1.604v2.495c0,0.6-0.16,1.065-0.478,1.388
				c-0.311,0.33-0.681,0.49-1.093,0.49c-0.482,0-0.862-0.157-1.135-0.483c-0.276-0.318-0.416-0.794-0.416-1.417v-13.36
				c0-0.69,0.134-1.223,0.4-1.589c0.268-0.365,0.655-0.542,1.15-0.542c0.482,0,0.862,0.163,1.143,0.496
				c0.289,0.325,0.428,0.812,0.428,1.449v7.602l3.523-3.7c0.439-0.453,0.765-0.771,0.999-0.94c0.227-0.164,0.508-0.252,0.834-0.252
				c0.393,0,0.716,0.125,0.983,0.375c0.253,0.248,0.384,0.559,0.384,0.934c0,0.456-0.426,1.072-1.274,1.837l-1.66,1.523l3.214,5.051
				c0.23,0.378,0.405,0.655,0.507,0.851c0.107,0.195,0.157,0.391,0.157,0.56c0,0.5-0.135,0.887-0.408,1.18
				c-0.271,0.284-0.631,0.426-1.068,0.426c-0.389,0-0.682-0.096-0.893-0.31C467.201,783.585,466.918,783.212,466.568,782.677z"/>
			<path style="fill:#3D3D3C;" d="M473.371,784.104c-0.472,0-0.882-0.155-1.226-0.461c-0.344-0.301-0.518-0.731-0.518-1.283
				c0-0.469,0.169-0.87,0.494-1.204c0.332-0.335,0.737-0.504,1.218-0.504c0.482,0,0.889,0.169,1.236,0.497
				c0.337,0.334,0.512,0.741,0.512,1.211c0,0.545-0.175,0.974-0.512,1.281C474.228,783.949,473.828,784.104,473.371,784.104z"/>
			<path style="fill:#3D3D3C;" d="M488.943,780.227c0,0.388-0.115,0.807-0.35,1.252c-0.234,0.444-0.588,0.867-1.066,1.269
				c-0.479,0.399-1.076,0.725-1.808,0.967c-0.729,0.246-1.545,0.371-2.452,0.371c-1.938,0-3.448-0.566-4.539-1.691
				c-1.081-1.128-1.622-2.646-1.622-4.541c0-1.289,0.244-2.418,0.743-3.409c0.494-0.984,1.215-1.746,2.156-2.288
				c0.939-0.538,2.069-0.807,3.37-0.807c0.813,0,1.558,0.117,2.237,0.357c0.679,0.233,1.249,0.545,1.722,0.914
				c0.465,0.38,0.825,0.776,1.074,1.199c0.25,0.426,0.373,0.821,0.373,1.192c0,0.373-0.138,0.69-0.419,0.947
				c-0.28,0.265-0.618,0.394-1.014,0.394c-0.263,0-0.478-0.067-0.647-0.201c-0.176-0.135-0.367-0.351-0.58-0.653
				c-0.382-0.577-0.782-1.015-1.201-1.301c-0.416-0.295-0.947-0.44-1.591-0.44c-0.918,0-1.664,0.362-2.235,1.083
				c-0.566,0.722-0.849,1.714-0.849,2.964c0,0.591,0.076,1.136,0.22,1.628c0.143,0.489,0.35,0.912,0.629,1.259
				c0.279,0.35,0.607,0.61,0.997,0.793c0.394,0.184,0.821,0.271,1.284,0.271c0.633,0,1.165-0.146,1.613-0.436
				c0.457-0.289,0.85-0.734,1.191-1.334c0.192-0.348,0.397-0.62,0.614-0.82c0.224-0.2,0.499-0.303,0.818-0.303
				c0.387,0,0.701,0.148,0.953,0.438C488.819,779.59,488.943,779.901,488.943,780.227z"/>
			<path style="fill:#3D3D3C;" d="M502.461,777.74c0,0.931-0.148,1.792-0.431,2.582c-0.298,0.789-0.715,1.464-1.27,2.026
				c-0.545,0.567-1.208,1.001-1.97,1.304c-0.771,0.297-1.627,0.452-2.582,0.452c-0.949,0-1.801-0.155-2.56-0.461
				c-0.754-0.301-1.417-0.741-1.965-1.305c-0.556-0.577-0.979-1.25-1.271-2.029c-0.276-0.775-0.426-1.631-0.426-2.569
				c0-0.951,0.153-1.818,0.439-2.607c0.29-0.79,0.708-1.463,1.254-2.017c0.544-0.56,1.199-0.989,1.969-1.295
				c0.775-0.301,1.628-0.453,2.56-0.453c0.951,0,1.81,0.152,2.582,0.462c0.771,0.303,1.431,0.741,1.985,1.304
				c0.552,0.567,0.968,1.241,1.256,2.018C502.314,775.938,502.461,776.796,502.461,777.74z M499.317,777.74
				c0-1.279-0.285-2.269-0.845-2.984c-0.56-0.716-1.314-1.07-2.265-1.07c-0.614,0-1.151,0.162-1.621,0.478
				c-0.465,0.316-0.822,0.783-1.075,1.404c-0.251,0.623-0.383,1.344-0.383,2.173c0,0.818,0.124,1.531,0.373,2.139
				c0.253,0.619,0.607,1.086,1.072,1.409c0.465,0.321,1.009,0.49,1.634,0.49c0.951,0,1.705-0.361,2.265-1.077
				C499.032,779.985,499.317,778.997,499.317,777.74z"/>
			<path style="fill:#3D3D3C;" d="M514.405,777.972v4.16c0,0.661-0.147,1.148-0.447,1.483c-0.3,0.33-0.693,0.49-1.184,0.49
				c-0.472,0-0.862-0.16-1.147-0.49c-0.297-0.335-0.449-0.821-0.449-1.483v-4.988c0-0.789-0.025-1.401-0.075-1.84
				c-0.058-0.429-0.204-0.794-0.439-1.07c-0.233-0.278-0.611-0.421-1.123-0.421c-1.026,0-1.698,0.351-2.025,1.063
				c-0.323,0.696-0.488,1.707-0.488,3.026v4.23c0,0.651-0.149,1.142-0.441,1.477c-0.296,0.33-0.683,0.496-1.166,0.496
				c-0.475,0-0.861-0.166-1.162-0.496c-0.303-0.335-0.458-0.825-0.458-1.477v-8.962c0-0.586,0.138-1.037,0.409-1.34
				c0.274-0.31,0.631-0.462,1.073-0.462c0.432,0,0.786,0.149,1.076,0.433c0.285,0.288,0.427,0.679,0.427,1.189v0.294
				c0.549-0.645,1.126-1.125,1.748-1.429c0.619-0.309,1.303-0.462,2.063-0.462c0.789,0,1.467,0.157,2.031,0.47
				c0.567,0.315,1.031,0.789,1.401,1.421c0.525-0.638,1.094-1.115,1.696-1.429c0.609-0.309,1.273-0.462,2.009-0.462
				c0.856,0,1.598,0.173,2.216,0.504c0.62,0.339,1.078,0.823,1.382,1.445c0.271,0.57,0.403,1.459,0.403,2.679v6.111
				c0,0.661-0.15,1.148-0.443,1.483c-0.299,0.33-0.691,0.49-1.184,0.49c-0.473,0-0.863-0.166-1.165-0.496
				c-0.303-0.335-0.45-0.825-0.45-1.477v-5.268c0-0.673-0.03-1.209-0.089-1.614c-0.053-0.405-0.212-0.746-0.463-1.022
				c-0.256-0.272-0.638-0.414-1.149-0.414c-0.413,0-0.803,0.125-1.175,0.37c-0.37,0.242-0.659,0.573-0.869,0.982
				C514.521,775.69,514.405,776.629,514.405,777.972z"/>
			<g>
				<path style="fill-rule:evenodd;clip-rule:evenodd;fill:#3D3D3C;" d="M376.265,785.201c0,0-1.712-0.272-3.377-2.097
					c-1.68-1.839-1.963-3.789-1.963-3.789s2.13,0.504,3.662,0.67c2.695,0.307,5.124,0.137,6.27,0.014
					c2.48-0.273,3.799-0.731,4.333-0.864c3.169-0.757,6.213-2.809,6.213-2.809s0.384,2.38-1.407,5.02
					c-0.697,1.03-2.086,2.215-3.687,3.03C380.828,786.711,376.265,785.201,376.265,785.201z"/>
				<path style="fill-rule:evenodd;clip-rule:evenodd;fill:#3D3D3C;" d="M389.214,771.679c-0.592-0.714-2.553-4.078-6.523-4.56
					c-1.018-0.121-6.384,0.085-9.603,3.068c-0.321,0.299-1.956,1.736-2.5,4.408c-0.421,2.065,0.272,4.395,0.272,4.395
					s3.57,0.742,6.262,0.675c4.268-0.107,6.414-0.483,8.647-1.158c3.287-0.999,5.611-2.663,5.611-2.663
					S389.806,772.398,389.214,771.679z M376.897,776.796c-1.805,0.12-3.359-1.242-3.471-3.039c-0.114-1.79,1.26-3.345,3.064-3.455
					c1.807-0.125,3.362,1.244,3.47,3.035C380.078,775.133,378.702,776.683,376.897,776.796z M386.117,774.479
					c-1.137,0.067-2.116-0.786-2.187-1.919c-0.068-1.124,0.796-2.1,1.931-2.174c1.133-0.074,2.117,0.79,2.183,1.913
					C388.119,773.432,387.25,774.408,386.117,774.479z"/>
				<path style="fill-rule:evenodd;clip-rule:evenodd;fill:#3D3D3C;" d="M387.668,769.356l1.037-1.249c0,0,1.432,0.705,2.352,2.035
					c0.918,1.32,1.513,2.531,1.513,2.531l-1.71,1.041c0,0-0.531-1.276-1.326-2.302C388.743,770.394,387.668,769.356,387.668,769.356
					z"/>
				<path style="fill-rule:evenodd;clip-rule:evenodd;fill:#3D3D3C;" d="M390.925,770.219c0.267-0.161,0.72-0.183,0.692-0.567
					c-0.017-0.374-0.272-1.122,0.469-1.375c0.754-0.256,0.332,0.221,0.073,0.551c-0.259,0.328-0.175,0.529-0.142,1.016
					c0.027,0.476-0.311,0.637-0.82,0.872C390.691,770.959,390.658,770.378,390.925,770.219z"/>
				<path style="fill-rule:evenodd;clip-rule:evenodd;fill:#3D3D3C;" d="M371.899,770.982c0,0-1.2,1.396-1.506,2.655
					c-0.303,1.267-0.241,2.787-0.241,2.787l-1.781-0.612c0,0-0.1-1.747,0.706-3.161c0.904-1.566,2.054-2.273,2.054-2.273
					L371.899,770.982z"/>
				<path style="fill-rule:evenodd;clip-rule:evenodd;fill:#3D3D3C;" d="M369.284,772.571c-0.29-0.19-0.317-0.641-0.545-0.936
					c-0.228-0.299-0.285-0.118-0.806-0.118c-0.523-0.005-0.537-0.247-0.687-0.372c-0.147-0.13-0.216,0.391-0.216,0.391
					s0.097,0.445,0.656,0.477c0.555,0.037,0.541-0.238,0.781,0.263c0.239,0.506,0.716,0.89,0.716,0.89
					S369.576,772.759,369.284,772.571z"/>
				<path style="fill-rule:evenodd;clip-rule:evenodd;fill:#3D3D3C;" d="M378.719,765.948c2.916-0.73,4.741,0.112,4.741,0.112
					l-0.154,0.838c0,0-2.134-0.142-3.823,0.11c-1.688,0.241-2.456,0.773-2.456,0.773l-0.367-0.838
					C376.66,766.944,377.459,766.265,378.719,765.948z"/>
				<path style="fill-rule:evenodd;clip-rule:evenodd;fill:#3D3D3C;" d="M379.594,764.751l0.409-0.153l0.542,1.457l-0.408,0.151
					L379.594,764.751z"/>
				<path style="fill-rule:evenodd;clip-rule:evenodd;fill:#3D3D3C;" d="M392.44,767.451c0.414-0.023,0.764,0.289,0.79,0.702
					c0.027,0.409-0.286,0.761-0.698,0.785c-0.412,0.031-0.762-0.286-0.79-0.694C391.717,767.835,392.028,767.487,392.44,767.451z"/>
				<path style="fill-rule:evenodd;clip-rule:evenodd;fill:#3D3D3C;" d="M366.826,770.271c0.414-0.023,0.768,0.286,0.792,0.694
					c0.023,0.41-0.286,0.759-0.699,0.787c-0.412,0.029-0.763-0.283-0.794-0.692C366.103,770.651,366.417,770.302,366.826,770.271z"
					/>
				<path style="fill-rule:evenodd;clip-rule:evenodd;fill:#3D3D3C;" d="M379.95,762.894c0.655-0.041,1.22,0.45,1.259,1.105
					c0.042,0.649-0.457,1.211-1.113,1.254c-0.656,0.046-1.217-0.452-1.261-1.107C378.793,763.496,379.294,762.932,379.95,762.894z"
					/>
			</g>
		</g>
		<g>
			<path style="fill:#3D3D3C;" d="M286.781,782.381c0,0.735-0.462,1.218-1.102,1.218c-0.603,0-0.956-0.333-1.089-0.916
				c-0.414,0.672-1.26,1.004-2.006,1.004c-2.206,0-3.602-2.047-3.602-4.116c0-2.133,1.169-4.335,3.525-4.335
				c0.759,0,1.505,0.262,2.083,0.765v-2.984c0-0.724,0.453-1.21,1.089-1.21c0.639,0,1.102,0.486,1.102,1.21V782.381z
				 M282.871,777.244c-1.14,0-1.701,1.197-1.701,2.235c0,1.018,0.561,2.204,1.701,2.204c1.199,0,1.719-1.218,1.719-2.281
				C284.59,778.336,284.042,777.244,282.871,777.244z"/>
			<path style="fill:#3D3D3C;" d="M289.784,780.19c0.156,1.08,1.05,1.584,2.071,1.584c1.123,0,1.897-0.883,2.477-0.883
				c0.471,0,0.893,0.47,0.893,0.946c0,0.942-1.944,1.85-3.568,1.85c-2.463,0-4.105-1.795-4.105-4.207
				c0-2.219,1.612-4.244,3.921-4.244c2.369,0,3.939,2.164,3.939,3.984c0,0.654-0.29,0.97-0.96,0.97H289.784z M293.223,778.732
				c-0.122-0.961-0.73-1.667-1.75-1.667c-0.972,0-1.628,0.738-1.732,1.667H293.223z"/>
			<path style="fill:#3D3D3C;" d="M300.792,777.792c-0.412,0-1.249-0.639-1.963-0.639c-0.392,0-0.745,0.181-0.745,0.607
				c0,1.017,3.801,0.868,3.801,3.364c0,1.455-1.23,2.563-3.117,2.563c-1.23,0-3.053-0.697-3.053-1.684
				c0-0.336,0.334-0.973,0.942-0.973c0.849,0,1.23,0.743,2.264,0.743c0.669,0,0.868-0.212,0.868-0.624
				c0-1.004-3.803-0.85-3.803-3.357c0-1.519,1.233-2.557,2.962-2.557c1.082,0,2.739,0.507,2.739,1.586
				C301.686,777.319,301.306,777.792,300.792,777.792z"/>
			<path style="fill:#3D3D3C;" d="M304.954,773.245c0,0.689-0.545,1.262-1.232,1.262c-0.653,0-1.229-0.592-1.229-1.262
				c0-0.623,0.576-1.195,1.229-1.195C304.375,772.05,304.954,772.606,304.954,773.245z M302.629,776.547
				c0-0.731,0.455-1.218,1.093-1.218s1.095,0.486,1.095,1.218v5.834c0,0.735-0.457,1.218-1.095,1.218s-1.093-0.482-1.093-1.218
				V776.547z"/>
			<path style="fill:#3D3D3C;" d="M313.511,782.871c0,2.625-1.718,3.954-4.211,3.954c-0.896,0-3.451-0.444-3.451-1.648
				c0-0.409,0.456-0.957,0.884-0.957c0.699,0,1.473,0.681,2.733,0.681c1.064,0,1.855-0.616,1.855-1.731v-0.514h-0.031
				c-0.454,0.667-1.199,1.029-2.202,1.029c-2.295,0-3.378-2.02-3.378-4.19c0-2.207,1.4-4.261,3.605-4.261
				c0.745,0,1.594,0.336,2.005,1.003c0.138-0.576,0.485-0.909,1.094-0.909c0.638,0,1.094,0.486,1.094,1.218V782.871z
				 M309.602,777.244c-1.137,0-1.699,1.186-1.699,2.207c0,1.166,0.562,2.232,1.699,2.232c1.171,0,1.72-1.092,1.72-2.166
				C311.322,778.462,310.804,777.244,309.602,777.244z"/>
			<path style="fill:#3D3D3C;" d="M314.755,776.547c0-0.731,0.455-1.218,1.094-1.218c0.566,0,0.929,0.303,1.002,0.809
				c0.432-0.597,1.082-0.902,2.113-0.902c1.719,0,2.995,1.096,2.995,2.949v4.196c0,0.735-0.452,1.218-1.092,1.218
				c-0.638,0-1.097-0.482-1.097-1.218v-3.816c0-1.015-0.637-1.499-1.429-1.499c-0.892,0-1.396,0.652-1.396,1.499v3.816
				c0,0.735-0.459,1.218-1.097,1.218c-0.64,0-1.094-0.482-1.094-1.218V776.547z"/>
			<path style="fill:#3D3D3C;" d="M324.969,780.19c0.153,1.08,1.05,1.584,2.067,1.584c1.125,0,1.899-0.883,2.478-0.883
				c0.47,0,0.898,0.47,0.898,0.946c0,0.942-1.948,1.85-3.573,1.85c-2.465,0-4.104-1.795-4.104-4.207
				c0-2.219,1.611-4.244,3.923-4.244c2.37,0,3.933,2.164,3.933,3.984c0,0.654-0.288,0.97-0.956,0.97H324.969z M328.404,778.732
				c-0.122-0.961-0.728-1.667-1.746-1.667c-0.976,0-1.63,0.738-1.734,1.667H328.404z"/>
			<path style="fill:#3D3D3C;" d="M338.845,782.381c0,0.735-0.454,1.218-1.096,1.218c-0.605,0-0.956-0.333-1.091-0.916
				c-0.413,0.672-1.261,1.004-2.009,1.004c-2.203,0-3.598-2.047-3.598-4.116c0-2.133,1.168-4.335,3.525-4.335
				c0.758,0,1.502,0.262,2.082,0.765v-2.984c0-0.724,0.455-1.21,1.091-1.21c0.642,0,1.096,0.486,1.096,1.21V782.381z
				 M334.941,777.244c-1.14,0-1.702,1.197-1.702,2.235c0,1.018,0.562,2.204,1.702,2.204c1.198,0,1.717-1.218,1.717-2.281
				C336.658,778.336,336.112,777.244,334.941,777.244z"/>
			<path style="fill:#3D3D3C;" d="M344.164,773.016c0-0.724,0.459-1.21,1.099-1.21c0.635,0,1.09,0.486,1.09,1.21V776
				c0.581-0.503,1.323-0.765,2.082-0.765c2.358,0,3.527,2.202,3.527,4.335c0,2.069-1.397,4.116-3.603,4.116
				c-0.744,0-1.595-0.332-2.006-1.004c-0.137,0.583-0.484,0.916-1.09,0.916c-0.64,0-1.099-0.482-1.099-1.218V773.016z
				 M348.071,781.684c1.138,0,1.703-1.186,1.703-2.204c0-1.038-0.564-2.235-1.703-2.235c-1.17,0-1.718,1.092-1.718,2.158
				C346.352,780.466,346.872,781.684,348.071,781.684z"/>
			<path style="fill:#3D3D3C;" d="M352.341,776.832c-0.061-0.164-0.107-0.337-0.107-0.559c0-0.55,0.578-0.944,1.033-0.944
				c0.531,0,0.914,0.293,1.097,0.775l1.502,4.119l1.61-4.119c0.182-0.482,0.563-0.775,1.096-0.775c0.459,0,1.033,0.394,1.033,0.944
				c0,0.222-0.031,0.395-0.103,0.559l-3.664,9.123c-0.184,0.453-0.519,0.87-1.034,0.87c-0.742,0-1.142-0.479-1.142-0.945
				c0-0.217,0.062-0.444,0.136-0.641l0.961-2.368L352.341,776.832z"/>
		</g>
	</g>
	
		<radialGradient id="SVGID_00000009563817830531417150000008736165221741245866_" cx="146.5468" cy="276.687" r="93.2357" gradientTransform="matrix(1 0 0 0.0696 0 257.4371)" gradientUnits="userSpaceOnUse">
		<stop  offset="0" style="stop-color:#000100"/>
		<stop  offset="1" style="stop-color:#000100;stop-opacity:0"/>
	</radialGradient>
	<path style="opacity:0.1;fill:url(#SVGID_00000009563817830531417150000008736165221741245866_);" d="M240.899,276.687
		c0,3.42-42.243,6.193-94.352,6.193s-94.352-2.773-94.352-6.193c0-3.42,42.243-6.193,94.352-6.193S240.899,273.267,240.899,276.687z
		"/>
	
		<radialGradient id="SVGID_00000018953282901264789680000016435006212327124367_" cx="403.2622" cy="276.687" r="93.2357" gradientTransform="matrix(1 0 0 0.0696 0 257.4371)" gradientUnits="userSpaceOnUse">
		<stop  offset="0" style="stop-color:#000100"/>
		<stop  offset="1" style="stop-color:#000100;stop-opacity:0"/>
	</radialGradient>
	<path style="opacity:0.1;fill:url(#SVGID_00000018953282901264789680000016435006212327124367_);" d="M497.614,276.687
		c0,3.42-42.243,6.193-94.352,6.193c-52.109,0-94.353-2.773-94.353-6.193c0-3.42,42.243-6.193,94.353-6.193
		C455.371,270.494,497.614,273.267,497.614,276.687z"/>
	
		<radialGradient id="SVGID_00000117669071410583248660000004677358245230412451_" cx="659.978" cy="276.687" r="93.2357" gradientTransform="matrix(1 0 0 0.0696 0 257.4371)" gradientUnits="userSpaceOnUse">
		<stop  offset="0" style="stop-color:#000100"/>
		<stop  offset="1" style="stop-color:#000100;stop-opacity:0"/>
	</radialGradient>
	<path style="opacity:0.1;fill:url(#SVGID_00000117669071410583248660000004677358245230412451_);" d="M754.33,276.687
		c0,3.42-42.243,6.193-94.353,6.193c-52.109,0-94.352-2.773-94.352-6.193c0-3.42,42.242-6.193,94.352-6.193
		C712.087,270.494,754.33,273.267,754.33,276.687z"/>
	
		<radialGradient id="SVGID_00000001630349189263542530000018106081276276706706_" cx="146.5468" cy="497.0215" r="93.2357" gradientTransform="matrix(1 0 0 0.0696 0 462.4422)" gradientUnits="userSpaceOnUse">
		<stop  offset="0" style="stop-color:#000100"/>
		<stop  offset="1" style="stop-color:#000100;stop-opacity:0"/>
	</radialGradient>
	<path style="opacity:0.1;fill:url(#SVGID_00000001630349189263542530000018106081276276706706_);" d="M240.899,497.022
		c0,3.421-42.243,6.193-94.352,6.193s-94.352-2.772-94.352-6.193c0-3.42,42.243-6.193,94.352-6.193S240.899,493.602,240.899,497.022
		z"/>
	
		<radialGradient id="SVGID_00000100345971585077498740000017213131868240944535_" cx="403.2622" cy="497.0215" r="93.2357" gradientTransform="matrix(1 0 0 0.0696 0 462.4422)" gradientUnits="userSpaceOnUse">
		<stop  offset="0" style="stop-color:#000100"/>
		<stop  offset="1" style="stop-color:#000100;stop-opacity:0"/>
	</radialGradient>
	<path style="opacity:0.1;fill:url(#SVGID_00000100345971585077498740000017213131868240944535_);" d="M497.614,497.022
		c0,3.421-42.243,6.193-94.352,6.193c-52.109,0-94.353-2.772-94.353-6.193c0-3.42,42.243-6.193,94.353-6.193
		C455.371,490.828,497.614,493.602,497.614,497.022z"/>
	
		<radialGradient id="SVGID_00000111187755820498578070000014669360711445698489_" cx="659.978" cy="497.0215" r="93.2357" gradientTransform="matrix(1 0 0 0.0696 0 462.4422)" gradientUnits="userSpaceOnUse">
		<stop  offset="0" style="stop-color:#000100"/>
		<stop  offset="1" style="stop-color:#000100;stop-opacity:0"/>
	</radialGradient>
	<path style="opacity:0.1;fill:url(#SVGID_00000111187755820498578070000014669360711445698489_);" d="M754.33,497.022
		c0,3.421-42.243,6.193-94.353,6.193c-52.109,0-94.352-2.772-94.352-6.193c0-3.42,42.242-6.193,94.352-6.193
		C712.087,490.828,754.33,493.602,754.33,497.022z"/>
	
		<radialGradient id="SVGID_00000116937262931506539240000002988767515307858855_" cx="146.5468" cy="717.3564" r="93.2357" gradientTransform="matrix(1 0 0 0.0696 0 667.4478)" gradientUnits="userSpaceOnUse">
		<stop  offset="0" style="stop-color:#000100"/>
		<stop  offset="1" style="stop-color:#000100;stop-opacity:0"/>
	</radialGradient>
	<path style="opacity:0.1;fill:url(#SVGID_00000116937262931506539240000002988767515307858855_);" d="M240.899,717.356
		c0,3.421-42.243,6.193-94.352,6.193s-94.352-2.773-94.352-6.193c0-3.42,42.243-6.193,94.352-6.193S240.899,713.937,240.899,717.356
		z"/>
	
		<radialGradient id="SVGID_00000115487248485388659420000000887410205455263630_" cx="403.2622" cy="717.3564" r="93.2357" gradientTransform="matrix(1 0 0 0.0696 0 667.4478)" gradientUnits="userSpaceOnUse">
		<stop  offset="0" style="stop-color:#000100"/>
		<stop  offset="1" style="stop-color:#000100;stop-opacity:0"/>
	</radialGradient>
	<path style="opacity:0.1;fill:url(#SVGID_00000115487248485388659420000000887410205455263630_);" d="M497.614,717.356
		c0,3.421-42.243,6.193-94.352,6.193c-52.109,0-94.353-2.773-94.353-6.193c0-3.42,42.243-6.193,94.353-6.193
		C455.371,711.163,497.614,713.937,497.614,717.356z"/>
	
		<radialGradient id="SVGID_00000106837875071736680350000012397932066133124003_" cx="659.978" cy="717.3564" r="93.2357" gradientTransform="matrix(1 0 0 0.0696 0 667.4478)" gradientUnits="userSpaceOnUse">
		<stop  offset="0" style="stop-color:#000100"/>
		<stop  offset="1" style="stop-color:#000100;stop-opacity:0"/>
	</radialGradient>
	<path style="opacity:0.1;fill:url(#SVGID_00000106837875071736680350000012397932066133124003_);" d="M754.33,717.356
		c0,3.421-42.243,6.193-94.353,6.193c-52.109,0-94.352-2.773-94.352-6.193c0-3.42,42.242-6.193,94.352-6.193
		C712.087,711.163,754.33,713.937,754.33,717.356z"/>
</g>
</svg>
